<svg version="1.2" xmlns="http://www.w3.org/2000/svg" viewBox="0 0 100 100" width="100" height="100"><style>.a{fill:none;stroke:#a7a9ac;stroke-linecap:round;stroke-linejoin:round;stroke-width:2}</style><path fill-rule="evenodd" class="a" d="m51.6 62.2h8.7c0 0 2.3-5.3 0-10.3 0 0-1.3-2.7-10.7-1.2"/><path class="a" d="m50 49.6c-3.9 0-7-3.1-7-7 0-3.9 3.1-7 7-7 3.9 0 7 3.1 7 7 0 3.9-3.1 7-7 7z"/><path fill-rule="evenodd" class="a" d="m47.8 62.2h-8.8c0 0-2.3-5.3 0-10.3 0 0 1.3-2.7 10.7-1.2"/><path class="a" d="m43 58.2v3.4"/><path class="a" d="m57 58.2v3.4"/><path class="a" d="m45.3 17.6h8.8"/><path class="a" d="m39.6 13.7h5.1v12.7h-5.1z"/><path class="a" d="m55 13.7h5.1v12.7h-5.1z"/><path class="a" d="m45.3 22.3h8.8"/><path fill-rule="evenodd" class="a" d="m34.4 24.9c0 0-6.3 3.9-10.5 10.7"/><path fill-rule="evenodd" class="a" d="m24.6 65c0 0 3.9 6.3 10.7 10.5"/><path fill-rule="evenodd" class="a" d="m65.7 75.6c0 0 6.3-3.9 10.5-10.7"/><path fill-rule="evenodd" class="a" d="m75.2 34.8c0 0-3.9-6.3-10.7-10.5"/><path class="a" d="m72.1 43.6v-4.6h13.6v21.6h-13.6v-12.7"/><path class="a" d="m72.1 56.2h13.1"/><path fill-rule="evenodd" class="a" d="m49.7 86.5c0 0-9.6-5.8-8.8-12.6 0.8-6.8 10.7-2.2 9.1-1.8"/><path fill-rule="evenodd" class="a" d="m50.2 86.4c0 0 9.6-5.8 8.8-12.6-0.8-6.8-10.7-2.2-9.1-1.8"/><path fill-rule="evenodd" class="a" d="m24.4 41.5l-4.3-3.7c0 0-16.9 11 0 23.7 0 0 13.4-4 7.1-17.4"/><path class="a" d="m20.8 45.6v8.8"/></svg>