<svg id="eG8MFtA6bu71" xmlns="http://www.w3.org/2000/svg" xmlns:xlink="http://www.w3.org/1999/xlink" viewBox="0 0 100 100" shape-rendering="geometricPrecision" text-rendering="geometricPrecision"><path id="eG8MFtA6bu72" d="M78.72,50.09c-.01,15.83-12.88,28.66-28.7,28.63-15.83-.03-28.64-12.89-28.61-28.73.03-15.79,12.86-28.59,28.66-28.58c15.83,0,28.66,12.85,28.65,28.68ZM65.41,71.04c1.36-1.3,2.63-2.49,3.87-3.73.13-.13.11-.51.05-.74-.33-1.15-.8-2.26-1.02-3.43-.31-1.66-.35-3.38-.67-5.04-.37-1.92-1.42-3.31-3.5-3.68-.4-.07-.79-.23-1.15-.42-1.18-.59-1.6-1.54-1.13-2.76.29-.75.69-1.5,1.17-2.15c1.17-1.58,2.42-3.08,3.62-4.64c1.1-1.42.92-2.32-.61-3.29-.25-.16-.5-.31-.76-.45-3.34-1.69-4.38-4.57-4.02-8.06.18-1.79.61-3.56.97-5.52-1.52-.59-3.13-1.19-4.71-1.84-.8-.33-1.2-.14-1.6.67-1.37,2.81-2.59,5.72-4.84,8-1.13,1.14-1.61,2.46-1.62,4.1-.03,3.78-1.4,4.02-3.95,3.99-1.36-.02-1.9.37-2.12,1.7-.21,1.27-.26,2.56-.37,3.84-.27,3.06-1.52,4.84-4.16,5.54-3.4.9-6.91.84-10.39.66-1.5-.08-2.22-1.19-1.84-2.67.23-.92.69-1.79,1.06-2.68.67-1.58,1.51-3.12,2.01-4.75.67-2.19-.62-4.2-2.86-4.84-2.5,4.21-3.31,11.24-1.9,17.25c1.04,4.44,3.16,8.31,6.39,11.74.23-1.11.42-2.05.63-2.99.56-2.54,1.32-4.99,3.21-6.91c1.86-1.9,3.7-2.03,5.74-.35c2.5,2.06,5.37,3.34,8.53,3.88c2.54.44,5.1.7,7.65,1.05c2.47.34,4.33,1.36,4.81,4.08.1.54.49,1.07.86,1.51.79.94,1.65,1.82,2.65,2.91v.02Z" fill="#a7a9ac" stroke-width="0"/><g id="eG8MFtA6bu73"><path d="M95.07,44.09c-1.73,2.21-3.45,4.43-5.19,6.63-.72.91-1.43,1-2.34.29-2.01-1.56-4.01-3.14-6.01-4.72-.8-.63-.96-1.48-.45-2.13.52-.67,1.34-.71,2.17-.07c1.22.94,2.43,1.89,3.64,2.83.1-.04.2-.09.3-.13-.43-2.19-.67-4.45-1.33-6.57C81.2,25.27,71.17,16.1,55.74,13.43C40.42,10.78,25.16,18.45,17.6,32.05c-.71,1.27-1.41,1.63-2.24,1.15-.82-.47-.91-1.29-.19-2.52C22,19,32.09,12.06,45.54,10.43C66.43,7.9,85.71,22.34,89.4,43.05c.18.99.3,2,.47,3.18.87-1.11,1.64-2.1,2.42-3.07.98-1.22,1.87-1.19,2.79.09v.88l-.01-.04Z" fill="#a7a9ac" stroke-width="0"/><path d="M10.25,53.98c-.87,1.11-1.66,2.12-2.46,3.12-.69.86-1.52,1.03-2.19.47-.67-.55-.69-1.32-.03-2.17c1.56-2.01,3.13-4.02,4.72-6.01.7-.88,1.4-.98,2.27-.3c2.04,1.58,4.06,3.17,6.08,4.78.79.63.94,1.5.41,2.14-.54.66-1.34.68-2.18.03-1.2-.92-2.39-1.86-3.58-2.8-.08.03-.17.06-.25.08.24,1.5.4,3.02.72,4.51c3.12,14.8,15.15,26.32,30.07,28.83c15.63,2.62,30.95-4.71,38.69-18.52.16-.28.3-.58.5-.82.46-.57,1.06-.73,1.72-.38.65.35.89.92.68,1.63-.08.28-.23.54-.37.79C78.24,81.1,68.14,88.04,54.67,89.74C34.43,92.3,15.14,78.4,11.04,58.46c-.29-1.43-.51-2.88-.79-4.47v-.01Z" fill="#a7a9ac" stroke-width="0"/></g> 
</svg>
