<svg id="eQbxNhGRX841" xmlns="http://www.w3.org/2000/svg" xmlns:xlink="http://www.w3.org/1999/xlink" viewBox="0 0 100 100" shape-rendering="geometricPrecision" text-rendering="geometricPrecision"><path d="M49.83,33.04c4.21-.08,7.73,3.46,7.72,7.68c0,4.21-3.35,7.72-7.69,7.73s-7.73-3.43-7.74-7.71c-.02-4.28,3.5-7.77,7.71-7.7Zm-4.36,7.67c-.11,2.42,2.05,4.39,4.3,4.42c2.36.03,4.45-1.92,4.46-4.35c0-2.44-1.94-4.4-4.37-4.42-2.42-.02-4.45,2.02-4.38,4.36l-.01-.01Z" fill="#a7a9ac" stroke-width="0"/><path id="eQbxNhGRX843" d="M51.5,79.18c0,.15,0,.29,0,.44c0,2.85,0,5.7,0,8.55c0,.72-.26,1.29-.91,1.65-1.07.6-2.46-.23-2.44-1.56.02-1.07,0-2.14,0-3.22c0-1.82,0-3.63,0-5.45c0-.14-.01-.29-.02-.43-.03-.02-.07-.03-.1-.05-.63.64-1.25,1.28-1.88,1.92-1.02,1.03-2.05,2.06-3.08,3.08-.86.84-2.13.63-2.7-.43-.28-.53-.18-1.38.26-1.83c1.32-1.35,2.66-2.69,4-4.03c1.32-1.32,2.66-2.62,3.97-3.95.74-.75,1.83-.62,2.51.07.9.9,1.79,1.8,2.69,2.7c1.72,1.72,3.44,3.44,5.15,5.17.62.63.62,1.68.03,2.29-.64.67-1.67.73-2.34.08-1.53-1.49-3.03-3-4.53-4.51-.18-.18-.34-.37-.5-.55-.04.02-.08.04-.12.06h.01Z" fill="#a7a9ac" stroke-width="0"/><path d="M43.02,30.08c-.01.64-.29,1.13-.86,1.44-1.08.58-2.19,1.1-3.23,1.75-2.3,1.43-4.18,3.32-5.71,5.56-.83,1.22-1.53,2.52-2.06,3.9-.35.9-1.37,1.34-2.23.98s-1.23-1.37-.85-2.28c1.66-4.05,4.22-7.41,7.71-10.05c1.49-1.13,3.11-2.05,4.83-2.8c1.18-.51,2.4.26,2.4,1.5Z" fill="#a7a9ac" stroke-width="0"/><path d="M29.98,56.9c.47.04.96.29,1.26.85.45.86.85,1.75,1.34,2.59c1.48,2.53,3.46,4.62,5.87,6.29c1.24.86,2.56,1.56,3.96,2.12.93.37,1.32,1.19,1.05,2.14-.2.7-1.04,1.25-1.81,1.08-.54-.12-1.07-.35-1.58-.59-2.58-1.21-4.89-2.81-6.89-4.84-1.94-1.97-3.48-4.21-4.65-6.72-.26-.55-.54-1.11-.32-1.77.24-.71.86-1.18,1.76-1.17l.01.02Z" fill="#a7a9ac" stroke-width="0"/><path d="M56.63,69.97c.02-.48.3-.99.9-1.31c1.11-.59,2.27-1.12,3.33-1.8c2.2-1.42,4.04-3.24,5.52-5.41.38-.55.78-1.1,1.09-1.69.37-.69.68-1.42.96-2.15.48-1.28,1.93-1.66,2.84-.71.52.54.58,1.19.31,1.86-1.4,3.41-3.44,6.36-6.2,8.82-1.73,1.54-3.65,2.79-5.75,3.77-.28.13-.57.25-.87.35-1.05.35-2.14-.45-2.14-1.74l.01.01Z" fill="#a7a9ac" stroke-width="0"/><path id="eQbxNhGRX847" d="M79.05,48.3c.15,0,.29,0,.44,0c2.85,0,5.7,0,8.55,0c.72,0,1.29.26,1.65.91.6,1.07-.23,2.46-1.56,2.44-1.07-.02-2.14,0-3.22,0-1.82,0-3.63,0-5.45,0-.14,0-.29.01-.43.02-.02.03-.03.07-.05.1.64.63,1.28,1.25,1.92,1.88c1.03,1.02,2.06,2.05,3.08,3.08.84.86.63,2.13-.43,2.7-.53.28-1.38.18-1.83-.26-1.35-1.32-2.69-2.66-4.03-4-1.32-1.32-2.62-2.66-3.95-3.97-.75-.74-.62-1.83.07-2.51.9-.9,1.8-1.79,2.7-2.69c1.72-1.72,3.44-3.44,5.17-5.15.63-.62,1.68-.62,2.29-.03.67.64.73,1.67.08,2.34-1.49,1.53-3,3.03-4.51,4.53-.18.18-.37.34-.55.5.02.04.04.08.06.12v-.01Z" fill="#a7a9ac" stroke-width="0"/><path id="eQbxNhGRX848" d="M48.43,20.82c0-.15,0-.29,0-.44c0-2.85,0-5.7,0-8.55c0-.72.26-1.29.91-1.65c1.07-.6,2.46.23,2.44,1.56-.02,1.07,0,2.14,0,3.22c0,1.82,0,3.63,0,5.45c0,.14.01.29.02.43.03.02.07.03.1.05.63-.64,1.25-1.28,1.88-1.92c1.02-1.03,2.05-2.06,3.08-3.08.86-.84,2.13-.63,2.7.43.28.53.18,1.38-.26,1.83-1.32,1.35-2.66,2.69-4,4.03-1.32,1.32-2.66,2.62-3.97,3.95-.74.75-1.83.62-2.51-.07-.9-.9-1.79-1.8-2.69-2.7-1.72-1.72-3.44-3.44-5.15-5.17-.62-.63-.62-1.68-.03-2.29.64-.67,1.67-.73,2.34-.08c1.53,1.49,3.03,3,4.53,4.51.18.18.34.37.5.55.04-.02.08-.04.12-.06h-.01Z" fill="#a7a9ac" stroke-width="0"/><path id="eQbxNhGRX849" d="M20.95,48.43c-.15,0-.29,0-.44,0-2.85,0-5.7,0-8.55,0-.72,0-1.29.26-1.65.91-.6,1.07.23,2.46,1.56,2.44c1.07-.02,2.14,0,3.22,0c1.82,0,3.63,0,5.45,0c.14,0,.29.01.43.02.02.03.03.07.05.1-.64.63-1.28,1.25-1.92,1.88-1.03,1.02-2.06,2.05-3.08,3.08-.84.86-.63,2.13.43,2.7.53.28,1.38.18,1.83-.26c1.35-1.32,2.69-2.66,4.03-4c1.32-1.32,2.62-2.66,3.95-3.97.75-.74.62-1.83-.07-2.51-.9-.9-1.8-1.79-2.7-2.69-1.72-1.72-3.44-3.44-5.17-5.15-.63-.62-1.68-.62-2.29-.03-.67.64-.73,1.67-.08,2.34c1.49,1.53,3,3.03,4.51,4.53.18.18.37.34.55.5-.02.04-.04.08-.06.12v-.01Z" fill="#a7a9ac" stroke-width="0"/><path d="M69.79,43.57c-.48-.02-.98-.32-1.3-.92-.58-1.12-1.09-2.28-1.76-3.35-1.39-2.22-3.2-4.07-5.35-5.57-.55-.39-1.09-.79-1.68-1.11-.69-.37-1.41-.7-2.14-.98-1.27-.5-1.64-1.95-.68-2.85.54-.51,1.2-.57,1.86-.29c3.4,1.43,6.33,3.51,8.76,6.29c1.52,1.75,2.76,3.68,3.71,5.78.13.28.25.58.34.87.34,1.05-.47,2.13-1.76,2.13Z" fill="#a7a9ac" stroke-width="0"/><path d="M61.87,59.65c-.22-2.33-1.14-4.38-2.62-6.17-1.98-2.4-4.51-3.85-7.6-4.33-3-.46-5.78.16-8.33,1.75-1.83,1.14-3.23,2.7-4.24,4.61-.91,1.73-1.35,3.56-1.39,5.5-.01.57.25,1.01.68,1.35.53.42,1.13.45,1.71.16.56-.27.9-.74.92-1.4.06-1.94.61-3.71,1.78-5.26c1.11-1.47,2.54-2.5,4.29-3.09c1.02-.34,2.06-.46,3.12-.43.45,0,.85.06,1.17.11.05.02.1.04.16.05.13.02.27.05.4.08.17.05.27.08.27.08h.04c.83.22,1.62.57,2.35,1.05c1.59,1.03,2.75,2.42,3.46,4.18.42,1.05.63,2.14.65,3.27.01.76.64,1.4,1.43,1.51.77.11,1.61-.35,1.75-1.1.11-.63.07-1.3.01-1.94l-.01.02Z" fill="#a7a9ac" stroke-width="0"/> 
</svg>
