<svg id="eCd7kZlJNUe1" xmlns="http://www.w3.org/2000/svg" xmlns:xlink="http://www.w3.org/1999/xlink" viewBox="0 0 100 100" shape-rendering="geometricPrecision" text-rendering="geometricPrecision"><path id="eCd7kZlJNUe2" d="M40.5,61.1c8.5,5.4,15.9,5,21.4-.9c5-5.3,5.5-13.3,1.2-19.2-2.7-3.6-6.3-5.7-10.7-6.2-4.4-.4-8.2,1-11.9,4c0-5.3,0-10.2,0-15c0-1.2,1-1.2,1.7-1.3c1.4-.2,2-1,2.3-2.3.4-1.6,1-3.1,1.4-4.7.3-1.1.8-1.4,1.9-1.3c2.1.1,4.1.1,6.2,0c1.1-.1,1.7.3,1.8,1.4.7,4.3,2.6,7.2,7.2,8.4c2.1.5,3.5.9,5.5-.2c4.2-2.4,4.3-2.3,7.7,1.2c3,3,3.1,3,1,6.7-1.2,2.3-1.7,4.3.1,6.6.1.1.1.2.1.3.5,3.9,3.2,5.5,6.7,6c2.1.3,2.8,1.4,2.5,3.4c0,.2,0,.4,0,.6-.1,1.9.8,4.3-.4,5.6-1.1,1.3-3.5,1.5-5.3,2-1.4.4-2.2,1-2.6,2.5-.4,1.6-1.1,3.1-1.9,4.5-.7,1.2-.6,2,.1,3.1.9,1.4,1.5,3,2.4,4.5.5.8.3,1.3-.3,1.9-1.6,1.6-3.2,3.2-4.8,4.8-.6.6-1,.7-1.8.3-1.9-1.1-3.8-2.5-5.8-2.9-2-.3-3.7,1.8-5.8,2.2-2,.3-2.7,1.5-3.2,3.3-.4,1.7-.5,3.9-1.8,4.8-1.3,1-3.4.3-5.1.3-3.7,0-3.7,0-4.8-3.6-.2-.8-.6-1.5-.7-2.3-.3-1.3-1-2.1-2.3-2.3s-1.8-.9-1.8-2.3c-.1-4.5-.2-9.1-.2-13.9v0Zm1.9-26c10.2-3.4,17-2,22,4.5c4.4,5.7,4.7,13.5.8,19.5-2,3-4.6,5.2-8,6.5-5,2-9.9,1.4-14.8-1.1c0,3.3.1,6.4,0,9.5c0,1.2.4,1.8,1.5,1.9c1.2.1,1.9.8,2.1,2c.1.7.4,1.3.6,2c1.2,3.8,1.2,3.8,5.2,3.9c1.8.1,2.8-.4,3.1-2.2.5-3.5,2.5-5.2,5.9-6.8c4.1-1.9,7.1-1.7,10.5.7.8.6,1.5.5,2.3-.3c3.6-3.5,3.6-3.5,1.3-7.9-.2-.4-.4-.9-.7-1.3-.7-.9-.5-1.7.1-2.5c1.2-2,2.2-4.2,2.7-6.6.2-1,.7-1.5,1.7-1.8c1.7-.4,3.3-1.1,5-1.6.8-.2,1.1-.6,1.1-1.4.3-5.2.3-5.2-4.6-6.8-.4-.1-.8-.3-1.2-.3-1.2-.2-1.9-.9-2.2-2.2-.3-1.8-.9-3.6-2-5-1.3-1.8-1.1-3.3,0-5.2c2.4-4.2,2.2-4.2-1.2-7.6-.8-.8-1.5-1.1-2.6-.4-1.4.8-2.9,1.5-4.3,2.3-.8.5-1.4.5-2.2,0-2.1-1.3-4.4-2.3-6.9-2.9-1-.2-1.4-.8-1.7-1.7-.5-1.7-1.1-3.3-1.6-5-.2-.7-.5-1-1.3-1.1-5.2-.5-5.2-.5-6.8,4.5c0,.3-.2.7-.2,1.2-.2,1.3-.9,1.9-2.2,2.1-.6.1-1.4.2-1.4,1.2c0,3.2,0,6.5,0,9.9v0Z" fill="#a7a9ac"/><path id="eCd7kZlJNUe3" d="M27,51.9c-1.4-.3-2.3-.2-3.1.9-1.1,1.5-3.2,1.4-4.5.1-1.2-1.2-1.1-3.2.1-4.4c1.3-1.2,3.3-1.2,4.3.2.9,1.2,1.8,1.3,3.2,1-.8-1.6-1.5-3.2-2.2-4.8-.2-.4-.4-.7-.8-.7-1.9.3-4-.9-5.6,1.3-.9,1.3-2.9,1.1-4,0-1.2-1.1-1.3-3-.3-4.2s3-1.8,4-.6c1.6,2,3.6,1.7,5.5,1.6c1.6-.1,2.5.4,3.1,1.9.5,1.5,1.4,2.9,2,4.5.4,1.2,1.3,1.2,2.2,1.2c1.1,0,.8-1,.9-1.5.3-1.8.9-3.4,2.2-4.7.8-.8.6-1.3-.2-2-.6-.5-1.3-1.1-1.7-1.7-1.7-2.7-4.2-2.6-6.9-2.5-.8,0-1,.5-1.5,1-1.3,1.5-3.3,1.7-4.6.3-1.2-1.2-1.2-3.2,0-4.4c1.4-1.3,3.4-1.3,4.6.4.6.8,1.2,1,2,.9c3.5-.6,6,.7,8,3.4.4.5.9.8,1.3,1.3.7,1,1.4,1,2.5.5c5.3-2.4,11.4.3,13.3,5.8s-1.3,11.3-6.9,12.8c-1.8.5-3.6.5-5.4-.2-1-.4-1.6-.1-2.3.6-1.5,1.6-3.2,3.1-4.6,4.7-1,1.1-2.1,1.6-3.6,1.5-1.8-.1-3.7-.4-5.2,1.5-1,1.2-3.1.7-4.1-.6s-.8-3.2.4-4.2c1.3-1.1,3-1,4.2.2c1.8,1.8,5.5,1.8,7.2,0c1.4-1.4,2.7-2.8,4.1-4.1.7-.6.9-1,0-1.7-1.3-1.1-2.2-2.5-2.7-4.2-.2-.7-.4-1.2-1.4-1.2-.9.1-1.8-.1-2.1,1-.1.5-.5.9-.6,1.4-1.1,3.8-3.2,6.2-7.6,5.1-.8-.2-1.2.3-1.7.9-1.3,1.6-3.3,1.6-4.6.3-1.2-1.2-1.2-3.2.1-4.4c1.4-1.3,3.3-1.2,4.6.4c1.6,1.8,5.5,1.2,6.4-.9.8-1.2,1.4-2.4,2-3.7v0Zm14.6,5.6c4.2,0,7.6-3.5,7.6-7.7s-3.5-7.6-7.7-7.6-7.7,3.4-7.7,7.6c-.1,4.3,3.4,7.8,7.8,7.7v0ZM21.2,37.8c.7-.2,1.2-.5,1.1-1.3c0-.8-.5-1.3-1.4-1.2-.7.1-1.1.6-1,1.3.1.8.6,1.2,1.3,1.2v0Zm-3.7,5.5c-.1-.7-.5-1.1-1.2-1.2-.7,0-1.2.4-1.2,1.1c0,.8.4,1.3,1.2,1.3s1.2-.4,1.2-1.2Zm5.3,7.5c-.1-.7-.5-1.2-1.2-1.2s-1.2.4-1.2,1.1c0,.8.5,1.3,1.3,1.3.6,0,1-.5,1.1-1.2v0Zm-5.3,7.5c-.1-.7-.4-1.2-1.1-1.2-.8,0-1.3.5-1.2,1.3c0,.7.5,1.2,1.2,1.1.7,0,1.1-.5,1.1-1.2ZM21,63.8c-.6.1-1.1.5-1.1,1.2c0,.8.5,1.3,1.4,1.2.7-.1,1.1-.6,1.1-1.3-.1-.6-.6-1-1.4-1.1Z" fill="#a7a9ac"/> 
</svg>
