<svg id="e6ab8MHLoeh1" xmlns="http://www.w3.org/2000/svg" xmlns:xlink="http://www.w3.org/1999/xlink" viewBox="0 0 100 100" shape-rendering="geometricPrecision" text-rendering="geometricPrecision"><g id="e6ab8MHLoeh2"><path d="M51.6,62.2h8.7c0,0,2.3-5.3,0-10.3c0,0-1.3-2.7-10.7-1.2" fill="none" stroke="#a7a9ac" stroke-width="2" stroke-linecap="round" stroke-linejoin="round"/><circle r="7" transform="translate(50 42.6)" fill="none" stroke="#a7a9ac" stroke-width="2" stroke-linecap="round" stroke-linejoin="round"/><path d="M47.8,62.2h-8.8c0,0-2.3-5.3,0-10.3c0,0,1.3-2.7,10.7-1.2" fill="none" stroke="#a7a9ac" stroke-width="2" stroke-linecap="round" stroke-linejoin="round"/><line x1="43" y1="58.2" x2="43" y2="61.6" fill="none" stroke="#a7a9ac" stroke-width="2" stroke-linecap="round" stroke-linejoin="round"/><line x1="57" y1="58.2" x2="57" y2="61.6" fill="none" stroke="#a7a9ac" stroke-width="2" stroke-linecap="round" stroke-linejoin="round"/></g><g id="e6ab8MHLoeh8"><line x1="45.3" y1="17.6" x2="54.1" y2="17.6" fill="none" stroke="#a7a9ac" stroke-width="2" stroke-linecap="round" stroke-linejoin="round"/><rect width="5.1" height="12.7" rx="0" ry="0" transform="translate(39.6 13.7)" fill="none" stroke="#a7a9ac" stroke-width="2" stroke-linecap="round" stroke-linejoin="round"/><rect width="5.1" height="12.7" rx="0" ry="0" transform="translate(55 13.7)" fill="none" stroke="#a7a9ac" stroke-width="2" stroke-linecap="round" stroke-linejoin="round"/><line x1="45.3" y1="22.3" x2="54.1" y2="22.3" fill="none" stroke="#a7a9ac" stroke-width="2" stroke-linecap="round" stroke-linejoin="round"/><g><path d="M34.4,24.9c0,0-6.3,3.9-10.5,10.7" fill="none" stroke="#a7a9ac" stroke-width="2" stroke-linecap="round" stroke-linejoin="round"/><g><path d="M24.6,65c0,0,3.9,6.3,10.7,10.5" fill="none" stroke="#a7a9ac" stroke-width="2" stroke-linecap="round" stroke-linejoin="round"/><g><path d="M65.7,75.6c0,0,6.3-3.9,10.5-10.7" fill="none" stroke="#a7a9ac" stroke-width="2" stroke-linecap="round" stroke-linejoin="round"/><path d="M75.2,34.8c0,0-3.9-6.3-10.7-10.5" fill="none" stroke="#a7a9ac" stroke-width="2" stroke-linecap="round" stroke-linejoin="round"/><polyline points="72.1,43.6 72.1,39 85.7,39 85.7,60.6 72.1,60.6 72.1,47.9" fill="none" stroke="#a7a9ac" stroke-width="2" stroke-linecap="round" stroke-linejoin="round"/><line x1="72.1" y1="56.2" x2="85.2" y2="56.2" fill="none" stroke="#a7a9ac" stroke-width="2" stroke-linecap="round" stroke-linejoin="round"/></g><path d="M49.7,86.5c0,0-9.6-5.8-8.8-12.6s10.7-2.2,9.1-1.8" fill="none" stroke="#a7a9ac" stroke-width="2" stroke-linecap="round" stroke-linejoin="round"/><path d="M50.2,86.4c0,0,9.6-5.8,8.8-12.6s-10.7-2.2-9.1-1.8" fill="none" stroke="#a7a9ac" stroke-width="2" stroke-linecap="round" stroke-linejoin="round"/></g><g><path d="M24.4,41.5l-4.3-3.7c0,0-16.9,11,0,23.7c0,0,13.4-4,7.1-17.4" fill="none" stroke="#a7a9ac" stroke-width="2" stroke-linecap="round" stroke-linejoin="round"/><line x1="20.8" y1="45.6" x2="20.8" y2="54.4" fill="none" stroke="#a7a9ac" stroke-width="2" stroke-linecap="round" stroke-linejoin="round"/></g></g></g> 
</svg>
