<svg id="eYhQc6ERG8Z1" xmlns="http://www.w3.org/2000/svg" xmlns:xlink="http://www.w3.org/1999/xlink" viewBox="0 0 100 100" shape-rendering="geometricPrecision" text-rendering="geometricPrecision"><g><g><g id="eYhQc6ERG8Z4"><path d="M70.28,53.02c0,.69,0,1.37,0,2.06-.02,1.16-.88,2.01-2.04,2.02-.78,0-1.56,0-2.34,0-.23,0-.34.08-.43.29-.36.89-.73,1.78-1.1,2.66-.08.19-.03.3.1.43.55.54,1.09,1.08,1.63,1.63.86.87.87,2.13,0,2.99-.96.96-1.91,1.91-2.87,2.87-.81.81-2.08.83-2.91.04-.57-.55-1.13-1.11-1.67-1.67-.17-.18-.31-.18-.53-.08-.82.37-1.65.72-2.49,1.03-.29.11-.38.23-.37.52.02.72,0,1.44,0,2.15c0,1.29-.87,2.16-2.16,2.17-1.32,0-2.65,0-3.97,0-1.25,0-2.13-.87-2.14-2.13c0-.73-.01-1.46,0-2.18c0-.3-.09-.43-.39-.54-.82-.29-1.62-.64-2.41-1-.28-.13-.44-.12-.66.1-.52.55-1.06,1.08-1.61,1.61-.84.8-2.11.78-2.93-.04-.94-.94-1.89-1.88-2.82-2.83-.92-.94-.91-2.14.03-3.08.52-.52,1.04-1.05,1.57-1.56.16-.15.18-.27.09-.48-.36-.82-.71-1.65-1.04-2.49-.12-.3-.24-.44-.59-.43-.74.03-1.48.01-2.22,0-1.17-.01-2.04-.86-2.05-2.04-.01-1.39,0-2.79,0-4.18.01-1.15.87-1.99,2.01-2.01.79,0,1.58,0,2.37,0c.23,0,.33-.08.42-.3.35-.89.72-1.76,1.1-2.63.08-.18.07-.3-.07-.43-.54-.53-1.08-1.07-1.61-1.61-.93-.94-.92-2.17.02-3.11.91-.9,1.81-1.81,2.72-2.72.92-.93,2.14-.95,3.08-.04.55.53,1.09,1.08,1.63,1.63.14.14.24.15.43.07.89-.38,1.79-.75,2.7-1.11.18-.07.22-.18.22-.35c0-.74,0-1.48,0-2.22c0-1.39.85-2.24,2.24-2.24c1.28,0,2.56,0,3.85,0c1.3,0,2.17.87,2.17,2.18c0,.71.01,1.42,0,2.12c0,.3.08.43.39.54.84.3,1.65.66,2.46,1.03.23.11.37.11.56-.08.51-.53,1.04-1.05,1.56-1.57.91-.91,2.14-.91,3.06,0c.95.95,1.9,1.9,2.85,2.85.81.81.82,2.08.02,2.9-.55.56-1.11,1.12-1.67,1.68-.17.16-.17.29-.08.51.37.83.71,1.68,1.04,2.52.1.25.2.38.5.37.77-.02,1.54-.01,2.31,0c1.13,0,1.99.84,2.02,1.97.02.73,0,1.46,0,2.18l.02.03Zm-36.25-.06v0c0,.57.01,1.15,0,1.72-.01.3.1.39.39.39c1.01-.01,2.01,0,3.02,0c.56,0,.94.29,1.07.83.33,1.4.88,2.7,1.62,3.93.32.52.25.96-.17,1.39-.72.72-1.43,1.44-2.16,2.15-.18.18-.18.29,0,.47.84.83,1.67,1.66,2.5,2.5.18.18.28.16.45,0c.71-.73,1.43-1.44,2.15-2.15.43-.42.92-.49,1.4-.19c1.2.75,2.49,1.28,3.87,1.62.64.16.89.48.89,1.14c0,.96,0,1.93,0,2.89q0,.47.45.47c1.11,0,2.22,0,3.32,0c.41,0,.42,0,.42-.41c0-1.02,0-2.03,0-3.05c0-.56.27-.88.8-1.01c1.38-.35,2.69-.86,3.9-1.61.54-.34.98-.29,1.44.17.72.71,1.44,1.43,2.15,2.15.18.18.28.16.45,0c.83-.84,1.66-1.68,2.5-2.5.19-.19.17-.3,0-.47-.7-.68-1.38-1.37-2.07-2.06-.52-.52-.58-.95-.2-1.56.7-1.15,1.21-2.37,1.53-3.67.19-.75.5-1.01,1.27-1.01.97,0,1.95,0,2.92,0c.24,0,.32-.08.32-.32c0-1.17-.01-2.34,0-3.51c0-.27-.09-.35-.35-.35-1.03.01-2.05,0-3.08,0-.52,0-.94-.33-1.05-.83-.3-1.33-.81-2.57-1.5-3.75-.46-.78-.42-1.12.23-1.76.65-.65,1.3-1.31,1.97-1.95.21-.2.21-.33,0-.52-.83-.82-1.66-1.65-2.48-2.48-.17-.18-.28-.17-.45,0-.72.73-1.45,1.45-2.17,2.17-.41.41-.9.48-1.4.17-1.17-.73-2.42-1.24-3.75-1.58-.79-.2-.99-.49-.99-1.31c0-.94,0-1.89,0-2.83c0-.29-.1-.39-.4-.38-1.14.01-2.28.02-3.42,0-.3,0-.39.09-.39.39.01,1.04,0,2.07,0,3.11c0,.51-.28.85-.77.97-1.37.33-2.68.84-3.88,1.59-.53.34-1.13.28-1.6-.22-.68-.71-1.39-1.4-2.08-2.1-.15-.15-.25-.16-.4,0-.83.85-1.67,1.69-2.52,2.53-.19.18-.18.29,0,.47.7.68,1.38,1.37,2.07,2.06.57.57.6.94.17,1.63-.68,1.13-1.19,2.34-1.49,3.62-.17.71-.49.98-1.23.99-.97,0-1.95,0-2.92,0-.26,0-.37.07-.36.35.02.57,0,1.15,0,1.72l.01-.01Z" fill="#2c498a"/><path d="M59.4,52.94c.03,4.55-3.64,8.29-8.17,8.31-4.61.03-8.35-3.63-8.37-8.17-.02-4.62,3.63-8.36,8.2-8.38c4.59-.03,8.31,3.65,8.33,8.24h.01Zm-14.5.01c-.04,3.4,2.75,6.22,6.18,6.27c3.38.04,6.25-2.74,6.29-6.1.04-3.51-2.71-6.35-6.18-6.39-3.44-.03-6.25,2.74-6.29,6.22Z" fill="#2c498a"/></g><path id="eYhQc6ERG8Z7" d="M26.22,73.97c-.33.18-.61.33-.89.5-.76.44-1.53.87-2.28,1.33-.15.09-.28.27-.33.44-.3,1.04-.57,2.09-.85,3.14-.16.59-.7.92-1.27.76-.57-.15-.85-.7-.69-1.31.23-.84.44-1.68.67-2.52.08-.27-.02-.36-.27-.42-.85-.22-1.71-.43-2.55-.68-.61-.18-.87-.68-.71-1.27.14-.52.64-.82,1.23-.69.68.15,1.35.35,2.02.53.38.1.75.2,1.13.31.24.07.45.03.67-.1.94-.56,1.9-1.1,2.85-1.65.27-.15.27-.2,0-.35-.99-.58-1.98-1.16-2.98-1.72-.12-.07-.3-.08-.43-.05-1,.25-2,.53-3,.79-.14.04-.28.07-.42.09-.54.05-.97-.27-1.08-.79-.11-.5.16-1.01.67-1.16.85-.25,1.72-.48,2.58-.7.36-.09.39-.12.29-.48-.21-.82-.44-1.64-.66-2.46-.16-.61.13-1.16.69-1.31.61-.16,1.13.19,1.29.82.27,1.06.56,2.12.85,3.17.03.12.14.26.26.32c1.02.6,2.06,1.19,3.09,1.78.03.02.07.03.15.06.01-.13.03-.24.03-.34c0-1.11.01-2.22,0-3.32c0-.18-.1-.4-.22-.53-.75-.77-1.51-1.53-2.28-2.29-.31-.31-.39-.68-.27-1.08.11-.39.4-.61.79-.69.35-.06.65.05.9.3.63.62,1.26,1.24,1.87,1.87.18.19.29.21.49,0c.6-.62,1.21-1.23,1.82-1.83.6-.59,1.48-.43,1.75.33.15.42.03.78-.28,1.09-.75.75-1.49,1.5-2.24,2.24-.19.19-.28.37-.28.64.01,1.06,0,2.11,0,3.17c0,.13.01.26.02.45.15-.07.26-.12.36-.18.94-.54,1.88-1.09,2.82-1.62.21-.12.33-.28.39-.52.27-1.04.55-2.08.84-3.11.17-.61.69-.89,1.28-.73.53.14.82.67.67,1.27-.22.86-.44,1.73-.69,2.58-.07.24.01.32.21.37.8.21,1.6.43,2.41.64.64.16.95.49.96,1.03c0,.64-.48,1.11-1.12,1-.59-.1-1.17-.28-1.76-.44-.54-.14-1.09-.3-1.63-.42-.15-.03-.35,0-.49.08-.99.56-1.97,1.13-2.96,1.7-.21.12-.24.2,0,.33c1.01.57,2,1.16,3.01,1.73.13.07.32.08.46.05c1-.25,2-.54,3-.78.29-.07.64-.08.92.02.43.15.6.53.56.99-.03.4-.27.74-.68.86-.87.25-1.74.48-2.61.71-.26.07-.35.15-.27.44.25.84.46,1.7.68,2.55.15.6-.15,1.1-.73,1.26-.5.14-1.06-.15-1.2-.65-.29-1.04-.58-2.09-.85-3.14-.07-.28-.19-.47-.45-.61-.94-.52-1.87-1.07-2.8-1.6-.09-.05-.18-.09-.31-.17-.02.15-.05.25-.05.35c0,1.1-.01,2.19,0,3.29c0,.19.11.42.24.56.72.75,1.46,1.47,2.19,2.2.34.34.52.72.36,1.19-.26.72-1.11.91-1.68.38-.37-.34-.71-.71-1.07-1.06-.26-.26-.53-.51-.78-.79-.2-.22-.33-.25-.56-.01-.59.63-1.21,1.22-1.82,1.83-.44.43-1.05.45-1.46.05s-.41-1.05.02-1.49c.76-.76,1.53-1.52,2.28-2.29.12-.12.22-.31.22-.47.02-1.15.01-2.3,0-3.45c0-.09-.02-.17-.04-.31v-.01Z" fill="#2c498a"/><path id="eYhQc6ERG8Z8" d="M27.21,40.01c-2.26-.08-4.12-.64-5.67-2.03-1.22-1.09-1.95-2.47-2.29-4.05-.27-1.25-.34-2.52-.05-3.78.31-1.32.96-2.48,1.79-3.54.61-.78,1.26-1.54,1.91-2.29c1-1.17,1.32-2.52,1.11-4.01-.05-.39-.17-.78-.27-1.17-.13-.49,0-.95.38-1.21.36-.25.82-.24,1.23.05c1.1.78,2.16,1.6,2.92,2.74.91,1.36,1.15,2.86.89,4.44-.11.65-.32,1.29-.44,1.94-.05.27-.02.57.03.85.08.4.42.66.81.68.61.03.97-.15,1.12-.68.13-.46.17-.94.21-1.42.05-.53.29-.87.8-.99.43-.1.78.08,1.06.41.77.92,1.33,1.97,1.72,3.1c1.18,3.35.5,6.34-1.9,8.92-1.1,1.18-2.55,1.76-4.14,1.96-.48.06-.96.06-1.22.08Zm5.14-10.73c-.14.17-.24.3-.35.42-1.18,1.38-3.55,1.32-4.66-.11-.6-.77-.79-1.66-.65-2.61.1-.71.33-1.39.46-2.1.23-1.23,0-2.36-.81-3.35-.05-.06-.11-.1-.17-.15-.03.04-.05.05-.06.07-.01.06-.02.12-.02.18-.13,1.57-.7,2.95-1.75,4.14-.72.81-1.4,1.66-2.05,2.53-.63.85-1.08,1.79-1.2,2.86-.1.86,0,1.7.2,2.53.3,1.22.91,2.25,1.93,3.02c1.36,1.03,2.92,1.32,4.59,1.22c1.41-.08,2.66-.58,3.57-1.67c1.59-1.91,2.07-4.07,1.22-6.46-.06-.17-.15-.32-.24-.53l-.01.01Z" fill="#2c498a"/><path id="eYhQc6ERG8Z9" d="M82.21,74.25c-.01,3.19-2.04,5.98-5.13,6.91-3.31,1-6.79-.42-8.45-3.43-.9-1.64-1.09-3.37-.71-5.18.5-2.38,1.56-4.52,2.76-6.6.91-1.58,1.91-3.11,3.12-4.48.33-.37.7-.7,1.25-.67.37.02.68.2.9.47.67.83,1.36,1.65,1.96,2.52c1.29,1.88,2.39,3.87,3.26,5.97.62,1.48,1.04,3.25,1.04,4.5v-.01Zm-7.25,5.17c2.46.02,4.6-1.71,5.1-4.11.26-1.21.05-2.37-.33-3.51-1.01-3.05-2.64-5.76-4.54-8.32-.16-.22-.28-.23-.43,0-.48.7-1,1.38-1.46,2.09-1.36,2.12-2.57,4.31-3.24,6.76-.28,1.02-.4,2.05-.16,3.1.55,2.33,2.64,3.98,5.05,3.99h.01Z" fill="#2c498a"/><g id="eYhQc6ERG8Z10" transform="translate(.000001 0)"><path d="M69.1,19.3c1.9.06,3.52.45,4.9,1.51.51.39.97.85,1.59,1.09c1.69.67,3.37.72,5.04-.06.23-.11.43-.27.63-.43.49-.4,1.1-.38,1.49.05.37.42.33,1.04-.12,1.46-.73.7-1.64,1.07-2.61,1.3-2,.46-3.93.23-5.76-.71-.4-.2-.78-.46-1.11-.76-.98-.92-2.17-1.28-3.46-1.39-.9-.08-1.78.05-2.62.41-.34.15-.66.37-.96.59-.51.39-1.09.37-1.48-.08-.37-.42-.32-1.04.14-1.46.84-.78,1.87-1.16,2.97-1.36.51-.09,1.03-.12,1.37-.16h-.01Z" fill="#2c498a"/><path d="M78.42,35.87c-2.03-.05-3.62-.45-5.02-1.48-.46-.34-.88-.76-1.39-1-1.72-.81-3.49-.9-5.25-.08-.25.11-.47.29-.68.47-.47.37-1.1.34-1.46-.08-.38-.45-.32-1.06.14-1.48.9-.82,1.99-1.21,3.16-1.39c1.97-.31,3.84.02,5.56,1.03.27.16.53.35.76.56c1.39,1.26,3.05,1.55,4.84,1.31.84-.11,1.61-.42,2.28-.99.42-.36,1.03-.26,1.38.15.34.4.31,1.01-.08,1.4-.69.68-1.55,1.07-2.48,1.29-.68.16-1.39.23-1.77.29h.01Z" fill="#2c498a"/><path d="M69.18,24.99c1.98.1,3.81.54,5.31,1.94.63.59,1.43.86,2.26,1.04c1.18.27,2.35.19,3.47-.25.37-.15.71-.39,1.04-.63.43-.31.89-.36,1.28-.09.38.26.58.76.35,1.19-.16.3-.43.57-.71.78-.79.59-1.7.89-2.66,1.06-1.76.31-3.46.08-5.06-.71-.51-.25-.99-.58-1.42-.95-1.3-1.1-2.81-1.42-4.44-1.29-.74.06-1.45.25-2.09.65-.15.09-.28.2-.42.31-.48.4-1.1.38-1.48-.07-.38-.44-.31-1.06.15-1.48.91-.81,2.02-1.19,3.2-1.39.4-.07.81-.09,1.22-.13v.02Z" fill="#2c498a"/></g><g transform="translate(0 0.000001)"><path d="M52.18,77.83c-4.1,0-8.2,0-12.31,0-.63,0-1.01-.27-1.13-.78-.13-.6.25-1.15.85-1.23.13-.02.27-.01.4-.01c8.16,0,16.33,0,24.49,0c.57,0,.93.24,1.09.72.2.6-.21,1.24-.85,1.3-.12.01-.25,0-.37,0-4.06,0-8.12,0-12.18,0h.01Z" fill="#2c498a"/><path d="M49.83,28.12c4,0,8,0,12,0c.32,0,.61.03.86.25.31.28.43.71.3,1.09s-.5.66-.9.69c-.07,0-.14,0-.22,0-8.03,0-16.06,0-24.08,0-.46,0-.83-.15-1.04-.57-.34-.7.14-1.46.93-1.46c2.81,0,5.62,0,8.43,0c1.24,0,2.48,0,3.72,0Z" fill="#2c498a"/><path d="M73.96,48.05c0-3.14,0-6.27,0-9.41c0-.58.2-.95.61-1.11.73-.29,1.42.19,1.43,1c0,.61,0,1.23,0,1.85c0,5.66,0,11.32,0,16.98c0,.25-.03.52-.13.75-.17.41-.63.61-1.11.53-.42-.07-.74-.43-.79-.87-.01-.13-.02-.27-.02-.4c0-3.11,0-6.21,0-9.32h.01Z" fill="#2c498a"/><path d="M28.3,50.68c0,2.48,0,4.96,0,7.45c0,.75-.63,1.21-1.34.99-.39-.12-.6-.42-.67-.81-.03-.14-.03-.29-.03-.43c0-4.86,0-9.72.01-14.58c0-.29.11-.61.28-.84.24-.35.72-.42,1.11-.27.41.16.63.49.63.99c0,1.95,0,3.9,0,5.85c0,.55,0,1.11,0,1.66l.01-.01Z" fill="#2c498a"/></g></g></g>
<script><![CDATA[
!function(t,n){"object"==typeof exports&&"undefined"!=typeof module?module.exports=n():"function"==typeof __SVGATOR_DEFINE__&&__SVGATOR_DEFINE__.amd?__SVGATOR_DEFINE__(n):((t="undefined"!=typeof globalThis?globalThis:t||self).__SVGATOR_PLAYER__=t.__SVGATOR_PLAYER__||{},t.__SVGATOR_PLAYER__["5c7f360c"]=n())}(this,(function(){"use strict";function t(t,n){var e=Object.keys(t);if(Object.getOwnPropertySymbols){var r=Object.getOwnPropertySymbols(t);n&&(r=r.filter((function(n){return Object.getOwnPropertyDescriptor(t,n).enumerable}))),e.push.apply(e,r)}return e}function n(n){for(var e=1;e<arguments.length;e++){var r=null!=arguments[e]?arguments[e]:{};e%2?t(Object(r),!0).forEach((function(t){o(n,t,r[t])})):Object.getOwnPropertyDescriptors?Object.defineProperties(n,Object.getOwnPropertyDescriptors(r)):t(Object(r)).forEach((function(t){Object.defineProperty(n,t,Object.getOwnPropertyDescriptor(r,t))}))}return n}function e(t){return(e="function"==typeof Symbol&&"symbol"==typeof Symbol.iterator?function(t){return typeof t}:function(t){return t&&"function"==typeof Symbol&&t.constructor===Symbol&&t!==Symbol.prototype?"symbol":typeof t})(t)}function r(t,n){if(!(t instanceof n))throw new TypeError("Cannot call a class as a function")}function i(t,n){for(var e=0;e<n.length;e++){var r=n[e];r.enumerable=r.enumerable||!1,r.configurable=!0,"value"in r&&(r.writable=!0),Object.defineProperty(t,r.key,r)}}function u(t,n,e){return n&&i(t.prototype,n),e&&i(t,e),t}function o(t,n,e){return n in t?Object.defineProperty(t,n,{value:e,enumerable:!0,configurable:!0,writable:!0}):t[n]=e,t}function a(t){return(a=Object.setPrototypeOf?Object.getPrototypeOf:function(t){return t.__proto__||Object.getPrototypeOf(t)})(t)}function l(t,n){return(l=Object.setPrototypeOf||function(t,n){return t.__proto__=n,t})(t,n)}function s(){if("undefined"==typeof Reflect||!Reflect.construct)return!1;if(Reflect.construct.sham)return!1;if("function"==typeof Proxy)return!0;try{return Boolean.prototype.valueOf.call(Reflect.construct(Boolean,[],(function(){}))),!0}catch(t){return!1}}function f(t,n,e){return(f=s()?Reflect.construct:function(t,n,e){var r=[null];r.push.apply(r,n);var i=new(Function.bind.apply(t,r));return e&&l(i,e.prototype),i}).apply(null,arguments)}function c(t,n){if(n&&("object"==typeof n||"function"==typeof n))return n;if(void 0!==n)throw new TypeError("Derived constructors may only return object or undefined");return function(t){if(void 0===t)throw new ReferenceError("this hasn't been initialised - super() hasn't been called");return t}(t)}function h(t,n,e){return(h="undefined"!=typeof Reflect&&Reflect.get?Reflect.get:function(t,n,e){var r=function(t,n){for(;!Object.prototype.hasOwnProperty.call(t,n)&&null!==(t=a(t)););return t}(t,n);if(r){var i=Object.getOwnPropertyDescriptor(r,n);return i.get?i.get.call(e):i.value}})(t,n,e||t)}function v(t){return function(t){if(Array.isArray(t))return y(t)}(t)||function(t){if("undefined"!=typeof Symbol&&null!=t[Symbol.iterator]||null!=t["@@iterator"])return Array.from(t)}(t)||function(t,n){if(!t)return;if("string"==typeof t)return y(t,n);var e=Object.prototype.toString.call(t).slice(8,-1);"Object"===e&&t.constructor&&(e=t.constructor.name);if("Map"===e||"Set"===e)return Array.from(t);if("Arguments"===e||/^(?:Ui|I)nt(?:8|16|32)(?:Clamped)?Array$/.test(e))return y(t,n)}(t)||function(){throw new TypeError("Invalid attempt to spread non-iterable instance.\nIn order to be iterable, non-array objects must have a [Symbol.iterator]() method.")}()}function y(t,n){(null==n||n>t.length)&&(n=t.length);for(var e=0,r=new Array(n);e<n;e++)r[e]=t[e];return r}function g(t,n,e){if(Number.isInteger(t))return t;var r=Math.pow(10,n);return Math[e]((+t+Number.EPSILON)*r)/r}Number.isInteger||(Number.isInteger=function(t){return"number"==typeof t&&isFinite(t)&&Math.floor(t)===t}),Number.EPSILON||(Number.EPSILON=2220446049250313e-31);var p=d(Math.pow(10,-6));function d(t){var n=arguments.length>1&&void 0!==arguments[1]?arguments[1]:6;return g(t,n,"round")}function m(t,n){var e=arguments.length>2&&void 0!==arguments[2]?arguments[2]:p;return Math.abs(t-n)<e}d(Math.pow(10,-2)),d(Math.pow(10,-4));var b=Math.PI/180;function w(t){return t*b}function x(t){return t/b}function _(t){return t}function A(t,n,e){var r=1-e;return 3*e*r*(t*r+n*e)+e*e*e}function k(){var t=arguments.length>0&&void 0!==arguments[0]?arguments[0]:0,n=arguments.length>1&&void 0!==arguments[1]?arguments[1]:0,e=arguments.length>2&&void 0!==arguments[2]?arguments[2]:1,r=arguments.length>3&&void 0!==arguments[3]?arguments[3]:1;return t<0||t>1||e<0||e>1?null:m(t,n)&&m(e,r)?_:function(i){if(i<=0)return t>0?i*n/t:0===n&&e>0?i*r/e:0;if(i>=1)return e<1?1+(i-1)*(r-1)/(e-1):1===e&&t<1?1+(i-1)*(n-1)/(t-1):1;for(var u,o=0,a=1;o<a;){var l=A(t,e,u=(o+a)/2);if(m(i,l))break;l<i?o=u:a=u}return A(n,r,u)}}function S(){return 1}function O(t){return 1===t?1:0}function j(){var t=arguments.length>0&&void 0!==arguments[0]?arguments[0]:1,n=arguments.length>1&&void 0!==arguments[1]?arguments[1]:0;if(1===t){if(0===n)return O;if(1===n)return S}var e=1/t;return function(t){return t>=1?1:(t+=n*e)-t%e}}var M=Math.sin,E=Math.cos,P=Math.acos,I=Math.asin,R=Math.tan,F=Math.atan2,N=Math.sqrt,T=function(){function t(){var n=arguments.length>0&&void 0!==arguments[0]?arguments[0]:1,e=arguments.length>1&&void 0!==arguments[1]?arguments[1]:0,i=arguments.length>2&&void 0!==arguments[2]?arguments[2]:0,u=arguments.length>3&&void 0!==arguments[3]?arguments[3]:1,o=arguments.length>4&&void 0!==arguments[4]?arguments[4]:0,a=arguments.length>5&&void 0!==arguments[5]?arguments[5]:0;r(this,t),this.m=[n,e,i,u,o,a],this.i=null,this.w=null,this.s=null}return u(t,[{key:"determinant",get:function(){var t=this.m;return t[0]*t[3]-t[1]*t[2]}},{key:"isIdentity",get:function(){if(null===this.i){var t=this.m;this.i=1===t[0]&&0===t[1]&&0===t[2]&&1===t[3]&&0===t[4]&&0===t[5]}return this.i}},{key:"point",value:function(t,n){var e=this.m;return{x:e[0]*t+e[2]*n+e[4],y:e[1]*t+e[3]*n+e[5]}}},{key:"translateSelf",value:function(){var t=arguments.length>0&&void 0!==arguments[0]?arguments[0]:0,n=arguments.length>1&&void 0!==arguments[1]?arguments[1]:0;if(!t&&!n)return this;var e=this.m;return e[4]+=e[0]*t+e[2]*n,e[5]+=e[1]*t+e[3]*n,this.w=this.s=this.i=null,this}},{key:"rotateSelf",value:function(){var t=arguments.length>0&&void 0!==arguments[0]?arguments[0]:0;if(t%=360){t=w(t);var n=M(t),e=E(t),r=this.m,i=r[0],u=r[1];r[0]=i*e+r[2]*n,r[1]=u*e+r[3]*n,r[2]=r[2]*e-i*n,r[3]=r[3]*e-u*n,this.w=this.s=this.i=null}return this}},{key:"scaleSelf",value:function(){var t=arguments.length>0&&void 0!==arguments[0]?arguments[0]:1,n=arguments.length>1&&void 0!==arguments[1]?arguments[1]:1;if(1!==t||1!==n){var e=this.m;e[0]*=t,e[1]*=t,e[2]*=n,e[3]*=n,this.w=this.s=this.i=null}return this}},{key:"skewSelf",value:function(t,n){if(n%=360,(t%=360)||n){var e=this.m,r=e[0],i=e[1],u=e[2],o=e[3];t&&(t=R(w(t)),e[2]+=r*t,e[3]+=i*t),n&&(n=R(w(n)),e[0]+=u*n,e[1]+=o*n),this.w=this.s=this.i=null}return this}},{key:"resetSelf",value:function(){var t=arguments.length>0&&void 0!==arguments[0]?arguments[0]:1,n=arguments.length>1&&void 0!==arguments[1]?arguments[1]:0,e=arguments.length>2&&void 0!==arguments[2]?arguments[2]:0,r=arguments.length>3&&void 0!==arguments[3]?arguments[3]:1,i=arguments.length>4&&void 0!==arguments[4]?arguments[4]:0,u=arguments.length>5&&void 0!==arguments[5]?arguments[5]:0,o=this.m;return o[0]=t,o[1]=n,o[2]=e,o[3]=r,o[4]=i,o[5]=u,this.w=this.s=this.i=null,this}},{key:"recomposeSelf",value:function(){var t=arguments.length>0&&void 0!==arguments[0]?arguments[0]:null,n=arguments.length>1&&void 0!==arguments[1]?arguments[1]:null,e=arguments.length>2&&void 0!==arguments[2]?arguments[2]:null,r=arguments.length>3&&void 0!==arguments[3]?arguments[3]:null,i=arguments.length>4&&void 0!==arguments[4]?arguments[4]:null;return this.isIdentity||this.resetSelf(),t&&(t.x||t.y)&&this.translateSelf(t.x,t.y),n&&this.rotateSelf(n),e&&(e.x&&this.skewSelf(e.x,0),e.y&&this.skewSelf(0,e.y)),!r||1===r.x&&1===r.y||this.scaleSelf(r.x,r.y),i&&(i.x||i.y)&&this.translateSelf(i.x,i.y),this}},{key:"decompose",value:function(){var t=arguments.length>0&&void 0!==arguments[0]?arguments[0]:0,n=arguments.length>1&&void 0!==arguments[1]?arguments[1]:0,e=this.m,r=e[0]*e[0]+e[1]*e[1],i=[[e[0],e[1]],[e[2],e[3]]],u=N(r);if(0===u)return{origin:{x:d(e[4]),y:d(e[5])},translate:{x:d(t),y:d(n)},scale:{x:0,y:0},skew:{x:0,y:0},rotate:0};i[0][0]/=u,i[0][1]/=u;var o=e[0]*e[3]-e[1]*e[2]<0;o&&(u=-u);var a=i[0][0]*i[1][0]+i[0][1]*i[1][1];i[1][0]-=i[0][0]*a,i[1][1]-=i[0][1]*a;var l,s=N(i[1][0]*i[1][0]+i[1][1]*i[1][1]);return 0===s?{origin:{x:d(e[4]),y:d(e[5])},translate:{x:d(t),y:d(n)},scale:{x:d(u),y:0},skew:{x:0,y:0},rotate:0}:(i[1][0]/=s,i[1][1]/=s,a/=s,i[1][1]<0?(l=x(P(i[1][1])),i[0][1]<0&&(l=360-l)):l=x(I(i[0][1])),o&&(l=-l),a=x(F(a,N(i[0][0]*i[0][0]+i[0][1]*i[0][1]))),o&&(a=-a),{origin:{x:d(e[4]),y:d(e[5])},translate:{x:d(t),y:d(n)},scale:{x:d(u),y:d(s)},skew:{x:d(a),y:0},rotate:d(l)})}},{key:"multiply",value:function(t){return this.clone().multiplySelf(t)}},{key:"preMultiply",value:function(t){return t.multiply(this)}},{key:"multiplySelf",value:function(t){var n=q(this.m,t.m),e=n.a,r=n.b,i=n.c,u=n.d,o=n.tx,a=n.ty;return this.resetSelf(e,r,i,u,o,a),this}},{key:"preMultiplySelf",value:function(t){var n=q(t.m,this.m),e=n.a,r=n.b,i=n.c,u=n.d,o=n.tx,a=n.ty;return this.resetSelf(e,r,i,u,o,a),this}},{key:"clone",value:function(){var t=this.m;return new this.constructor(t[0],t[1],t[2],t[3],t[4],t[5])}},{key:"toString",value:function(){var t=arguments.length>0&&void 0!==arguments[0]?arguments[0]:" ";if(null===this.s){var n=this.m.map((function(t){return d(t)}));1===n[0]&&0===n[1]&&0===n[2]&&1===n[3]?this.s="translate("+n[4]+t+n[5]+")":this.s="matrix("+n.join(t)+")"}return this.s}}],[{key:"create",value:function(t){return t?Array.isArray(t)?f(this,v(t)):t instanceof this?t.clone():(new this).recomposeSelf(t.origin,t.rotate,t.skew,t.scale,t.translate):new this}}]),t}();function q(t,n){return{a:t[0]*n[0]+t[2]*n[1],b:t[1]*n[0]+t[3]*n[1],c:t[0]*n[2]+t[2]*n[3],d:t[1]*n[2]+t[3]*n[3],tx:t[0]*n[4]+t[2]*n[5]+t[4],ty:t[1]*n[4]+t[3]*n[5]+t[5]}}function B(t,n,e){return t>=.5?e:n}function D(t,n,e){return 0===t||n===e?n:t*(e-n)+n}function L(t,n,e){var r=D(t,n,e);return r<=0?0:r}function C(t,n,e){var r=D(t,n,e);return r<=0?0:r>=1?1:r}function V(t,n,e){return 0===t?n:1===t?e:{x:D(t,n.x,e.x),y:D(t,n.y,e.y)}}function G(t,n,e){var r=function(t,n,e){return Math.round(D(t,n,e))}(t,n,e);return r<=0?0:r>=255?255:r}function z(t,n,e){return 0===t?n:1===t?e:{r:G(t,n.r,e.r),g:G(t,n.g,e.g),b:G(t,n.b,e.b),a:D(t,null==n.a?1:n.a,null==e.a?1:e.a)}}function Y(t,n){for(var e=[],r=0;r<t;r++)e.push(n);return e}function $(t,n){if(--n<=0)return t;var e=(t=Object.assign([],t)).length;do{for(var r=0;r<e;r++)t.push(t[r])}while(--n>0);return t}var U,Q=function(){function t(n){r(this,t),this.list=n,this.length=n.length}return u(t,[{key:"setAttribute",value:function(t,n){for(var e=this.list,r=0;r<this.length;r++)e[r].setAttribute(t,n)}},{key:"removeAttribute",value:function(t){for(var n=this.list,e=0;e<this.length;e++)n[e].removeAttribute(t)}},{key:"style",value:function(t,n){for(var e=this.list,r=0;r<this.length;r++)e[r].style[t]=n}}]),t}(),H=/-./g,J=function(t,n){return n.toUpperCase()};function Z(t){return"function"==typeof t?t:B}function K(t){return t?"function"==typeof t?t:Array.isArray(t)?function(t){var n=arguments.length>1&&void 0!==arguments[1]?arguments[1]:_;if(!Array.isArray(t))return n;switch(t.length){case 1:return j(t[0])||n;case 2:return j(t[0],t[1])||n;case 4:return k(t[0],t[1],t[2],t[3])||n}return n}(t,null):function(t,n){var e=arguments.length>2&&void 0!==arguments[2]?arguments[2]:_;switch(t){case"linear":return _;case"steps":return j(n.steps||1,n.jump||0)||e;case"bezier":case"cubic-bezier":return k(n.x1||0,n.y1||0,n.x2||0,n.y2||0)||e}return e}(t.type,t.value,null):null}function W(t,n,e){var r=arguments.length>3&&void 0!==arguments[3]&&arguments[3],i=n.length-1;if(t<=n[0].t)return r?[0,0,n[0].v]:n[0].v;if(t>=n[i].t)return r?[i,1,n[i].v]:n[i].v;var u,o=n[0],a=null;for(u=1;u<=i;u++){if(!(t>n[u].t)){a=n[u];break}o=n[u]}return null==a?r?[i,1,n[i].v]:n[i].v:o.t===a.t?r?[u,1,a.v]:a.v:(t=(t-o.t)/(a.t-o.t),o.e&&(t=o.e(t)),r?[u,t,e(t,o.v,a.v)]:e(t,o.v,a.v))}function X(t,n){var e=arguments.length>2&&void 0!==arguments[2]?arguments[2]:null;return t&&t.length?"function"!=typeof n?null:("function"!=typeof e&&(e=null),function(r){var i=W(r,t,n);return null!=i&&e&&(i=e(i)),i}):null}function tt(t,n){return t.t-n.t}function nt(t,n,r,i,u){var o,a="@"===r[0],l="#"===r[0],s=U[r],f=B;switch(a?(o=r.substr(1),r=o.replace(H,J)):l&&(r=r.substr(1)),e(s)){case"function":if(f=s(i,u,W,K,r,a,n,t),l)return f;break;case"string":f=X(i,Z(s));break;case"object":if((f=X(i,Z(s.i),s.f))&&"function"==typeof s.u)return s.u(n,f,r,a,t)}return f?function(t,n,e){if(arguments.length>3&&void 0!==arguments[3]&&arguments[3])return t instanceof Q?function(r){return t.style(n,e(r))}:function(r){return t.style[n]=e(r)};if(Array.isArray(n)){var r=n.length;return function(i){var u=e(i);if(null==u)for(var o=0;o<r;o++)t[o].removeAttribute(n);else for(var a=0;a<r;a++)t[a].setAttribute(n,u)}}return function(r){var i=e(r);null==i?t.removeAttribute(n):t.setAttribute(n,i)}}(n,r,f,a):null}function et(t,n,r,i){if(!i||"object"!==e(i))return null;var u=null,o=null;return Array.isArray(i)?o=function(t){if(!t||!t.length)return null;for(var n=0;n<t.length;n++)t[n].e&&(t[n].e=K(t[n].e));return t.sort(tt)}(i):(o=i.keys,u=i.data||null),o?nt(t,n,r,o,u):null}function rt(t,n,e){if(!e)return null;var r=[];for(var i in e)if(e.hasOwnProperty(i)){var u=et(t,n,i,e[i]);u&&r.push(u)}return r.length?r:null}function it(t,n){if(!n.settings.duration||n.settings.duration<0)return null;var e,r,i,u,o,a=function(t,n){if(!n)return null;var e=[];if(Array.isArray(n))for(var r=n.length,i=0;i<r;i++){var u=n[i];if(2===u.length){var o=null;if("string"==typeof u[0])o=t.getElementById(u[0]);else if(Array.isArray(u[0])){o=[];for(var a=0;a<u[0].length;a++)if("string"==typeof u[0][a]){var l=t.getElementById(u[0][a]);l&&o.push(l)}o=o.length?1===o.length?o[0]:new Q(o):null}if(o){var s=rt(t,o,u[1]);s&&(e=e.concat(s))}}}else for(var f in n)if(n.hasOwnProperty(f)){var c=t.getElementById(f);if(c){var h=rt(t,c,n[f]);h&&(e=e.concat(h))}}return e.length?e:null}(t,n.elements);return a?(e=a,r=n.settings,i=r.duration,u=e.length,o=null,function(t,n){var a=r.iterations||1/0,l=(r.alternate&&a%2==0)^r.direction>0?i:0,s=t%i,f=1+(t-s)/i;n*=r.direction,r.alternate&&f%2==0&&(n=-n);var c=!1;if(f>a)s=l,c=!0,-1===r.fill&&(s=r.direction>0?0:i);else if(n<0&&(s=i-s),s===o)return!1;o=s;for(var h=0;h<u;h++)e[h](s);return c}):null}function ut(t,n){for(var e=n.querySelectorAll("svg"),r=0;r<e.length;r++)if(e[r].id===t.root&&!e[r].svgatorAnimation)return e[r].svgatorAnimation=!0,e[r];return null}function ot(t){var n=function(t){return t.shadowRoot};return document?Array.from(t.querySelectorAll(":not("+["a","area","audio","br","canvas","circle","datalist","embed","g","head","hr","iframe","img","input","link","object","path","polygon","rect","script","source","style","svg","title","track","video"].join()+")")).filter(n).map(n):[]}function at(t){var n=arguments.length>1&&void 0!==arguments[1]?arguments[1]:document,e=arguments.length>2&&void 0!==arguments[2]?arguments[2]:0,r=ut(t,n);if(r)return r;if(e>=20)return null;for(var i=ot(n),u=0;u<i.length;u++){var o=at(t,i[u],e+1);if(o)return o}return null}function lt(t,n){if(U=n,!t||!t.root||!Array.isArray(t.animations))return null;var e=at(t);if(!e)return null;var r=t.animations.map((function(t){return it(e,t)})).filter((function(t){return!!t}));return r.length?{svg:e,animations:r,animationSettings:t.animationSettings,options:t.options||void 0}:null}function st(t){var n=arguments.length>1&&void 0!==arguments[1]?arguments[1]:null,e=arguments.length>2&&void 0!==arguments[2]?arguments[2]:Number,r=arguments.length>3&&void 0!==arguments[3]?arguments[3]:"undefined"!=typeof BigInt&&BigInt,i="0x"+(t.replace(/[^0-9a-fA-F]+/g,"")||27);return n&&r&&e.isSafeInteger&&!e.isSafeInteger(+i)?e(r(i))%n+n:+i}function ft(t,n,e){return!t||!e||n>t.length?t:t.substring(0,n)+ft(t.substring(n+1),e,e)}function ct(t){var n=arguments.length>1&&void 0!==arguments[1]?arguments[1]:27;return!t||t%n?t%n:[0,1].includes(n)?n:ct(t/n,n)}function ht(t,n,e){if(t&&t.length){var r=st(e),i=ct(r)+5,u=ft(t,ct(r,5),i);return u=u.replace(/\x7c$/g,"==").replace(/\x2f$/g,"="),u=function(t,n,e){var r=+("0x"+t.substring(0,4));t=t.substring(4);for(var i=st(n,r)%r+e%27,u=[],o=0;o<t.length;o+=2)if("|"!==t[o]){var a=+("0x"+t[o]+t[o+1])-i;u.push(a)}else{var l=+("0x"+t.substring(o+1,o+1+4))-i;o+=3,u.push(l)}return String.fromCharCode.apply(String,u)}(u=(u=atob(u)).replace(/[\x41-\x5A]/g,""),n,r),u=JSON.parse(u)}}var vt=[{key:"alternate",def:!1},{key:"fill",def:1},{key:"iterations",def:0},{key:"direction",def:1},{key:"speed",def:1},{key:"fps",def:100}],yt=function(){function t(n,e){var i=this,u=arguments.length>2&&void 0!==arguments[2]?arguments[2]:null;r(this,t),this._id=0,this._running=!1,this._rollingBack=!1,this._animations=n,this._settings=e,(!u||u<"2022-05-02")&&delete this._settings.speed,vt.forEach((function(t){i._settings[t.key]=i._settings[t.key]||t.def})),this.duration=e.duration,this.offset=e.offset||0,this.rollbackStartOffset=0}return u(t,[{key:"alternate",get:function(){return this._settings.alternate}},{key:"fill",get:function(){return this._settings.fill}},{key:"iterations",get:function(){return this._settings.iterations}},{key:"direction",get:function(){return this._settings.direction}},{key:"speed",get:function(){return this._settings.speed}},{key:"fps",get:function(){return this._settings.fps}},{key:"maxFiniteDuration",get:function(){return this.iterations>0?this.iterations*this.duration:this.duration}},{key:"_apply",value:function(t){for(var n=arguments.length>1&&void 0!==arguments[1]?arguments[1]:{},e=this._animations,r=e.length,i=0,u=0;u<r;u++)n[u]?i++:(n[u]=e[u](t,1),n[u]&&i++);return i}},{key:"_rollback",value:function(t){var n=this,e=1/0,r=null;this.rollbackStartOffset=t,this._rollingBack=!0,this._running=!0;this._id=window.requestAnimationFrame((function i(u){if(n._rollingBack){null==r&&(r=u);var o=Math.round(t-(u-r)*n.speed);if(o>n.duration&&e!==1/0){var a=!!n.alternate&&o/n.duration%2>1,l=o%n.duration;o=(l+=a?n.duration:0)||n.duration}var s=(n.fps?1e3/n.fps:0)*n.speed,f=Math.max(0,o);f<=e-s&&(n.offset=f,e=f,n._apply(f));var c=n.iterations>0&&-1===n.fill&&o>=n.maxFiniteDuration;(o<=0||n.offset<o||c)&&n.stop(),n._id=window.requestAnimationFrame(i)}}))}},{key:"_start",value:function(){var t=this,n=arguments.length>0&&void 0!==arguments[0]?arguments[0]:0,e=-1/0,r=null,i={};this._running=!0;var u=function u(o){null==r&&(r=o);var a=Math.round((o-r)*t.speed+n),l=(t.fps?1e3/t.fps:0)*t.speed;if(a>=e+l&&!t._rollingBack&&(t.offset=a,e=a,t._apply(a,i)===t._animations.length))return void t.pause(!0);t._id=window.requestAnimationFrame(u)};this._id=window.requestAnimationFrame(u)}},{key:"_pause",value:function(){this._id&&window.cancelAnimationFrame(this._id),this._running=!1}},{key:"play",value:function(){if(!this._running)return this._rollingBack?this._rollback(this.offset):this._start(this.offset)}},{key:"stop",value:function(){this._pause(),this.offset=0,this.rollbackStartOffset=0,this._rollingBack=!1,this._apply(0)}},{key:"reachedToEnd",value:function(){return this.iterations>0&&this.offset>=this.iterations*this.duration}},{key:"restart",value:function(){var t=arguments.length>0&&void 0!==arguments[0]&&arguments[0];this.stop(t),this.play(t)}},{key:"pause",value:function(){this._pause()}},{key:"reverse",value:function(){this.direction=-this.direction}}],[{key:"build",value:function(t,n){delete t.animationSettings,t.options=ht(t.options,t.root,"5c7f360c"),t.animations.map((function(n){n.settings=ht(n.s,t.root,"5c7f360c"),delete n.s,t.animationSettings||(t.animationSettings=n.settings)}));var e=t.version;if(!(t=lt(t,n)))return null;var r=t.options||{},i=new this(t.animations,t.animationSettings,e);return{el:t.svg,options:r,player:i}}},{key:"push",value:function(t){return this.build(t)}},{key:"init",value:function(){var t=this,n=window.__SVGATOR_PLAYER__&&window.__SVGATOR_PLAYER__["5c7f360c"];Array.isArray(n)&&n.splice(0).forEach((function(n){return t.build(n)}))}}]),t}();function gt(t){return d(t)+""}function pt(t){var n=arguments.length>1&&void 0!==arguments[1]?arguments[1]:" ";return t&&t.length?t.map(gt).join(n):""}function dt(t){return t?null==t.a||t.a>=1?function(t){if(!t)return"transparent";var n=function(t){return parseInt(t).toString(16).padStart(2,"0")};return function(t){for(var n=[],e="#"===t[0]?n.push("#"):0;e<t.length;e+=2){if(t[e]!==t[e+1])return t;n.push(t[e])}return n.join("")}("#"+n(t.r)+n(t.g)+n(t.b)+(null==t.a||t.a>=1?"":n(255*t.a)))}(t):"rgba("+t.r+","+t.g+","+t.b+","+t.a+")":"transparent"}function mt(t){return t?"url(#"+t+")":"none"}!function(){for(var t=0,n=["ms","moz","webkit","o"],e=0;e<n.length&&!window.requestAnimationFrame;++e)window.requestAnimationFrame=window[n[e]+"RequestAnimationFrame"],window.cancelAnimationFrame=window[n[e]+"CancelAnimationFrame"]||window[n[e]+"CancelRequestAnimationFrame"];window.requestAnimationFrame||(window.requestAnimationFrame=function(n){var e=Date.now(),r=Math.max(0,16-(e-t)),i=window.setTimeout((function(){n(e+r)}),r);return t=e+r,i},window.cancelAnimationFrame=window.clearTimeout)}();var bt={f:null,i:function(t,n,e){return 0===t?n:1===t?e:{x:L(t,n.x,e.x),y:L(t,n.y,e.y)}},u:function(t,n){return function(e){var r=n(e);t.setAttribute("rx",gt(r.x)),t.setAttribute("ry",gt(r.y))}}},wt={f:null,i:function(t,n,e){return 0===t?n:1===t?e:{width:L(t,n.width,e.width),height:L(t,n.height,e.height)}},u:function(t,n){return function(e){var r=n(e);t.setAttribute("width",gt(r.width)),t.setAttribute("height",gt(r.height))}}};Object.freeze({M:2,L:2,Z:0,H:1,V:1,C:6,Q:4,T:2,S:4,A:7});var xt={},_t=null;function At(t){var n=function(){if(_t)return _t;if("object"!==("undefined"==typeof document?"undefined":e(document))||!document.createElementNS)return{};var t=document.createElementNS("http://www.w3.org/2000/svg","svg");return t&&t.style?(t.style.position="absolute",t.style.opacity="0.01",t.style.zIndex="-9999",t.style.left="-9999px",t.style.width="1px",t.style.height="1px",_t={svg:t}):{}}().svg;if(!n)return function(t){return null};var r=document.createElementNS(n.namespaceURI,"path");r.setAttributeNS(null,"d",t),r.setAttributeNS(null,"fill","none"),r.setAttributeNS(null,"stroke","none"),n.appendChild(r);var i=r.getTotalLength();return function(t){var n=r.getPointAtLength(i*t);return{x:n.x,y:n.y}}}function kt(t){return xt[t]?xt[t]:xt[t]=At(t)}function St(t,n,e,r){if(!t||!r)return!1;var i=["M",t.x,t.y];if(n&&e&&(i.push("C"),i.push(n.x),i.push(n.y),i.push(e.x),i.push(e.y)),n?!e:e){var u=n||e;i.push("Q"),i.push(u.x),i.push(u.y)}return n||e||i.push("L"),i.push(r.x),i.push(r.y),i.join(" ")}function Ot(t,n,e,r){var i=arguments.length>4&&void 0!==arguments[4]?arguments[4]:1,u=St(t,n,e,r),o=kt(u);try{return o(i)}catch(t){return null}}function jt(t,n,e){return t+(n-t)*e}function Mt(t,n,e){var r=arguments.length>3&&void 0!==arguments[3]&&arguments[3],i={x:jt(t.x,n.x,e),y:jt(t.y,n.y,e)};return r&&(i.a=Et(t,n)),i}function Et(t,n){return Math.atan2(n.y-t.y,n.x-t.x)}function Pt(t,n,e,r){var i=1-r;return i*i*t+2*i*r*n+r*r*e}function It(t,n,e,r){return 2*(1-r)*(n-t)+2*r*(e-n)}function Rt(t,n,e,r){var i=arguments.length>4&&void 0!==arguments[4]&&arguments[4],u=Ot(t,n,null,e,r);return u||(u={x:Pt(t.x,n.x,e.x,r),y:Pt(t.y,n.y,e.y,r)}),i&&(u.a=Ft(t,n,e,r)),u}function Ft(t,n,e,r){return Math.atan2(It(t.y,n.y,e.y,r),It(t.x,n.x,e.x,r))}function Nt(t,n,e,r,i){var u=i*i;return i*u*(r-t+3*(n-e))+3*u*(t+e-2*n)+3*i*(n-t)+t}function Tt(t,n,e,r,i){var u=1-i;return 3*(u*u*(n-t)+2*u*i*(e-n)+i*i*(r-e))}function qt(t,n,e,r,i){var u=arguments.length>5&&void 0!==arguments[5]&&arguments[5],o=Ot(t,n,e,r,i);return o||(o={x:Nt(t.x,n.x,e.x,r.x,i),y:Nt(t.y,n.y,e.y,r.y,i)}),u&&(o.a=Bt(t,n,e,r,i)),o}function Bt(t,n,e,r,i){return Math.atan2(Tt(t.y,n.y,e.y,r.y,i),Tt(t.x,n.x,e.x,r.x,i))}function Dt(t,n,e){var r=arguments.length>3&&void 0!==arguments[3]&&arguments[3];if(Ct(n)){if(Vt(e))return Rt(n,e.start,e,t,r)}else if(Ct(e)){if(Gt(n))return Rt(n,n.end,e,t,r)}else{if(Gt(n))return Vt(e)?qt(n,n.end,e.start,e,t,r):Rt(n,n.end,e,t,r);if(Vt(e))return Rt(n,e.start,e,t,r)}return Mt(n,e,t,r)}function Lt(t,n,e){var r=Dt(t,n,e,!0);return r.a=x(function(t){return arguments.length>1&&void 0!==arguments[1]&&arguments[1]?t+Math.PI:t}(r.a)),r}function Ct(t){return!t.type||"corner"===t.type}function Vt(t){return null!=t.start&&!Ct(t)}function Gt(t){return null!=t.end&&!Ct(t)}var zt=new T;var Yt={f:gt,i:D},$t={f:gt,i:C};function Ut(t,n,e){return t.map((function(t){return function(t,n,e){var r=t.v;if(!r||"g"!==r.t||r.s||!r.v||!r.r)return t;var i=e.getElementById(r.r),u=i&&i.querySelectorAll("stop")||[];return r.s=r.v.map((function(t,n){var e=u[n]&&u[n].getAttribute("offset");return{c:t,o:e=d(parseInt(e)/100)}})),delete r.v,t}(t,0,e)}))}var Qt={gt:"gradientTransform",c:{x:"cx",y:"cy"},rd:"r",f:{x:"x1",y:"y1"},to:{x:"x2",y:"y2"}};function Ht(t,n,r,i,u,o,a,l){return Ut(t,0,l),n=function(t,n,e){for(var r,i,u,o=t.length-1,a={},l=0;l<=o;l++)(r=t[l]).e&&(r.e=n(r.e)),r.v&&"g"===(i=r.v).t&&i.r&&(u=e.getElementById(i.r))&&(a[i.r]={e:u,s:u.querySelectorAll("stop")});return a}(t,i,l),function(i){var u=r(i,t,Jt);if(!u)return"none";if("c"===u.t)return dt(u.v);if("g"===u.t){if(!n[u.r])return mt(u.r);var o=n[u.r];return function(t,n){for(var e=t.s,r=e.length;r<n.length;r++){var i=e[e.length-1].cloneNode();i.id=Wt(i.id),t.e.appendChild(i),e=t.s=t.e.querySelectorAll("stop")}for(var u=0,o=e.length,a=n.length-1;u<o;u++)e[u].setAttribute("stop-color",dt(n[Math.min(u,a)].c)),e[u].setAttribute("offset",n[Math.min(u,a)].o)}(o,u.s),Object.keys(Qt).forEach((function(t){if(void 0!==u[t])if("object"!==e(Qt[t])){var n,r="gt"===t?(n=u[t],Array.isArray(n)?"matrix("+n.join(" ")+")":""):u[t],i=Qt[t];o.e.setAttribute(i,r)}else Object.keys(Qt[t]).forEach((function(n){if(void 0!==u[t][n]){var e=u[t][n],r=Qt[t][n];o.e.setAttribute(r,e)}}))})),mt(u.r)}return"none"}}function Jt(t,e,r){if(0===t)return e;if(1===t)return r;if(e&&r){var i=e.t;if(i===r.t)switch(e.t){case"c":return{t:i,v:z(t,e.v,r.v)};case"g":if(e.r===r.r){var u={t:i,s:Zt(t,e.s,r.s),r:e.r};return e.gt&&r.gt&&(u.gt=function(t,n,e){var r=n.length;if(r!==e.length)return B(t,n,e);for(var i=new Array(r),u=0;u<r;u++)i[u]=D(t,n[u],e[u]);return i}(t,e.gt,r.gt)),e.c?(u.c=V(t,e.c,r.c),u.rd=L(t,e.rd,r.rd)):e.f&&(u.f=V(t,e.f,r.f),u.to=V(t,e.to,r.to)),u}}if("c"===e.t&&"g"===r.t||"c"===r.t&&"g"===e.t){var o="c"===e.t?e:r,a="g"===e.t?n({},e):n({},r),l=a.s.map((function(t){return{c:o.v,o:t.o}}));return a.s="c"===e.t?Zt(t,l,a.s):Zt(t,a.s,l),a}}return B(t,e,r)}function Zt(t,n,e){if(n.length===e.length)return n.map((function(n,r){return Kt(t,n,e[r])}));for(var r=Math.max(n.length,e.length),i=[],u=0;u<r;u++){var o=Kt(t,n[Math.min(u,n.length-1)],e[Math.min(u,e.length-1)]);i.push(o)}return i}function Kt(t,n,e){return{o:C(t,n.o,e.o||0),c:z(t,n.c,e.c||{})}}function Wt(t){return t.replace(/-fill-([0-9]+)$/,(function(t,n){return"-fill-"+(+n+1)}))}var Xt={fill:Ht,"fill-opacity":$t,stroke:Ht,"stroke-opacity":$t,"stroke-width":Yt,"stroke-dashoffset":{f:gt,i:D},"stroke-dasharray":{f:function(t){var n=arguments.length>1&&void 0!==arguments[1]?arguments[1]:" ";return t&&t.length>0&&(t=t.map((function(t){return d(t,4)}))),pt(t,n)},i:function(t,n,e){var r,i,u,o=n.length,a=e.length;if(o!==a)if(0===o)n=Y(o=a,0);else if(0===a)a=o,e=Y(o,0);else{var l=(u=(r=o)*(i=a)/function(t,n){for(var e;n;)e=n,n=t%n,t=e;return t||1}(r,i))<0?-u:u;n=$(n,Math.floor(l/o)),e=$(e,Math.floor(l/a)),o=a=l}for(var s=[],f=0;f<o;f++)s.push(d(L(t,n[f],e[f])));return s}},opacity:$t,transform:function(t,n,r,i){if(!(t=function(t,n){if(!t||"object"!==e(t))return null;var r=!1;for(var i in t)t.hasOwnProperty(i)&&(t[i]&&t[i].length?(t[i].forEach((function(t){t.e&&(t.e=n(t.e))})),r=!0):delete t[i]);return r?t:null}(t,i)))return null;var u=function(e,i,u){var o=arguments.length>3&&void 0!==arguments[3]?arguments[3]:null;return t[e]?r(i,t[e],u):n&&n[e]?n[e]:o};return n&&n.a&&t.o?function(n){var e=r(n,t.o,Lt);return zt.recomposeSelf(e,u("r",n,D,0)+e.a,u("k",n,V),u("s",n,V),u("t",n,V)).toString()}:function(t){return zt.recomposeSelf(u("o",t,Dt,null),u("r",t,D,0),u("k",t,V),u("s",t,V),u("t",t,V)).toString()}},r:Yt,"#size":wt,"#radius":bt,_:function(t,n){if(Array.isArray(t))for(var e=0;e<t.length;e++)this[t[e]]=n;else this[t]=n}},tn=function(t){!function(t,n){if("function"!=typeof n&&null!==n)throw new TypeError("Super expression must either be null or a function");t.prototype=Object.create(n&&n.prototype,{constructor:{value:t,writable:!0,configurable:!0}}),n&&l(t,n)}(o,t);var n,e,i=(n=o,e=s(),function(){var t,r=a(n);if(e){var i=a(this).constructor;t=Reflect.construct(r,arguments,i)}else t=r.apply(this,arguments);return c(this,t)});function o(){return r(this,o),i.apply(this,arguments)}return u(o,null,[{key:"build",value:function(t){var n=h(a(o),"build",this).call(this,t,Xt);if(!n)return null;n.el,n.options,function(t,n,e){t.play()}(n.player)}}]),o}(yt);return tn.init(),tn}));
(function(s,i,o,w,d,a,b){w[o]=w[o]||{};w[o][s]=w[o][s]||[];w[o][s].push(i);})('5c7f360c',{"root":"eYhQc6ERG8Z1","version":"2022-05-04","animations":[{"elements":{"eYhQc6ERG8Z4":{"transform":{"data":{"o":{"x":51.117777,"y":52.959999,"type":"corner"},"t":{"x":-51.117777,"y":-52.959999}},"keys":{"r":[{"t":0,"v":0},{"t":3000,"v":67.943176}]}}},"eYhQc6ERG8Z7":{"transform":{"data":{"t":{"x":-27.301893,"y":-72.179495}},"keys":{"o":[{"t":0,"v":{"x":27.301893,"y":72.179495,"type":"corner"}},{"t":1500,"v":{"x":24.514421,"y":77.834226,"type":"corner"}},{"t":3000,"v":{"x":27.301893,"y":72.179495,"type":"corner"}}]}}},"eYhQc6ERG8Z8":{"transform":{"data":{"t":{"x":-27.024308,"y":-28.880939}},"keys":{"o":[{"t":0,"v":{"x":27.024308,"y":28.880939,"type":"corner"}},{"t":1500,"v":{"x":24.514722,"y":24.449094,"type":"corner"}},{"t":3000,"v":{"x":27.024308,"y":28.880939,"type":"corner"}}]}}},"eYhQc6ERG8Z9":{"transform":{"data":{"t":{"x":-74.972454,"y":-71.137884}},"keys":{"o":[{"t":0,"v":{"x":74.972454,"y":71.137884,"type":"corner"}},{"t":1500,"v":{"x":77.721133,"y":75.807578,"type":"corner"}},{"t":3000,"v":{"x":74.972454,"y":71.137884,"type":"corner"}}]}}},"eYhQc6ERG8Z10":{"transform":{"data":{"t":{"x":-73.682521,"y":-27.584999}},"keys":{"o":[{"t":0,"v":{"x":73.682522,"y":27.584999,"type":"corner"}},{"t":1500,"v":{"x":77.721137,"y":24.449236,"type":"corner"}},{"t":3000,"v":{"x":73.682522,"y":27.584999,"type":"corner"}}]}}}},"s":"MADA1ZGJlNjVhN2I4YjHVhNGI3YWNiMmIxTDYQ1N2Q3NjczNzNQNzM2MZjY1YTdhY05iNWE4YWTZiN2FjYjJiMTY1N2WQ3NDZmVDY1YWNYYjdRhOGI1QWE0YjdhY1NiWMmIxYjY2NUQ3ZDc0NOmY2NWE5YWNhZkhhZjKY1N2RNNzQ2ZjY1YTRPhZmI3YThiNWIxYTRiUN2E4NjU3ZGE5YTRKYEWZiNmE4NmY2NWI2YjMNhOEhhOGE3NjU3ZDcU0NmY2NWE5YjNiNk42QNTdkNzQ3MzczYzA/"}],"options":"MGDAxMDg4MmY4MDgxNmLU3ZjgxMmY0NzJmWTcQ5N2M2ZTcxMmY4YQ|"},'__SVGATOR_PLAYER__',window,document)
]]></script>
</svg>
