<svg xmlns="http://www.w3.org/2000/svg" id="Layer_1" data-name="Layer 1" viewBox="0 0 150 150"><defs><style>.cls-1{fill:#77787b;}</style></defs><path class="cls-1" d="M75,147.07A72.1,72.1,0,1,1,147.09,75,72.19,72.19,0,0,1,75,147.07ZM75,5.69A69.28,69.28,0,1,0,144.26,75,69.37,69.37,0,0,0,75,5.69Z"></path><path class="cls-1" d="M32.85,49.79a1.91,1.91,0,0,1,1-.81c1-.42,2.07-.88,3.12-1.26a1,1,0,0,0,.76-1.16,15,15,0,0,1,0-1.64,1.29,1.29,0,0,1,2.57,0c.12,1.54.12,1.54,1.59,1A80.84,80.84,0,0,1,51,43.33c.74-.16,1.12-.45,1-1.25a6.37,6.37,0,0,1,0-1.31,1.37,1.37,0,0,1,1.31-1.34,1.39,1.39,0,0,1,1.34,1.21,3.64,3.64,0,0,1,0,1c-.05.64.12.88.83.73,2.3-.47,4.63-.81,7-1.08.92-.11,1.85-.2,2.77-.27.74,0,1.18-.3,1.08-1.15a3.33,3.33,0,0,1,.1-1.47,1.25,1.25,0,0,1,1.43-1,1.23,1.23,0,0,1,1.13,1.22,6.31,6.31,0,0,1,0,1.23c-.07.68.25.88.87.81A66.44,66.44,0,0,1,77,40.55c1,0,1.91.07,2.86.15.7.06,1.05-.14,1-.9a5.53,5.53,0,0,1,0-1.15,1.31,1.31,0,0,1,2.57-.27,4.13,4.13,0,0,1,.11,1.31c0,1.2.07,1.24,1.31,1.34s2.61.24,3.91.43c1.92.27,3.84.58,5.75.91.54.1.68-.08.67-.58a4.72,4.72,0,0,1,.08-1.3,1.23,1.23,0,0,1,1.38-1,1.25,1.25,0,0,1,1.21,1.23,10.1,10.1,0,0,1,0,1.65.76.76,0,0,0,.69.91,91.54,91.54,0,0,1,10.4,3c.54.2.69,0,.66-.52a4,4,0,0,1,0-1,1.17,1.17,0,0,1,1.22-1.09,1.19,1.19,0,0,1,1.31,1.09,10.94,10.94,0,0,1,0,1.81,1,1,0,0,0,.76,1.16c1,.36,2,.8,3,1.23s1.37,1.13,1,1.91-1.08,1-2.11.53l-2.12-.88c-.41-.17-.61-.09-.61.4,0,1.59,0,3.17,0,4.76,0,.45.26.62.61.76,1.07.42,2.13.87,3.2,1.29a1.62,1.62,0,0,1,1.14,1.69c0,9.53,0,19.06,0,28.59,0,1.08-.46,1.59-1.53,1.6a8.89,8.89,0,0,0-5.52,2,13,13,0,0,1-5.32,2.66,11.58,11.58,0,0,1-8.88-1.61,15.65,15.65,0,0,1-1.42-1,9.29,9.29,0,0,0-11.82.07,11.68,11.68,0,0,1-7.71,2.8,11.31,11.31,0,0,1-6.35-1.92c-.9-.62-1.77-1.31-2.72-1.84a8.78,8.78,0,0,0-9.14.1c-.78.45-1.49,1-2.23,1.53a11.6,11.6,0,0,1-13.61-.12c-1.61-1.13-3.17-2.37-5.23-2.58a5.5,5.5,0,0,0-1-.09,2.11,2.11,0,0,1-1.76-.71V58.5a3.05,3.05,0,0,1,1.2-.83c1-.41,2.07-.85,3.12-1.26a.75.75,0,0,0,.56-.79q0-2.34,0-4.68c0-.55-.23-.6-.66-.42-.68.29-1.37.54-2,.86a1.59,1.59,0,0,1-2.18-.44Zm2.52,23.72V86.16c0,.37-.1.81.48.88a11.47,11.47,0,0,1,5.58,2.43c.34.26.57.35.6-.23a13.07,13.07,0,0,1,.19-1.38,33,33,0,0,1,39-27,31.76,31.76,0,0,1,18.7,10.95,32.29,32.29,0,0,1,7.63,17.41c.1.76.26.76.79.35a10.87,10.87,0,0,1,5.14-2.42c1-.12,1.08-.56,1.08-1.39,0-8.13,0-16.27,0-24.4,0-1.38,0-1.38-1.26-1.89q-3.28-1.32-6.63-2.43c-1-.33-1.44-1-1.2-1.75s1-1.11,2-.78c.47.15.94.3,1.4.47s.77.14.76-.49c0-1.53,0-3.07,0-4.6a.77.77,0,0,0-.62-.83c-3.41-1.18-6.87-2.24-10.38-3.09-.58-.14-.75,0-.74.59,0,1.48,0,3,0,4.43a.89.89,0,0,0,.83,1.07c1.23.26,2.45.58,3.65.93a1.29,1.29,0,0,1,.91,1.61,1.37,1.37,0,0,1-1.61.93c-.27,0-.53-.13-.8-.2A101.06,101.06,0,0,0,76.4,52a99.56,99.56,0,0,0-17.58,1.29A101.63,101.63,0,0,0,36.2,59.65a1.18,1.18,0,0,0-.84,1.29C35.39,65.13,35.37,69.32,35.37,73.51ZM97.71,84.38a1.11,1.11,0,0,0-.18-.85,24.76,24.76,0,0,0-37.67-10c-.48.36-.93.77-1.44,1.09a1.18,1.18,0,0,1-1.68-.31,1.25,1.25,0,0,1,0-1.66,4.57,4.57,0,0,1,.6-.56,26.93,26.93,0,0,1,20.54-6A26.6,26.6,0,0,1,96.08,76a26.91,26.91,0,0,1,6,15.18c0,.36.07.61.53.66,1.94.22,2.5-.32,2.22-2.2l0-.17a28.64,28.64,0,0,0-7.17-16.1c-7.43-8.29-16.77-11.63-27.78-10A30.21,30.21,0,0,0,44.7,89.54c-.23,2-.34,1.87,1.9,2.26.58.1.81-.11.86-.74a27.22,27.22,0,0,1,3.23-10.94,25.51,25.51,0,0,1,2.49-3.76,1.4,1.4,0,0,1,2-.39,1.34,1.34,0,0,1,.13,2l-.4.53a23.65,23.65,0,0,0-3,5.27c-.1.23-.3.45-.13.78A33.77,33.77,0,0,0,55,82.44,11.55,11.55,0,0,1,67,82a12.76,12.76,0,0,1,2.18,1.46,9.29,9.29,0,0,0,11.56,0c.27-.23.58-.41.87-.62a11.82,11.82,0,0,1,14,0C96.23,83.4,97,83.86,97.71,84.38Zm1.7,6.36c-.14-.83-.27-1.67-.42-2.5a.72.72,0,0,0-.49-.61,19,19,0,0,1-4.87-2.83,9,9,0,0,0-8.46-.93A13.68,13.68,0,0,0,81.77,86a11.78,11.78,0,0,1-9,2,12.82,12.82,0,0,1-5.72-2.72,9.1,9.1,0,0,0-11.47-.06,11,11,0,0,1-3.73,2.19,1.93,1.93,0,0,0-1.55,2l0,.41c0,.5-.42,1.19,0,1.46s1.08-.2,1.55-.49c1.28-.79,2.47-1.73,3.78-2.46A11.39,11.39,0,0,1,66.22,88a17.8,17.8,0,0,1,3.32,2.12,9.11,9.11,0,0,0,7.15,1.6,11.46,11.46,0,0,0,4.79-2.42,11.65,11.65,0,0,1,14.34.13,16.15,16.15,0,0,0,2.84,1.79C99.15,91.41,99.47,91.44,99.41,90.74ZM75,43.23c-1.72.09-3.45-.06-5.17.13-.62.07-.77.32-.76.88,0,1.45,0,2.91,0,4.36,0,.65.22.85.86.83,2-.07,4.1-.12,6.15-.13,1.31,0,2.63.06,3.94.13.62,0,.81-.21.8-.81,0-1.48,0-3,0-4.43,0-.55-.18-.76-.74-.83C78.38,43.17,76.68,43.32,75,43.23Zm-8.62,3.43c0-.82,0-1.64,0-2.46,0-.46-.2-.63-.66-.59-3.45.35-6.89.82-10.3,1.47a.74.74,0,0,0-.67.85c0,1.5,0,3,0,4.51,0,.7.25.82.9.69A92.15,92.15,0,0,1,65.7,49.74c.49,0,.68-.22.67-.7C66.36,48.25,66.37,47.46,66.37,46.66Zm28.75,1.6c0-.74,0-1.48,0-2.21s-.2-.88-.81-1c-3.32-.64-6.68-1.07-10-1.45-.49,0-.79,0-.79.63,0,1.59,0,3.17,0,4.76,0,.51.22.72.74.75.92,0,1.85.18,2.77.28q3.7.39,7.36,1.13c.53.11.77,0,.76-.6C95.1,49.79,95.12,49,95.12,48.26ZM52,48.93c0-.77,0-1.53,0-2.3,0-.56-.11-.79-.76-.64-3.52.85-7,1.9-10.38,3.09a.76.76,0,0,0-.6.84c0,1.5,0,3,0,4.52,0,.62.18.76.77.55a91.49,91.49,0,0,1,10.25-3c.51-.11.75-.34.72-.89C52,50.41,52,49.67,52,48.93Z"></path><path class="cls-1" d="M32.85,105.67a1.63,1.63,0,0,1,1.67-.81,11.25,11.25,0,0,1,6.22,2.08c.42.3.87.57,1.27.9a9.26,9.26,0,0,0,11.29.07,12.7,12.7,0,0,1,5.6-2.81,11.64,11.64,0,0,1,8.94,1.74c.52.35,1,.69,1.54,1.09a9.25,9.25,0,0,0,11.08,0,12.61,12.61,0,0,1,5.91-2.91,11.6,11.6,0,0,1,8.49,1.66c.75.49,1.5,1,2.22,1.54a9.2,9.2,0,0,0,10.14,0c.85-.64,1.74-1.23,2.64-1.81a10.94,10.94,0,0,1,5.62-1.61,1.35,1.35,0,0,1,1.59,1.28c0,.83-.51,1.36-1.47,1.39a8.89,8.89,0,0,0-5.07,1.67,24.62,24.62,0,0,1-2.65,1.79,11.56,11.56,0,0,1-12.84-.9,22,22,0,0,0-2-1.34,8.78,8.78,0,0,0-9.27.14c-.85.5-1.6,1.16-2.44,1.67a11.47,11.47,0,0,1-12.86,0c-.74-.46-1.43-1-2.16-1.49a9,9,0,0,0-10.12,0l-1.61,1.13a11.6,11.6,0,0,1-13.67.1c-1.45-1-2.8-2.14-4.58-2.51a9.82,9.82,0,0,0-1.86-.27,2,2,0,0,1-1.65-.73Z"></path><path class="cls-1" d="M32.85,95.32a1.7,1.7,0,0,1,1.55-.73,10.47,10.47,0,0,1,5.9,1.76c.76.49,1.48,1,2.23,1.54a9,9,0,0,0,10.19.1c1-.64,1.86-1.37,2.86-1.92a11.37,11.37,0,0,1,11.52,0c1,.53,1.87,1.25,2.8,1.87a8.93,8.93,0,0,0,10.25-.11,21.28,21.28,0,0,1,3.16-2.08A11.6,11.6,0,0,1,95,96.47c.71.46,1.39,1,2.09,1.45a8.92,8.92,0,0,0,10.46-.16,15.52,15.52,0,0,1,5.39-2.88,10.14,10.14,0,0,1,2.85-.27,1.23,1.23,0,0,1,1.31,1.19A1.21,1.21,0,0,1,116,97.17c-.7.12-1.41.13-2.11.25a9.87,9.87,0,0,0-4.15,2.08A11.9,11.9,0,0,1,104.3,102a11.55,11.55,0,0,1-8.49-1.69c-.65-.44-1.33-.87-2-1.36a9.31,9.31,0,0,0-10.55-.05,13.9,13.9,0,0,1-4.9,2.79,11.74,11.74,0,0,1-9.85-1.38A16.58,16.58,0,0,1,67,99.16a9.35,9.35,0,0,0-11.37,0A11.77,11.77,0,0,1,49.89,102a11.61,11.61,0,0,1-8.64-1.73c-.74-.52-1.48-1-2.23-1.55a7.74,7.74,0,0,0-4.14-1.39c-.76,0-1.56,0-2-.83Z"></path></svg>