<svg version="1.2" xmlns="http://www.w3.org/2000/svg" viewBox="0 0 100 100" width="100" height="100"><style>.a{fill:#77787b}</style><path class="a" d="m31.2 19.5c-20.2 6.5-19.5 6.2-17.8 7.2 0.7 0.3 9.1 3.1 18.5 6.1l17.1 5.4 12.4-4c6.9-2.2 13.1-4 13.8-4 1.6 0 1.8 4.8 0.4 8.5-0.7 1.7-0.7 2.7 0 3.4 0.5 0.5 0.9 1.8 0.9 2.9 0 4.5 2.9 6.4 5.3 3.5 0.8-0.9 0.5-1.5-1.1-2.6-1.9-1.1-2-2-2.2-9.2l-0.3-8 3.7-1.1c2.1-0.6 3.4-1.4 3-1.8-1.2-1.1-34.4-11.6-36.5-11.5-0.8 0-8.7 2.3-17.2 5.2z"/><path class="a" d="m29.4 38.9c0 5.1 2 7 9 9.2 9.4 2.8 22.2 1.6 27.8-2.9 1.9-1.5 2.3-2.6 2.3-5.8 0-2.1-0.1-3.9-0.2-3.9-0.1 0-4 1.3-8.7 2.7-4.5 1.5-9.4 2.7-10.6 2.7-1.3 0-6.2-1.2-10.7-2.7-4.6-1.4-8.5-2.7-8.6-2.7-0.2 0-0.3 1.5-0.3 3.4z"/><path fill-rule="evenodd" class="a" d="m36.5 54.6c9.7 1.7 15 1.7 25.8-0.1 8.4-1.4 9-1.4 10.7 0.1 2.2 2 3.1 8.3 1.8 12.3-1.7 5.2-2.5 5.5-11.6 4-4.4-0.7-8-1-8-0.5 0 0.3 1.4 2.3 3.2 4.2l3.2 3.6h-2.3c-1.3 0-2.6 0.6-2.9 1.3-0.9 2.5-2.2 1.4-4.9-4.6l-2.9-5.9-1.1 3.3c-0.7 1.9-2.1 4.8-3.1 6.6-1.8 2.9-2 3-2.6 1.2-0.6-1.3-1.5-1.9-3.1-1.9h-2.3l3.2-3.6c1.7-1.9 3.2-3.9 3.2-4.2 0-0.5-3.7-0.2-8.1 0.5-7.9 1.3-8.1 1.3-10-0.6-2.6-2.7-2.8-12.3-0.2-15.1 2-2.2 2.4-2.2 12-0.6zm-10 2.9c-0.4 0.3-0.6 2.7-0.6 5.3 0 3.5 0.3 4.9 1.3 5.3 0.8 0.3 5.2 0 9.8-0.7l8.4-1.1v-7.3l-7.3-1.1c-8.5-1.2-10.8-1.3-11.6-0.4zm45.1-0.2l-3.5-0.1c-2-0.1-6.2 0.3-9.5 0.8l-6.1 0.9v7.4l8.5 1.1c4.6 0.7 8.9 1 9.7 0.7 1.2-0.4 1.4-1.6 1.2-5.6z"/></svg>