<svg xmlns="http://www.w3.org/2000/svg" id="Layer_1" data-name="Layer 1" viewBox="0 0 150 150"><defs><style>.cls-1{fill:#77787b;}</style></defs><path class="cls-1" d="M75.06,147.24a72.18,72.18,0,1,1,72.19-72.18A72.27,72.27,0,0,1,75.06,147.24Zm0-141.54a69.36,69.36,0,1,0,69.37,69.36A69.45,69.45,0,0,0,75.06,5.7Z"></path><path class="cls-1" d="M112.77,37.35v75.42H37.35V37.35ZM44,108.3h62.11c-.14-.23-.22-.4-.33-.55q-6.86-9.44-13.71-18.87a1.18,1.18,0,0,0-1.11-.51H59.21A1.3,1.3,0,0,0,58,89q-6.69,9.24-13.41,18.45ZM81.74,83.84v0h8.75V59.62H59.62V83.87H77.29v0ZM41.84,63.17V85.63C43.28,84.37,44.63,83.2,46,82a.86.86,0,0,0,.23-.58q0-7.83,0-15.66a.7.7,0,0,0-.25-.54C44.61,64.53,43.25,63.87,41.84,63.17Zm66.46,0c-1.32.67-2.53,1.3-3.77,1.87a.93.93,0,0,0-.62,1c0,4.79,0,9.58,0,14.36A2.67,2.67,0,0,0,105,82.8c1.12.85,2.14,1.84,3.29,2.85ZM44.94,41.78c1.41,1.42,2.68,2.66,3.93,3.94a1.45,1.45,0,0,0,1.14.49c4.41,0,8.83,0,13.24,0h.81c-.49-1.32-1-2.55-1.39-3.79a.84.84,0,0,0-1-.64c-4.07,0-8.14,0-12.21,0ZM86.05,46.2H87c3.73,0,7.46-.11,11.18,0a4.9,4.9,0,0,0,4.49-1.89A27.18,27.18,0,0,1,105,42c-.08-.11-.09-.14-.1-.14q-8.43,0-16.84,0a.68.68,0,0,0-.51.37C87.06,43.46,86.58,44.77,86.05,46.2ZM67.2,41.81c.53,1.43,1,2.8,1.57,4.16,0,.13.36.22.55.22q5.73,0,11.48,0c.19,0,.5-.09.55-.23.54-1.35,1-2.72,1.56-4.15ZM46.14,60.31a2.11,2.11,0,0,0,0-.34q0-5.11,0-10.23a1.22,1.22,0,0,0-.35-.74c-.82-.86-1.66-1.68-2.49-2.51L41.78,45c0,4.41,0,8.62,0,12.83a.61.61,0,0,0,.25.46C43.38,59,44.74,59.61,46.14,60.31Zm57.78,0c1.36-.68,2.57-1.32,3.81-1.89a.93.93,0,0,0,.62-1c0-3.9,0-7.8,0-11.7,0-.21,0-.41,0-.8-1.48,1.49-2.85,2.85-4.19,4.24a1.07,1.07,0,0,0-.17.67c0,1.5,0,3,0,4.49ZM46.2,87.76c-1.41,1.22-2.65,2.34-3.93,3.41a1.3,1.3,0,0,0-.5,1.13c0,3.51,0,7,0,10.52v.79a4.72,4.72,0,0,0,.33-.37c1.29-1.76,2.58-3.52,3.85-5.3a1.62,1.62,0,0,0,.23-.81c0-1.32,0-2.65,0-4Zm57.79,0c0,.2-.07.27-.07.33,0,3,0,6.09,0,9.13a1.47,1.47,0,0,0,.31.79c1,1.4,2,2.78,3,4.17l1,1.31c.07-.13.11-.17.11-.2q0-5.67,0-11.34a.9.9,0,0,0-.22-.58C106.77,90.23,105.42,89.06,104,87.81ZM67.39,55.06c-.49-1.32-1-2.5-1.37-3.7a.88.88,0,0,0-1-.71c-3.43,0-6.87,0-10.3,0h-.9c1.51,1.51,2.86,2.86,4.22,4.2a.67.67,0,0,0,.45.18Zm28.9-4.39H84.72a.53.53,0,0,0-.41.21c-.53,1.35-1,2.72-1.58,4.17h8.89a.71.71,0,0,0,.45-.17ZM50.82,54c-.08.12-.13.16-.13.2,0,2.7,0,5.39,0,8.09a.56.56,0,0,0,.2.42c1.36.7,2.72,1.37,4.18,2.1,0-1.82-.07-3.52,0-5.2a2.71,2.71,0,0,0-1-2.35C53,56.19,51.91,55.06,50.82,54ZM95.06,64.78c1.32-.66,2.53-1.29,3.77-1.87a.94.94,0,0,0,.63-1c0-2.42,0-4.85,0-7.28,0-.2,0-.4-.06-.78-1.45,1.47-2.78,2.8-4.1,4.15a.7.7,0,0,0-.21.44C95.06,60.51,95.06,62.59,95.06,64.78Zm-15.49-14h-9c.52,1.39,1,2.69,1.52,4a.68.68,0,0,0,.54.32q2.46,0,4.92,0a.68.68,0,0,0,.54-.32C78.58,53.44,79.05,52.13,79.57,50.74ZM50.72,77.86c1-.89,1.87-1.77,2.86-2.47a3.72,3.72,0,0,0,1.55-3.26c.12-1.87-.45-2.91-2.21-3.45a16.29,16.29,0,0,1-2.2-1.06ZM99.4,67.61c-.63.31-1.15.56-1.67.83-.87.44-2.08.69-2.51,1.4s-.09,2-.18,2.94A2.18,2.18,0,0,0,96,74.9c1.16.89,2.22,1.9,3.42,2.95ZM55,80c-1.39,1.21-2.67,2.3-3.91,3.44a1.58,1.58,0,0,0-.44,1c0,2.08,0,4.17,0,6.25,0,.18,0,.36.07.69l4.19-5.76a.54.54,0,0,0,.11-.26C55.05,83.64,55,81.91,55,80Zm40,0c0,.71,0,1.22,0,1.73a12.77,12.77,0,0,0,.11,3.72,12.75,12.75,0,0,0,2.11,3.07l2,2.78c.07-.11.12-.15.12-.18,0-2.31,0-4.61,0-6.92a.83.83,0,0,0-.25-.57C97.87,82.45,96.54,81.29,95.06,80Z"></path><rect class="cls-1" x="69.18" y="67.61" width="2.58" height="16.25"></rect><rect class="cls-1" x="73.68" y="67.61" width="2.58" height="16.25"></rect><rect class="cls-1" x="78.36" y="67.61" width="2.58" height="16.25"></rect></svg>