<?xml version="1.0" standalone="no"?>
<!DOCTYPE svg PUBLIC "-//W3C//DTD SVG 20010904//EN"
 "http://www.w3.org/TR/2001/REC-SVG-20010904/DTD/svg10.dtd">
<svg version="1.0" xmlns="http://www.w3.org/2000/svg"
 width="100.000000pt" height="100.000000pt" viewBox="0 0 100.000000 100.000000"
 preserveAspectRatio="xMidYMid meet">

<g transform="translate(0.000000,100.000000) scale(0.100000,-0.100000)"
fill="#77787b" stroke="none">
<path d="M298 744 c-183 -91 -213 -115 -172 -131 10 -4 86 28 195 83 l179 89
175 -88 c96 -48 181 -87 189 -87 12 0 26 20 26 36 0 7 -379 194 -392 193 -7 0
-97 -43 -200 -95z"/>
<path d="M268 586 c-21 -7 -49 -21 -63 -30 l-25 -16 0 -175 c0 -205 -20 -182
170 -189 152 -6 144 -6 312 0 96 4 140 9 147 18 8 9 11 70 9 182 l-3 169 -45
25 c-58 32 -173 35 -233 6 -37 -18 -40 -18 -75 -1 -49 23 -147 29 -194 11z
m178 -51 l34 -14 0 -137 c0 -126 -1 -136 -17 -129 -10 3 -39 11 -66 17 -45 11
-103 4 -159 -17 -17 -7 -18 3 -18 121 0 71 4 135 9 143 13 20 100 41 144 35
22 -2 54 -11 73 -19z m254 14 c77 -17 80 -22 80 -163 0 -67 -2 -125 -5 -128
-3 -3 -31 2 -61 10 -54 15 -116 11 -176 -13 -17 -7 -18 3 -18 129 0 151 -2
146 77 165 52 12 46 12 103 0z"/>
</g>
</svg>
