<svg xmlns="http://www.w3.org/2000/svg" viewBox="0 0 285 285" width="150" height="150"><title>home-security-svgrepo-com-svg</title><style>		tspan { white-space:pre }		.s0 { fill: #77787b } 	</style><g id="Layer"><g id="Layer"><path id="Layer" fill-rule="evenodd" class="s0" d="m285 142.5c0 78.57-63.92 142.5-142.5 142.5c-78.58 0-142.5-63.93-142.5-142.5c0-78.58 63.92-142.5 142.5-142.5c78.58 0 142.5 63.92 142.5 142.5zm-13.58 0c0-71.09-57.83-128.92-128.92-128.92c-71.09 0-128.92 57.83-128.92 128.92c0 71.08 57.84 128.92 128.92 128.92c71.09 0 128.92-57.84 128.92-128.92z"></path><path id="Layer" class="s0" d="m235.04 132.63c-2 2.34-4.86 3.55-7.72 3.55c-2.34 0-4.71-0.81-6.62-2.47l-78.19-67.22l-78.19 67.22c-4.26 3.67-10.69 3.18-14.35-1.08c-3.66-4.27-3.18-10.69 1.08-14.35l84.81-72.92c3.82-3.28 9.46-3.28 13.28 0l84.81 72.92c4.26 3.66 4.74 10.08 1.08 14.35z"></path><path id="Layer" class="s0" d="m154.05 128.74v20.36h-23.11v-20.36c0-6.37 5.18-11.56 11.55-11.56c6.37 0 11.55 5.18 11.55 11.56z"></path><path id="Layer" fill-rule="evenodd" class="s0" d="m208.62 131.93c0.75 0.65 1.18 1.58 1.18 2.57v79.73c0 1.86-1.52 3.39-3.4 3.39h-127.8c-1.88 0-3.4-1.53-3.4-3.39v-79.73c0-1 0.43-1.93 1.18-2.57l63.91-55.14c1.27-1.1 3.16-1.1 4.43 0l63.91 55.14zm-35.59 61.42v-40.86c0-1.88-1.51-3.4-3.39-3.4h-8.79v-20.36c0-10.12-8.23-18.34-18.34-18.34c-10.12 0-18.34 8.23-18.34 18.34v20.36h-8.8c-1.88 0-3.39 1.51-3.39 3.4v40.86c0 1.86 1.51 3.39 3.39 3.39h54.28c1.88 0 3.39-1.53 3.39-3.39z"></path></g></g><g id="Layer">	</g><g id="Layer">	</g><g id="Layer">	</g><g id="Layer">	</g><g id="Layer">	</g><g id="Layer">	</g><g id="Layer">	</g><g id="Layer">	</g><g id="Layer">	</g><g id="Layer">	</g><g id="Layer">	</g><g id="Layer">	</g><g id="Layer">	</g><g id="Layer">	</g><g id="Layer">	</g></svg>