<svg version="1.2" xmlns="http://www.w3.org/2000/svg" viewBox="0 0 100 100" width="100" height="100"><style>.a{fill:#77787b}</style><path class="a" d="m65.9 24.9c-0.4 1-1 3-1.5 4.7l-0.8 3.1h-20.3c-16.3 0-20.7 0.2-21.7 1-1.4 0.9-1.3 1.4 2.4 11 2.2 5.5 4.2 10.4 4.6 10.8 0.5 0.8 4.3 1 14.7 1 12.6 0 14 0.1 13.6 1.1-0.2 0.7-0.4 1.5-0.4 1.8 0 0.3-6.6 0.7-14.8 0.8-9.9 0.2-14.9 0.5-15.5 1.1-2 2 0.3 2.4 16.5 2.4h16.4l4.6-17.5c2.5-9.6 4.8-17.9 5.3-18.4 0.4-0.5 2.4-0.9 4.8-0.9 2.7 0 4.5-0.3 5-1 1.6-1.9 0-2.6-6.1-2.6-5.7 0-6.2 0.2-6.8 1.6z"/><path class="a" d="m31.7 67.4c-2.1 1.2-2.6 2-2.6 4.7 0 4 5 6.1 8 3.1 2-2.1 1.8-5.3-0.5-7.1-2.1-1.7-2.9-1.8-4.9-0.7z"/><path class="a" d="m49.7 68.1c-2.3 1.8-2.5 5-0.4 7.1 3 3 7.9 0.9 7.9-3.1 0-2.7-0.5-3.6-2.6-4.7-2.2-1.1-2.6-1-4.9 0.7z"/></svg>