<svg xmlns="http://www.w3.org/2000/svg" width="300.000000pt" height="300.000000pt" viewBox="0 0 300.000000 300.000000" preserveAspectRatio="xMidYMid meet"><metadata>Created by potrace 1.10, written by Peter Selinger 2001-2011</metadata><g transform="translate(0.000000,300.000000) scale(0.050000,-0.050000)" fill="#77787b" stroke="none"><path d="M2780 5768 c-2393 -289 -3407 -3030 -1745 -4715 1875 -1900 5141 -232 4695 2397 -238 1406 -1606 2480 -2950 2318z m738 -177 c1873 -406 2712 -2488 1649 -4094 l-97 -147 -10 180 c-10 177 -12 183 -115 340 l-104 160 68 60 c156 138 164 237 62 790 -87 473 -97 507 -175 568 l-62 48 33 82 c188 470 -383 887 -760 556 -258 -226 -195 -678 111 -801 l78 -31 -20 -81 -21 -81 -234 0 -235 0 -45 475 c-25 261 -49 482 -54 490 -5 8 -233 15 -505 15 l-497 0 -12 -93 c-7 -51 -14 -134 -15 -185 l-2 -92 -18 100 c-51 298 -59 344 -70 383 -9 32 -1 47 29 56 320 101 344 649 37 839 -398 246 -849 -136 -706 -598 10 -32 -3 -47 -69 -77 -46 -21 -108 -74 -141 -119 -33 -45 -106 -107 -164 -139 -229 -124 -326 -388 -226 -611 l38 -84 -53 -42 c-30 -23 -67 -67 -83 -97 -47 -91 -195 -938 -180 -1034 12 -85 108 -240 161 -260 45 -17 37 -37 -83 -232 -112 -181 -112 -182 -104 -318 9 -172 2 -171 -119 18 -452 705 -565 1527 -316 2290 293 898 1134 1628 2041 1773 77 12 163 26 190 31 110 19 657 -7 798 -38z m-1026 -521 c148 -87 223 -262 186 -430 -106 -476 -805 -406 -805 81 0 323 338 513 619 349z m-548 -691 c90 -90 171 -124 319 -135 l134 -9 21 -93 c12 -50 44 -238 71 -416 27 -179 73 -394 102 -480 56 -168 49 -231 -31 -256 -172 -55 -327 515 -227 835 27 86 43 165 36 176 -60 97 -189 -392 -189 -716 l0 -145 -180 0 c-177 0 -180 1 -180 48 0 27 -5 62 -11 78 -8 20 17 43 79 73 413 200 297 901 -149 901 -128 0 -3 180 138 199 3 1 33 -26 67 -60z m-90 -250 c394 -196 235 -792 -204 -765 -429 26 -534 600 -142 778 114 52 225 48 346 -13z m2622 20 c274 -114 343 -471 131 -673 -264 -251 -690 -70 -690 294 0 293 291 490 559 379z m-948 -134 c4 -14 23 -196 41 -405 19 -209 39 -400 45 -425 l10 -45 -461 0 -461 0 -50 156 c-46 148 -48 169 -31 415 10 142 18 275 18 294 1 45 876 55 889 10z m-2118 -647 c65 -48 189 -88 274 -88 143 0 98 -217 -120 -570 -94 -154 -216 -352 -269 -440 -111 -183 -119 -186 -200 -86 -88 109 -89 189 -6 656 83 461 96 505 166 560 52 41 58 40 155 -32z m3325 41 c69 -48 76 -70 165 -549 97 -526 86 -662 -60 -740 -54 -29 -577 821 -594 963 -19 159 -2 190 112 203 105 12 237 70 281 123 32 39 41 39 96 0z m-2448 -154 c28 -110 28 -115 -9 -115 -34 0 -38 15 -36 135 1 148 3 147 45 -20z m102 -265 c100 -106 311 -73 311 49 0 14 232 21 718 21 l718 0 336 -555 c185 -305 370 -608 412 -673 42 -65 76 -126 76 -135 0 -9 -297 -17 -660 -17 l-660 0 0 144 c0 116 -17 195 -84 400 l-85 256 -474 0 -474 0 -81 -245 c-66 -197 -82 -274 -82 -391 0 -182 70 -166 -694 -159 l-644 5 185 300 c102 165 291 473 421 685 l235 385 230 0 230 0 66 -70z m1093 -767 c31 -91 61 -181 67 -200 10 -30 -35 -33 -549 -33 -308 0 -560 4 -560 9 0 5 29 97 64 205 l65 197 429 -6 428 -5 56 -167z m98 -343 c0 -39 -13 -40 -580 -40 -567 0 -580 1 -580 40 0 39 13 40 580 40 567 0 580 -1 580 -40z m0 -150 l0 -50 -580 0 -580 0 0 50 0 50 580 0 580 0 0 -50z m1420 -215 l0 -105 -2000 0 -2000 0 0 105 0 105 2000 0 2000 0 0 -105z m21 -213 c-41 -77 -377 -372 -564 -495 -920 -607 -2103 -588 -2993 47 -135 96 -504 439 -504 468 0 10 876 18 2041 18 1993 0 2040 -1 2020 -38z"></path><path d="M3453 2964 c-13 -21 121 -324 166 -374 52 -58 75 -109 91 -205 l14 -86 343 6 343 5 -7 70 c-7 81 -68 228 -102 249 -13 8 -58 90 -101 183 l-77 168 -331 0 c-181 0 -334 -7 -339 -16z m676 -156 c28 -62 51 -114 51 -115 0 -2 -123 -2 -273 -2 l-273 2 -47 106 c-26 58 -47 109 -47 114 0 4 121 7 269 7 l268 0 52 -112z m148 -263 c20 -41 43 -100 51 -130 l13 -55 -281 0 c-277 0 -280 0 -280 45 -1 25 -18 83 -39 130 l-39 85 269 0 268 0 38 -75z"></path><path d="M1805 2815 c-11 -14 -46 -83 -77 -155 -32 -71 -74 -146 -95 -167 -64 -64 -144 -333 -100 -333 85 -1 643 -2 662 -1 14 0 25 20 25 44 0 75 45 197 91 243 46 47 169 309 169 362 0 42 -642 49 -675 7z m545 -160 l-49 -105 -273 -6 c-215 -4 -271 0 -263 20 6 14 26 64 45 111 l34 85 277 0 277 0 -48 -105z m-150 -254 c-22 -44 -40 -102 -40 -130 l0 -51 -282 0 -282 0 12 49 c51 202 66 211 374 211 l259 0 -41 -79z"></path><path d="M3840 2199 c0 -110 440 -419 596 -419 83 0 144 104 111 189 -45 118 -707 333 -707 230z m450 -154 c193 -95 265 -185 150 -185 -42 0 -400 172 -400 192 0 101 35 100 250 -7z"></path><path d="M1550 2076 c-84 -48 -98 -154 -26 -205 128 -89 736 -11 736 95 0 101 -571 189 -710 110z m470 -116 l0 -60 -209 0 c-217 0 -284 24 -258 91 9 23 57 29 239 29 l228 0 0 -60z"></path></g></svg>