<svg xmlns="http://www.w3.org/2000/svg" width="300.000000pt" height="300.000000pt" viewBox="0 0 300.000000 300.000000" preserveAspectRatio="xMidYMid meet"><g transform="translate(0.000000,300.000000) scale(0.050000,-0.050000)" fill="#77787b" stroke="none"><path d="M2627 5899 c-1580 -244 -2682 -1729 -2438 -3284 290 -1849 2193 -2942 3924 -2252 1558 620 2256 2464 1503 3967 -549 1093 -1802 1752 -2989 1569z m874 -151 c1799 -302 2819 -2304 2001 -3926 -1108 -2198 -4292 -1969 -5072 365 -650 1941 1042 3902 3071 3561z"></path><path d="M4036 5064 c-230 -62 -439 -224 -395 -305 29 -56 66 -49 171 32 294 224 704 215 985 -21 79 -67 151 -61 159 11 5 43 -13 65 -110 132 -256 177 -528 227 -810 151z"></path><path d="M4118 4669 c-103 -32 -278 -174 -278 -227 0 -88 81 -105 145 -30 154 178 490 176 608 -3 46 -70 134 -62 143 13 20 170 -367 324 -618 247z"></path><path d="M1566 4500 c-69 -28 -95 -87 -205 -462 -112 -387 -113 -424 -7 -511 l53 -44 -44 -146 c-97 -329 -77 -351 465 -508 l412 -119 0 -306 0 -305 -235 5 -235 6 0 86 c0 101 -26 123 -145 124 -75 0 -85 5 -85 45 0 66 -72 173 -131 195 -75 29 -416 25 -445 -4 -26 -26 -33 -1048 -8 -1216 l14 -90 199 -6 c271 -8 371 48 371 204 0 49 6 52 99 52 114 0 142 30 126 135 l-10 65 358 0 c530 0 527 -3 527 534 l0 351 45 -10 c25 -6 248 -71 495 -145 248 -74 465 -139 483 -144 22 -7 68 27 133 95 l98 105 88 -23 c499 -133 592 -171 715 -289 66 -63 128 -114 138 -114 24 0 85 67 85 93 0 11 50 186 110 388 134 447 136 440 -108 400 -155 -25 -362 -4 -362 36 0 8 104 117 230 243 323 322 348 287 -340 489 -286 84 -1020 301 -1632 482 -1104 327 -1168 343 -1252 309z m1626 -568 c835 -246 1544 -453 1577 -461 58 -13 55 -17 -260 -332 l-319 -318 -1220 360 c-671 198 -1292 381 -1380 407 -127 36 -161 54 -166 87 -5 35 162 645 189 690 17 27 51 18 1579 -433z m-446 -834 c640 -188 1167 -346 1172 -349 7 -7 -41 -66 -193 -236 l-69 -77 -243 73 c-134 40 -612 181 -1063 313 -878 257 -877 256 -886 303 -9 45 76 315 99 315 10 0 543 -154 1183 -342z m1805 -271 c55 -18 102 -36 107 -39 6 -6 -77 -323 -90 -344 -3 -6 -468 127 -532 152 -82 33 29 115 117 88 77 -23 77 -23 177 76 115 115 95 109 221 67z m401 -60 c-7 -18 -41 -133 -76 -255 -76 -266 -65 -252 -129 -188 l-53 53 58 201 c60 206 63 211 175 219 27 2 34 -6 25 -30z m-2497 -120 c53 -14 72 -732 21 -783 -17 -17 -128 -24 -371 -24 l-348 0 7 62 6 63 277 -4 c358 -4 333 -32 333 371 0 181 7 328 15 328 8 0 35 -6 60 -13z m-1079 -231 c34 -34 34 -978 0 -1012 -14 -14 -81 -24 -160 -24 l-136 0 0 530 0 530 136 0 c79 0 146 -10 160 -24z m257 -511 l3 -265 -48 0 -48 0 0 271 c0 270 0 272 45 265 44 -6 45 -12 48 -271z"></path><path d="M1844 4121 c-195 -122 -121 -401 106 -401 55 0 103 14 136 40 209 164 -18 501 -242 361z m165 -132 c37 -38 37 -40 10 -90 -28 -52 -111 -50 -140 3 -43 79 65 151 130 87z"></path><path d="M2610 3921 c-57 -23 -109 -86 -126 -153 -55 -207 189 -356 354 -217 189 159 1 464 -228 370z m139 -152 c60 -61 16 -138 -73 -126 -53 8 -73 82 -35 128 31 38 68 37 108 -2z"></path><path d="M3326 3681 c-76 -47 -106 -97 -106 -181 0 -191 212 -291 358 -169 204 172 -24 489 -252 350z m163 -132 c60 -61 16 -138 -73 -126 -53 8 -73 82 -35 128 31 38 68 37 108 -2z"></path><path d="M4181 4247 c-95 -120 33 -294 165 -224 145 77 104 277 -56 277 -49 0 -78 -14 -109 -53z"></path></g></svg>