<svg xmlns="http://www.w3.org/2000/svg" width="300.000000pt" height="300.000000pt" viewBox="0 0 300.000000 300.000000" preserveAspectRatio="xMidYMid meet"><metadata>Created by potrace 1.10, written by Peter Selinger 2001-2011</metadata><g transform="translate(0.000000,300.000000) scale(0.050000,-0.050000)" fill="#77787b" stroke="none"><path d="M2627 5899 c-1580 -244 -2682 -1729 -2438 -3284 290 -1849 2193 -2942 3924 -2252 1558 620 2256 2464 1503 3967 -549 1093 -1802 1752 -2989 1569z m874 -151 c1793 -300 2815 -2296 2007 -3915 -1018 -2041 -3906 -2051 -4927 -16 -1000 1993 715 4302 2920 3931z"></path><path d="M1257 4906 c-1 -20 0 -105 2 -190 l5 -154 -117 -6 -117 -6 -6 -178 c-7 -205 -2 -211 144 -212 l98 0 -12 -157 c-17 -222 -13 -226 236 -219 l200 6 6 185 6 185 79 0 79 0 0 -1410 0 -1410 -388 0 c-418 0 -452 -5 -452 -61 0 -78 27 -79 2020 -79 1993 0 2020 1 2020 79 0 56 -34 61 -452 61 l-388 0 0 1410 0 1410 79 0 79 0 6 -185 6 -185 204 -6 c249 -7 258 2 238 229 l-14 147 96 0 c144 1 148 8 142 212 l-6 178 -116 6 -117 6 14 127 c7 69 7 155 -1 189 l-13 63 -214 -5 -213 -6 -6 -185 -6 -185 -272 0 c-230 0 -279 5 -311 35 -50 45 -180 45 -230 0 -34 -31 -92 -35 -525 -35 -433 0 -491 4 -525 35 -22 20 -70 34 -115 34 -45 0 -93 -14 -115 -34 -32 -30 -81 -35 -311 -35 l-272 0 -6 185 -6 185 -215 6 c-194 5 -215 2 -218 -30z m318 -541 l-5 -455 -95 -6 -95 -6 0 461 0 461 100 0 101 0 -6 -455z m3125 -6 l0 -461 -95 6 -95 6 -5 455 -6 455 101 0 100 0 0 -461z m-2244 117 c18 -18 24 -178 24 -596 0 -622 0 -624 111 -606 l67 11 -12 -110 c-12 -123 16 -232 75 -286 62 -56 47 -75 -49 -64 -134 15 -221 79 -286 211 l-56 114 -6 646 c-5 477 0 654 17 675 29 35 83 37 115 5z m1283 -5 c52 -62 19 -1324 -37 -1438 -58 -117 -166 -194 -292 -208 -98 -11 -113 8 -51 64 59 54 87 163 75 286 l-12 110 64 -10 c118 -18 114 -41 114 593 0 427 6 590 24 608 32 32 86 30 115 -5z m-2479 -101 c0 -64 -5 -70 -60 -70 -55 0 -60 6 -60 70 0 64 5 70 60 70 55 0 60 -6 60 -70z m940 0 l0 -70 -250 0 -250 0 0 70 0 70 250 0 250 0 0 -70z m1280 0 l0 -70 -440 0 -440 0 0 70 0 70 440 0 440 0 0 -70z m900 0 l0 -70 -250 0 -250 0 0 70 0 70 250 0 250 0 0 -70z m560 0 c0 -64 -5 -70 -60 -70 -55 0 -60 6 -60 70 0 64 5 70 60 70 55 0 60 -6 60 -70z m-2736 -745 l6 -535 56 -115 c31 -63 83 -133 115 -156 l59 -42 -67 -79 c-163 -190 -124 -416 66 -386 l81 13 0 -497 0 -498 -270 6 -270 6 0 1409 0 1409 109 0 109 0 6 -535z m1276 155 l0 -380 -72 0 c-48 0 -92 17 -131 49 -135 114 -339 114 -474 0 -39 -32 -83 -49 -131 -49 l-72 0 0 380 0 380 440 0 440 0 0 -380z m620 -1030 l0 -1410 -270 0 -270 0 0 493 0 492 84 -11 c193 -26 227 218 55 397 l-59 61 62 46 c146 108 167 208 174 807 l6 535 109 0 109 0 0 -1410z m-880 580 c156 -150 110 -385 -90 -461 -270 -103 -488 256 -275 454 105 99 267 101 365 7z m318 -655 c59 -31 114 -106 130 -180 l13 -55 -631 0 -630 0 0 57 c0 65 65 158 128 183 69 29 934 24 990 -5z m-108 -575 l0 -206 -387 -1 -386 -1 1 204 c0 112 1 206 1 209 1 3 174 4 386 3 l385 -2 0 -206z m10 -550 l0 -210 -395 0 -395 0 4 205 c3 113 5 207 5 210 1 3 177 5 391 5 l390 0 0 -210z"></path></g></svg>