<svg xmlns="http://www.w3.org/2000/svg" width="300.000000pt" height="300.000000pt" viewBox="0 0 300.000000 300.000000" preserveAspectRatio="xMidYMid meet"><metadata>Created by potrace 1.10, written by Peter Selinger 2001-2011</metadata><g transform="translate(0.000000,300.000000) scale(0.050000,-0.050000)" fill="#77787b" stroke="none"><path d="M2780 5860 c-2416 -164 -3525 -3133 -1819 -4874 1620 -1655 4455 -774 4872 1514 290 1593 -938 3237 -2503 3350 -88 6 -200 14 -250 18 -49 3 -184 0 -300 -8z m720 -170 c1782 -340 2761 -2291 1956 -3898 -1015 -2025 -3889 -2032 -4905 -13 -820 1629 218 3654 2009 3919 83 12 173 26 200 31 101 17 575 -7 740 -39z"></path><path d="M1749 5141 c-93 -38 -99 -67 -99 -444 l0 -356 -310 -6 -310 -5 0 -120 0 -120 64 -6 c61 -6 63 -10 60 -90 -4 -81 -2 -84 61 -90 l65 -7 -5 -1253 -5 -1253 -120 -1 -120 0 0 -90 0 -90 1970 0 1970 0 0 90 0 90 -120 0 -120 1 -5 1253 -5 1253 65 7 c63 6 65 9 61 90 -3 80 -1 84 60 90 l64 6 0 120 0 120 -312 5 -311 6 8 317 c9 356 -11 446 -105 482 -64 24 -2441 25 -2501 1z m2507 -85 c34 -34 34 -1038 0 -1072 -35 -35 -2477 -35 -2512 0 -34 34 -34 1038 0 1072 35 35 2477 35 2512 0z m-2606 -847 l0 -59 -259 -6 c-303 -6 -307 -5 -296 69 l8 57 274 -1 273 -2 0 -58z m3250 -5 l0 -65 -275 5 c-246 5 -275 10 -281 42 -16 79 2 84 283 84 l273 0 0 -66z m-3236 -184 l9 -60 -226 0 -227 0 0 60 0 60 218 0 217 0 9 -60z m3116 0 l0 -60 -227 0 -226 0 9 60 9 60 217 0 218 0 0 -60z m-125 -1373 l-5 -1253 -105 -4 -105 -4 0 362 c0 326 -4 368 -40 427 -114 188 -364 205 -520 36 -49 -53 -50 -63 -60 -438 l-10 -383 -90 0 -90 0 0 570 c0 807 -9 818 -636 820 -615 1 -642 -36 -631 -869 l7 -521 -90 0 -90 0 -10 370 c-11 394 -17 420 -119 506 -132 111 -353 71 -456 -84 -43 -64 -45 -88 -45 -431 l0 -362 -110 0 -110 0 0 1255 0 1256 1660 0 1660 0 -5 -1253z m-1695 -602 l0 -655 -261 0 -261 0 6 583 6 584 50 54 c70 75 108 86 295 88 l165 1 0 -655z m525 580 l65 -66 6 -584 6 -585 -261 0 -261 0 0 657 0 657 190 -7 c183 -7 191 -9 255 -72z m-1450 -433 l75 -69 6 -366 6 -367 -252 0 -252 0 6 354 c5 322 10 358 48 410 95 128 247 144 363 38z m2221 27 c107 -64 124 -135 124 -503 l0 -326 -251 0 -251 0 6 363 c6 356 7 365 56 418 91 97 207 115 316 48z m659 -924 c-7 -20 -407 -25 -1915 -25 -1508 0 -1908 5 -1915 25 -7 20 385 25 1915 25 1530 0 1922 -5 1915 -25z"></path><path d="M2120 4910 c0 -36 -11 -50 -38 -50 -20 0 -48 -13 -62 -30 -16 -20 -61 -30 -132 -30 -83 0 -108 -7 -108 -30 0 -23 25 -30 108 -30 71 0 116 -10 132 -30 14 -16 42 -30 62 -30 25 0 38 -14 38 -41 0 -133 121 -219 308 -219 92 0 111 -6 122 -41 7 -22 34 -54 60 -71 58 -38 15 -168 -55 -168 -22 0 -35 -11 -30 -25 5 -16 47 -25 115 -25 68 0 110 9 115 25 5 15 -9 25 -33 25 -52 0 -54 43 -5 87 56 51 523 48 570 -4 45 -49 41 -83 -9 -83 -24 0 -38 -10 -33 -25 5 -16 47 -25 115 -25 68 0 110 9 115 25 5 14 -8 25 -30 25 -70 0 -113 130 -55 168 26 17 53 49 60 71 11 35 30 41 122 41 187 0 308 86 308 219 0 27 13 41 38 41 20 0 48 14 62 30 16 20 61 30 132 30 83 0 108 7 108 30 0 23 -25 30 -108 30 -71 0 -116 10 -132 30 -14 17 -42 30 -62 30 -27 0 -38 14 -38 50 0 31 -11 50 -30 50 -19 0 -30 -19 -30 -50 0 -40 -10 -50 -51 -50 -27 0 -55 -13 -62 -30 -8 -22 -43 -30 -131 -30 -159 0 -151 -47 9 -56 67 -4 121 -18 136 -35 13 -16 42 -29 64 -29 51 0 33 -93 -28 -145 -71 -60 -284 -49 -314 16 -72 159 -814 159 -886 0 -30 -65 -243 -76 -314 -16 -61 52 -79 145 -28 145 22 0 51 13 64 29 15 17 69 31 136 35 160 9 168 56 9 56 -88 0 -123 8 -131 30 -7 17 -35 30 -62 30 -41 0 -51 10 -51 50 0 31 -11 50 -30 50 -19 0 -30 -19 -30 -50z m120 -141 c0 -24 -19 -30 -83 -25 -120 9 -127 56 -9 56 70 0 92 -7 92 -31z m1695 6 c-13 -39 -175 -45 -175 -6 0 24 22 31 92 31 64 0 89 -7 83 -25z m-572 -228 c46 -41 48 -122 4 -170 -48 -53 -673 -56 -730 -4 -46 41 -48 122 -4 170 48 53 673 56 730 4z"></path><path d="M1574 3767 c-8 -7 -14 -93 -14 -189 0 -202 -14 -191 223 -181 l158 6 -5 184 -6 183 -171 6 c-94 3 -177 -1 -185 -9z m297 -187 l0 -120 -125 0 -126 0 0 120 0 120 125 0 125 0 1 -120z"></path><path d="M2074 3767 c-8 -7 -14 -93 -14 -190 l0 -177 191 0 191 0 -6 185 -6 185 -171 6 c-94 3 -177 -1 -185 -9z m306 -187 l0 -120 -130 0 -130 0 0 120 0 120 130 0 130 0 0 -120z"></path><path d="M2574 3767 c-8 -7 -14 -93 -14 -190 l0 -177 191 0 191 0 -6 185 -6 185 -171 6 c-94 3 -177 -1 -185 -9z m306 -187 l0 -120 -130 0 -130 0 0 120 0 120 130 0 130 0 0 -120z"></path><path d="M3074 3767 c-8 -7 -14 -92 -14 -189 l0 -175 158 -6 c239 -10 224 -23 218 190 l-6 183 -171 6 c-94 3 -177 -1 -185 -9z m306 -187 l0 -120 -130 0 -130 0 0 120 0 120 130 0 130 0 0 -120z"></path><path d="M3574 3767 c-22 -21 -17 -363 6 -370 10 -4 96 -4 190 -1 l171 7 -5 183 -6 184 -171 6 c-94 3 -177 -1 -185 -9z m306 -187 l0 -120 -130 0 -130 0 0 120 0 120 130 0 130 0 0 -120z"></path><path d="M4074 3767 c-8 -7 -14 -93 -14 -190 l0 -177 191 0 191 0 -6 185 -6 185 -171 6 c-94 3 -177 -1 -185 -9z m306 -187 l0 -120 -125 0 -125 0 0 120 0 120 125 0 125 0 0 -120z"></path><path d="M1569 3254 c-6 -15 -8 -103 -5 -196 l6 -168 180 0 180 0 0 190 0 190 -175 6 c-135 4 -178 -1 -186 -22z m303 -86 c-7 -17 -12 -71 -12 -120 l0 -88 -120 0 -120 0 0 120 0 120 132 0 c112 0 130 -5 120 -32z"></path><path d="M2069 3254 c-6 -15 -8 -103 -5 -196 l6 -168 180 0 180 0 0 190 0 190 -175 6 c-135 4 -178 -1 -186 -22z m311 -174 l0 -120 -130 0 -130 0 0 120 0 120 130 0 130 0 0 -120z"></path><path d="M2569 3254 c-6 -15 -8 -103 -5 -196 l6 -168 140 -6 c237 -10 232 -14 226 202 l-6 184 -175 6 c-135 4 -178 -1 -186 -22z m311 -174 l0 -120 -130 0 -130 0 0 120 0 120 130 0 130 0 0 -120z"></path><path d="M3074 3267 c-8 -7 -14 -93 -14 -190 0 -206 -3 -203 230 -193 l140 6 0 190 0 190 -171 6 c-94 3 -177 -1 -185 -9z m306 -187 l0 -120 -130 0 -130 0 0 120 0 120 130 0 130 0 0 -120z"></path><path d="M3569 3254 c-6 -15 -8 -103 -5 -196 l6 -168 180 0 180 0 0 190 0 190 -175 6 c-135 4 -178 -1 -186 -22z m311 -174 l0 -120 -130 0 -130 0 0 120 0 120 130 0 130 0 0 -120z"></path><path d="M4069 3254 c-6 -15 -8 -103 -5 -196 l6 -168 180 0 180 0 0 190 0 190 -175 6 c-135 4 -178 -1 -186 -22z m311 -175 l0 -121 -122 6 -122 6 -3 115 -3 115 125 0 125 0 0 -121z"></path></g></svg>