<svg xmlns="http://www.w3.org/2000/svg" id="Layer_1" data-name="Layer 1" viewBox="0 0 150 150"><defs><style>.cls-1{fill:#77787b;}</style></defs><path class="cls-1" d="M74.93,147A72.06,72.06,0,1,1,147,74.93,72.15,72.15,0,0,1,74.93,147Zm0-141.3a69.24,69.24,0,1,0,69.25,69.24A69.33,69.33,0,0,0,74.93,5.69Z"></path><path class="cls-1" d="M35.27,56.08a4.1,4.1,0,0,1,4.08-2.83,51.13,51.13,0,0,0,21.52-6.17c.81-.44,1.6-.94,2.41-1.39a1.43,1.43,0,1,1,1.44,2.43A53.2,53.2,0,0,1,48,54.88a58.64,58.64,0,0,1-8.94,1.25,1,1,0,0,0-1,1c-.07,2.29.06,2.18,2,2.18h69.8c1.85,0,2.29-.57,1.86-2.42-.13-.59-.56-.73-1.09-.76A57.07,57.07,0,0,1,95.8,53.19a51.51,51.51,0,0,1-15-8,2.19,2.19,0,0,0-1.42-.47c-3.25,0-6.5,0-9.75,0-1.51,0-1.91-.41-1.91-1.94,0-1.16,0-2.32,0-3.48a3.93,3.93,0,0,1,4-4c2.17,0,4.34,0,6.5,0a3.74,3.74,0,0,1,3.26,1.9,1.43,1.43,0,0,1-.32,2,1.36,1.36,0,0,1-2-.43,1.57,1.57,0,0,0-1.45-.7c-1.91,0-3.82,0-5.72,0-1.08,0-1.42.38-1.45,1.46,0,2.23,0,2.23,2.16,2.23s4.69,0,7,0a3.53,3.53,0,0,1,2.41.82,49.79,49.79,0,0,0,19.45,9.3,49.72,49.72,0,0,0,9,1.33,3.79,3.79,0,0,1,3.93,4.19c-.06.62,0,1.25-.08,1.85a3.66,3.66,0,0,1-3.42,2.86c-.77,0-1.55,0-2.32,0-.55,0-.76.2-.71.73,0,.23,0,.46,0,.7V98.71a3.14,3.14,0,0,1-.13,1.22,1.34,1.34,0,0,1-1.53.91,1.28,1.28,0,0,1-1.18-1.23,7,7,0,0,1,0-.92V63.25c0-1.08,0-1.08-1.11-1.08-.62,0-1.24,0-1.86,0-.45,0-.69.15-.65.63,0,.23,0,.46,0,.69v41.78c0,2-.38,2.35-2.34,2.35h-59c-2.12,0-2.21.09-2.21,2.25,0,.3,0,.62,0,.92a1,1,0,0,0,1,1c.33,0,.67,0,1,0h69.57c.31,0,.62,0,.93,0a1.07,1.07,0,0,0,1.13-1.12c0-.62,0-1.24,0-1.85,0-.82-.4-1.14-1.23-1.19a24.39,24.39,0,0,1-3.08-.1,1.3,1.3,0,0,1-1.15-1.41,1.28,1.28,0,0,1,1.25-1.32,33.8,33.8,0,0,1,3.63,0,3.9,3.9,0,0,1,3.42,3.72c0,.49,0,1,0,1.47a4.12,4.12,0,0,1-3,4.57H38.21a4.4,4.4,0,0,1-2.94-2.94v-3.86a4.17,4.17,0,0,1,3-2.91,9.87,9.87,0,0,1,2.24-.08c1.19,0,1.19,0,1.19-1.17q0-18.26,0-36.52c0-1.32.54-2.07,1.48-2s1.37.73,1.37,2q0,13.67,0,27.31c0,3.18,0,6.35,0,9.52,0,.68.2.88.88.88q7,0,13.93,0c.73,0,.92-.24.91-.93-.05-1.7,0-3.41,0-5.11,0-1.21.47-1.84,1.37-1.85s1.42.64,1.47,1.81c0,.23,0,.46,0,.69,0,1.5,0,3,0,4.49,0,.66.18.91.88.9q4.29-.06,8.58,0c.69,0,.89-.21.88-.89,0-3.12,0-6.24,0-9.36,0-.8-.25-1-1-1-6.78,0-13.57,0-20.35,0h-.23c-.61-.08-.82.19-.81.79,0,1.14,0,2.27,0,3.41a3.5,3.5,0,0,1-.12.91,1.37,1.37,0,0,1-1.46,1,1.38,1.38,0,0,1-1.26-1.27,7,7,0,0,1,0-.92q0-17.18,0-34.35c0-.79-.22-1-1-1-2.56.05-5.11,0-7.66,0a4,4,0,0,1-4.31-2.69Zm39.66,6.09H52.18c-1.09,0-1.1,0-1.1,1.11V89.43c0,1.27,0,1.27,1.25,1.27H93.41a6.78,6.78,0,0,1,1,0,1.35,1.35,0,0,1,1.26,1.55,1.45,1.45,0,0,1-1.58,1.28c-1.24,0-2.48,0-3.71,0-.73,0-.93.23-.91.93,0,1.83,0,3.67,0,5.5a1.38,1.38,0,0,1-2.74.25,4.83,4.83,0,0,1-.09-1c0-1.6,0-3.2,0-4.8,0-.69-.24-.88-.9-.88-2.84,0-5.68,0-8.52,0-.69,0-.94.19-.93.92,0,3.09,0,6.18,0,9.28,0,1,0,1,1,1H97.69c1,0,1,0,1-1V63.19c0-1,0-1-1-1Z"></path><path class="cls-1" d="M64.9,55.2a1.44,1.44,0,0,1-1.63-1.1,1.41,1.41,0,0,1,.93-1.59c.58-.21,1.19-.35,1.77-.56a9.68,9.68,0,0,0,4.88-3.61,1.42,1.42,0,0,1,1.55-.64,1.38,1.38,0,0,1,1.07,1.1A1.6,1.6,0,0,1,73,50.15a12.28,12.28,0,0,1-5.21,4.11A12.11,12.11,0,0,1,64.9,55.2Z"></path><path class="cls-1" d="M81.29,51.4a1.32,1.32,0,0,1-2,1.26,8.11,8.11,0,0,1-2.88-3,1.32,1.32,0,0,1,.47-1.7,1.34,1.34,0,0,1,1.76.14A20,20,0,0,0,81,50.52,1,1,0,0,1,81.29,51.4Z"></path><path class="cls-1" d="M85.07,55.2a1.53,1.53,0,0,1-1.67-1.44,1.47,1.47,0,0,1,1.43-1.42,1.6,1.6,0,0,1,1.7,1.52A1.36,1.36,0,0,1,85.07,55.2Z"></path></svg>