<svg xmlns="http://www.w3.org/2000/svg" id="Layer_1" data-name="Layer 1" viewBox="0 0 150 150"><defs><style>.cls-1{fill:#77787b;}</style></defs><path class="cls-1" d="M75,147.16A72.15,72.15,0,1,1,147.17,75,72.24,72.24,0,0,1,75,147.16ZM75,5.7A69.32,69.32,0,1,0,144.35,75,69.41,69.41,0,0,0,75,5.7Z"></path><path class="cls-1" d="M115.73,46.11a16.16,16.16,0,0,1-3,9.91c-2.84,4.07-5.73,8.11-8.61,12.15a4.86,4.86,0,0,0-.8,1.76q-5.48,23.89-11,47.78c-1.21,5.22-4.91,8.5-9.68,8.57a10,10,0,0,1-10.37-9.4c-.08-1-.31-1.13-1.24-.88a10.53,10.53,0,0,1-13.35-8.83c-.16-1.11-.39-1.45-1.66-1.13a10.47,10.47,0,0,1-12.83-9.65c0-.78-.16-1-1-.72A10.09,10.09,0,0,1,29,86.38a9.65,9.65,0,0,1,4.57-8.88c2.85-1.94,5.74-3.81,8.63-5.7Q58.59,61.09,75,50.4a6.26,6.26,0,0,0,1.74-1.7q4.14-6,8.34-11.88a16.26,16.26,0,0,1,13.68-7.26,16.8,16.8,0,0,1,16.75,13.7A12.86,12.86,0,0,1,115.73,46.11ZM100.34,33.19c-5.64,0-9.08,1.55-11.69,4.79-1.49,1.85-2.79,3.86-4.2,5.77-.47.63-.16.9.34,1.24q10.15,7,20.27,14.15c.72.5,1,.29,1.46-.33,1.14-1.7,2.37-3.35,3.46-5.08a12.68,12.68,0,0,0,.59-13.54C108.09,35.61,104.07,33.31,100.34,33.19ZM68.2,112.88a6.8,6.8,0,0,0,6.37-4.12c1.36-3,2.63-6,4-9,.35-.76.17-1.15-.49-1.6q-4-2.72-8-5.54c-.66-.47-1-.4-1.46.26-2.07,3.06-4.2,6.07-6.29,9.12a6.46,6.46,0,0,0-.32,7.19A6.86,6.86,0,0,0,68.2,112.88ZM46.74,95.77a7,7,0,0,0,4.67,6.71,7.15,7.15,0,0,0,8-2.62c2.12-3,4.18-6,6.31-9,.48-.66.53-1-.22-1.56-2.68-1.82-5.33-3.69-8-5.58A1,1,0,0,0,56,83.9c-2.37,2.32-4.77,4.62-7.17,6.92A6.39,6.39,0,0,0,46.74,95.77ZM32.5,86.06a6.5,6.5,0,0,0,4.09,6,6.15,6.15,0,0,0,7-1.38c3.15-2.94,6.2-6,9.33-8.92.64-.6.62-.85-.09-1.32q-3.81-2.58-7.57-5.26a1.33,1.33,0,0,0-1.76-.06c-2.62,1.75-5.29,3.43-7.92,5.18A6.82,6.82,0,0,0,32.5,86.06Zm49.9,36.67a6.3,6.3,0,0,0,6.23-4.63c.87-3.28,1.55-6.61,2.34-9.91a1.18,1.18,0,0,0-.59-1.42c-2.58-1.74-5.14-3.52-7.68-5.31-.6-.41-.91-.5-1.25.3-1.69,4-3.51,8-5.15,12.09A6.42,6.42,0,0,0,82.4,122.73Zm-.31-75.11a.81.81,0,0,0-.62.46,16.18,16.18,0,0,1-1.08,1.49c-.7.8-.47,1.26.35,1.82C87,55.67,93.13,60,99.32,64.31c2.36,1.65,2.35,1.63,3.94-.8.39-.58.46-.93-.2-1.38Q92.91,55.08,82.78,48A5.42,5.42,0,0,0,82.09,47.62Zm-8,31.23c0-.43-.31-.58-.57-.76C71.6,76.73,69.63,75.4,67.71,74c-.65-.48-1.07-.32-1.58.18-2,2-4,3.95-6.08,5.89-.54.52-.63.81.07,1.29,2.51,1.69,5,3.43,7.46,5.19.6.43,1,.38,1.38-.24,1.57-2.3,3.18-4.57,4.78-6.85C73.88,79.26,74,79,74.11,78.85Zm3.27,2c-.42.05-.55.32-.71.55-1.59,2.34-3.16,4.7-4.78,7-.46.66-.26,1,.32,1.36,2.44,1.67,4.87,3.35,7.26,5.07.74.53,1.1.45,1.45-.4q1.6-3.86,3.32-7.67a1.06,1.06,0,0,0-.42-1.54c-1.94-1.31-3.84-2.67-5.76-4C77.83,81,77.57,80.93,77.38,80.82ZM56.9,66.59a7.55,7.55,0,0,0-.75.39c-2.58,1.68-5.13,3.38-7.73,5-.77.48-.76.76,0,1.26,2.3,1.56,4.6,3.14,6.85,4.78a1.23,1.23,0,0,0,1.89-.15c2-2,4-3.88,6-5.79.53-.5.68-.82,0-1.3-1.84-1.22-3.64-2.52-5.46-3.78C57.44,66.87,57.18,66.75,56.9,66.59Zm34.68,36.75c.62,0,.56-.51.64-.88.66-2.92,1.28-5.84,2-8.75a1.25,1.25,0,0,0-.58-1.54c-1.77-1.19-3.54-2.39-5.24-3.66-.75-.56-1.08-.46-1.43.37-1.07,2.58-2.17,5.14-3.32,7.68a1.09,1.09,0,0,0,.46,1.61c2.32,1.56,4.59,3.19,6.87,4.78C91.16,103.09,91.38,103.22,91.58,103.34ZM76,75.38a.75.75,0,0,0,.76-.41c1.33-1.87,2.65-3.75,4-5.62.36-.51.17-.78-.27-1.09q-2-1.38-4-2.83a.9.9,0,0,0-1.38.11c-1.61,1.57-3.24,3.13-4.9,4.66-.57.52-.61.84.07,1.29C72,72.65,73.68,73.86,75.4,75A6.55,6.55,0,0,0,76,75.38Zm13.29-.45a.65.65,0,0,0-.37-.77c-1.42-1-2.86-1.92-4.27-2.92-.52-.37-.79-.15-1.09.27-1.27,1.82-2.54,3.63-3.84,5.43-.39.54-.39.9.21,1.3q2.66,1.79,5.25,3.64c.64.46,1,.37,1.27-.36.87-2.08,1.79-4.14,2.69-6.21C89.19,75.16,89.24,75,89.27,74.93Zm-16.7-12a2.65,2.65,0,0,0-.33-.38l-4.11-2.89a.74.74,0,0,0-.91,0L60.66,64c-.48.32-.49.57,0,.9,1.72,1.17,3.44,2.34,5.15,3.54A.8.8,0,0,0,67,68.33c1.7-1.65,3.43-3.28,5.14-4.91C72.28,63.28,72.4,63.12,72.57,62.93ZM97.32,80.87a.91.91,0,0,0-.38-1c-1.3-.92-2.62-1.83-3.92-2.76-.5-.36-.72-.09-.91.35-.92,2.15-1.84,4.3-2.79,6.43a.81.81,0,0,0,.33,1.15l5.06,3.5c.42.29.76.33.9-.27ZM83,65.7c.37-.11.53-.41.71-.67.79-1.11,1.57-2.21,2.34-3.32,1.29-1.86,1.17-1.46-.5-2.64-.5-.35-1-.68-1.51-1a.77.77,0,0,0-1.18,0c-1.34,1.33-2.7,2.64-4.06,3.95-.32.31-.41.59,0,.89,1.25.86,2.48,1.74,3.73,2.6A2.48,2.48,0,0,0,83,65.7Zm10.6-.64a.64.64,0,0,0-.27-.67c-.9-.64-1.8-1.28-2.71-1.91-.48-.33-.74,0-1,.34-1,1.44-2,2.89-3.05,4.31-.44.6-.22.93.31,1.28,1.12.75,2.23,1.51,3.32,2.31.64.47.9.22,1.15-.39.61-1.48,1.25-2.93,1.88-4.4ZM75.1,60.15a1.48,1.48,0,0,0,.87-.52c.77-.73,1.52-1.49,2.3-2.2,2.26-2.06,2.26-2-.32-3.72-.43-.28-.8-.56-1.33-.21-1.7,1.12-3.41,2.24-5.13,3.34-.48.31-.5.57,0,.9,1,.7,2.08,1.44,3.13,2.15C74.77,60,75,60.07,75.1,60.15Zm24.77,9.39a1.15,1.15,0,0,0-.6-1c-.6-.43-1.22-.84-1.8-1.29s-.83-.24-1.07.35c-.69,1.66-1.41,3.31-2.13,5-.17.41-.27.78.17,1.08,1.08.74,2.16,1.49,3.24,2.22.33.23.6.26.71-.22C98.88,73.58,99.38,71.56,99.87,69.54Z"></path><path class="cls-1" d="M99.69,36.3a9.48,9.48,0,0,1,4.6,1.7,1.8,1.8,0,1,1-1.89,3A6.81,6.81,0,0,0,95,41a1.59,1.59,0,0,1-2.38-.68,1.68,1.68,0,0,1,.56-2.45A11.44,11.44,0,0,1,99.69,36.3Z"></path></svg>