<svg xmlns="http://www.w3.org/2000/svg" id="Layer_1" data-name="Layer 1" viewBox="0 0 150 150"><defs><style>.cls-1{fill:#77787b;}</style></defs><path class="cls-1" d="M74.93,147A72.06,72.06,0,1,1,147,74.93,72.15,72.15,0,0,1,74.93,147Zm0-141.3a69.24,69.24,0,1,0,69.25,69.24A69.33,69.33,0,0,0,74.93,5.69Z"></path><path class="cls-1" d="M104.2,32.61c2.45,1,3.32,2.32,3.33,5,0,1.46,0,2.92,0,4.38,0,2.77-1.48,4.59-4.21,4.76A52.75,52.75,0,0,1,94,46.69a4.08,4.08,0,0,1-3.56-3.77c-.21-2.14-.08-4.29-.09-6.44,0-.72-.17-1-1-1-2.67.11-5.34-.12-8,.14a5.44,5.44,0,0,0-4.86,5.2c0,3.68,0,7.37,0,11.06a1,1,0,0,0,.53.93A4.42,4.42,0,0,1,79.3,57c0,5.78,0,11.56,0,17.34a1.58,1.58,0,0,0,.54,1.38,3.63,3.63,0,0,1,.9,3q0,7,0,14,0,7.47,0,15c0,.68.07,1,.9,1.22A4.18,4.18,0,0,1,84.92,113c0,1.29,0,1.29,1.3,1.29h20.4a8.12,8.12,0,0,1,1,0,1.45,1.45,0,0,1,0,2.88,5.72,5.72,0,0,1-.83,0h-72a6.91,6.91,0,0,1-.91,0,1.4,1.4,0,0,1-1.22-1.43,1.38,1.38,0,0,1,1.2-1.44,7.66,7.66,0,0,1,1.07,0H63.79c1.19,0,1.19,0,1.2-1.15a4.25,4.25,0,0,1,3.63-4.43.6.6,0,0,0,.55-.67v-.82q0-14,0-28c0-1.44-.06-2.89,1.26-3.91.29-.23.17-.62.17-.94,0-5.73,0-11.46,0-17.18A4.6,4.6,0,0,1,73,52.74c.47-.25.43-.64.43-1.05,0-3.11.12-6.23,0-9.33-.23-4.93,2.48-8.64,7-9.75Zm-32,64.06c0,3.69,0,7.37,0,11.06,0,.65.21.88.86.87,1.29,0,2.59,0,3.88,0,.55,0,.79-.17.79-.76q0-11.1,0-22.21c0-.58-.21-.78-.77-.77-1.27,0-2.54.06-3.8,0-.8,0-1,.28-1,1C72.22,89.45,72.2,93.06,72.2,96.67ZM73.68,65.4h0c0,2.56,0,5.12,0,7.68,0,2-.34,1.73,1.82,1.77.52,0,.74-.16.74-.71q0-8.72,0-17.43a1.34,1.34,0,0,0-.24-.85,1.2,1.2,0,0,0-1.38-.52,1.32,1.32,0,0,0-1,1.39Q73.69,61.07,73.68,65.4Zm1.25,48.91H81c.35,0,.72.07.82-.46.27-1.42-.33-2.21-1.76-2.22H69.78a2.3,2.3,0,0,0-1,.19,1.7,1.7,0,0,0-.75,2.08c.18.69.76.4,1.17.41C71.13,114.33,73,114.31,74.93,114.31Zm24-76.14c1.59,0,3.18,0,4.77,0,.56,0,.79-.16.79-.75,0-1.37-.5-1.92-1.95-1.94-2.45,0-4.89,0-7.34,0-2.14,0-1.8-.35-1.86,1.88,0,.61.2.82.81.81C95.74,38.15,97.33,38.17,98.93,38.17Zm-.08,5.62h3.87a2.17,2.17,0,0,0,1-.17,1.82,1.82,0,0,0,.77-2c-.2-.66-.78-.39-1.19-.39-2.88,0-5.77,0-8.65,0-1.3,0-1.57.39-1.13,1.64a1.38,1.38,0,0,0,1.49.93ZM74.9,81.8c.71,0,1.42,0,2.14,0,.49,0,.68-.2.67-.69,0-.9,0-1.81,0-2.71,0-.46-.19-.64-.64-.64-1.42,0-2.85,0-4.28,0-.41,0-.59.18-.59.6,0,.93,0,1.87,0,2.8,0,.45.19.64.64.64C73.52,81.79,74.21,81.8,74.9,81.8Z"></path><path class="cls-1" d="M117.25,116.36a1.74,1.74,0,0,1-1.72.89c-.82,0-1.65,0-2.47,0a1.46,1.46,0,1,1,0-2.92c.82,0,1.65,0,2.47,0a1.7,1.7,0,0,1,1.72.9Z"></path><path class="cls-1" d="M108.87,56.63a1.54,1.54,0,0,1-1,1.31,1.33,1.33,0,0,1-1.58-.34,3.79,3.79,0,0,1-.58-.89c-.78-1.54-1.55-3.09-2.33-4.64a4.83,4.83,0,0,1-.23-.52,1.53,1.53,0,0,1,.68-1.92,1.42,1.42,0,0,1,2,.59c.54.9,1,1.85,1.44,2.78s.84,1.67,1.25,2.51A2.47,2.47,0,0,1,108.87,56.63Z"></path><path class="cls-1" d="M90.56,58.07c-1,0-1.87-1-1.52-1.83a53.84,53.84,0,0,1,3.07-6.18A1.34,1.34,0,0,1,94,49.63a1.38,1.38,0,0,1,.66,1.82c-.94,2-1.93,3.94-2.93,5.89A1.42,1.42,0,0,1,90.56,58.07Z"></path><path class="cls-1" d="M84.89,53.81A1.41,1.41,0,0,1,83.48,53a1.48,1.48,0,0,1,.33-1.75c.86-.89,1.74-1.76,2.62-2.63.5-.51,1-1,1.53-1.51a1.49,1.49,0,1,1,2.09,2.13c-1.36,1.4-2.76,2.77-4.14,4.15A1.35,1.35,0,0,1,84.89,53.81Z"></path><path class="cls-1" d="M114.51,52.14c0,.83-.3,1.29-.86,1.53a1.52,1.52,0,0,1-1.8-.39c-1.35-1.33-2.68-2.68-4-4a.63.63,0,0,1-.11-.12,1.46,1.46,0,0,1,.06-2.08,1.37,1.37,0,0,1,2,0c1.49,1.42,2.93,2.89,4.37,4.36A1.19,1.19,0,0,1,114.51,52.14Z"></path><path class="cls-1" d="M100.44,53.78c0,.85,0,1.71,0,2.56a1.6,1.6,0,0,1-1.51,1.73,1.55,1.55,0,0,1-1.52-1.63c0-1.78,0-3.57,0-5.35a1.56,1.56,0,0,1,1.5-1.66,1.61,1.61,0,0,1,1.53,1.72.86.86,0,0,1,0,.16C100.45,52.13,100.45,53,100.44,53.78Z"></path></svg>