<svg xmlns="http://www.w3.org/2000/svg" id="Layer_1" data-name="Layer 1" viewBox="0 0 150 150"><defs><style>.cls-1{fill:#77787b;}</style></defs><path class="cls-1" d="M74.93,147A72.06,72.06,0,1,1,147,74.93,72.15,72.15,0,0,1,74.93,147Zm0-141.3a69.24,69.24,0,1,0,69.25,69.24A69.33,69.33,0,0,0,74.93,5.69Z"></path><path class="cls-1" d="M103.08,89.81c-.3-1.84-.58-3.62-.87-5.39-.15-.92.19-1.55.93-1.68s1.35.33,1.51,1.28q2.09,12.63,4.18,25.27c.2,1.26-.26,1.81-1.54,1.81H42.64c-1.48,0-1.9-.46-1.65-1.93q1.42-8.44,2.89-16.88c.39-2.28.78-4.57,1.18-6.85a1.23,1.23,0,0,1,1.46-1.15,1.26,1.26,0,0,1,1,1.61c-.21,1.29-.43,2.57-.67,3.95.41,0,.73.05,1,.05h3.44a2.35,2.35,0,0,0,1.89-.48c.42-.41,1-.23,1.47.16a1.09,1.09,0,0,0,.58.3c1.92,0,3.84,0,5.76,0a1.63,1.63,0,0,0,.28-.08c.09-1.14.18-2.3.27-3.46l.66-9c.07-1,.52-1.35,1.5-1.35H86.26c1.21,0,1.56.34,1.67,1.56.33,3.87.67,7.74,1,11.62,0,.51.18.74.76.72,1.66,0,3.32,0,5,0a1.63,1.63,0,0,0,.86-.33,1.25,1.25,0,0,1,1.72,0,1.28,1.28,0,0,0,.66.3c1.62,0,3.23,0,4.85,0A1.91,1.91,0,0,0,103.08,89.81ZM78.84,108.58c0-.24,0-.42,0-.61Q78.6,100.5,78.38,93c0-.54-.23-.67-.72-.67-1.66,0-3.32,0-5,0-.6,0-.81.13-.82.77-.11,5-.26,9.91-.4,14.87,0,.18,0,.36,0,.57Zm-19,0a1.16,1.16,0,0,0,.08-.26c.38-5.11.74-10.22,1.13-15.33,0-.54-.18-.63-.64-.63-1.66,0-3.32,0-5,0-.51,0-.67.16-.72.66-.53,4.68-1.08,9.35-1.62,14-.06.5-.11,1-.17,1.54Zm37.38,0c0-.42-.07-.78-.11-1.15-.21-1.83-.43-3.67-.65-5.5-.34-2.88-.69-5.76-1-8.64-.07-.68-.29-1-1-.92-1.47.07-2.94,0-4.42,0-.24,0-.49,0-.82.05l1.38,16.14Zm-53.67.05c2.08,0,4.05,0,6,0,.7,0,.9-.21,1-.88.44-4.06.92-8.13,1.38-12.19.12-1,.23-2.07.35-3.19H51.4c-1.42,0-2.85,0-4.28,0-.59,0-.81.16-.9.74-.44,2.77-.92,5.53-1.4,8.3C44.42,103.78,44,106.15,43.58,108.62Zm44.49,0c0-.29,0-.5,0-.71q-.63-7.45-1.27-14.9c0-.5-.26-.61-.72-.61-1.42,0-2.85,0-4.28,0-1,0-1,0-1,1q.24,7.31.5,14.6c0,.21,0,.41.06.63Zm-19.18,0a.94.94,0,0,0,.07-.19q.21-7.75.43-15.5c0-.47-.21-.53-.6-.53-1.47,0-3,0-4.42,0-.64,0-.83.19-.88.82-.24,3.76-.53,7.51-.8,11.26-.09,1.37-.18,2.73-.27,4.14Zm29-16.2,1.93,16.16h6.42c-.38-2.3-.74-4.54-1.11-6.78q-.73-4.42-1.5-8.85c0-.19-.26-.51-.39-.51C101.46,92.37,99.73,92.39,97.84,92.39ZM72,89.85c.26,0,.48.05.71.05,1.59,0,3.18,0,4.77,0,.62,0,.81-.17.78-.79C78.1,85.76,78,82.39,77.89,79c0-.43-.17-.56-.59-.56-1.49,0-3,0-4.49,0-.46,0-.59.17-.6.62-.08,3.36-.18,6.73-.26,10.09A5.39,5.39,0,0,0,72,89.85Zm8.45-11.36a1.42,1.42,0,0,0-.07.26q.17,5.32.32,10.65c0,.4.21.52.58.51,1,0,2.1,0,3.15,0h2.08l-.37-4.51c-.18-2.14-.36-4.28-.57-6.42,0-.17-.23-.46-.36-.46C83.61,78.47,82,78.49,80.43,78.49ZM69.5,84.12h.26c0-1.66,0-3.32,0-5,0-.56-.18-.68-.69-.67-1.31,0-2.62,0-3.93,0-.46,0-.61.16-.64.6-.23,3.4-.46,6.81-.72,10.22,0,.47.12.61.58.61,1.45,0,2.9,0,4.35,0,.57,0,.79-.15.78-.74C69.48,87.49,69.5,85.8,69.5,84.12Z"></path><path class="cls-1" d="M36.52,113.94H113.4c-.17-.92-.31-1.79-.48-2.65l-5.7-29.55c-.5-2.58-1-5.15-1.46-7.73-.11-.63-.37-.8-1-.76a19.64,19.64,0,0,1-2,0,1.23,1.23,0,1,1,0-2.45c1.22,0,2.43,0,3.65,0,.9,0,1.28.34,1.47,1.28.63,3.26,1.25,6.52,1.88,9.79q2.63,13.6,5.24,27.21.54,2.86,1.07,5.73c.2,1-.31,1.65-1.4,1.65-3.32,0-6.65,0-10,0q-34.59,0-69.19,0a2.71,2.71,0,0,1-1.27-.26,1.17,1.17,0,0,1-.47-1.42l3.51-17.69,4.86-24.57c.29-1.52.52-1.72,2.1-1.72H47c1,0,1.54.47,1.53,1.25S48,73.25,47,73.26c-.6,0-1.21,0-1.82,0s-.66.15-.75.61q-2.61,13.36-5.26,26.71c-.84,4.29-1.7,8.58-2.55,12.87C36.55,113.58,36.55,113.72,36.52,113.94Z"></path><path class="cls-1" d="M54.63,76c1.12,0,2.15,0,3.17,0,1.35,0,1.89,1,1.22,2.12l-4.35,7.53c-.75,1.31-1.78,1.34-2.53,0q-2.22-3.78-4.38-7.6a1.47,1.47,0,0,1-.23-1.1,1.89,1.89,0,0,1,1-.94c.57-.2,1,.21,1.31.7l2,3.53c.48.83,1,1.65,1.53,2.62L56,78.51H53.69c-1.1,0-1.53-.43-1.53-1.54,0-3.23,0-6.46,0-9.69a13.13,13.13,0,0,0-10.37-13A21.13,21.13,0,0,0,39.15,54c-.88-.08-1.41-.54-1.39-1.26a1.27,1.27,0,0,1,1.5-1.21,15.39,15.39,0,0,1,13.55,8.34,15,15,0,0,1,1.83,7.55c0,2.55,0,5.1,0,7.66Z"></path><path class="cls-1" d="M94.13,78.51l2.55,4.43.83-1.41c.9-1.56,1.79-3.13,2.71-4.68.47-.8,1.16-1,1.8-.63a1.29,1.29,0,0,1,.31,1.91q-2.22,3.87-4.46,7.72a1.25,1.25,0,0,1-2.35,0c-1.5-2.56-3-5.14-4.47-7.71-.68-1.19-.14-2.1,1.23-2.11l3,0s.08,0,.19-.08,0-.37,0-.57c0-2.67,0-5.34,0-8a15.56,15.56,0,0,1,13.19-15.63,17.66,17.66,0,0,1,2.17-.19c.92,0,1.48.45,1.49,1.21S111.84,54,110.94,54a13.22,13.22,0,0,0-13,13c-.09,3.3,0,6.6,0,9.9,0,1.2-.4,1.59-1.61,1.6Z"></path><path class="cls-1" d="M75,63.51a6.49,6.49,0,0,1-6.29-8,20.69,20.69,0,0,1,3.39-7.42c.59-.87,1.22-1.72,1.89-2.53a1.2,1.2,0,0,1,2,0,28.65,28.65,0,0,1,5,8.88c1,3.17.21,6-2.16,7.76A6.34,6.34,0,0,1,75,63.51Zm0-15.23a21.09,21.09,0,0,0-3.77,7.23,5.88,5.88,0,0,0-.11,2.36A3.91,3.91,0,0,0,75.71,61,4,4,0,0,0,79,56.45a13.57,13.57,0,0,0-1.81-4.76C76.51,50.58,75.8,49.51,75.05,48.28Z"></path><path class="cls-1" d="M97.36,45c-.08,4.24-3.21,7.15-6.89,6.87a6.49,6.49,0,0,1-5.93-7.44,17.6,17.6,0,0,1,2.8-6.9c.78-1.23,1.65-2.39,2.53-3.54a1.2,1.2,0,0,1,2-.08,28.94,28.94,0,0,1,5,8.74A18.8,18.8,0,0,1,97.36,45ZM91,36.81c-.1,0-.16,0-.19.06a18.87,18.87,0,0,0-3.7,7.32c-.48,2.36.48,4.27,2.39,5a3.84,3.84,0,0,0,4-.64,3.92,3.92,0,0,0,1.31-4.12A22.5,22.5,0,0,0,91,36.81Z"></path><path class="cls-1" d="M52.68,45.56A14,14,0,0,1,54.75,39c1-1.64,2.08-3.22,3.2-4.77.78-1.09,1.64-1.05,2.43,0a32.4,32.4,0,0,1,4.34,7.35,8.69,8.69,0,0,1,.61,5.68,6.43,6.43,0,0,1-12.51-.66C52.76,46.19,52.72,45.79,52.68,45.56Zm6.42-8.93c-.77,1.23-1.5,2.31-2.14,3.44A12.05,12.05,0,0,0,55.22,45a4,4,0,0,0,3.27,4.37A4,4,0,0,0,63,44.29C62.33,41.5,60.8,39.15,59.1,36.63Z"></path><path class="cls-1" d="M74.64,73.26H60.25c-1,0-1.63-.47-1.63-1.24s.61-1.23,1.64-1.23H89.12A2.22,2.22,0,0,1,90,71a1.08,1.08,0,0,1,.67,1.19,1.12,1.12,0,0,1-1,1.07,3.21,3.21,0,0,1-.7.05Z"></path><path class="cls-1" d="M74.93,59.89a2.79,2.79,0,0,1-2.71-2.68,1.23,1.23,0,0,1,2.43-.4c.09.38.2.59.63.68a1.18,1.18,0,0,1,1,1.33A1.22,1.22,0,0,1,74.93,59.89Z"></path><path class="cls-1" d="M89.52,44.24a1.07,1.07,0,0,1,1,.93.75.75,0,0,0,.65.68,1.21,1.21,0,0,1,1,1.47,1.31,1.31,0,0,1-1.51,1,2.87,2.87,0,0,1-2.53-2.74A1.28,1.28,0,0,1,89.52,44.24Z"></path><path class="cls-1" d="M57.68,44.23a1.08,1.08,0,0,1,1,.91.83.83,0,0,0,.7.73,1.19,1.19,0,0,1,.94,1.42,1.31,1.31,0,0,1-1.48,1,2.88,2.88,0,0,1-2.56-2.57A1.28,1.28,0,0,1,57.68,44.23Z"></path></svg>