<svg xmlns="http://www.w3.org/2000/svg" id="Layer_1" data-name="Layer 1" viewBox="0 0 150 150"><defs><style>.cls-1{fill:#77787b;}</style></defs><path class="cls-1" d="M75,147.05A72.09,72.09,0,1,1,147.06,75,72.18,72.18,0,0,1,75,147.05ZM75,5.69A69.27,69.27,0,1,0,144.24,75,69.36,69.36,0,0,0,75,5.69Z"></path><path class="cls-1" d="M65.66,53.16H40.24c-1.45,0-1.65-.21-1.66-1.65,0-3.26,0-6.51,0-9.77,0-1.29.24-1.53,1.56-1.54h6.32c14.62,0,29.25,0,43.87,0A20.26,20.26,0,0,1,107.59,49a20,20,0,0,1,3.63,9.84A20.6,20.6,0,0,1,94.07,81.14a24.32,24.32,0,0,1-4,.3c-10.24,0-20.49,0-30.73,0a7.69,7.69,0,1,0-.07,15.37c16.68-.06,33.37,0,50,0,2,0,2,.07,2,2v9.48c0,1.19-.26,1.46-1.49,1.46h-5.24c-15,0-30,0-45,0a20.35,20.35,0,0,1-17.32-8.82,20,20,0,0,1-3.63-9.84A20.61,20.61,0,0,1,55.85,68.79a24.33,24.33,0,0,1,4-.31c10.25,0,20.49,0,30.74,0a7.81,7.81,0,0,0,7.65-5.94,7.65,7.65,0,0,0-7.15-9.38c-8.48,0-17,0-25.43,0ZM83.23,108q12.78,0,25.56,0c.69,0,.91-.19.9-.89,0-2.46,0-4.93,0-7.39,0-1.17,0-1.18-1.17-1.18h-48c-.72,0-1.43,0-2.15-.08a9.4,9.4,0,0,1,1.15-18.75H90.21a21.06,21.06,0,0,0,3.64-.21,18.9,18.9,0,0,0,.29-37.24A37.48,37.48,0,0,0,87.7,42q-23.24,0-46.46,0c-1,0-1,0-1,1v7.33c0,1.13,0,1.13,1.13,1.13h47.9c.79,0,1.57,0,2.36.09a9.4,9.4,0,0,1-1.16,18.75q-15.36,0-30.73,0a22.6,22.6,0,0,0-3.93.28,18.83,18.83,0,0,0-13.53,27c3.5,6.81,9.24,10.38,17,10.46C67.24,108,75.23,108,83.23,108Z"></path><path class="cls-1" d="M49.16,47.58a8,8,0,0,1-.83-.1.78.78,0,0,1-.64-.84.8.8,0,0,1,.66-.76,4.68,4.68,0,0,1,1.71,0,.81.81,0,0,1,.78.8.84.84,0,0,1-.79.87A7.19,7.19,0,0,1,49.16,47.58Z"></path><path class="cls-1" d="M67.24,47.54a2.61,2.61,0,0,1-1-.07.8.8,0,0,1-.59-.8.77.77,0,0,1,.62-.78,4.82,4.82,0,0,1,1.65-.06c.5.05.88.32.87.87s-.4.78-.91.84A4.56,4.56,0,0,1,67.24,47.54Z"></path><path class="cls-1" d="M85.12,47.57a5.93,5.93,0,0,1-.8-.06.83.83,0,0,1-.72-.85.79.79,0,0,1,.71-.79,5.17,5.17,0,0,1,1.57,0,.83.83,0,0,1,.86.88c0,.5-.37.75-.84.82A6.14,6.14,0,0,1,85.12,47.57Z"></path><path class="cls-1" d="M68.9,75.85a6.72,6.72,0,0,1-.73,0,.83.83,0,0,1-.8-.86.81.81,0,0,1,.78-.8,8.36,8.36,0,0,1,1.5,0,.82.82,0,0,1,.86.87c0,.51-.37.75-.84.82A5.88,5.88,0,0,1,68.9,75.85Z"></path><path class="cls-1" d="M88.87,102.35a6,6,0,0,1,.82.1.8.8,0,0,1,.63.85.77.77,0,0,1-.66.74,4.53,4.53,0,0,1-1.72,0,.8.8,0,0,1-.76-.81.83.83,0,0,1,.8-.86C88.23,102.36,88.5,102.37,88.87,102.35Z"></path><path class="cls-1" d="M70.75,104.15c-.3,0-.61-.05-.91-.12a.81.81,0,0,1,0-1.57,4.15,4.15,0,0,1,1.92,0,.78.78,0,0,1,.62.79.77.77,0,0,1-.68.8A9.3,9.3,0,0,1,70.75,104.15Z"></path><path class="cls-1" d="M87.07,75.84a3.63,3.63,0,0,1-1.17-.1.79.79,0,0,1-.57-.75.75.75,0,0,1,.59-.8,4.27,4.27,0,0,1,1.78-.06.81.81,0,0,1,.77.81.83.83,0,0,1-.79.86A3.11,3.11,0,0,1,87.07,75.84Z"></path><path class="cls-1" d="M55.26,47.54a2.56,2.56,0,0,1-1-.07.81.81,0,0,1-.59-.81.77.77,0,0,1,.63-.77,4.28,4.28,0,0,1,1.71,0,.84.84,0,0,1,0,1.68A4.31,4.31,0,0,1,55.26,47.54Z"></path><path class="cls-1" d="M73.07,47.58a6,6,0,0,1-.8-.11.75.75,0,0,1-.63-.77.78.78,0,0,1,.65-.82,4.11,4.11,0,0,1,1.71,0,.8.8,0,0,1,.76.88.81.81,0,0,1-.79.79C73.71,47.57,73.45,47.56,73.07,47.58Z"></path><path class="cls-1" d="M74.91,74.06a9.1,9.1,0,0,1,.93.11.74.74,0,0,1,.65.74.76.76,0,0,1-.57.82,3.66,3.66,0,0,1-2,0,.75.75,0,0,1-.59-.8.77.77,0,0,1,.64-.77A7.06,7.06,0,0,1,74.91,74.06Z"></path><path class="cls-1" d="M100.72,104.14c-.26,0-.52,0-.78-.06a.83.83,0,0,1-.78-.87.8.8,0,0,1,.77-.8,7.49,7.49,0,0,1,1.57,0,.8.8,0,0,1,.78.86.82.82,0,0,1-.77.8A6.83,6.83,0,0,1,100.72,104.14Z"></path><path class="cls-1" d="M82.74,102.35a5.83,5.83,0,0,1,.84.07.8.8,0,0,1,.74.83.79.79,0,0,1-.74.82,4.47,4.47,0,0,1-1.63,0,.8.8,0,0,1-.74-.83.82.82,0,0,1,.74-.83A6.66,6.66,0,0,1,82.74,102.35Z"></path><path class="cls-1" d="M64.71,104.14a6.17,6.17,0,0,1-.76-.09.77.77,0,0,1-.7-.78.8.8,0,0,1,.72-.85,7.49,7.49,0,0,1,1.57,0,.81.81,0,0,1,.83.82c0,.55-.36.79-.86.87C65.28,104.13,65,104.12,64.71,104.14Z"></path><path class="cls-1" d="M91.19,47.59a6.6,6.6,0,0,1-1-.11.82.82,0,0,1,0-1.6,4.16,4.16,0,0,1,2,.14.68.68,0,0,1,.45.81.77.77,0,0,1-.63.69A6.21,6.21,0,0,1,91.19,47.59Z"></path><path class="cls-1" d="M61.37,47.57a3.37,3.37,0,0,1-1.13-.12.77.77,0,0,1-.54-.83.73.73,0,0,1,.58-.72,4.18,4.18,0,0,1,1.76,0,.78.78,0,0,1,.75.81.79.79,0,0,1-.72.83A6.46,6.46,0,0,1,61.37,47.57Z"></path><path class="cls-1" d="M79.1,47.58c-1,0-1.44-.27-1.45-.89s.41-.88,1.43-.89a4.74,4.74,0,0,1,.92.06.77.77,0,0,1,.74.81.79.79,0,0,1-.72.83A5.62,5.62,0,0,1,79.1,47.58Z"></path><path class="cls-1" d="M63.1,75.85a3.65,3.65,0,0,1-1.09-.1.79.79,0,0,1-.59-.79.76.76,0,0,1,.6-.78,3.9,3.9,0,0,1,1.7-.05.8.8,0,0,1,.79.84c0,.52-.34.75-.8.84A5.12,5.12,0,0,1,63.1,75.85Z"></path><path class="cls-1" d="M81,75.85a3.18,3.18,0,0,1-1-.1.77.77,0,0,1-.59-.79.75.75,0,0,1,.59-.78,3.91,3.91,0,0,1,1.7-.05.81.81,0,0,1,.8.84c0,.53-.35.75-.81.84A6.14,6.14,0,0,1,81,75.85Z"></path><path class="cls-1" d="M53.65,103a4.89,4.89,0,0,1-1.89-1,.68.68,0,0,1-.08-.92.74.74,0,0,1,.92-.38,10.8,10.8,0,0,1,1.6.79.68.68,0,0,1,.32.87A.89.89,0,0,1,53.65,103Z"></path><path class="cls-1" d="M76.72,104.13c-.22,0-.43,0-.64,0-.5-.08-.87-.31-.86-.87s.4-.79.89-.84a6.84,6.84,0,0,1,1.28,0c.52,0,.93.27.92.87s-.4.78-.88.84a5.61,5.61,0,0,1-.71,0Z"></path><path class="cls-1" d="M94.69,102.37a2.81,2.81,0,0,1,1,.1.78.78,0,0,1,.57.81.75.75,0,0,1-.56.74,3.87,3.87,0,0,1-2,0,.74.74,0,0,1-.57-.74.8.8,0,0,1,.56-.81A2.67,2.67,0,0,1,94.69,102.37Z"></path><path class="cls-1" d="M57.37,74.21c.74,0,1.13.22,1.17.76s-.28.82-.81.9-.89.18-1.34.22a.81.81,0,0,1-.94-.68.75.75,0,0,1,.59-.93C56.55,74.35,57.07,74.27,57.37,74.21Z"></path><path class="cls-1" d="M47.6,80.05a.81.81,0,0,1,.89,1,5.42,5.42,0,0,1-1.06,1.69.75.75,0,0,1-.93.12.69.69,0,0,1-.42-.83,4,4,0,0,1,1.18-1.83C47.35,80.09,47.52,80.08,47.6,80.05Z"></path><path class="cls-1" d="M44.28,87.42c.07-.4.12-.8.2-1.2a.83.83,0,1,1,1.65.24c0,.38-.1.75-.15,1.13-.08.67-.46,1.08-1,1S44.27,88.16,44.28,87.42Z"></path><path class="cls-1" d="M58.64,102.35a3.62,3.62,0,0,1,1.2.13.79.79,0,0,1,.52.78.75.75,0,0,1-.54.76,3.73,3.73,0,0,1-2.12-.11.65.65,0,0,1-.43-.75.79.79,0,0,1,.65-.76A4.12,4.12,0,0,1,58.64,102.35Z"></path><path class="cls-1" d="M103.36,56.56c0-.63.17-.94.6-1a.77.77,0,0,1,.94.45,5.62,5.62,0,0,1,.45,1.65.77.77,0,0,1-.6.92.74.74,0,0,1-1-.53C103.6,57.48,103.46,56.92,103.36,56.56Z"></path><path class="cls-1" d="M102.87,52.35a.75.75,0,0,1-.47.73.69.69,0,0,1-.86-.12,16.41,16.41,0,0,1-1.14-1.36.71.71,0,0,1,0-.87.77.77,0,0,1,.81-.34A3.3,3.3,0,0,1,102.87,52.35Z"></path><path class="cls-1" d="M95.46,47.81a.79.79,0,0,1,1-.82,5.31,5.31,0,0,1,1.54.73.83.83,0,0,1-.79,1.46c-.44-.2-.86-.41-1.29-.63A.77.77,0,0,1,95.46,47.81Z"></path><path class="cls-1" d="M103.85,67.81a4,4,0,0,1-1.36,2.07.75.75,0,0,1-.85-.19.69.69,0,0,1-.18-.91,14.6,14.6,0,0,1,.92-1.44.74.74,0,0,1,.9-.26A.86.86,0,0,1,103.85,67.81Z"></path><path class="cls-1" d="M105.61,62.51a4.73,4.73,0,0,1-.21,1.35.78.78,0,0,1-.91.63.77.77,0,0,1-.69-.86c0-.45.09-.89.15-1.34s.34-1,1-.89S105.67,61.91,105.61,62.51Z"></path><path class="cls-1" d="M45.49,91.43c.88.17.76,1,1,1.66.17.46.24,1-.26,1.27a.73.73,0,0,1-1.11-.24,3.89,3.89,0,0,1-.53-1.9C44.58,91.71,44.91,91.45,45.49,91.43Z"></path><path class="cls-1" d="M48.82,99.56a2.82,2.82,0,0,1-1.74-2,.8.8,0,0,1,1.3-.53,7.3,7.3,0,0,1,1.18,1.42A.76.76,0,0,1,48.82,99.56Z"></path><path class="cls-1" d="M99.85,72.29a.78.78,0,0,1-.3.62,5.66,5.66,0,0,1-1.37.89.79.79,0,0,1-1.1-.33.73.73,0,0,1,.25-1.06,8.67,8.67,0,0,1,1.32-.84A.79.79,0,0,1,99.85,72.29Z"></path><path class="cls-1" d="M92.52,75.72c-.73,0-1.15-.19-1.19-.77s.31-.81.82-.89l1.26-.2a.8.8,0,0,1,1,.62.78.78,0,0,1-.66,1C93.28,75.61,92.8,75.67,92.52,75.72Z"></path><path class="cls-1" d="M52.88,76.84a.66.66,0,0,1-.17.54A5.45,5.45,0,0,1,51,78.46a.71.71,0,0,1-.91-.38.75.75,0,0,1,.13-1,4.78,4.78,0,0,1,1.5-1A.78.78,0,0,1,52.88,76.84Z"></path><path class="cls-1" d="M43.59,47.56c-.73,0-1.19-.32-1.2-.84s.48-.92,1.22-.91,1.18.33,1.2.85S44.34,47.56,43.59,47.56Z"></path><path class="cls-1" d="M106.31,104.12c-.72,0-1.18-.33-1.19-.85s.46-.9,1.22-.9,1.17.31,1.18.85S107.06,104.13,106.31,104.12Z"></path></svg>