<svg xmlns="http://www.w3.org/2000/svg" id="Layer_1" data-name="Layer 1" viewBox="0 0 150 150"><defs><style>.cls-1{fill:#77787b;}</style></defs><path class="cls-1" d="M74.77,146.67a71.9,71.9,0,1,1,71.91-71.9A72,72,0,0,1,74.77,146.67Zm0-141a69.09,69.09,0,1,0,69.1,69.08A69.17,69.17,0,0,0,74.77,5.69Z"></path><path class="cls-1" d="M110.44,67.12a44.75,44.75,0,0,1-2.33,15.38c-.3.83-.15,1,.75,1.06a71.18,71.18,0,0,1,13.57,1.33c1.64.35,2.19,1.3,1.56,2.85-4.9,11.92-13.41,19.43-26.39,21.32a49.17,49.17,0,0,1-21.31-1.93,4.79,4.79,0,0,0-3,0A50.72,50.72,0,0,1,57,109.47c-7.91-.18-15.23-2.25-21.42-7.44A35.22,35.22,0,0,1,25.52,87.6c-.57-1.44,0-2.39,1.54-2.7a60.56,60.56,0,0,1,10.49-1.23c1.09,0,2.19-.12,3.28-.12.71,0,.92-.19.66-.9a37,37,0,0,1-1.86-7.47,50.86,50.86,0,0,1-.37-11.37c.16-2.08.41-4.15.7-6.22s1.13-2.6,3.1-2a57.05,57.05,0,0,1,15.15,7c.66.44.93.4,1.21-.4,2.53-7.36,6.85-13.61,12-19.33.6-.66,1.2-1.31,1.82-1.95,1.1-1.12,1.94-1.16,3.13-.16A51,51,0,0,1,91.15,61.11c.5,1.23.5,1.23,1.6.56a58.57,58.57,0,0,1,13.78-6.11c1.88-.55,2.74,0,3,1.88A61,61,0,0,1,110.44,67.12ZM91.78,105.89c1,0,2.06,0,3.08,0a19.85,19.85,0,0,0,2-.21c10.58-1.51,18-7.22,22.7-16.76.32-.66.31-.92-.54-1a69.29,69.29,0,0,0-13.81-.64A46.49,46.49,0,0,0,93,89.57c-6.5,2.3-11.68,6.23-15,12.39-1,1.78-1,1.77,1,2.3A46.35,46.35,0,0,0,91.78,105.89Zm-33.52,0a37.26,37.26,0,0,0,6.46-.47A48,48,0,0,0,71.53,104c.66-.19.86-.5.5-1.11-.19-.32-.34-.67-.52-1-3.58-6.56-9.2-10.56-16.22-12.72-8.19-2.51-16.52-2.48-24.91-1.27-.73.11-.75.35-.47.92a29.6,29.6,0,0,0,11.26,12.9C46.27,104.78,51.85,106,58.26,105.93ZM72,96.1A54.44,54.44,0,0,1,72.69,89a5.28,5.28,0,0,0,0-2.53,34.16,34.16,0,0,0-7.76-13.87c-5.74-6.14-12.88-10.12-20.7-13-.87-.32-1,.12-1,.81A56.2,56.2,0,0,0,43,73.14a34.81,34.81,0,0,0,2.49,9.93,1.16,1.16,0,0,0,1.05.82c1.19.1,2.38.23,3.56.42,6.75,1.1,13,3.4,18.24,7.91A35.34,35.34,0,0,1,72,96.1Zm5.53.06a29.16,29.16,0,0,1,10.76-8.43,42.25,42.25,0,0,1,14.62-3.83,1.31,1.31,0,0,0,1.25-1,35.84,35.84,0,0,0,2.63-12.29,60.43,60.43,0,0,0-.36-10.15c-.12-.91-.32-1.1-1.2-.79a56.35,56.35,0,0,0-13.68,7c-6.89,4.86-12,11-14.49,19.25a4.67,4.67,0,0,0-.36,2.21A54.09,54.09,0,0,1,77.53,96.16ZM74.74,81.65c.2-.37.3-.53.38-.71A39.5,39.5,0,0,1,87.91,65a1.05,1.05,0,0,0,.4-1.4A37.92,37.92,0,0,0,85,56.33,52.61,52.61,0,0,0,76,45c-.68-.65-1.14-.78-1.76.07s-1.41,1.58-2.09,2.4a49.73,49.73,0,0,0-9.64,16.73,1.35,1.35,0,0,0,.5,1.81,35.69,35.69,0,0,1,5.79,5.67A41.15,41.15,0,0,1,74.74,81.65Z"></path><path class="cls-1" d="M46.83,65.17c1.78,0,1.74,0,1.87,1.82a19.78,19.78,0,0,0,2.36,7.9c.42.77.45,1.23-.39,1.72-2.18,1.28-1.77,1.94-3.17-.89a25,25,0,0,1-2.39-8.54C44.9,65.2,45,65.17,46.83,65.17Z"></path><path class="cls-1" d="M102.71,65.17c1.84,0,1.89,0,1.73,1.8a25.42,25.42,0,0,1-3,10c-.39.72-.74.8-1.42.34-2-1.32-2-1.29-1-3.48a19.7,19.7,0,0,0,1.85-6.9C101,65.17,100.93,65.17,102.71,65.17Z"></path><path class="cls-1" d="M76.49,53.78v.72a2.82,2.82,0,0,1,0,.41c-.11,1-.91.71-1.43.66-.67-.08-1.65.55-2-.64a2.46,2.46,0,0,1,0-.72c0-2.48-.35-2.15,2.26-2.22.9,0,1.29.27,1.17,1.18A4.14,4.14,0,0,0,76.49,53.78Z"></path><path class="cls-1" d="M73.06,60.33c0-.27,0-.55,0-.82,0-.64.22-.93.89-.93,3,0,2.47-.32,2.56,2.45,0,.83-.24,1.24-1.11,1.15a4.34,4.34,0,0,0-.51,0C73.05,62.18,73.05,62.18,73.06,60.33Z"></path><path class="cls-1" d="M76.49,67v.72a2.88,2.88,0,0,1,0,.41c-.11,1-.91.71-1.43.65-.67-.07-1.65.55-2-.63a2.47,2.47,0,0,1,0-.72c0-2.48-.35-2.16,2.26-2.22.9,0,1.29.27,1.17,1.17A4.28,4.28,0,0,0,76.49,67Z"></path></svg>