<svg xmlns="http://www.w3.org/2000/svg" id="Layer_1" data-name="Layer 1" viewBox="0 0 150 150"><defs><style>.cls-1{fill:#77787b;}</style></defs><path class="cls-1" d="M75.14,147.41a72.27,72.27,0,1,1,72.29-72.27A72.36,72.36,0,0,1,75.14,147.41Zm0-141.71A69.45,69.45,0,1,0,144.6,75.14,69.53,69.53,0,0,0,75.14,5.7Z"></path><path class="cls-1" d="M42.14,121.83a8.45,8.45,0,0,1-4-2.46,7.15,7.15,0,0,1-1-8c.1-.21.31-.39.25-.71a6.66,6.66,0,0,1-4.7-2.74,6.53,6.53,0,0,1,0-7.5A6.27,6.27,0,0,1,39.68,98a4.68,4.68,0,0,1,1.76,1.1c.34.36.6.41,1,0q4.11-4.14,8.25-8.25a2,2,0,0,0,.49-1.33c.58-4.26,1.18-8.52,1.68-12.8a12.88,12.88,0,0,1,12-11.31,3.31,3.31,0,0,1,3.87,3.61,33.14,33.14,0,0,0,.12,3.45,6.39,6.39,0,0,0,12.73,0c.13-1.22.1-2.43.12-3.64a3.25,3.25,0,0,1,3.59-3.44,12.7,12.7,0,0,1,12,10.23c.73,4.48,1.25,9,1.84,13.51a3.41,3.41,0,0,0,1,2.16c2.54,2.47,5,5,7.54,7.53.51.52.81.66,1.45.09a5.11,5.11,0,0,1,5.63-.8,6,6,0,0,1,3.89,4.79,6.43,6.43,0,0,1-5.38,7.58c-.76.1-.34.43-.19.71a7.25,7.25,0,0,1-2.16,9.27,11.72,11.72,0,0,1-2.7,1.28Zm33-14.44c3.83,0,7.65,0,11.48,0,.68,0,.93-.16.73-.91-.63-2.37-1.18-4.77-1.8-7.14a17.2,17.2,0,0,1-.34-6.85c.45-3.34.79-6.69,1.18-10,.45-3.85.89-7.71,1.38-11.56.2-1.62,0-1.92-1.61-2-.15,0-.31,0-.46,0-.62-.08-.86.17-.87.81a23.29,23.29,0,0,1-.14,3.82,9.68,9.68,0,0,1-18.91,1,18.57,18.57,0,0,1-.36-4.7c0-.32.12-.77-.32-.85a3.3,3.3,0,0,0-2.46.4c-.5.35-.2,1-.14,1.54.33,2.83.68,5.66,1,8.49.47,3.91.94,7.82,1.38,11.74.27,2.34.68,4.69.1,7q-1,4.1-2,8.22c-.25,1-.23,1.06.87,1.06Zm14.58,11.29c5.62,0,11.23,0,16.85,0a4,4,0,0,0,2.94-6.71,4.49,4.49,0,0,0-3.64-1.34q-16.53,0-33.07,0c-.67,0-.91.21-.9.89,0,2,0,4.07,0,6.1,0,.91.3,1.12,1.15,1.11C78.6,118.67,84.16,118.68,89.72,118.68Zm19.94-11.29c.79,0,1.58,0,2.37,0a3.2,3.2,0,0,0,3.33-3.82,3,3,0,0,0-2.79-2.56c-1.08-.11-1.55.34-2,2-.4,1.35-1.76,1.64-2.86.55-3.64-3.62-7.26-7.26-10.9-10.88a2.44,2.44,0,0,1-.73-1.43c-.61-4.66-1.21-9.32-1.85-14a9.31,9.31,0,0,0-2.51-5.44c-.16-.17-.31-.48-.58-.37s-.21.41-.23.65c-.18,1.47-.42,3-.51,4.42s-.53,3.08-.14,4.69c.68,2.83,1.25,5.69,1.71,8.56a11.48,11.48,0,0,0,3.58,6.78c2.93,2.78,5.81,5.62,8.56,8.57C105.65,106.79,107.23,108,109.66,107.39Zm-69.13,0h0c.82,0,1.64,0,2.46,0a1.79,1.79,0,0,0,1.45-.59Q50,101.23,55.57,95.66A8.35,8.35,0,0,0,58,91.35c.54-2.7,1.09-5.41,1.63-8.11a15.69,15.69,0,0,0,.63-3.66c-.13-2.53-.54-5-.84-7.58,0-.21,0-.48-.22-.57s-.37.15-.51.29a8.29,8.29,0,0,0-2.42,4.7c-.71,4.82-1.35,9.66-2,14.49a3,3,0,0,1-.87,1.84l-10.7,10.68a3.8,3.8,0,0,1-.47.43,1.55,1.55,0,0,1-2.47-.85c-.07-.24-.11-.48-.18-.71a1.59,1.59,0,0,0-1.92-1.24,3.18,3.18,0,0,0,.25,6.32C38.77,107.41,39.65,107.38,40.53,107.38Zm28,11.15a1.29,1.29,0,0,0-.72-.31c-3.17-.7-6.34-1.4-9.5-2.12a4.83,4.83,0,0,1-4.18-4.7c-.07-.65-.33-.81-.92-.8-2,0-4,0-6,0a27.76,27.76,0,0,0-4.27.15,4,4,0,0,0,.9,7.92H67.71A1.13,1.13,0,0,0,68.56,118.53Zm-7.1-27.8c-.12.09-.09.28-.12.45a11.67,11.67,0,0,1-3,6.3c-3,3-5.95,6-8.92,9-.23.24-.57.43-.64.9H58.82c.54,0,.63-.38.73-.77.39-1.56.72-3.13,1.17-4.67C61.79,98.25,62.52,94.54,61.46,90.73Zm40.3,16.66c-.44-.46-.66-.71-.9-.94-2.72-2.73-5.44-5.47-8.18-8.18A12.73,12.73,0,0,1,89,91.42c0-.25,0-.56-.25-.74,0,.37-.11.73-.15,1.09a17.1,17.1,0,0,0,0,6c.71,3,1.48,5.94,2.2,8.92.15.59.48.74,1,.74,2.4,0,4.8,0,7.2,0Zm-38.6,3.22c-1.55,0-3.1,0-4.65,0-.34,0-.8-.15-1,.28a1.38,1.38,0,0,0,.24,1.37,1.79,1.79,0,0,0,1.09.61c3.05.68,6.11,1.35,9.15,2.05.61.14.68-.15.68-.61,0-1,0-1.95,0-2.92,0-.6-.22-.81-.8-.8C66.32,110.63,64.74,110.61,63.16,110.61Z"></path><path class="cls-1" d="M89.61,49.41c0,.45,0,.91,0,1.36,0,1.29-.78,2-2.06,1.79-1-.19-1.09.21-1.09,1,0,5.94-3.44,10.37-9,11.67A11.33,11.33,0,0,1,64,55.71a12.38,12.38,0,0,1-.15-2.35c.06-.74-.27-1-1-.92a2.26,2.26,0,0,1-1.33-.18,1.58,1.58,0,0,1-.84-1.41c-.3-6.19,2.06-11,7.47-14.14a1.07,1.07,0,0,0,.6-1.23,6.42,6.42,0,1,1,12.79,0,1,1,0,0,0,.62,1.22A14.36,14.36,0,0,1,89.61,49.41Zm-6.47,4.15c0-.48,0-1,0-1.45a1.3,1.3,0,0,0-.7-1.35,9,9,0,0,1-2.28-1.94.94.94,0,0,0-1.33-.25,36.6,36.6,0,0,1-9.21,3.09c-2.57.55-2.57.53-2.47,3.18a8,8,0,1,0,16-1.28ZM64.52,49.1a36.61,36.61,0,0,0,13.11-3.55c2.7-1.38,2.69-1.39,4.68.85a9.18,9.18,0,0,0,3.19,2.37c.77.35,1,.22.86-.58a11.3,11.3,0,0,0-22.45-.06C63.82,48.85,64,49.19,64.52,49.1ZM75.17,31.67A3.23,3.23,0,0,0,72,34.43c-.08.53,0,.81.67.67a11.94,11.94,0,0,1,5,0c.68.15.73-.17.65-.68A3.25,3.25,0,0,0,75.17,31.67Z"></path></svg>