<svg xmlns="http://www.w3.org/2000/svg" id="Layer_1" data-name="Layer 1" viewBox="0 0 150 150"><defs><style>.cls-1{fill:#77787b;}</style></defs><path class="cls-1" d="M47.37,65.8c12.3,0,22.17,3.12,31.2,9a2.41,2.41,0,0,0,2.4.34,41.11,41.11,0,0,1,6.39-1.67c1.54-.27.91-1.37,1-2.2s-.58-.82-1.16-.89a22.54,22.54,0,0,1-7.61-1.86C76,66.68,75,63.82,76.55,60.11a16.46,16.46,0,0,1,3.19-4.52c1.71-1.86,1.77-2.63.31-4.68a5.84,5.84,0,0,1-.16-7.21c2.56-4.1,5.09-8.21,7.63-12.33,1.19-1.92,2.41-2,3.84-.29,2.39,2.88,4.79,5.77,7.17,8.66a17.18,17.18,0,0,1,3.76,14.44c-.25,1.46-.09,2.64,1.37,3.35l.17.13c3.69,2.84,3.62,6.79-.18,9.48a19.55,19.55,0,0,1-8.85,3,9.23,9.23,0,0,1-1.56.19c-.74,0-.95.32-.95,1,0,1.38,0,1.49,1.38,1.39a76.39,76.39,0,0,1,7.86-.19,48.72,48.72,0,0,1,14,2.43,2.09,2.09,0,0,1,1.58,2.18A42.13,42.13,0,0,1,33.83,87a41.4,41.4,0,0,1,0-17.59,2.28,2.28,0,0,1,1.78-2A53,53,0,0,1,47.37,65.8ZM97.85,76.14a54.38,54.38,0,0,0-9.69,1q-25.6,5.58-37,29.18a1.4,1.4,0,0,0,.58,2.12,40.13,40.13,0,0,0,18.32,7.36.94.94,0,0,0,1.17-.7,57.48,57.48,0,0,1,8-13.28A44.72,44.72,0,0,1,83,97.46a1.72,1.72,0,0,1,2.38-.11,1.75,1.75,0,0,1,.25,2.45,7.06,7.06,0,0,1-.6.73,53.18,53.18,0,0,0-5.26,6.8,58,58,0,0,0-4.55,8.15c-.26.57-.29.84.49.72,1.31-.2,2.65-.12,4-.29a36.9,36.9,0,0,0,24.52-13.42,34.86,34.86,0,0,0,7.41-15.69c.12-.59.28-1.22-.72-1A60.63,60.63,0,0,0,96,91.63a1.33,1.33,0,0,1-1.63-.08,2,2,0,0,1,.34-3.33A52.77,52.77,0,0,1,111,82c1.87-.34,2.15-.7,2.2-2.58a1.14,1.14,0,0,0-1-1.32A50.08,50.08,0,0,0,97.85,76.14Zm-22.63.94a2.1,2.1,0,0,0-1-.78,49.91,49.91,0,0,0-35.55-6.24c-2.14.4-1.9,0-2.32,2.49-.38,2.34-.35,2.31,1.89,3a54,54,0,0,1,12.22,5A2.84,2.84,0,0,1,52,82.42a1.79,1.79,0,0,1-.65,1.78c-.46.43-1,.26-1.47,0s-1.14-.53-1.7-.81a62.5,62.5,0,0,0-10.27-4.23c-1.21-.35-1.37-.23-1.3,1a37.21,37.21,0,0,0,4.83,16.35A36.11,36.11,0,0,0,47,103.94c.61.63,1,.55,1.23-.24a5.08,5.08,0,0,1,.23-.47,55.1,55.1,0,0,1,14.07-18.1A55.71,55.71,0,0,1,75.22,77.08ZM91.9,52.14c.38.08.49-.13.65-.26,1.12-.89,2-.92,2.77-.08S96,53.51,95,54.56q-1.24,1.26-2.52,2.52a1.45,1.45,0,0,0-.55,1.08c0,2.73,0,5.46,0,8.19,0,.52.19.81.74.75A20,20,0,0,0,101,64.81c2.22-1.34,2.26-2.12.28-3.8l-.15-.14C98.38,59.11,98,56.5,98.4,53.58A13.56,13.56,0,0,0,96,43.13c-1.87-2.49-3.79-5-5.64-7.45-.47-.64-.68-.68-1.12,0q-3.12,5.1-6.34,10.15a2.3,2.3,0,0,0,0,2.8,7.56,7.56,0,0,1,1.61,4.57c-.08,2.22-1.36,3.85-2.74,5.41A16.25,16.25,0,0,0,80,60.86c-1.24,2.07-.9,3.32,1.2,4.47a18.31,18.31,0,0,0,6.44,1.75c.49.07.7-.15.72-.64.09-1.84.18-3.63-1.68-4.83a9.08,9.08,0,0,1-1.56-1.54,1.69,1.69,0,0,1-.22-2.52,1.74,1.74,0,0,1,2.52-.2c.25.15.49.52.82.3s.12-.52.12-.79V47.51c0-1.38.73-2.24,1.82-2.22s1.68.79,1.69,2.2Z"></path><path class="cls-1" d="M61.53,57.59a6.8,6.8,0,1,1,6.83-6.71A6.68,6.68,0,0,1,61.53,57.59Zm3.28-6.82a3.18,3.18,0,0,0-3.27-3.23,3.25,3.25,0,1,0,0,6.5A3.16,3.16,0,0,0,64.81,50.77Z"></path><path class="cls-1" d="M88.78,96.25c-1,0-1.57-.31-1.86-1a1.73,1.73,0,0,1,.44-2.1,11.83,11.83,0,0,1,2.06-1.43,1.63,1.63,0,0,1,2.17.39,1.52,1.52,0,0,1,0,2A5.14,5.14,0,0,1,88.78,96.25Z"></path><path class="cls-1" d="M57.34,85.85a2,2,0,0,1-1.8,1.73,2.6,2.6,0,0,1-2.2-2.19,2,2,0,0,1,1.87-1.8A2.61,2.61,0,0,1,57.34,85.85Z"></path><path class="cls-1" d="M75,147.13A72.13,72.13,0,1,1,147.14,75,72.22,72.22,0,0,1,75,147.13ZM75,5.7A69.3,69.3,0,1,0,144.32,75,69.39,69.39,0,0,0,75,5.7Z"></path></svg>