<svg xmlns="http://www.w3.org/2000/svg" id="Layer_1" data-name="Layer 1" viewBox="0 0 150 150"><defs><style>.cls-1{fill:#77787b;}</style></defs><path class="cls-1" d="M75.06,147.24a72.19,72.19,0,1,1,72.19-72.18A72.27,72.27,0,0,1,75.06,147.24Zm0-141.54a69.36,69.36,0,1,0,69.37,69.36A69.45,69.45,0,0,0,75.06,5.7Z"></path><path class="cls-1" d="M36.24,114.65c-.93-.71-1-1.21-.41-2.23Q44.77,97.72,53.73,83a2,2,0,0,0,.47-1.17l-1.4,1.57c-2,2.33-4.07,4.67-6.12,7-.92,1-1.51,1.07-2.56.19l-6.54-5.45a5.77,5.77,0,0,1-.67-.64,1.23,1.23,0,0,1-.16-1.31,1.13,1.13,0,0,1,1.06-.77c.41,0,.82,0,1.48,0l-3.1-2.38a1.57,1.57,0,0,1-.78-1.26,1.24,1.24,0,0,1,1.38-1.31c1.93,0,3.87,0,5.8,0a1.26,1.26,0,0,0,1.2-.64,28.62,28.62,0,0,1,4.62-5.78c2.54-2.29,4.86-1.24,6.2,1.1a2.41,2.41,0,0,0,1.44,1.25,6,6,0,0,1,2.09,1.31c.24.21.45.34.68,0l3.33-5.47c-1.15.2-2.12.5-3.13.64a13.6,13.6,0,0,1-9.59-2.41,17.64,17.64,0,0,1-4.94-5,1.45,1.45,0,0,1,.21-2.25c1.09-1.1,2.17-2.2,3.28-3.28a1.36,1.36,0,0,1,2.33.21c.68,1,1.38,1.94,2,3,1.06,1.82,2.7,2.18,4.58,1.94,2.18-.27,4.25-1,6.41-1.4,1.58-.26,3.13-.63,4.7-.94a2.57,2.57,0,0,1,1.37.09c.75.26,1.51.52,2.27.75.3.08.7.42.92-.13s.29-.91-.33-1.23a5.91,5.91,0,0,1-1.89-1.7,7.48,7.48,0,0,1-1.38-6.78c.61-2.29,1.28-4.56,2-6.82a3.82,3.82,0,0,0,0-2.27,10,10,0,0,1-.59-2.86,3.28,3.28,0,0,1,4-3.23c3.49.92,6.94,2,10.4,3l7.27,2.13c2.85.82,4,3,3.21,5.83a5,5,0,0,1-1,2.39c1.4.33,1.61.24,2.27-.9,1-1.74,2-3.47,3-5.22.28-.49.53-.57,1-.28,1.65,1,1.66.94.73,2.54-.65,1.14-1.31,2.28-2,3.41-.26.43-.17.59.34.58h3.4c1.28,0,1.65.3,1.85,1.56q.64,4.08,1.27,8.16,1.29,8.16,2.57,16.32t2.55,16.4c.79,5.06,1.6,10.12,2.4,15.18.31,1.9.53,3.82,1,5.7,0,.6,0,1.19,0,1.78s-.09.56-.56.56q-7.45,0-14.93,0a2.31,2.31,0,0,1-.8-1.69Q97.23,104,96,95c-.75-5.71-1.53-11.42-2.28-17.13a1,1,0,0,0-.69-.9,7.75,7.75,0,0,1-1.57-.65c-.66-.41-1-.18-1.31.43Q80.4,93.89,70.56,111a17.24,17.24,0,0,1-2.29,3.65Zm16.84-2.52c4.12,0,8.25,0,12.37,0a2.11,2.11,0,0,0,2.15-1.27q8.06-14.19,16.2-28.32c1.43-2.5,2.87-5,4.3-7.51.13-.23.39-.49.07-.75s-.49,0-.66.2a2.06,2.06,0,0,1-2.57.28c-.67-.31-1-.17-1.17.58-1,3.57-2,7.13-3.07,10.69a2.9,2.9,0,0,1-.36.85,17.74,17.74,0,0,1-6.45,6,9.53,9.53,0,0,1-9.18.15c-3.33-1.7-6.71-3.29-10-5-.54-.27-.79-.17-1.09.33q-7,11.46-14,22.91c-.13.21-.41.42-.26.68s.48.12.72.12Zm15.3-49.74c-1.86.37-3.73.74-5.6,1.13-.4.08-.28.34-.14.58.5.84,1,1.66,1.5,2.53a1.53,1.53,0,0,0,1.63,1c1.63-.06,2.1.58,1.65,2.15-.94,3.26-1.89,6.53-2.86,9.78-.16.55,0,.8.5,1q6.34,1.83,12.68,3.71c.54.16.75,0,.88-.51.17-.7.39-1.39.59-2.08.87-3,1.72-6,2.61-9a1.33,1.33,0,0,1,1.94-1c.52.16,1,.31,1.54.51a1.07,1.07,0,0,0,1.2-.22c.81-.69,1.65-1.33,2.47-2,.17-.14.49-.24.45-.48s-.4-.27-.63-.35l-19.5-6.46A2.58,2.58,0,0,0,68.38,62.39Zm3-9.59a4.82,4.82,0,0,0,3.51,4.73q2.86.93,5.78,1.69a5,5,0,0,0,6.13-3.44c.34-1.08.62-2.18,1-3.25a1.18,1.18,0,0,0-.2-1.22c-.79-1-1.55-2.05-2.32-3.08a1.48,1.48,0,0,0-.79-.58q-5.15-1.5-10.3-3c-.5-.15-.67,0-.8.49-.57,2-1.17,4.05-1.77,6.08A5.76,5.76,0,0,0,71.36,52.8Zm29.93-1.21c-1.11,0-2.06,0-3,0a1.13,1.13,0,0,0-1.16.68c-.89,1.57-1.8,3.12-2.71,4.68s-.91,1.53-2.46.64c-.58-.33-.7-.6-.33-1.19.85-1.36,1.61-2.76,2.44-4.13.35-.57.19-.71-.41-.68s-1,0-1.54,0a1.52,1.52,0,0,0-1.68,1.26c-.35,1.16-.68,2.33-1,3.49A7.65,7.65,0,0,1,82,62.08c-.86,0-.83.59-1,1.1s.36.59.68.69c3.32,1.12,6.65,2.2,10,3.34a.85.85,0,0,0,1.22-.48c1.14-2.11,2.33-4.19,3.5-6.28ZM69,91.46c.48,0,1-.06,1.45-.15,2.55-.52,4.42-2.1,6.16-3.92.52-.54.33-.68-.27-.85-3.64-1.05-7.24-2.23-10.91-3.15A10.05,10.05,0,0,1,59.56,80c-.34-.45-.58-.44-.88.08q-1.45,2.46-3,4.88c-.32.5-.17.67.3.9q5.09,2.44,10.14,5A5.85,5.85,0,0,0,69,91.46Zm4.91-53.32a.77.77,0,0,0-.82,1c.13.63.35,1.24.46,1.87a1.11,1.11,0,0,0,.94,1l11,3.21a2.71,2.71,0,0,1,1.56,1c.68,1,1.42,1.9,2.12,2.86.27.37.49.45.85.09a15.86,15.86,0,0,0,2-1.92c1.14-1.63,1.49-3.46-.94-4.12-5.61-1.53-11.17-3.23-16.75-4.86Zm31.51,66.56c1.55,0,3.09,0,4.64,0,.52,0,.68-.15.6-.66-.27-1.6-.54-3.2-.76-4.81-.07-.5-.3-.63-.76-.63-3.06,0-6.13,0-9.2,0-.51,0-.7.19-.63.69.21,1.56.42,3.11.62,4.67a.72.72,0,0,0,.85.74C102.3,104.68,103.84,104.7,105.39,104.7ZM104.17,96h4.56c.36,0,.66,0,.56-.54-.29-1.65-.55-3.3-.79-5-.07-.45-.26-.6-.71-.6H98.67c-.51,0-.6.17-.53.64.24,1.58.46,3.16.63,4.74.06.59.31.72.84.71C101.12,96,102.65,96,104.17,96Zm-1.35-8.67h4.48c.33,0,.73.06.64-.49-.25-1.67-.52-3.35-.79-5a.58.58,0,0,0-.67-.57h-9c-.42,0-.62.15-.56.6.22,1.6.44,3.2.65,4.8a.67.67,0,0,0,.81.69C99.88,87.35,101.35,87.37,102.82,87.37Zm3.55,24.76c1.6,0,3.19,0,4.79,0,.54,0,.75-.14.64-.72-.22-1.16-.4-2.34-.56-3.51a.61.61,0,0,0-.7-.62q-4.8,0-9.59,0c-.46,0-.57.16-.5.6.19,1.2.36,2.39.47,3.6.06.56.32.66.81.65C103.27,112.11,104.82,112.13,106.37,112.13ZM41.58,85c1.16,1,2.16,1.77,3.13,2.62.42.37.64.29,1-.1,2.27-2.63,4.57-5.25,6.87-7.86,1.1-1.24,1.42-1.26,2.77-.29.18.14.33.31.59.07,1.37-1.26,1.3-2.26-.26-3.26l-.2-.12c-.93-.53-1.34-.45-2.09.33-2.31,2.43-4.42,5-6.52,7.63a2.23,2.23,0,0,1-2,1C43.82,85,42.81,85,41.58,85Zm60-6.29c1.44,0,2.88,0,4.32,0,.6,0,.77-.19.66-.78-.31-1.82-.58-3.65-.87-5.48,0-.17,0-.4-.18-.47s-.31.14-.44.26c-.78.74-1.54,1.51-2.36,2.22-1.64,1.42-3.3,2.82-5.59,3-.42,0-.67.17-.63.66s.39.53.76.53ZM57.3,67.29a10.71,10.71,0,0,0,3-.38c.54-.11.78-.33.39-.88a12.3,12.3,0,0,1-.75-1.26.62.62,0,0,0-.82-.36,11.26,11.26,0,0,1-2.59.39c-2.5.1-4.69-.53-6.16-2.76-.4-.61-.81-1.2-1.2-1.81-.19-.3-.35-.41-.64-.09s-.71.74-1.09,1.09a.45.45,0,0,0,0,.72C50,65.06,53.08,67.22,57.3,67.29Zm38.92,7.57a3.81,3.81,0,0,0,2.36-.61,25.56,25.56,0,0,0,5.2-4.59c.11-.13.32-.3.2-.46a3.91,3.91,0,0,0-1.3-.94c-.38-.21-.55.18-.75.38-1.14,1.12-2.28,2.24-3.39,3.39A3.09,3.09,0,0,1,95.8,73a7,7,0,0,1-3.32-1.55c-.26-.2-.52-.47-.88-.18s-.76.62-1.15.92c-.22.18-.2.32,0,.48A10.94,10.94,0,0,0,96.22,74.86Zm8.48-8.49c-.11-.69-.22-1.22-.25-1.75s-.26-.66-.74-.66H97.92a.75.75,0,0,0-.75.42L94.58,69c-.1.17-.23.33-.06.56a1.83,1.83,0,0,0,2.5.22l4.16-4.15a1.41,1.41,0,0,1,2.12-.2ZM40.61,80.05l2.42,2a1.37,1.37,0,0,0,2.13-.21c2.17-2.62,4.28-5.29,6.69-7.69.41-.41.51-.72.11-1.16s-.76-.68-1.32-.29a8.54,8.54,0,0,0-1.52,1.42,35.61,35.61,0,0,0-3.63,5,1.77,1.77,0,0,1-1.71.95C42.81,80,41.83,80.05,40.61,80.05Zm62.27-25.42c-.14-.1-.19,0-.23,0l-3.49,6.2c-.25.42-.07.54.35.54,1.26,0,2.53,0,3.79,0,.5,0,.61-.16.53-.64C103.5,58.7,103.19,56.64,102.88,54.63ZM64.19,71.3l-.15,0q-1.43,2.34-2.84,4.68c-.8,1.32-.87,1,.32,2.19a.57.57,0,0,0,.11.11c.28.29.45.26.57-.15C62.86,75.82,63.53,73.56,64.19,71.3Zm14.35-9.4c.09-.36-.09-.52-.41-.61-.74-.21-1.48-.41-2.21-.66-.44-.15-.65-.07-.78.39s-.07.71.43.85c.67.18,1.32.43,2,.65S78.45,62.65,78.54,61.9Z"></path><path class="cls-1" d="M49.92,107.84c-.56-.32-1.21-.68-1.83-1.09-.21-.14,0-.38,0-.56l5.74-10.32c0-.09.11-.23.18-.24.86-.15,1.37.56,2,.87.47.22.16.57,0,.85l-4,7.15c-.54,1-1.07,1.93-1.62,2.89C50.4,107.59,50.32,107.83,49.92,107.84Z"></path><path class="cls-1" d="M58.58,107.84c-.55-.32-1.2-.68-1.82-1.09-.21-.14,0-.38.05-.56q2.86-5.16,5.74-10.32c.05-.09.1-.23.18-.24.86-.15,1.36.57,2,.87.46.21.16.57,0,.85-1.29,2.34-2.6,4.68-3.9,7l-1.7,3C59.07,107.59,59,107.83,58.58,107.84Z"></path><path class="cls-1" d="M78.48,57.33a3.75,3.75,0,0,1-3.76-4.15c0-.59.29-.78.85-.59.34.11.68.22,1,.3s.79.3.87.89a1,1,0,0,0,1.64.64c.59-.68,1.14-.45,1.77-.28,1.41.4,1.51.76.52,1.89A3.63,3.63,0,0,1,78.48,57.33Z"></path><path class="cls-1" d="M73.64,48.17a1.95,1.95,0,0,1,3.89,0,2,2,0,0,1-1.92,1.94A2,2,0,0,1,73.64,48.17Z"></path><path class="cls-1" d="M82.73,52.2a2,2,0,0,1-2-1.88,2,2,0,0,1,1.93-2,1.94,1.94,0,1,1,0,3.87Z"></path></svg>