<svg xmlns="http://www.w3.org/2000/svg" width="300.000000pt" height="300.000000pt" viewBox="0 0 300.000000 300.000000" preserveAspectRatio="xMidYMid meet"><metadata>Created by potrace 1.10, written by Peter Selinger 2001-2011</metadata><g transform="translate(0.000000,300.000000) scale(0.050000,-0.050000)" fill="#77787b" stroke="none"><path d="M2650 5868 c-2160 -313 -3231 -2676 -2035 -4487 938 -1422 3016 -1685 4290 -543 1776 1590 1010 4476 -1325 4992 -145 32 -788 58 -930 38z m805 -158 c2218 -360 3080 -3198 1430 -4711 -1789 -1641 -4625 -403 -4625 2018 0 1685 1518 2965 3195 2693z"></path><path d="M1927 3925 c-107 -88 -115 -201 -19 -297 135 -135 332 -51 332 142 0 152 -196 249 -313 155z m189 -246 c52 0 52 -1 15 -30 -50 -38 -89 -37 -134 4 -53 47 -46 69 14 47 29 -11 76 -20 105 -21z"></path><path d="M3770 3901 c-133 -54 -159 -210 -51 -306 76 -68 156 -65 233 7 141 132 -5 371 -182 299z m150 -241 c0 -31 -92 -67 -132 -52 -43 16 -17 45 52 58 28 5 57 10 65 11 8 2 15 -6 15 -17z"></path><path d="M4020 3815 c0 -32 94 -176 136 -210 43 -34 114 -31 144 5 21 25 18 30 -12 30 -21 0 -79 45 -130 100 -90 99 -138 124 -138 75z"></path><path d="M1690 3563 c-112 -68 -268 -332 -270 -455 0 -68 74 -145 154 -160 l71 -13 -75 -64 c-89 -75 -89 -160 -1 -183 79 -19 471 274 471 353 0 77 -48 99 -187 85 -126 -13 -131 -7 -71 77 l42 59 -75 65 c-122 106 -37 231 92 135 74 -55 99 -53 99 7 0 107 -142 160 -250 94z"></path><path d="M3912 3491 c-102 -83 -121 -91 -220 -91 -108 0 -137 -19 -117 -75 6 -17 54 -25 143 -25 143 0 197 33 261 156 30 58 127 55 138 -4 13 -67 -82 -273 -140 -303 -92 -48 -166 -369 -86 -369 128 0 595 212 546 247 -17 13 -37 50 -45 83 -29 117 -131 301 -206 373 -117 112 -145 113 -274 8z"></path><path d="M2747 3442 c-89 -45 -187 -82 -217 -82 l-54 0 45 -36 c44 -36 47 -35 201 43 275 141 406 121 804 -120 l118 -72 73 37 73 37 -110 11 c-89 8 -114 18 -130 55 -11 25 -37 45 -60 45 -22 0 -106 33 -186 74 -223 113 -344 114 -557 8z"></path><path d="M2066 3408 l-104 -73 -79 63 c-102 80 -186 80 -152 -1 15 -34 201 -177 230 -177 57 0 280 170 275 210 -9 63 -58 57 -170 -22z"></path><path d="M3973 3370 c-45 -98 -62 -115 -162 -159 -67 -29 -111 -61 -111 -81 0 -114 274 21 337 167 84 195 23 264 -64 73z"></path><path d="M2240 3362 c0 -9 14 -29 32 -43 20 -17 28 -45 21 -79 -9 -46 2 -58 113 -118 225 -121 288 -37 112 148 -99 105 -106 109 -141 77 -34 -31 -40 -31 -74 0 -40 37 -63 42 -63 15z"></path><path d="M904 2918 c-488 -429 -504 -445 -504 -517 0 -95 51 -265 95 -319 l35 -43 2468 0 c2189 1 2472 4 2502 31 46 42 100 215 100 321 l0 86 -500 442 -500 441 -129 0 -129 0 38 -85 c33 -75 47 -86 117 -96 66 -9 117 -48 336 -253 141 -133 299 -276 351 -319 51 -42 94 -84 95 -92 0 -8 -1031 -15 -2293 -15 -1966 0 -2290 4 -2265 28 16 15 168 156 339 312 285 261 313 292 352 402 63 173 49 164 -508 -324z"></path><path d="M2100 3267 c-116 -82 -116 -87 5 -87 132 0 197 60 124 113 -46 34 -44 34 -129 -26z"></path><path d="M3153 3304 c-20 -31 23 -76 48 -51 13 13 17 33 10 45 -16 26 -45 29 -58 6z"></path><path d="M2689 3278 c-21 -33 26 -71 53 -44 23 23 9 66 -22 66 -10 0 -24 -10 -31 -22z"></path><path d="M2174 3096 c-117 -76 -134 -143 -19 -75 99 59 153 111 131 125 -10 6 -60 -16 -112 -50z"></path><path d="M3104 3105 c4 -19 20 -35 36 -35 16 0 32 16 36 35 5 25 -6 35 -36 35 -30 0 -41 -10 -36 -35z"></path><path d="M1329 2918 c-21 -33 26 -71 53 -44 23 23 9 66 -22 66 -10 0 -24 -10 -31 -22z"></path><path d="M3560 2911 c0 -16 8 -34 18 -40 22 -13 67 38 48 56 -23 24 -66 14 -66 -16z"></path><path d="M4275 2883 c-95 -42 -95 -63 1 -63 78 0 124 28 124 74 0 33 -31 30 -125 -11z"></path><path d="M3200 2870 c0 -17 18 -30 40 -30 22 0 40 13 40 30 0 17 -18 30 -40 30 -22 0 -40 -13 -40 -30z"></path><path d="M2829 2858 c-21 -33 26 -71 53 -44 23 23 9 66 -22 66 -10 0 -24 -10 -31 -22z"></path><path d="M4549 2818 c-21 -33 26 -71 53 -44 23 23 9 66 -22 66 -10 0 -24 -10 -31 -22z"></path><path d="M2202 2773 c-24 -29 -10 -53 31 -53 30 0 37 52 9 69 -9 6 -27 -1 -40 -16z"></path><path d="M2569 2718 c-21 -33 26 -71 53 -44 23 23 9 66 -22 66 -10 0 -24 -10 -31 -22z"></path><path d="M3769 2718 c-21 -33 26 -71 53 -44 23 23 9 66 -22 66 -10 0 -24 -10 -31 -22z"></path><path d="M3568 2697 c-17 -27 22 -65 50 -48 12 7 22 21 22 30 0 27 -57 41 -72 18z"></path><path d="M1924 2667 c9 -51 56 -57 56 -9 0 25 -13 42 -31 42 -19 0 -29 -14 -25 -33z"></path></g></svg>
