<svg xmlns="http://www.w3.org/2000/svg" width="300.000000pt" height="300.000000pt" viewBox="0 0 300.000000 300.000000" preserveAspectRatio="xMidYMid meet"><metadata>Created by potrace 1.10, written by Peter Selinger 2001-2011</metadata><g transform="translate(0.000000,300.000000) scale(0.050000,-0.050000)" fill="#77787b" stroke="none"><path d="M2650 5868 c-2160 -313 -3231 -2676 -2035 -4487 938 -1422 3016 -1685 4290 -543 1776 1590 1010 4476 -1325 4992 -145 32 -788 58 -930 38z m805 -158 c1805 -293 2825 -2290 2006 -3930 -1096 -2197 -4308 -1959 -5073 375 -637 1945 1036 3884 3067 3555z"></path><path d="M1365 4478 c-195 -97 -269 -289 -184 -476 190 -420 819 -197 691 245 -66 225 -301 333 -507 231z m270 -77 c211 -96 226 -386 24 -499 -257 -145 -532 142 -379 394 39 63 173 143 240 143 17 0 68 -17 115 -38z"></path><path d="M4305 4461 c-53 -24 -108 -73 -148 -130 -78 -109 -97 -114 -97 -21 0 57 -8 70 -40 70 -37 0 -40 -13 -40 -160 0 -147 3 -160 40 -160 31 0 40 13 40 61 0 34 9 56 19 50 11 -7 15 -25 9 -40 -6 -15 -1 -63 11 -106 73 -271 432 -358 625 -152 270 289 -59 751 -419 588z m306 -101 c228 -141 135 -493 -136 -515 -165 -13 -332 138 -311 282 6 44 183 66 240 30 28 -17 4 -80 -29 -76 -87 12 -108 -52 -25 -73 79 -20 150 38 150 122 0 86 -40 110 -189 110 -126 0 -134 11 -56 84 95 89 245 104 356 36z"></path><path d="M5080 3901 c-166 -36 -318 -153 -413 -315 -61 -103 -54 -102 -104 -17 -136 231 -474 197 -608 -62 -90 -175 -213 -195 -469 -77 -159 73 -239 71 -310 -8 -116 -129 -58 -241 186 -359 l159 -78 -66 -26 c-36 -15 -93 -47 -127 -73 -42 -31 -89 -46 -146 -46 -146 0 -216 -55 -393 -310 -339 -489 -329 -472 -329 -573 0 -270 306 -323 482 -84 44 59 91 107 106 107 15 0 49 18 77 40 49 38 116 52 139 29 16 -16 -215 -516 -242 -525 -12 -4 -64 16 -115 44 -110 62 -147 65 -147 14 0 -184 989 -360 1530 -273 449 73 1052 372 882 437 -15 6 -74 -24 -132 -68 -130 -98 -129 -98 -188 17 -26 52 -124 227 -217 387 l-168 293 52 71 c54 72 158 304 301 674 138 354 197 422 405 468 105 24 146 175 70 260 -52 59 -117 74 -215 53z m160 -121 c31 -58 -7 -120 -76 -120 -175 0 -293 -160 -474 -640 -282 -745 -536 -922 -1284 -895 -261 10 -286 8 -318 -27 -62 -69 -148 -35 -148 57 0 126 63 145 454 140 729 -10 863 84 1139 791 140 358 191 457 293 569 139 151 364 219 414 125z m-844 -168 c161 -83 182 -180 90 -423 l-71 -189 -153 1 -152 1 120 61 c176 90 228 144 163 169 -15 6 -67 -16 -115 -47 -239 -157 -525 -203 -744 -118 l-96 37 54 93 c30 51 57 96 60 100 3 4 50 -3 105 -16 175 -42 699 176 555 231 -15 6 -65 -8 -110 -31 -88 -45 -102 -30 -49 51 66 101 229 139 343 80z m-974 -243 l60 -31 -54 -98 -54 -99 -59 35 c-192 111 -90 295 107 193z m958 -460 c0 -83 -30 -89 -416 -89 -502 -1 -528 -12 -675 -295 -66 -128 -82 -145 -132 -145 -72 0 -74 -11 34 185 187 338 225 355 774 355 228 0 415 -5 415 -11z m-1281 -352 c-57 -103 -124 -205 -149 -227 -96 -84 -118 -209 -52 -293 l39 -49 -86 -94 c-133 -145 -311 -107 -311 66 0 125 476 766 592 798 84 23 81 6 -33 -201z m1201 162 c0 -179 -611 -410 -926 -351 l-73 14 63 114 c130 237 144 242 591 243 231 1 345 -6 345 -20z m281 -714 c91 -162 187 -326 212 -363 58 -87 56 -89 -128 -150 -406 -134 -921 -163 -1315 -74 -255 58 -249 48 -153 250 45 95 101 216 124 270 l42 97 253 9 c294 11 516 73 679 189 52 37 100 67 107 67 6 0 87 -133 179 -295z"></path><path d="M1210 3712 c-94 -41 -185 -158 -200 -256 -31 -205 -2 -1023 37 -1081 31 -46 34 -65 15 -110 -45 -109 -20 -975 28 -975 38 0 40 13 38 315 l-2 315 337 0 337 0 0 -320 c0 -307 2 -320 40 -320 37 0 40 14 42 205 2 174 5 193 21 125 45 -191 61 -230 119 -279 129 -109 358 -29 389 136 11 63 -93 764 -133 888 -34 104 -160 196 -322 236 -91 22 -164 54 -203 89 l-61 55 242 -10 c279 -12 331 -3 398 69 129 139 18 306 -205 306 -321 2 -427 71 -427 281 0 266 -251 436 -490 331z m284 -91 c105 -64 115 -102 126 -456 6 -179 4 -325 -4 -325 -29 0 -56 156 -56 326 0 158 -4 176 -35 170 -26 -5 -37 -29 -41 -91 l-6 -85 -139 0 c-77 0 -139 7 -138 15 0 8 8 53 17 100 19 97 -13 149 -58 95 -19 -22 -23 -101 -16 -300 8 -252 7 -270 -27 -270 -54 0 -56 593 -2 700 73 145 248 201 379 121z m264 -529 c34 -41 181 -72 338 -72 160 0 219 -39 196 -130 -21 -84 -261 -119 -517 -77 l-75 12 0 148 c0 145 13 173 58 119z m-267 -122 c17 -141 93 -260 236 -372 225 -177 123 -354 -110 -192 -278 193 -347 297 -408 609 l-12 65 140 0 140 0 14 -110z m-243 -330 c106 -160 366 -358 493 -375 110 -14 210 82 193 186 -14 82 5 86 114 24 136 -78 152 -116 225 -549 80 -479 80 -436 9 -508 -153 -152 -245 -58 -324 332 -89 443 -78 430 -460 511 -357 76 -418 128 -418 355 0 148 78 159 168 24z m232 -454 c253 -51 320 -82 320 -150 0 -35 -19 -37 -335 -31 l-335 5 -6 78 c-11 126 10 179 62 162 24 -8 157 -36 294 -64z"></path></g></svg>