<?xml version="1.0" encoding="UTF-8"?><svg id="a" xmlns="http://www.w3.org/2000/svg" viewBox="0 0 100 100"><defs><style>.c{fill:#77787b;}</style></defs><g id="b"><g><path class="c" d="M31.91,28.35c.56-.39,1-.67,1.41-.99,3.26-2.51,6.53-5.02,9.79-7.53,1.83-1.41,3.47-1.45,5.31-.03,8.85,6.79,17.7,13.58,26.55,20.38,1.02,.78,1.73,1.73,1.37,3.11-.35,1.34-1.29,2.1-2.6,2.29-.66,.1-1.39,.01-2.03-.18-.59-.17-1.14-.55-1.64-.93-7.42-5.69-14.83-11.39-22.23-17.09-1.97-1.52-2.03-1.53-3.99-.02-6.07,4.66-12.14,9.32-18.23,13.96-.53,.4-.75,.8-.75,1.48,.02,7.52,.01,15.05,0,22.57,0,.21,0,.42,0,.67h4.76v-.61c0-4.56-.03-9.12,.01-13.68,.02-2.72,1.21-4.81,3.76-5.91,3.86-1.66,8.07,1.14,8.15,5.44,.07,3.94,.02,7.89,.02,11.83,0,.96,0,1.92,0,2.97h.65c3.48,0,6.96,0,10.45-.01,.43,0,.63,.12,.8,.53,.44,1.08,.95,2.14,1.45,3.24H18.32v-3.74h2.11v-20.85c-.2,.09-.36,.16-.53,.23-1.03,.43-2.06,.43-3.08-.04-2.11-.96-2.46-3.42-.67-4.88,1.41-1.16,2.89-2.23,4.34-3.35,.82-.64,1.64-1.28,2.45-1.93,.67-.53,1.02-1.22,1.02-2.1,0-2.58,.03-5.16,.04-7.73,0-1.21,.47-1.69,1.67-1.69,1.56,0,3.12,0,4.67,0,1.05,0,1.56,.51,1.56,1.55,0,.96,0,1.91,0,3.03Z"/><path class="c" d="M55.11,57.07c0-.46,0-.92,0-1.38,.01-1.42,.91-2.38,2.33-2.51,1.82-.17,3.64-.34,5.39-.9,1.98-.63,3.81-1.55,5.52-2.72,1.26-.86,2.15-.87,3.4-.02,3.03,2.09,6.36,3.32,10.04,3.54,.36,.02,.73,.06,1.09,.11,1.21,.16,2.13,1.08,2.12,2.29-.09,10.66-3.72,19.46-13.2,25.22-1.19,.72-2.24,.74-3.44,.02-7.1-4.28-11.25-10.54-12.65-18.66-.28-1.65-.42-3.32-.63-4.98h.04Zm14.99,7.98c3.42,0,6.84,0,10.26,.01,.37,0,.57-.1,.64-.47,.37-1.86,.78-3.71,1.1-5.58,.16-.91,.13-1.86,.19-2.85-4.49-.19-8.48-1.58-12.18-4.13,0,4.45,0,8.74,0,13.04-.13-.02-.26-.05-.4-.05-3.29,0-6.57,0-9.86,0-.13,0-.26,.02-.46,.04,1.94,5.7,5.46,10.04,10.68,13.08,.03-.14,.06-.21,.06-.28,0-4.23,0-8.46,0-12.69,0-.04-.02-.07-.03-.11Z"/><path class="c" d="M44.43,43.23h-4.62v-8.35h4.62v8.35Z"/><path class="c" d="M51.65,34.87v8.34h-4.63v-8.34h4.63Z"/></g></g></svg>