<?xml version="1.0" encoding="UTF-8"?><svg id="a" xmlns="http://www.w3.org/2000/svg" viewBox="0 0 100 100"><defs><style>.b{fill:#77787b;}</style></defs><path class="b" d="M35.43,44.06h-.35v.35c0,7.35,5.98,13.32,13.32,13.32h.35v-.35c0-.44-.02-.88-.06-1.31l-.21-1.41c-1.26-6.05-6.63-10.61-13.04-10.61Z"/><path class="b" d="M50.65,23.87l-.2,.2c-4.96,4.96-4.96,13.04,0,18.01l.2,.2,.2-.2c2.4-2.4,3.73-5.6,3.73-9s-1.32-6.6-3.73-9l-.2-.2Z"/><path class="b" d="M51.6,57.73c7.34,0,13.32-5.98,13.32-13.32v-.35h-.35c-7.35,0-13.32,5.98-13.32,13.32v.35h.35Z"/><g><path class="b" d="M84.45,43.83c-3.4-18.99-21.62-31.68-40.61-28.28-9.2,1.65-17.21,6.78-22.55,14.45-5.34,7.67-7.37,16.96-5.73,26.16,1.65,9.2,6.78,17.21,14.45,22.55,5.93,4.13,12.84,6.28,19.92,6.28,2.07,0,4.16-.18,6.24-.56,8.72-1.56,16.11-6.25,21.23-12.7,.04-.04,.09-.07,.13-.12,.34-.38,.6-.76,.82-1.14,5.37-7.43,7.84-16.94,6.1-26.66Zm-6.05,21.94c-.1-.14-.2-.28-.32-.4-1.22-1.32-3.43-1.68-5.25-.86-1.49,.67-2.62,1.77-3.66,2.85v.02h-.03c-3.86,4.27-8.91,7.06-14.58,8.07-1.1,.2-2.21,.32-3.31,.38v-1.38c.55-.12,1.04-.24,1.45-.33,.04-.01,4.41-1.08,5.84-3.84,.54-1.05,.59-2.2,.13-3.33-.72-1.8-3.13-2.75-5.03-2.62-.83,.06-1.62,.21-2.39,.4v-5.47h.35c8.72,0,15.82-7.1,15.82-15.82v-2.85h-2.85c-6.54,0-12.16,3.99-14.57,9.66-2.41-5.67-8.03-9.66-14.57-9.66h-2.85v2.85c0,8.72,7.1,15.82,15.82,15.82h.35v6.11c-4.8,1.08-6.82-.07-9.14-1.39-1.2-.68-2.43-1.39-4.06-1.81-.57-.15-1.21-.26-1.89-.38-3.5-.63-7.86-1.41-9.11-7.24-1.21-6.79,.29-13.65,4.23-19.31,3.46-4.97,8.44-8.48,14.19-10.1,.47-1.04,1.06-2.04,1.74-2.98-7.33,1.39-13.71,5.52-17.99,11.65-4.33,6.22-5.98,13.74-4.64,21.2v.04c1.6,7.5,7.57,8.57,11.13,9.21,.63,.11,1.23,.22,1.71,.34,1.31,.34,2.34,.93,3.45,1.56,2.54,1.44,5.41,3.08,11.68,1.48,.27-.07,.53-.14,.8-.21,1.03-.28,2-.54,2.96-.6,1.03-.07,2.31,.47,2.54,1.06,.19,.46,.17,.85-.03,1.25-.69,1.33-3.17,2.31-4.2,2.56-3.4,.81-12.45,2.97-18.95-2.06-.03-.02-.06-.04-.09-.05-.03-.02-.07-.04-.1-.06-.04-.02-.08-.04-.12-.05-.03-.01-.07-.03-.1-.04-.04-.01-.09-.02-.13-.03-.04,0-.07-.01-.11-.02-.04,0-.09,0-.13,0-.04,0-.07,0-.11,0-.04,0-.08,.01-.12,.02-.04,0-.07,.01-.11,.03-.04,.01-.08,.03-.12,.04-.04,.01-.07,.03-.11,.05-.04,.02-.07,.04-.11,.07-.03,.02-.07,.04-.1,.07-.03,.03-.06,.06-.09,.09-.02,.02-.05,.04-.07,.07,0,0-.01,.02-.02,.03,0,0-.01,.01-.02,.02-.02,.03-.03,.05-.05,.08-.02,.04-.05,.07-.07,.11-.02,.04-.03,.07-.05,.11-.02,.04-.03,.08-.04,.12-.01,.04-.02,.08-.02,.11,0,.04-.02,.08-.02,.12,0,.04,0,.08,0,.11,0,.04,0,.08,0,.13,0,.04,.01,.07,.02,.11,0,.04,.02,.08,.03,.13,.01,.03,.03,.07,.04,.1,.02,.04,.03,.08,.05,.12,.02,.03,.04,.06,.06,.09,.02,.04,.05,.07,.08,.11,.02,.03,.05,.06,.08,.08,.02,.02,.05,.05,.07,.08,5.19,4.43,11.69,6.8,18.38,6.8,1.67,0,3.35-.15,5.03-.45,6.21-1.11,11.73-4.16,15.96-8.81h0c.9-.94,1.8-1.82,2.89-2.3,.83-.38,1.9-.25,2.39,.27,.47,.51,.46,1.24,.02,2.06-4.76,6.54-11.95,11.33-20.52,12.86-8.54,1.53-17.17-.36-24.29-5.32-7.12-4.96-11.89-12.4-13.42-20.94-1.53-8.54,.36-17.17,5.32-24.29,4.96-7.12,12.4-11.89,20.94-13.42,1.93-.35,3.85-.51,5.74-.51,15.43,0,29.16,11.06,31.97,26.77,1.37,7.66-.08,15.18-3.59,21.5Zm-29.64,10.06c-1.34-.06-2.67-.23-3.97-.5,1.43-.05,2.77-.21,3.97-.4v.9Zm2.5-19.12v-.3c0-7.35,5.98-13.32,13.32-13.32h.35v.35c0,7.35-5.98,13.32-13.32,13.32h-.35v-.05Zm-2.5,0v.05h-.35c-7.34,0-13.32-5.98-13.32-13.32v-.35h.35c7.34,0,13.32,5.98,13.32,13.32v.3Z"/><path class="b" d="M66.21,26.73c-3.34-2.32-7.05-3.87-10.93-4.6,.69,.94,1.28,1.94,1.76,2.99,2.73,.77,5.34,1.99,7.74,3.66,5.67,3.95,9.46,9.86,10.68,16.66,.87,4.86,.34,9.83-1.53,14.37-.26,.64,.04,1.37,.68,1.63,.16,.06,.32,.09,.47,.09,.49,0,.96-.29,1.16-.77,2.05-4.98,2.63-10.43,1.67-15.76-1.34-7.46-5.49-13.94-11.71-18.27Z"/><path class="b" d="M50,19.65l-1.97,1.97c-5.94,5.94-5.94,15.6,0,21.54l1.97,1.97,1.97-1.97c2.88-2.88,4.46-6.7,4.46-10.77s-1.58-7.89-4.46-10.77l-1.97-1.97Zm.2,21.74l-.2,.2-.2-.2c-4.96-4.96-4.96-13.04,0-18.01l.2-.2,.2,.2c2.4,2.4,3.73,5.6,3.73,9s-1.32,6.6-3.73,9Z"/></g></svg>