<?xml version="1.0" encoding="UTF-8"?><svg id="a" xmlns="http://www.w3.org/2000/svg" viewBox="0 0 100 100"><defs><style>.b{fill:#77787b;}</style></defs><path class="b" d="M56.58,43.81c-1.71-2.25-2.55-4.65-2.05-7.42,.47-2.58,1.96-4.03,4.6-4.22,3.33-.24,6.26,.66,8.54,3.29,5.27,6.1,8.43,13.16,9.76,21.07,.58,3.41-.58,6.08-3.35,8.23-3.05,2.38-5.94,4.99-8.9,7.49l.04,.45c.43,.12,.87,.35,1.31,.35,4.55,.03,9.1-.02,13.65,.04,3.28,.04,5.6,3.38,4.57,6.45-.69,2.06-2.36,2.82-4.3,3.17-.73,.13-1.48,.11-2.23,.12-6.31,.05-12.63,.09-18.94,.12-3.27,.01-5.72-1.83-6.42-4.8-.37-1.57-.21-3.13,.47-4.6,1.75-3.78,4.14-7.1,7.08-10.04,.75-.75,1.55-1.44,2.31-2.18,1.22-1.17,1.31-1.57,.55-3.08-1.6-3.18-1.17-6.32,.16-9.43,1.08-2.53,1.63-5.16,1.51-7.9-.05-1.05-.17-2.11-.38-3.15-.47-2.37-1.96-3.52-4.21-3.35-2.03,.16-3.51,1.84-3.57,4.12-.04,1.68-.03,3.37-.05,5.06,0,.03-.04,.05-.17,.21Z"/><path class="b" d="M48.97,34.73c-5.08-.04-9.19-4.03-9.11-8.85,.08-4.85,4.2-8.88,9.04-8.84,4.89,.04,8.83,4.09,8.79,9.03-.04,5.08-3.69,8.7-8.71,8.66Z"/><path class="b" d="M64.29,40.89c0,4.05-1.08,7.83-2.85,11.43-2.13,4.33-5.07,8.1-8.17,11.76-.27,.32-.63,.6-.99,.83-1.22,.77-2.63,.62-3.69-.33-1.05-.94-1.38-2.24-.67-3.52,.55-.98,1.31-1.85,2.04-2.71,3.41-4.02,6.37-8.31,7.31-13.62,.36-2.03,.29-4.13,.38-6.21,.08-1.83,.89-3.02,2.37-3.36,1.91-.43,3.73,.8,4.03,2.8,.15,.97,.17,1.95,.25,2.93Z"/><path class="b" d="M46.68,63.62l1.44,1.9c-.8,.44-1.51,.84-2.23,1.23-.88,.48-1.31,1.2-1.22,2.21,.15,1.76-.61,2.89-2.27,3.52-1.06,.4-2.01,1.08-3.08,1.44-1.02,.34-2.12,.59-3.18,.57-2.08-.05-2.95-1.61-1.87-3.4,.72-1.19,1.74-2.2,2.65-3.27,.3-.35,.73-.6,1.03-.96,1.39-1.65,2.98-2.08,4.98-1.06,.37,.19,1.11-.06,1.53-.33,.75-.49,1.4-1.15,2.22-1.85Z"/><path class="b" d="M25,65.42c2.08,4.25,2.42,8.77,1.9,13.5,1.79,.8,4.18,.19,5.54,2.33h-11.53c.41-1.31,1.47-1.64,2.62-1.78,2.67-.32,2.8-.49,2.89-3.2,.1-3.29-.37-6.48-1.5-9.58-.11-.29-.19-.6-.26-.9-.02-.1,.04-.21,.06-.32l.29-.06Z"/><path class="b" d="M17.13,69.41c2.77-.1,5.14,.24,7.28,1.52,.39,.23,.49,.94,.73,1.42-.44,.18-.91,.55-1.32,.5-2.5-.35-4.69-1.39-6.69-3.44Z"/><path class="b" d="M31.34,63.93c.29,2.77-.13,5.13-1.51,7.25-.2,.31-1,.62-1.16,.49-.36-.3-.75-.91-.68-1.33,.38-2.4,1.48-4.46,3.35-6.42Z"/><path class="b" d="M24.31,57.69c-.41-1.88,.77-3.24,2.93-3.49,.31,1.76-.62,2.89-2.93,3.49Z"/><path class="b" d="M29.59,59.44c-1.65,1.37-3.24,1.39-4.64,.11,1.2-1.51,2.84-1.57,4.64-.11Z"/><path class="b" d="M20.31,61.41c-.15,2.09-1.31,3.19-3.21,3.1-.09-1.9,1.21-3.19,3.21-3.1Z"/><path class="b" d="M20.33,57.78c-1.56-.24-2.54-1-3.11-2.25-.13-.28-.1-.85,.09-1,.26-.21,.82-.3,1.1-.16,1.28,.67,1.8,1.84,1.92,3.41Z"/><path class="b" d="M24.1,61.46c1.86-.24,2.91,.7,3.36,3.01-1.75,.34-3.26-1.02-3.36-3.01Z"/><path class="b" d="M22.16,66.85c-1.23-1.75-1.24-3.09-.1-4.64,1.5,1.01,1.56,2.96,.1,4.64Z"/><path class="b" d="M22.24,52.09c1.28,1.52,1.3,3.04,.1,4.58-1.46-1.06-1.53-2.96-.1-4.58Z"/><path class="b" d="M19.57,59.54c-1.58,1.19-3,1.21-4.57,.06,1.01-1.62,3.13-1.65,4.57-.06Z"/><path class="b" d="M22.19,61.44c-1.57-1.57-1.72-2.12-.89-2.94,.73-.72,1.32-.43,1.89,.18,.8,.84,.63,1.31-1,2.76Z"/></svg>