<?xml version="1.0" encoding="UTF-8"?><svg id="a" xmlns="http://www.w3.org/2000/svg" viewBox="0 0 100 100"><defs><style>.c{fill:#77787b;}</style></defs><g id="b"><g><path class="c" d="M81.87,14.88c.3,.09,.62,.15,.91,.26,1.32,.48,2.2,1.68,2.21,3.09,.02,3.09,.02,6.17,0,9.26-.01,1.7-1.47,3.12-3.17,3.16-.02,0-.05,0-.07,0-2.27-.35-4.14,.47-5.97,1.75-2.38,1.66-4.89,3.11-7.35,4.65-.19,.12-.38,.22-.66,.37,.38-2.28,.75-4.46,1.14-6.77-1.05,0-1.98,0-2.91,0-2.13,0-3.48-1.3-3.5-3.44-.03-2.97-.02-5.94,0-8.92,0-1.71,1.03-2.91,2.73-3.27,.11-.02,.2-.09,.3-.14,5.45,0,10.89,0,16.34,0Zm-11.18,18.16c.38-.22,.6-.33,.81-.46,1.22-.76,2.51-1.44,3.65-2.31,1.85-1.42,3.85-2.09,6.17-1.76,.02,0,.05,0,.07,0,1.08,0,1.5-.42,1.5-1.48,0-2.77,0-5.53,0-8.3,0-1.26-.42-1.68-1.69-1.68-4.96,0-9.92,0-14.88,0-1.26,0-1.7,.43-1.7,1.68,0,2.7,0,5.4,0,8.09,0,1.35,.36,1.69,1.73,1.69,1.66,0,3.33,0,5.11,0l-.75,4.53Z"/><path class="c" d="M71.86,76.07h-24.16l-.09,.14,1.8,1.44c-1.12,1.03-2.01,1.85-2.9,2.66-.95,.86-1.9,1.72-2.84,2.59-3.26,2.99-7.81,2.96-11-.11-1.53-1.47-3.02-3-4.52-4.51-3.5-3.49-6.99-6.99-10.49-10.48-3.52-3.52-3.53-8.22-.03-11.74,1.43-1.45,2.87-2.89,4.31-4.33,.13-.13,.27-.24,.38-.34,2.76,2.76,5.49,5.49,8.27,8.27-.12,.13-.26,.3-.41,.46-1.26,1.27-2.52,2.53-3.77,3.8-.74,.75-.72,1.29,.03,2.05,1.03,1.04,2.06,2.08,3.1,3.11,.17,.17,.35,.33,.62,.58,.12-.34,.22-.56,.29-.79,1.07-3.59,3.52-5.51,7.18-6.05,2.07-.31,4.13-.72,6.19-1.11,.18-.03,.46-.23,.47-.36,.01-.2-.12-.5-.29-.61-2.61-1.71-4.29-4.05-5.06-7.08-.05-.19-.28-.4-.48-.47-2.07-.76-3.2-2.31-3.21-4.53-.01-2.75-.08-5.49,0-8.24,.21-6.49,4.71-12.05,10.9-13.64,8.12-2.09,16.05,2.66,18,10.79,.29,1.21,.4,2.48,.42,3.73,.05,4.32,.03,8.65,.02,12.97,0,1.75-.79,2.99-2.3,3.42-.75,.21-1.58,.18-2.38,.16-.64-.01-1.08,.18-1.54,.67-.73,.78-1.61,1.41-2.4,2.13-.2,.18-.29,.46-.44,.7,.22,.13,.42,.32,.65,.37,2.33,.44,4.67,.81,7,1.28,2.72,.55,4.75,2.08,5.76,4.67,1.06,2.71,1.91,5.51,2.9,8.4Zm-30.95-6.56c1.34,1.34,2.62,2.61,3.88,3.9,.36,.37,.73,.54,1.26,.54,7.32-.02,14.63-.01,21.95-.01,.24,0,.49-.02,.76-.03-.02-.21,0-.35-.05-.47-.52-1.56-1.01-3.12-1.58-4.66-.76-2.06-2.3-3.25-4.43-3.67-2.41-.48-4.84-.9-7.26-1.35-.44-.08-.77,.03-1.09,.36-1.31,1.34-2.64,2.66-3.97,3.98-.14,.14-.29,.26-.48,.43-1.48-1.49-2.94-2.93-4.37-4.41-.35-.36-.7-.44-1.16-.35-2.22,.41-4.44,.83-6.66,1.21-2.65,.46-4.46,1.86-5.22,4.5-.12,.42-.24,.84-.42,1.23-.22,.48-.16,.83,.26,1.19,.58,.51,1.11,1.09,1.66,1.64,.96,.95,1.39,.96,2.38,.08,1.5-1.34,2.99-2.69,4.55-4.09Zm9.1-31.17c2.9,3.46,6.63,5.17,11.15,4.98,.19,1.43,.22,1.47,1.25,1.59,.02-.1,.07-.21,.06-.32-.06-1.82,.02-3.67-.22-5.47-.72-5.51-5.06-9.79-10.53-10.57-5.88-.84-11.47,2.5-13.57,8.04-1.02,2.7-.8,5.48-.72,8.26,0,.03,.06,.06,.08,.08,1.03-.01,1.31-.62,1.15-1.51,5.41-.52,5.88-.29,11.34-5.07Zm-.18,3.11c-.35,.29-.75,.64-1.17,.95-2.19,1.62-4.63,2.65-7.36,2.92-.36,.04-.53,.18-.52,.56,.05,2.19-.08,4.4,.16,6.57,.59,5.4,6.29,9.06,11.48,7.47,1.26-.39,2.46-.92,3.49-1.95-.23-.05-.35-.11-.48-.11-1.37,0-2.75,0-4.12,0-1.48-.01-1.25,.17-1.31-1.34-.02-.62,.2-.78,.79-.77,1.65,.03,3.29,.01,4.94,.01,2.34,0,2.52-.15,3.07-2.46,0-.02,.01-.04,.01-.07,.09-2.49,.18-4.97,.23-7.46,0-.15-.37-.42-.6-.45-1.74-.23-3.42-.65-4.95-1.51-1.25-.7-2.41-1.55-3.69-2.38Zm-7.02,39.28l-5.25-5.25c-1.97,1.56-3.88,.91-5.32-.62-2.4-2.54-4.92-4.97-7.4-7.44-1.34-1.34-1.51-2.98-.4-4.51,.26-.36,.25-.55-.06-.85-1.4-1.38-2.78-2.78-4.17-4.17-.22-.22-.46-.43-.68-.64-2.93,2.34-3.19,6.22-.6,8.81,4.99,5.01,9.98,10,14.98,15,2.74,2.74,6.38,2.58,8.91-.32Zm-3.45-6.91l5.3,5.29,1.33-1.23-5.32-5.28-1.31,1.22Zm-18.17-18.29l5.15,5.23,1.17-1.05-5.24-5.24-1.08,1.06Zm32.19,6.4c-2.33,.61-4.57,.61-6.71,.04l3.2,3.32,3.5-3.37Zm6.92-6.22c.73,.08,1.43,.19,1.88-.42,.55-.75,.31-1.61,.14-2.51-.52,.25-1.1,.47-1.35,.89-.34,.56-.44,1.28-.67,2.04Zm-21.68-8.73c-.76,.33-1.24,1.1-1.23,1.91,.01,.86,.48,1.6,1.23,1.89v-3.8Zm22.67,3.8c.88-.41,1.25-1.15,1.14-2.2-.08-.79-.53-1.4-1.14-1.54v3.73Z"/><path class="c" d="M21.29,43.06l3.1-1.85,1.09,1.83-6.52,3.91-3.92-6.51,1.82-1.1,2.11,3.46c.59-1.7,1.03-3.33,1.7-4.87,4.35-10.01,11.86-16.34,22.47-18.85,5.15-1.22,10.33-1.01,15.45,.45,.53,.15,.65,.32,.47,.85-.44,1.33-.42,1.35-1.81,1.01-7.39-1.83-14.5-1.05-21.18,2.56-7.53,4.07-12.49,10.27-14.7,18.59-.03,.1-.04,.21-.09,.5Z"/><path class="c" d="M74.57,69.9l-1.61-1.29c6.41-8.55,8.08-17.87,5.01-28.01l-.23-.09c-.31,.51-.62,1.03-.93,1.54-.32,.53-.63,1.05-1,1.66l-1.82-1.09,3.91-6.54,6.52,3.91-1.09,1.84-3.15-1.87-.18,.06c1.65,5.14,2.05,10.36,1.09,15.64-.96,5.28-3.12,10.02-6.52,14.23Z"/><path class="c" d="M80.43,19.46v2.08c-.25,.02-.47,.05-.69,.05-3.98,0-7.95-.01-11.93,.02-.65,0-.81-.22-.8-.82,.05-1.61-.12-1.31,1.3-1.32,3.77-.02,7.54,0,11.31,0h.8Z"/><path class="c" d="M75.88,24v2.07c-.23,.02-.42,.05-.62,.06-2.51,0-5.02,0-7.53,.01-.53,0-.73-.15-.71-.69,.04-1.78-.17-1.43,1.45-1.44,2.21-.02,4.43,0,6.64,0h.78Z"/><path class="c" d="M80.43,24.05v2.01h-2.04v-2.01h2.04Z"/></g></g></svg>