<?xml version="1.0" encoding="UTF-8"?><svg id="a" xmlns="http://www.w3.org/2000/svg" viewBox="0 0 100 100"><defs><style>.b{fill:#0e4e80;}</style></defs><path class="b" d="M17.02,36.86c-.3-2.46,.2-4.56,1.24-6.25,.75-1.24,1.78-2.24,2.99-3,1.19-.75,2.55-1.25,3.97-1.49,2.26-.38,4.71-.11,6.92,.89,.79-1.5,1.9-2.79,3.35-3.74,1.67-1.1,3.76-1.75,6.27-1.75,2.72,0,5.3,1.16,7.18,3.02,1.4,1.38,2.41,3.16,2.82,5.14,1.62-.84,3.14-1.23,4.51-1.22,1.12,0,2.15,.27,3.05,.75,.89,.49,1.66,1.19,2.27,2.08,1.03,1.49,1.62,3.53,1.69,5.91,.29,.42,.46,.93,.51,1.52,.02,.23,.01,.47,0,.72-.01,.09-.02,.17-.05,.24l-4.12,18.03c-1.5,1.27-3.08,2.38-4.71,3.36l6.41-21.91c.01-.1,.01-.2,0-.27-.01-.11-.02-.19-.05-.24-.05-.03-.09-.08-.13-.13-.09-.04-.23-.07-.4-.09-.15-.01-.31-.01-.49,0-.05,0-.1,.01-.15,.01H18.98c-.06,.01-.09,.03-.1,.05-.1,.23-.11,.62-.07,1.11l6.31,27.12c1.21,.55,.59,.38,1.93,.47,2.67,.18,5.51-.47,8.2-1.82,5.96-2.98,11.16-9.32,12.13-17.51-1.16-.56-1.96-1.75-1.96-3.13,.01-1.91,1.56-3.47,3.48-3.47h0c1.92,0,3.47,1.56,3.47,3.47,0,1.6-1.08,2.94-2.54,3.34-1.05,9.1-6.84,16.16-13.47,19.48-3.09,1.54-6.37,2.29-9.47,2.07-1.03-.07-.11,.23-1.08-.05,1.5,5.63,2.76,5.61,7.38,5.53,.86-.01,1.81-.03,2.46-.03h.28c.04,.07,.07,.15,.11,.22,.43,.81,1.11,1.56,1.94,2.24h-2.34c-1.13,0-1.81,.01-2.43,.02-6.56,.13-8.02,.15-10.13-8.73h0l-.1-.45c-.96-.55-1.86-1.24-2.7-2.07-4.65-4.63-6.98-13.73-3.86-28.54,.06-.31,.24-.57,.47-.74,.04-.06,.08-.11,.13-.17h0Zm5.1,27.81l-4.45-19.09c-.93,9.57,1.01,15.67,4.34,19,.04,.03,.07,.07,.11,.1h0Zm38.59-28.7c-.18-1.33-.58-2.44-1.16-3.3-.39-.57-.87-1.01-1.41-1.31-.54-.3-1.17-.45-1.88-.45-1.36,0-2.99,.57-4.84,1.84h0c-.2,.14-.44,.22-.71,.22-.67-.01-1.21-.56-1.21-1.23,0-.03,0-.06,0-.1,0-2.08-.89-3.98-2.28-5.36-1.43-1.42-3.39-2.3-5.45-2.3s-3.65,.5-4.93,1.33c-1.38,.91-2.36,2.24-2.95,3.81-.03,.08-.06,.15-.11,.22-.35,.58-1.11,.76-1.69,.4-1.98-1.21-4.32-1.58-6.45-1.21-1.11,.19-2.16,.58-3.07,1.15-.89,.56-1.65,1.3-2.2,2.2-.68,1.11-1.04,2.48-.94,4.1H60.09c.21,0,.42-.01,.62,0h0Zm5.37,14.85c.43-.46,1.04-.73,1.85-.8l6.97,1c1.52,.22,2.99,.68,3.09,2.55,.03,.63-.11,1.36-.21,2.27l-.05,.5c-.2,1.83-.71,1.62-2.22,2.36,3.76,6.16,8.09,12.68,9.43,19.99,.3,1.5-.67,2.49-2.57,3.09l-3.41,.64c.34-3.97-.71-8.15-2.94-12.49,.61,4.96,1.22,9.79,.41,12.64l-3.51,.66c-.51-1.6-.92-2.84-1.64-3.35l-.81,3.06-5.91-.29c2.12-3.25,3.43-6.75,3.78-10.56-1.85,4.11-3.91,7.16-6.21,8.98-1.08,1.11-2.03,1.34-2.84,.63-.58-.51-.48-.82-.36-1.56,.15-.96,.54-1.94,1.07-2.93-1.19,1.34-1.94,1.66-2.61,2.38-1.9,2.03-5.18,1.72-5.7-1.1-.34-1.81,.87-2.39,2.08-3.66l2.12-2.22c-2.38,1.49-4.76,2.91-7.15,3.81-2.76,1.03-2.77,.92-5.3-.39-3.41-1.76-5.94-3.77-1.2-4.98,8.73-2.87,17.24-6.25,23.94-13.85-.71-.43-1.09-.98-1.21-1.63-.19-.97,.45-4.01,1.13-4.73h0Zm9.46-31.35l-5.17,26.2c-.48,4.39,4.63,4.79,5.43,.47l5.06-26.24c-.12-3.66-4.26-4.46-5.32-.43h0Z"/></svg>