<?xml version="1.0" encoding="UTF-8"?><svg id="a" xmlns="http://www.w3.org/2000/svg" viewBox="0 0 100 100"><defs><style>.c{fill:#0e4e80;}</style></defs><g id="b"><g><path class="c" d="M85,51.2c-.49,.97-1.31,1.29-2.36,1.22-.86-.05-1.73-.01-2.63-.01-.11,.99-.17,1.97-.32,2.92-1.7,10.94-7.61,18.74-17.61,23.45-.61,.29-.89,.61-.84,1.26,.01,.18-.01,.36-.02,.55-.07,1.15-.72,1.79-1.88,1.79-3.24,0-6.47,0-9.71,0-2.94,0-5.88,0-8.82,0-1.35,0-2.03-.59-2.01-1.92,0-.96-.32-1.44-1.24-1.85-4.91-2.19-8.9-5.54-12.02-9.92-.81-1.14-.77-1.86,.18-2.92,.87-.97,1.73-1.93,2.61-2.89,1.07-1.17,2.38-1.09,3.24,.24,1.5,2.29,3.33,4.27,5.54,5.89,.29,.21,.59,.41,1.04,.71l-.69-12.04c-.1-.07-.13-.11-.17-.12-1.87-.17-2.23-.56-2.23-2.42,0-1.28,0-2.55,0-3.83,.01-1.33,.64-1.97,1.97-1.98,2.3-.01,4.6,0,6.9,0,.25,0,.49,0,.83,0,0-.75,0-1.42,0-2.1,.02-2.15,1.29-3.45,3.43-3.49,1.21-.02,2.42-.02,3.62,0,2.1,.04,3.39,1.34,3.41,3.44,0,.68,0,1.36,0,2.1,.3,.02,.54,.04,.79,.04,2.26,0,4.51,0,6.77,0,1.56,0,2.15,.59,2.16,2.14,0,1.32,0,2.64,0,3.96,0,1.48-.52,2.02-1.98,2.1-.11,0-.22,.03-.41,.05l-.69,11.97,.18,.12c.99-.82,1.99-1.63,2.97-2.45,.24-.2,.45-.45,.69-.66,.5-.43,1.06-.42,1.46,0,.4,.42,.42,1.01-.06,1.46-.89,.84-1.81,1.67-2.77,2.43-.69,.55-1.47,.99-2.2,1.5-.18,.13-.42,.34-.43,.53-.11,1.4-.18,2.81-.27,4.41,1.19-.65,2.28-1.17,3.27-1.82,8.24-5.38,12.67-12.97,13.18-22.82,.07-1.29,.69-1.91,1.98-1.91,.81,0,1.63,0,2.65,0l-6.61-7.34-6.61,7.34c1.02,0,1.86,0,2.69,0,1.25,.01,1.95,.74,1.89,1.98-.19,4.06-1.3,7.84-3.39,11.33-.12,.19-.23,.4-.38,.56-.38,.39-.84,.48-1.3,.17-.45-.3-.61-.73-.38-1.25,.09-.21,.22-.4,.33-.6,1.75-2.97,2.78-6.17,3.01-9.62,0-.11,.01-.23,.01-.34,0-.04-.03-.08-.07-.19-.93,0-1.88-.01-2.83,0-.84,.01-1.54-.21-1.91-1.03-.37-.83-.04-1.48,.53-2.1,2.31-2.55,4.61-5.11,6.92-7.66,.99-1.1,1.98-1.11,2.96-.03,2.34,2.58,4.67,5.17,7,7.77,.24,.27,.42,.59,.62,.88v.96Zm-25.81,29.09c.44-7.58,.87-15.12,1.31-22.71h-20.99l1.31,22.71h18.37Zm3.67-28.87h-25.68v4.01h25.68v-4.01Zm-24.49,25.45l.18-.19c-.08-1.36-.13-2.73-.25-4.09-.02-.25-.29-.55-.52-.69-2.26-1.38-4.27-3.03-5.96-5.06-.68-.82-1.31-1.68-1.99-2.56-.77,.85-1.51,1.72-2.31,2.52-.39,.4-.35,.67-.03,1.08,1.86,2.48,4.01,4.67,6.59,6.39,1.39,.93,2.86,1.73,4.3,2.59Zm14.81-27.58c0-.83,.02-1.58,0-2.33-.03-.69-.41-1.13-1.1-1.15-1.38-.04-2.77-.03-4.16,0-.56,.01-1,.34-1.04,.9-.07,.85-.02,1.7-.02,2.58h6.33Z"/><path class="c" d="M60.49,32.23c-.66,1.07-1.22,2.11-1.9,3.07-.64,.91-1.48,1.11-2.54,.78-1.36-.42-2.22,.07-2.52,1.44-.23,1.07-.83,1.72-1.94,1.81-1.08,.09-2.18,.09-3.26,0-1.04-.09-1.66-.77-1.88-1.79-.3-1.38-1.15-1.87-2.51-1.45-1.05,.32-1.92,.11-2.54-.78-.67-.96-1.24-2-1.86-3.02-5.53,2.57-11.16,9.8-11.32,18.08,1.03,0,2.07-.04,3.1,.02,.43,.02,.91,.17,1.25,.42,.81,.62,.8,1.67,.03,2.53-1.65,1.85-3.32,3.69-4.99,5.54-.7,.78-1.4,1.56-2.11,2.33-.91,1-1.96,1-2.87-.01-2.37-2.62-4.73-5.25-7.1-7.87-.52-.57-.73-1.21-.4-1.94,.33-.72,.91-1.03,1.7-1.02,1.04,.02,2.08,0,3.08,0,.23-1.67,.38-3.28,.69-4.86,1.03-5.23,3.33-9.84,6.83-13.86,.48-.55,1.1-.62,1.56-.2,.46,.42,.47,.98-.04,1.57-2.4,2.77-4.21,5.88-5.39,9.35-.92,2.69-1.43,5.45-1.48,8.3-.03,1.54-.24,1.75-1.81,1.75-.86,0-1.73,0-2.78,0l6.58,7.31,6.59-7.31c-1.15,0-2.14,0-3.12,0-1.13,0-1.5-.35-1.45-1.47,.51-9.93,5.25-17.06,14.19-21.39,1.06-.51,1.19-1.4,.34-2.3-.45-.48-.81-1.05-1.35-1.76-1.36,.74-2.91,1.56-4.43,2.44-.74,.43-1.42,.98-2.11,1.5-.77,.58-1.38,.61-1.79,.07-.41-.54-.25-1.07,.49-1.66,2.56-2.02,5.37-3.57,8.44-4.69,.39-.14,.78-.46,1.02-.8,1.07-1.52,1.57-1.73,3.39-1.27,.96,.24,1.89-.34,2.12-1.33,.35-1.48,.78-1.94,2.28-2.08,1.03-.1,2.09-.05,3.13,.08,.96,.12,1.49,.81,1.7,1.74,.32,1.41,1.15,1.91,2.49,1.49,1.1-.35,1.99-.13,2.62,.86,.54,.84,1.25,1.27,2.16,1.62,5.61,2.17,10.15,5.74,13.66,10.62,.81,1.13,.76,1.89-.17,2.93-.88,.98-1.76,1.97-2.66,2.94-1.04,1.12-2.36,1.02-3.2-.27-1.91-2.94-4.35-5.31-7.36-7.1-.21-.13-.43-.24-.59-.33Zm-18.89-.54c.38,.67,.76,1.33,1.14,2,.22,.39,.46,.48,.94,.34,1.9-.55,3.8,.39,4.54,2.18,.16,.38,.24,.92,.52,1.09,.35,.21,.88,.1,1.34,.12,.23,0,.46-.03,.68-.02,.52,.04,.74-.19,.86-.7,.48-1.9,2.33-3.11,4.19-2.79q1.22,.21,1.86-.88c.16-.27,.27-.58,.44-.85,.22-.37,.11-.58-.15-.93-.47-.64-.94-1.36-1.13-2.12-.37-1.52,.32-2.74,1.55-3.78-.38-.67-.77-1.33-1.14-2-.22-.39-.47-.48-.94-.34-1.92,.56-3.85-.41-4.56-2.24q-.45-1.15-1.7-1.16c-.27,0-.55,.02-.82,.02-.49,0-.74,.19-.87,.71-.47,1.9-2.32,3.11-4.19,2.8-1.23-.2-1.24-.21-1.86,.87-.18,.31-.32,.65-.5,.97-.17,.31-.11,.51,.17,.75,.66,.57,1.06,1.3,1.2,2.16,.25,1.54-.35,2.75-1.58,3.8Zm31.33,3.74c-3.24-4.55-7.37-7.84-12.29-9.87-.47,.62-.85,1.21-1.31,1.71-.83,.89-.69,1.8,.39,2.28,3.33,1.5,6.18,3.64,8.53,6.43,.67,.79,1.27,1.64,1.93,2.49l2.74-3.05Z"/><path class="c" d="M44.77,68.94c0-1.62,0-3.23,0-4.85,0-.83,.35-1.27,1-1.27,.65,0,1.04,.44,1.04,1.24,0,3.26,0,6.51,0,9.77,0,.78-.43,1.26-1.05,1.25-.62-.01-.99-.48-.99-1.29,0-1.62,0-3.23,0-4.85Z"/><path class="c" d="M55.23,68.95c0,1.62,0,3.23,0,4.85,0,.81-.38,1.27-1,1.28-.62,0-1.04-.47-1.04-1.26,0-3.26,0-6.51,0-9.77,0-.8,.41-1.25,1.05-1.24,.62,.01,.99,.44,.99,1.21,0,1.64,0,3.28,0,4.92Z"/><path class="c" d="M49.98,32.46c-2.16-.01-3.95-1.84-3.92-3.99,.04-2.14,1.82-3.9,3.95-3.88,2.14,.02,3.91,1.78,3.92,3.92,.01,2.16-1.8,3.96-3.95,3.95Zm-.08-2.06c1,.07,1.89-.73,1.97-1.76,.08-.99-.71-1.9-1.74-1.99-1.02-.09-1.95,.74-2.01,1.79-.05,1,.76,1.89,1.78,1.96Z"/></g></g></svg>