<?xml version="1.0" encoding="UTF-8"?><svg id="a" xmlns="http://www.w3.org/2000/svg" viewBox="0 0 100 100"><defs><style>.c{fill:#0e4e80;}</style></defs><g id="b"><g><path class="c" d="M85,50.54c-.32,.52-.78,.75-1.38,.66-1.23-.18-2.19,.26-3.15,1.05-2.12,1.76-4.34,3.4-6.5,5.1-.2,.16-.43,.45-.43,.69-.03,2.84-.02,5.69-.02,8.57,.43,.12,.85,.22,1.25,.36,1.43,.5,2.35,1.53,2.4,3.02,.1,3.04,.15,6.1,.02,9.14-.1,2.48-2.5,4.48-5.02,4.46-2.57-.02-4.93-2.05-5.03-4.56-.12-2.86-.1-5.74,0-8.61,.08-2.24,1.47-3.55,3.76-3.72,.65-.05,.78-.27,.77-.87-.03-2.48-.03-4.97,0-7.45,0-.52-.17-.82-.59-1.11-2.57-1.8-5.14-3.62-7.68-5.47-.6-.44-1.19-.65-1.94-.63-2.08,.05-2.09,0-2.09-2.09,0-.57,0-1.14,0-1.71,0-1.12,.25-1.37,1.37-1.37,7.08,0,14.17,0,21.25,0,.57,0,1.14,.03,1.71,0,.59-.04,1.02,.17,1.29,.69v3.83Zm-23.73-2.61v1.37c.23,.01,.41,.05,.59,.02,.87-.12,1.57,.22,2.26,.72,2.63,1.92,5.31,3.78,7.95,5.68,.39,.28,.62,.27,.99-.02,2.11-1.67,4.26-3.28,6.35-4.97,1.06-.86,2.09-1.7,3.58-1.44,.01,0,.03-.03,.07-.07v-1.31h-21.8Zm7.68,26.54c.78,0,1.5-.07,2.19,.03,.31,.04,.74,.36,.82,.63,.08,.28-.12,.74-.35,.98-.18,.18-.59,.18-.9,.2-.58,.03-1.16,0-1.76,0v1.6c.67,0,1.31-.01,1.94,0,.76,.02,1.16,.37,1.15,.97-.02,.57-.41,.88-1.14,.9-.53,0-1.05,0-1.64,0,.75,1.47,2.16,2.18,3.55,1.89,1.48-.31,2.56-1.57,2.62-3.09,.03-.86,.01-1.73,.01-2.6,0-1.73,.02-3.46-.02-5.19-.03-1.31-.53-2.03-1.64-2.17-1.05-.13-2.13-.13-3.18,0-1.17,.15-1.66,.94-1.55,2.23,.49,0,.98,0,1.48,0,.27,0,.55,0,.82,.05,.5,.1,.72,.45,.69,.95-.04,.5-.34,.8-.84,.82-.74,.03-1.48,0-2.24,0v1.78Z"/><path class="c" d="M39.98,56.51c.95-.44,1.77-.87,2.64-1.19,.31-.12,.77-.06,1.07,.1,.2,.11,.33,.56,.28,.82-.05,.26-.3,.58-.55,.7-1.26,.63-2.54,1.23-3.83,1.8-.76,.34-1.29,0-1.38-.85-.09-.88-.12-1.76-.18-2.82-.89,.46-1.71,.82-2.47,1.28-2.27,1.38-4.16,3.17-5.59,5.42-.18,.29-.29,.66-.31,1.01-.04,1.07-.04,2.14,0,3.21,.05,1.94,.05,3.85-1.52,5.35,.46,.63,.83,1.23,1.3,1.75,1.7,1.88,2.35,4.18,2.64,6.61,.11,.9,.13,1.82,.14,2.73,.01,.88-.32,1.21-1.18,1.21-3.96,0-7.93,0-11.89,0-.81,0-1.11-.31-1.14-1.11-.07-2.16,.13-4.3,.93-6.31,.47-1.16,1.26-2.19,1.92-3.28,.21-.35,.47-.67,.73-1.04-.32-.31-.66-.59-.94-.91-.71-.82-1.16-1.78-1.17-2.85-.03-2.82,0-5.65,.04-8.47,.02-1.22,.49-2.26,1.55-3.02-1.48-1.49-1.91-3.39-2.19-5.42-.89,0-1.74,0-2.6,0-.92,0-1.23-.31-1.24-1.22,0-.8-.01-1.59,0-2.39,.02-.72,.32-1.07,1.04-1.07,3.53-.02,7.06-.02,10.59,.02,.32,0,.65,.37,.96,.59,.16,.11,.27,.32,.44,.36,2.08,.5,3.01,2.22,3.19,4.05,.12,1.27,.09,2.55,.1,3.82,0,.8-.32,1.18-.91,1.19-.62,0-.92-.39-.93-1.23-.01-1.09,.02-2.19-.05-3.28-.06-1.02-.33-1.99-1.31-2.56-.09-.05-.21-.07-.38-.13-.02,.21-.05,.38-.05,.54,0,1.98,0,3.96-.01,5.95,0,.4,.17,.61,.44,.9,.6,.64,1.07,1.4,1.61,2.14,.34-.36,.8-.86,1.28-1.33,1.82-1.8,3.89-3.21,6.28-4.15,.46-.18,.69-.37,.61-.93-.1-.73,.29-1.2,.86-1.23,.57-.03,.93,.41,.98,1.15,.08,1.33,.15,2.67,.24,4.1Zm-12.57,12.6c-.06-.05-.07-.08-.09-.08-.5-.01-1-.02-1.5-.03-.74-.02-1.12-.31-1.14-.89-.02-.6,.37-.93,1.15-.95,.63-.01,1.26,0,1.93,0v-1.54c-.09-.03-.13-.06-.17-.06-.48,0-.96-.01-1.43-.01-1.02,0-1.45-.28-1.46-.92-.01-.66,.42-.95,1.43-.95,.54,0,1.08,0,1.63,0v-1.74c-.71,0-1.37,.02-2.03,0-.69-.03-1.04-.36-1.04-.92,0-.56,.37-.89,1.04-.91,.65-.01,1.31,0,1.96,0,.08-1.32-.37-2.04-1.56-2.24-.88-.15-1.81-.16-2.71-.08-1.5,.14-2.09,.77-2.11,2.24-.04,2.62-.04,5.24,0,7.85,.02,1.46,1.13,2.7,2.53,3.01,1.46,.32,2.87-.38,3.57-1.78Zm2.66,9.4c-.31-.87-.45-1.68-.85-2.34-.71-1.19-1.58-2.27-2.34-3.42-.24-.36-.48-.25-.81-.2-.78,.11-1.57,.12-2.35,.22-.25,.03-.55,.14-.7,.32-.54,.67-1.04,1.38-1.53,2.09-.7,1-1.08,2.12-1.29,3.34h9.87Zm-4.3-22.77v-7.34h-6.01c.07,.38,.04,.89,.21,.97,.75,.35,.65,1,.77,1.61,.2,1.02,.4,2.05,.74,3.03,.3,.86,.9,1.58,1.88,1.71,.78,.1,1.58,.02,2.42,.02Zm4.5,26.01q.14-1.37-1.11-1.37c-2.82,0-5.65,0-8.47,0h-.78l-.07,1.37h10.43Zm-12.35-32.42v-.94h-.98v.94h.98Z"/><path class="c" d="M35.7,35.65c-.77,1.75,.43,4.18,2.21,4.64,2.16,.56,4.31,.64,6.54,.51,2.85-.17,5.73-.02,8.59,.14,1.78,.1,3.45-.33,5.07-.87,1.53-.52,2.22-2.46,1.76-4.45-.28,.2-.52,.38-.77,.54-.44,.29-.88,.26-1.23-.14-.35-.4-.34-.89,.05-1.22,.46-.4,.96-.79,1.52-1,.98-.37,1.87,.17,2.23,1.22,.73,2.15-.06,4.86-1.9,6.2-.57,.42-.79,.89-.91,1.54-.61,3.47-2.28,6.31-5.21,8.33-4.94,3.42-10.07,2.12-13.75-1.68-1.88-1.94-2.91-4.32-3.31-6.98-.07-.45-.23-.76-.63-1.04-1.96-1.33-2.85-4.03-2.14-6.3,.4-1.29,1.51-1.76,2.69-1.13,.39,.21,.76,.5,1.08,.82,.36,.37,.39,.83,.04,1.23-.35,.4-.79,.42-1.23,.14-.25-.16-.48-.34-.72-.51Zm6.54,7.15c.24,2.2,.47,4.34,.72,6.49,.02,.17,.16,.39,.3,.48,2.64,1.68,5.37,1.96,8.21,.48,.74-.38,1.27-.8,1.21-1.72-.03-.42,.09-.86,.13-1.29,.16-1.46,.32-2.93,.48-4.44-3.71-.35-7.35-.36-11.06,0Zm-1.37,4.66c-.16-1.5-.32-3-.5-4.5-.01-.12-.18-.27-.31-.3-.49-.13-1-.22-1.59-.34,.33,1.98,1.02,3.69,2.39,5.15Zm16.19-5.15c-.59,.12-1.08,.2-1.56,.34-.14,.04-.31,.22-.33,.35-.19,1.5-.36,3.01-.53,4.52,1.38-1.44,2.05-3.19,2.41-5.21Z"/><path class="c" d="M60.95,24.91c0,1.14,.06,2.28-.01,3.42-.08,1.22-.23,2.45-.46,3.65-.05,.27-.56,.62-.87,.63-.27,.01-.57-.38-.84-.62-.06-.06-.04-.22-.04-.33-.08-1.22-.08-1.21-1.26-1.63-6.76-2.41-13.47-2.25-20.17,.26-.33,.12-.49,.27-.46,.63,.02,.29,.02,.6-.02,.89-.08,.54-.39,.87-.97,.85-.55-.03-.76-.39-.88-.88-.55-2.27-.4-4.57-.41-6.87,0-1.57,0-3.14,0-4.71,0-.6,.25-.97,.81-1.2,4.28-1.75,8.71-2.76,13.36-2.6,4,.14,7.82,1.1,11.51,2.63,.5,.21,.72,.57,.71,1.12-.02,1.59,0,3.19,0,4.78Zm-1.84,3.75c0-2.72,0-5.27-.02-7.81,0-.15-.23-.38-.4-.44-3.1-1.18-6.28-1.97-9.61-2.15-4.21-.22-8.23,.65-12.15,2.09-.39,.14-.51,.34-.5,.74,.02,1.78,0,3.55,0,5.33,0,.7,0,1.4,0,2.24,7.57-2.91,15.06-2.92,22.67,0Z"/><path class="c" d="M38.57,65.19c1.3,0,2.59,0,3.89,0,.95,0,1.25,.32,1.26,1.28,0,2.32,0,4.64,0,6.96,0,.59-.22,.99-.71,1.29-1.24,.76-2.47,1.53-3.69,2.33-.53,.35-.99,.32-1.51-.02-1.2-.78-2.41-1.55-3.63-2.3-.52-.32-.75-.73-.74-1.34,.02-2.32,0-4.64,.01-6.96,0-.92,.32-1.24,1.22-1.24,1.3-.01,2.59,0,3.89,0Zm-3.26,1.9c0,2-.01,3.93,.02,5.85,0,.19,.21,.44,.39,.56,.81,.54,1.63,1.07,2.48,1.56,.2,.11,.56,.11,.76,0,.83-.47,1.61-1.02,2.43-1.5,.37-.22,.47-.48,.47-.88-.02-1.5,0-3,0-4.5,0-.35,0-.7,0-1.08h-6.55Z"/><path class="c" d="M57.39,54.95c-.06,1.01-.11,1.88-.16,2.74-.06,1.06-.64,1.42-1.6,.98-1.18-.54-2.35-1.09-3.52-1.65-.66-.32-.88-.78-.66-1.29,.24-.54,.76-.69,1.45-.37,.8,.36,1.6,.74,2.51,1.17,.07-1.03,.13-1.97,.18-2.91,.03-.5,.04-1,.1-1.5,.07-.55,.42-.89,.97-.83,.54,.05,.91,.42,.82,.98-.1,.68,.24,.89,.78,1.11,5.23,2.13,8.87,5.84,10.93,11.09,.29,.73,.12,1.29-.43,1.49-.54,.2-1-.07-1.28-.8-1.55-4.06-4.25-7.11-8.04-9.21-.63-.35-1.3-.62-2.07-.98Z"/><path class="c" d="M46.85,70.97c0-3.65,0-7.29,0-10.94,0-.25-.07-.56,.05-.74,.2-.28,.5-.59,.82-.67,.44-.12,.79,.16,.91,.62,.06,.26,.08,.54,.08,.81,0,7.29,0,14.58,0,21.87,0,1.03-.27,1.46-.91,1.48-.67,.02-.94-.41-.94-1.5,0-3.65,0-7.29,0-10.94Z"/><path class="c" d="M72.22,43.31c3.58,0,7.15,0,10.73,0,.25,0,.57-.07,.73,.06,.29,.23,.64,.57,.66,.89,.02,.27-.36,.61-.64,.82-.17,.13-.48,.09-.73,.09-7.2,0-14.4,0-21.6,0-.25,0-.56,.04-.73-.09-.27-.21-.64-.56-.62-.83,.02-.32,.37-.66,.66-.89,.16-.13,.48-.06,.73-.06,3.6,0,7.2,0,10.8,0Z"/></g></g></svg>