<?xml version="1.0" encoding="UTF-8"?><svg id="a" xmlns="http://www.w3.org/2000/svg" viewBox="0 0 100 100"><defs><style>.c{fill:#0e4e80;}</style></defs><g id="b"><g><path class="c" d="M65.35,74.61c-2.64,1.63-5.45,2.82-8.44,3.57-.18,.04-.4,.31-.43,.49-.17,1.15-.31,2.31-.44,3.47-.2,1.75-1.33,2.82-3.1,2.84-1.95,.02-3.89,.02-5.84,0-1.73-.02-2.82-.97-3.09-2.7-.18-1.18-.29-2.36-.48-3.53-.04-.22-.28-.52-.49-.58-2.97-.75-5.76-1.93-8.42-3.58-.98,.76-1.97,1.54-2.96,2.31-1.64,1.28-3.04,1.19-4.5-.27-1.31-1.31-2.63-2.62-3.93-3.93-1.25-1.26-1.34-2.73-.27-4.13,.72-.95,1.47-1.87,2.16-2.84,.12-.16,.15-.52,.05-.69-1.51-2.53-2.62-5.22-3.36-8.08-.05-.2-.37-.45-.59-.48-1.15-.18-2.31-.3-3.47-.44-1.65-.2-2.72-1.32-2.74-2.98-.03-2.04-.03-4.07,0-6.11,.03-1.55,.98-2.64,2.51-2.89,1.24-.2,2.49-.35,3.74-.49,.36-.04,.5-.19,.58-.53,.69-2.84,1.8-5.52,3.32-8.01,.19-.31,.17-.51-.05-.78-.75-.93-1.48-1.87-2.2-2.81-1.05-1.37-.95-2.85,.26-4.08,1.38-1.4,2.77-2.79,4.18-4.17,1.2-1.18,2.68-1.26,4.03-.24,.95,.72,1.89,1.44,2.82,2.18,.26,.21,.45,.28,.78,.08,2.49-1.53,5.16-2.64,8-3.33,.38-.09,.52-.25,.56-.64,.11-1.16,.27-2.32,.41-3.47,.2-1.62,1.29-2.69,2.92-2.73,2.06-.05,4.12-.04,6.18,0,1.56,.03,2.63,.99,2.88,2.52,.2,1.22,.35,2.45,.49,3.67,.04,.38,.16,.55,.54,.64,2.82,.68,5.47,1.78,7.95,3.29,.36,.22,.58,.18,.89-.07,.92-.75,1.86-1.48,2.81-2.2,1.29-.97,2.78-.9,3.93,.22,1.46,1.42,2.9,2.86,4.32,4.32,1.12,1.15,1.19,2.64,.22,3.93-.71,.95-1.44,1.9-2.19,2.82-.25,.31-.29,.54-.07,.89,1.51,2.45,2.59,5.09,3.28,7.88,.11,.44,.3,.58,.73,.62,1.16,.11,2.32,.26,3.47,.42,1.54,.21,2.6,1.3,2.64,2.86,.05,2.08,.05,4.17,0,6.25-.03,1.55-.99,2.61-2.53,2.87-1.22,.2-2.44,.35-3.67,.48-.39,.04-.54,.19-.63,.56-.69,2.82-1.78,5.47-3.3,7.95-.2,.33-.19,.54,.05,.84,.75,.92,1.48,1.86,2.2,2.81,1.02,1.35,.93,2.83-.25,4.03-1.38,1.4-2.77,2.8-4.17,4.18-1.23,1.21-2.71,1.29-4.08,.25-1.04-.79-2.07-1.59-3.1-2.38-.02-.01-.04-.02-.12-.05Zm11.17-45.19c-.27-.42-.47-.86-.79-1.19-1.3-1.35-2.64-2.67-3.97-3.99-.85-.85-1.52-.89-2.48-.15-1.09,.84-2.17,1.68-3.25,2.53-.39,.31-.75,.36-1.18,.08-2.74-1.76-5.7-2.99-8.88-3.68-.48-.1-.75-.35-.81-.87-.15-1.36-.34-2.72-.52-4.08-.15-1.18-.68-1.68-1.83-1.69-1.9-.01-3.8-.01-5.7,0-1.13,0-1.66,.52-1.8,1.65-.16,1.36-.37,2.72-.51,4.09-.06,.55-.32,.82-.83,.93-3.16,.68-6.1,1.92-8.82,3.66-.46,.29-.82,.26-1.24-.07-1.07-.85-2.17-1.69-3.26-2.52-.95-.73-1.61-.68-2.47,.18-1.31,1.31-2.63,2.62-3.93,3.93-.87,.88-.91,1.53-.13,2.53,.83,1.07,1.65,2.14,2.49,3.19,.31,.39,.39,.74,.11,1.18-1.77,2.76-3.01,5.74-3.71,8.95-.1,.46-.35,.7-.84,.76-1.36,.16-2.72,.35-4.08,.52-1.21,.15-1.7,.68-1.71,1.89,0,1.85,0,3.71,0,5.56,0,1.23,.49,1.74,1.69,1.89,1.34,.16,2.67,.37,4.02,.5,.59,.06,.84,.35,.96,.88,.67,3.12,1.88,6.01,3.6,8.69,.34,.54,.29,.94-.1,1.41-.85,1.05-1.66,2.13-2.48,3.2-.68,.89-.64,1.57,.15,2.37,1.34,1.35,2.68,2.69,4.03,4.03,.82,.81,1.51,.86,2.43,.15,1.09-.84,2.17-1.68,3.25-2.54,.41-.33,.78-.38,1.24-.09,2.72,1.74,5.66,2.97,8.82,3.66,.51,.11,.79,.36,.85,.91,.15,1.36,.34,2.72,.51,4.08,.15,1.13,.68,1.65,1.8,1.66,1.92,.02,3.84,.02,5.77,0,1.09-.01,1.63-.54,1.76-1.61,.17-1.36,.37-2.72,.51-4.09,.06-.58,.33-.85,.87-.97,3.14-.68,6.05-1.9,8.75-3.63,.48-.31,.86-.28,1.3,.07,1.05,.84,2.13,1.66,3.2,2.48,.96,.74,1.63,.71,2.48-.13,1.33-1.32,2.66-2.65,3.98-3.98,.84-.84,.87-1.52,.13-2.48-.82-1.07-1.65-2.14-2.5-3.19-.36-.44-.38-.82-.07-1.3,1.72-2.7,2.95-5.62,3.62-8.76,.12-.55,.4-.81,.97-.87,1.34-.14,2.68-.33,4.02-.5,1.11-.14,1.66-.67,1.67-1.71,.02-1.97,.02-3.94,0-5.91-.01-1.04-.55-1.58-1.59-1.71-1.36-.17-2.72-.37-4.08-.5-.57-.06-.86-.31-.98-.86-.68-3.14-1.9-6.05-3.62-8.76-.3-.47-.3-.86,.05-1.3,.87-1.09,1.73-2.19,2.56-3.32,.23-.32,.36-.71,.59-1.17Z"/><path class="c" d="M46.03,53.84c-1.45,0-2.8,0-4.15,0-1.53,0-2.31-.98-1.99-2.47,1.72-8.05,3.43-16.09,5.15-24.14,.21-.98,.54-1.25,1.56-1.26,4.07,0,8.15,0,12.22,0,1.32,0,1.79,.66,1.35,1.91-2.25,6.35-4.5,12.7-6.75,19.06-.08,.21-.15,.43-.25,.74,1.1,0,2.14,0,3.18,0,.69,0,1.37,.02,2.06,0,.6-.02,1.16,.06,1.46,.66,.31,.62-.02,1.09-.38,1.56-2.3,3.05-4.59,6.11-6.88,9.17-3.55,4.74-7.11,9.48-10.66,14.22-.33,.44-.69,.81-1.29,.73-.8-.1-1.17-.84-.87-1.74,.72-2.14,1.45-4.28,2.18-6.42,1.29-3.78,2.58-7.57,3.87-11.35,.06-.19,.11-.39,.19-.67Zm.39-26.47c-.17,.79-.34,1.52-.5,2.26-1.56,7.31-3.11,14.62-4.67,21.93-.16,.74-.03,.91,.73,.91,1.28,0,2.57,.07,3.84-.02,1.43-.1,1.91,.82,1.48,2.04-1.88,5.34-3.68,10.72-5.5,16.08-.07,.21-.13,.43-.2,.65l.13,.05,16.65-22.22c-1.73,0-3.3,0-4.86,0-1.54,0-2.06-.75-1.54-2.22,2.21-6.22,4.41-12.45,6.62-18.67,.09-.25,.16-.5,.25-.8h-12.44Z"/><path class="c" d="M33.71,34.8c-.24-.34-.48-.65-.69-.97-.37-.57-.18-1.07,.48-1.15,1.95-.24,3.91-.46,5.86-.65,.68-.07,1.02,.42,.75,1.06-.77,1.78-1.55,3.56-2.35,5.33-.29,.63-.85,.68-1.29,.15-.17-.21-.33-.43-.52-.67-2.75,2.88-4.45,6.22-4.88,10.12-.73,6.52,1.49,11.9,6.53,16.1,.5,.42,.61,.81,.21,1.34-.36,.48-.66,.99-1,1.48-.48,.69-.79,.73-1.46,.19-3.85-3.07-6.47-6.98-7.56-11.78-1.72-7.6,.13-14.3,5.45-20.02,.15-.16,.31-.33,.48-.52Zm1.15-.9q.62,1.16-.3,2.03c-7.64,7.32-8.07,19.86-.95,27.69,.7,.77,1.48,1.47,2.25,2.23l.56-.87c-.16-.15-.29-.28-.42-.4-8.27-7.24-8.67-20.11-.87-27.81,.25-.25,.57-.57,.87-.58,.31,0,.63,.32,.99,.53l1.42-3.21-3.57,.39Z"/><path class="c" d="M63.85,65.19c.24,.4,.49,.73,.67,1.1,.27,.52,.03,1-.56,1.03-1.99,.11-3.98,.19-5.97,.25-.66,.02-.96-.48-.66-1.07,.89-1.75,1.81-3.49,2.75-5.22,.32-.59,.86-.59,1.26-.05,.16,.22,.29,.45,.47,.73,1.95-1.74,3.41-3.75,4.43-6.08,3.02-6.88,1.41-14.82-4.04-19.99-.86-.81-.86-.87-.14-1.79,.31-.4,.62-.8,.93-1.19,.5-.62,.78-.65,1.35-.14,3.27,2.95,5.54,6.53,6.5,10.83,1.87,8.34-.4,15.45-6.66,21.27-.1,.09-.2,.19-.34,.32Zm-.74-30.2c.24,.19,.47,.32,.64,.5,7.59,7.71,7.06,20.57-1.13,27.61-.95,.82-1.02,.81-1.88-.12l-1.6,3.04h3.54q-.57-1.18,.38-1.98c6.61-5.58,8.89-14.94,5.58-22.94-1.1-2.65-2.68-4.97-4.82-6.99l-.7,.86Z"/></g></g></svg>