<?xml version="1.0" encoding="UTF-8"?><svg id="a" xmlns="http://www.w3.org/2000/svg" viewBox="0 0 100 100"><defs><style>.c{fill:#77787b;}</style></defs><g id="b"><g><path class="c" d="M56.59,21.45c8.77,.88,17.53,1.76,26.31,2.63,.04,.24,.09,.4,.09,.57,.12,11.39-1.27,22.53-5.55,33.17-3.23,8.05-7.85,15.13-14.73,20.57-3.5,2.77-7.37,4.86-11.65,6.14-.63,.19-1.42,.2-2.05,0-9.47-2.96-16.4-9.13-21.65-17.35-4.75-7.45-7.45-15.68-8.97-24.32-1.02-5.81-1.42-11.67-1.4-17.57,0-.37,0-.74,0-1.21,8.86-.89,17.63-1.76,26.4-2.64l.23,.21c-2.25,1.81-3.28,4.14-3.15,7l-16.54,1.67c.18,2.22,.31,4.32,.54,6.4,.9,8.07,2.82,15.85,6.57,23.1,3.48,6.72,8.15,12.42,14.96,15.97,4.64,2.42,3.39,2.41,7.99,.02,6.59-3.42,11.18-8.87,14.64-15.32,3.68-6.86,5.67-14.24,6.67-21.92,.31-2.39,.41-4.81,.67-7.21,.11-.94-.29-1.13-1.11-1.21-4.94-.46-9.88-.97-14.82-1.46-.13-.01-.26-.05-.52-.11,.12-2.78-.91-5.12-3.13-6.93l.18-.23Zm-36.67,4.34c-.3,2.65,.77,14.35,1.41,15.93l-.75-15.09c3.17-.53,6.21-1.03,9.24-1.53l-.03-.18c-3.27,.29-6.54,.58-9.87,.88Zm40.54,49.38c-2.85,2.59-6.22,4.21-9.81,5.43-.68,.23-.83,.59-.53,1.28,4.03-1.38,7.61-3.39,10.34-6.71Z"/><path class="c" d="M63.31,66.12c-.46,.66-.86,1.37-1.39,1.97-2.95,3.42-6.53,5.92-10.86,7.26-.49,.15-1.11,.21-1.57,.04-3.35-1.22-6.46-2.87-8.98-5.45-2.32-2.38-3.02-4.98-.85-7.95,.53-.73,.93-1.58,1.26-2.43,.81-2.08,.48-3.33-1.16-4.79,2.39-.11,4.57,2,4.72,4.57,.05,.88-.02,1.78,.14,2.64,.31,1.64,1.53,2.41,3.16,2.05,2.45-.55,4.97-3.28,2.47-6.46-.63-.8-1.35-1.53-2.04-2.28-3.22-3.48-3.3-6.85-.2-10.6,.33,3.2,2.37,5.12,4.88,6.6,1.6,.94,3.36,1.59,5.05,2.37,.74,.34,1.52,.6,2.22,1.01,2.08,1.21,2.75,3.03,1.92,5.29-.9,2.44-2.62,4.25-4.62,5.84-.21,.17-.48,.29-.65,.49-.2,.24-.51,.61-.45,.82,.09,.28,.5,.65,.77,.65,.93-.02,1.91-.05,2.78-.32,1.11-.35,2.15-.96,3.22-1.45l.17,.14Z"/><path class="c" d="M81.03,20.62c-3.67-.18-7.33-.36-11-.54-4.65-.23-9.3-.45-13.96-.71-.67-.04-1.03,.15-1.14,.8-.01,.07-.03,.13-.06,.2-.65,1.34-.87,2.39,.79,3.37,1.35,.8,1.87,2.37,1.89,3.99,.02,1.97,.01,3.94,0,5.92-.01,3.08-1.65,5.13-4.65,5.84-.19,.05-.39,.1-.61,.15v1.6c1.77,.02,3.48,.24,5.16-.44,1.06-.43,1.46-.19,1.98,1.05-1.45,.37-2.86,.97-4.29,1.03-3.43,.15-6.87,.15-10.3,0-1.42-.06-2.81-.65-4.21-1,.32-1.21,.8-1.53,1.81-1.12,1.71,.7,3.45,.5,5.25,.47v-1.58c-.62-.18-1.23-.29-1.78-.53-2.15-.95-3.38-2.61-3.46-4.98-.07-2.07-.02-4.15-.02-6.22,0-2.15,.93-3.81,2.77-4.89,.6-.35,.57-.67,.39-1.23-.82-2.51-.8-2.47-3.43-2.33-7.5,.39-15.01,.75-22.51,1.11-.24,.01-.47,0-.72-.12,2.85-.48,5.69-.97,8.54-1.45,7.04-1.19,14.08-2.34,21.1-3.59,2.07-.37,3.98,.24,5.94,.56,8.75,1.43,17.49,2.94,26.23,4.43,.1,.02,.19,.05,.28,.07l-.02,.13Zm-30.25,12.85h-1.6v-8.66l-.28,.14-1.12-1.1c-1.91,.05-3.65,1.54-3.73,3.56-.1,2.34-.1,4.69,0,7.03,.09,1.91,1.86,3.48,3.64,3.4l.11-1.04h4.35l.19,1.11c1.98-.24,3.51-1.65,3.59-3.49,.1-2.34,.11-4.69,0-7.03-.1-2.07-2.01-3.66-3.62-3.53l-1.55,1.26v8.34Z"/></g></g></svg>