<?xml version="1.0" encoding="UTF-8"?><svg id="a" xmlns="http://www.w3.org/2000/svg" viewBox="0 0 100 100"><defs><style>.c{fill:#77787b;}</style></defs><g id="b"><g><path class="c" d="M64.27,44.97c.6,0,1.17,0,1.73,0,.08,0,.18,.13,.24,.21,.54,.78,1.57,.95,2.32,.39,.75-.56,.87-1.62,.28-2.33-.69-.84-1.98-.77-2.59,.13-.12,.18-.24,.24-.45,.23-1.61,0-3.22,0-4.83,0-.17,0-.28-.04-.38-.2-.42-.65-1.18-.92-1.89-.67-.68,.23-1.16,.94-1.1,1.63,.06,.79,.61,1.4,1.39,1.52,.67,.1,1.21-.15,1.58-.71,.11-.16,.21-.22,.4-.22,.51,.01,1.03,0,1.57,0,0,.45,0,.87,0,1.28,0,.06-.1,.14-.17,.16-1.35,.37-2.26,1.22-2.74,2.53-.07,.2-.21,.17-.35,.17-2.9,0-5.79,0-8.69,0-1,0-1.93,.23-2.77,.79-1.44,.97-2.22,2.33-2.24,4.08-.02,1.92,0,3.84,0,5.76,0,.11,0,.23,0,.38-.32,0-.6,0-.87,0-.69,.01-1.14,.45-1.15,1.14-.01,.96,0,1.91,0,2.87,0,.72,.46,1.15,1.19,1.16,1.51,0,3.02,0,4.53,0,.11,0,.21,0,.39,0-.09,.12-.15,.19-.2,.27-.97,1.3-1.98,2.59-2.91,3.92-.62,.88-1.06,1.86-1.27,2.93-.5,2.55,1.22,5.11,3.71,5.51,2.75,.45,5.16-1.29,5.53-3.98,.15-1.06-.11-2.05-.53-3.01-.55-1.26-1.36-2.36-2.19-3.44-.55-.72-1.11-1.43-1.72-2.2,.16,0,.26,0,.36,0,1.51,0,3.02,0,4.53,0,.79,0,1.23-.44,1.23-1.23,0-.91,0-1.81,0-2.72,0-.77-.44-1.21-1.22-1.21-.24,0-.49,0-.76,0,0-.14-.02-.26-.02-.38,0-.58,0-1.17,0-1.75,0-.2,.06-.27,.27-.27,1.59,0,3.18,0,4.77,0,.18,0,.25,.06,.3,.23,.48,1.81,2.03,3.02,3.82,2.99,1.8-.02,3.3-1.23,3.77-3.02,.04-.15,.07-.26,.27-.26,1.6,0,3.2,0,4.8,0,.04,0,.08,.01,.15,.02,0,.1,.01,.2,.01,.31,0,1.41-.02,2.83-.02,4.24,0,.14,0,.27-.02,.41-.07,.61-.52,1.02-1.14,1.05-.44,.02-.89,0-1.31,.09-1.44,.31-2.42,1.18-2.89,2.57-.7,2.04-1.71,3.9-3.08,5.57-1.63,1.98-3.61,3.52-5.92,4.62-.22,.1-.29,.22-.29,.46,0,2.53,0,5.07,0,7.6v.38c-.12,0-.22,.02-.33,.02-4.89,0-9.79,0-14.68,0-.25,0-.33-.07-.33-.33,0-2.56,0-5.13,.01-7.69,0-.24-.08-.35-.3-.46-4.36-2.14-7.36-5.49-8.96-10.08-.63-1.78-1.98-2.76-3.87-2.77-.11,0-.21,0-.32,0-.69,0-1.17-.44-1.19-1.14-.03-1.12-.03-2.24-.04-3.36-.04-4.67-.08-9.34-.11-14.01,0-.87-.41-1.48-1.22-1.81-1.38-.56-2.16-1.74-2.16-3.24,0-.95,0-1.89,0-2.84,0-1.03,.63-1.66,1.66-1.66,3.22,0,6.43,0,9.65,0h.41v-.47c0-5.62,0-11.25,0-16.87,0-1.29,.5-2.3,1.65-2.92,2.03-1.1,4.53,.38,4.56,2.69,.02,1.42,0,2.85,0,4.27,0,4.28,0,8.56,0,12.84,0,.53-.06,.46,.47,.46,4.98,0,9.96,0,14.94,0q.4,0,.4-.39c0-5.69,0-11.39,0-17.08,0-1.37,.79-2.51,2.02-2.96,1.94-.72,4.03,.64,4.16,2.7,.01,.21,.02,.43,.02,.64,0,5.55,0,11.09,0,16.64,0,.53-.02,.45,.46,.45,3.17,0,6.34,0,9.5,0,1.17,0,1.76,.6,1.76,1.77,0,1.08,.04,2.17-.05,3.24-.11,1.27-.83,2.18-2,2.67-.93,.39-1.36,1.03-1.35,2.03,.01,1.14-.02,2.28-.02,3.42,0,.25-.05,.35-.34,.35-1.58-.02-3.16-.01-4.74,0-.21,0-.3-.07-.37-.26-.45-1.16-1.27-1.95-2.44-2.34-.21-.07-.27-.17-.26-.37,.01-.37,0-.74,0-1.16Z"/><path class="c" d="M53.19,71.33c1.1,2.07,.08,4.3-1.46,5.07,1.6-1.37,2.09-3.06,1.46-5.07Z"/></g></g></svg>