<?xml version="1.0" encoding="UTF-8"?><svg id="a" xmlns="http://www.w3.org/2000/svg" viewBox="0 0 100 100"><defs><style>.b{fill:#77787b;}</style></defs><path class="b" d="M41.9,44.94c.01,.35,.14,.68,.38,.94l4.42,5.29c1.28-.69,2.78-.87,4.19-.51l1.58-1.71c-.22,.58-.54,1.22-.79,1.79,.53,.19,1.07,.33,1.62,.42l4.33-5.04c.38-.39,.57-.94,.51-1.48-.15-.71-.56-1.34-1.14-1.77-.23-.21-.47-.4-.72-.57-.6,.74-.95,1.29-1.96,2.62l1.9-4.46c-2.04-1.74-9.12-2.01-10.96,0,.48,1.96,1.07,3.89,1.71,5.8l-2.18-4.11c-.99,.42-2.9,1.52-2.9,2.79Z"/><path class="b" d="M63.12,63.39c-1.9-3.39-7.78-10.86-11.45-11.54l.85,3.89v.02h0v-.02l-1.97-3.97h-1.49l-2.85,3.77,1.95-3.64c-2.02,.68-3.72,2.33-5.29,3.7-.62,.56-1.2,1.15-1.76,1.77-4.33,4.79-9.07,12.62-6.48,19.23,1.6,4.07,7.72,4.07,11.71,4.27,3.69,.18,10.24,.14,13.74-.57,5.6-1.12,6.94-5.96,5.55-11.12-.65-2.01-1.49-3.95-2.51-5.8Zm-6.48-3.96c-.65,1.01-1.02,1.54-1.11,1.61h-2.96c.41,.48,.68,1.06,.83,1.74h3.16s.06,.02,.06,.05c-.71,1.06-1.07,1.59-1.08,1.59h-2.05c-.05,.55-.31,1.2-.78,1.97-.63,.78-1.23,1.28-1.81,1.51-1.08,.51-2.1,.77-3.09,.77v.02c0,.08,.24,.4,.73,.96l5.47,6.6v.31s-.02,.05-.06,.05h-2.41c-4.33-5.05-6.5-7.58-6.5-7.6v-1.53l.02-.06c.38,.05,.83,.08,1.35,.08,2.43,0,3.94-.79,4.53-2.36,.09-.23,.14-.47,.14-.71h-6.59s-.05-.02-.05-.05c.73-1.06,1.1-1.59,1.12-1.59h5.23v-.02c-.3-.61-.88-1.08-1.74-1.42-.61-.2-1.17-.3-1.66-.3h-2.93v-.06c.71-1.05,1.07-1.58,1.09-1.58h11.08v.02Z"/><path class="b" d="M84.58,50.85c-.26-.65-.64-1.25-1.14-1.74-.49-.51-1.07-.91-1.71-1.19-.66-.29-1.37-.43-2.09-.42h-3.52c0-.09-.03-.18-.06-.26-.19-.61-.39-1.23-.62-1.81-.23-.58-.48-1.19-.74-1.71-.05-.08-.09-.17-.13-.26l2.9-2.93c.53-.47,.95-1.06,1.23-1.71,.27-.66,.41-1.37,.42-2.09,0-.72-.13-1.43-.42-2.09-.29-.65-.69-1.24-1.2-1.74l-4.93-4.9c-.51-.51-1.11-.92-1.78-1.2-1.34-.55-2.84-.55-4.18,0-.67,.27-1.28,.68-1.78,1.2l-2.58,2.44-.19-.1c-.52-.29-1.1-.57-1.71-.84s-1.14-.51-1.71-.74c-.1-.03-.23-.1-.32-.14v-4.14c0-.72-.12-1.42-.38-2.09-.28-.66-.68-1.27-1.2-1.77-.52-.51-1.13-.92-1.8-1.2-.67-.26-1.38-.39-2.1-.38h-5.65c-.71,0-1.42,.13-2.09,.38-.66,.28-1.27,.69-1.78,1.2-.51,.51-.92,1.11-1.19,1.77-.26,.67-.39,1.38-.39,2.09v4.13c-.1,.03-.23,.1-.32,.14-.57,.23-1.14,.48-1.71,.74-.57,.26-1.19,.57-1.71,.84l-.21,.11-2.51-2.48c-.5-.52-1.11-.93-1.78-1.2-.66-.28-1.37-.42-2.09-.42-.72,0-1.43,.13-2.09,.42-.67,.28-1.27,.68-1.78,1.19l-4.93,4.9h-.03c-.5,.5-.9,1.09-1.19,1.74-.29,.66-.43,1.37-.42,2.09,0,.72,.15,1.43,.42,2.09,.28,.65,.7,1.23,1.22,1.71l2.91,2.93c-.04,.09-.08,.18-.13,.26-.26,.54-.49,1.14-.75,1.71-.26,.57-.42,1.19-.61,1.81-.04,.08-.06,.17-.07,.26h-3.52c-.72-.01-1.44,.13-2.1,.42-.64,.29-1.22,.69-1.71,1.2h-.03c-.49,.49-.88,1.07-1.14,1.71-.3,.68-.46,1.42-.47,2.16v7.02c0,.71,.13,1.42,.38,2.09,.27,.67,.68,1.28,1.2,1.78,.5,.51,1.11,.92,1.77,1.19,.67,.26,1.38,.39,2.1,.38h4.12c.03,.1,.1,.23,.14,.32,.23,.57,.48,1.14,.74,1.74,.22,.47,.42,.91,.63,1.31h4.88c-.04-.08-.09-.16-.15-.24-.26-.42-.52-.84-.78-1.32-.26-.48-.53-1-.78-1.42-.25-.42-.44-1-.64-1.52-.19-.52-.35-.96-.57-1.57-.26-.85-1.03-1.44-1.92-1.46h-5.58c-.18,0-.35-.03-.51-.09-.15-.07-.28-.17-.38-.29-.11-.11-.21-.24-.29-.38-.07-.16-.1-.34-.1-.52v-7.01c0-.16,.02-.33,.07-.48,.08-.17,.19-.32,.32-.45,.1-.12,.24-.21,.38-.26,.16-.07,.34-.1,.52-.09h5.13c1.01,0,1.87-.72,2.06-1.71,.13-.57,.26-1.07,.38-1.52,.13-.46,.32-1,.52-1.52,.17-.5,.38-1,.6-1.48,.23-.51,.49-.96,.71-1.41,.44-.8,.3-1.8-.35-2.44l-3.99-4.03h-.07c-.12-.11-.21-.24-.28-.38-.06-.14-.08-.3-.07-.45,0-.17,.03-.33,.1-.48,.07-.17,.18-.33,.32-.45l4.93-4.9c.13-.14,.28-.25,.45-.32,.15-.07,.32-.1,.48-.1,.17,0,.33,.03,.48,.1,.15,.08,.3,.17,.42,.29h.03l3.67,3.62c.71,.71,1.82,.8,2.64,.23,.42-.26,.84-.51,1.32-.77l1.45-.75c.48-.23,1-.45,1.52-.64,.51-.19,.97-.35,1.58-.57,.85-.28,1.42-1.07,1.41-1.97v-5.57c0-.18,.03-.36,.1-.52,.07-.13,.15-.26,.24-.38,.11-.12,.24-.2,.39-.26,.16-.07,.34-.1,.51-.1h5.52c.18,0,.35,.03,.51,.1,.15,.05,.28,.14,.38,.26,.1,.12,.18,.25,.26,.38,.07,.16,.1,.34,.09,.52v5.57c0,.9,.59,1.7,1.45,1.97,.61,.19,1.14,.38,1.57,.54,.43,.16,1.03,.42,1.52,.64,.49,.22,.93,.48,1.45,.74s.9,.52,1.32,.78c.82,.58,1.94,.48,2.64-.23l3.64-3.64c.12-.12,.26-.22,.42-.28,.15-.07,.32-.11,.48-.1,.17,0,.33,.03,.48,.1,.17,.07,.33,.18,.45,.32l4.93,4.9c.14,.13,.25,.28,.32,.45,.07,.15,.11,.32,.1,.48,.02,.15,0,.31-.07,.45-.07,.14-.17,.27-.28,.38h-.07l-3.99,4.03c-.65,.65-.8,1.65-.35,2.45,.23,.44,.49,.89,.71,1.41,.25,.49,.48,.99,.67,1.51,.19,.51,.35,1,.51,1.52,.16,.52,.26,.96,.39,1.52,.19,.99,1.05,1.71,2.06,1.71h5.13c.18,0,.36,.03,.52,.1,.15,.05,.28,.14,.38,.26,.13,.13,.24,.29,.32,.45,.04,.16,.06,.32,.06,.49v7.03c0,.18-.03,.35-.09,.52-.08,.14-.17,.27-.29,.38-.1,.12-.23,.22-.38,.28-.16,.07-.34,.1-.52,.1h-5.57c-.91-.02-1.72,.55-2.01,1.41-.19,.62-.38,1.14-.57,1.58s-.42,1.03-.64,1.52c-.48,.96-.95,1.86-1.52,2.77-.06,.09-.11,.17-.15,.25h4.88c.21-.41,.41-.85,.63-1.31,.26-.57,.51-1.14,.74-1.74,.03-.1,.1-.23,.13-.32h4.13c.72,0,1.42-.12,2.09-.38,.66-.28,1.27-.68,1.77-1.19,.52-.5,.93-1.11,1.2-1.78,.26-.67,.38-1.38,.38-2.09v-7.02c0-.71-.15-1.41-.42-2.06Z"/><path class="b" d="M30.96,68.75h0Z"/></svg>