<?xml version="1.0" encoding="UTF-8"?><svg id="a" xmlns="http://www.w3.org/2000/svg" viewBox="0 0 100 100"><defs><style>.c{fill:#77787b;}</style></defs><g id="b"><g><path class="c" d="M70.28,53.02c0,.69,0,1.37,0,2.06-.02,1.16-.88,2.01-2.04,2.02-.78,0-1.56,0-2.34,0-.23,0-.34,.08-.43,.29-.36,.89-.73,1.78-1.1,2.66-.08,.19-.03,.3,.1,.43,.55,.54,1.09,1.08,1.63,1.63,.86,.87,.87,2.13,0,2.99-.96,.96-1.91,1.91-2.87,2.87-.81,.81-2.08,.83-2.91,.04-.57-.55-1.13-1.11-1.67-1.67-.17-.18-.31-.18-.53-.08-.82,.37-1.65,.72-2.49,1.03-.29,.11-.38,.23-.37,.52,.02,.72,0,1.44,0,2.15,0,1.29-.87,2.16-2.16,2.17-1.32,0-2.65,0-3.97,0-1.25,0-2.13-.87-2.14-2.13,0-.73-.01-1.46,0-2.18,0-.3-.09-.43-.39-.54-.82-.29-1.62-.64-2.41-1-.28-.13-.44-.12-.66,.1-.52,.55-1.06,1.08-1.61,1.61-.84,.8-2.11,.78-2.93-.04-.94-.94-1.89-1.88-2.82-2.83-.92-.94-.91-2.14,.03-3.08,.52-.52,1.04-1.05,1.57-1.56,.16-.15,.18-.27,.09-.48-.36-.82-.71-1.65-1.04-2.49-.12-.3-.24-.44-.59-.43-.74,.03-1.48,.01-2.22,0-1.17-.01-2.04-.86-2.05-2.04-.01-1.39,0-2.79,0-4.18,.01-1.15,.87-1.99,2.01-2.01,.79,0,1.58,0,2.37,0,.23,0,.33-.08,.42-.3,.35-.89,.72-1.76,1.1-2.63,.08-.18,.07-.3-.07-.43-.54-.53-1.08-1.07-1.61-1.61-.93-.94-.92-2.17,.02-3.11,.91-.9,1.81-1.81,2.72-2.72,.92-.93,2.14-.95,3.08-.04,.55,.53,1.09,1.08,1.63,1.63,.14,.14,.24,.15,.43,.07,.89-.38,1.79-.75,2.7-1.11,.18-.07,.22-.18,.22-.35,0-.74,0-1.48,0-2.22,0-1.39,.85-2.24,2.24-2.24,1.28,0,2.56,0,3.85,0,1.3,0,2.17,.87,2.17,2.18,0,.71,.01,1.42,0,2.12,0,.3,.08,.43,.39,.54,.84,.3,1.65,.66,2.46,1.03,.23,.11,.37,.11,.56-.08,.51-.53,1.04-1.05,1.56-1.57,.91-.91,2.14-.91,3.06,0,.95,.95,1.9,1.9,2.85,2.85,.81,.81,.82,2.08,.02,2.9-.55,.56-1.11,1.12-1.67,1.68-.17,.16-.17,.29-.08,.51,.37,.83,.71,1.68,1.04,2.52,.1,.25,.2,.38,.5,.37,.77-.02,1.54-.01,2.31,0,1.13,0,1.99,.84,2.02,1.97,.02,.73,0,1.46,0,2.18Zm-36.25-.06h0c0,.57,.01,1.15,0,1.72-.01,.3,.1,.39,.39,.39,1.01-.01,2.01,0,3.02,0,.56,0,.94,.29,1.07,.83,.33,1.4,.88,2.7,1.62,3.93,.32,.52,.25,.96-.17,1.39-.72,.72-1.43,1.44-2.16,2.15-.18,.18-.18,.29,0,.47,.84,.83,1.67,1.66,2.5,2.5,.18,.18,.28,.16,.45,0,.71-.73,1.43-1.44,2.15-2.15,.43-.42,.92-.49,1.4-.19,1.2,.75,2.49,1.28,3.87,1.62,.64,.16,.89,.48,.89,1.14,0,.96,0,1.93,0,2.89q0,.47,.45,.47c1.11,0,2.22,0,3.32,0,.41,0,.42,0,.42-.41,0-1.02,0-2.03,0-3.05,0-.56,.27-.88,.8-1.01,1.38-.35,2.69-.86,3.9-1.61,.54-.34,.98-.29,1.44,.17,.72,.71,1.44,1.43,2.15,2.15,.18,.18,.28,.16,.45,0,.83-.84,1.66-1.68,2.5-2.5,.19-.19,.17-.3,0-.47-.7-.68-1.38-1.37-2.07-2.06-.52-.52-.58-.95-.2-1.56,.7-1.15,1.21-2.37,1.53-3.67,.19-.75,.5-1.01,1.27-1.01,.97,0,1.95,0,2.92,0,.24,0,.32-.08,.32-.32,0-1.17-.01-2.34,0-3.51,0-.27-.09-.35-.35-.35-1.03,.01-2.05,0-3.08,0-.52,0-.94-.33-1.05-.83-.3-1.33-.81-2.57-1.5-3.75-.46-.78-.42-1.12,.23-1.76,.65-.65,1.3-1.31,1.97-1.95,.21-.2,.21-.33,0-.52-.83-.82-1.66-1.65-2.48-2.48-.17-.18-.28-.17-.45,0-.72,.73-1.45,1.45-2.17,2.17-.41,.41-.9,.48-1.4,.17-1.17-.73-2.42-1.24-3.75-1.58-.79-.2-.99-.49-.99-1.31,0-.94,0-1.89,0-2.83,0-.29-.1-.39-.4-.38-1.14,.01-2.28,.02-3.42,0-.3,0-.39,.09-.39,.39,.01,1.04,0,2.07,0,3.11,0,.51-.28,.85-.77,.97-1.37,.33-2.68,.84-3.88,1.59-.53,.34-1.13,.28-1.6-.22-.68-.71-1.39-1.4-2.08-2.1-.15-.15-.25-.16-.4,0-.83,.85-1.67,1.69-2.52,2.53-.19,.18-.18,.29,0,.47,.7,.68,1.38,1.37,2.07,2.06,.57,.57,.6,.94,.17,1.63-.68,1.13-1.19,2.34-1.49,3.62-.17,.71-.49,.98-1.23,.99-.97,0-1.95,0-2.92,0-.26,0-.37,.07-.36,.35,.02,.57,0,1.15,0,1.72Z"/><path class="c" d="M26.22,73.97c-.33,.18-.61,.33-.89,.5-.76,.44-1.53,.87-2.28,1.33-.15,.09-.28,.27-.33,.44-.3,1.04-.57,2.09-.85,3.14-.16,.59-.7,.92-1.27,.76-.57-.15-.85-.7-.69-1.31,.23-.84,.44-1.68,.67-2.52,.08-.27-.02-.36-.27-.42-.85-.22-1.71-.43-2.55-.68-.61-.18-.87-.68-.71-1.27,.14-.52,.64-.82,1.23-.69,.68,.15,1.35,.35,2.02,.53,.38,.1,.75,.2,1.13,.31,.24,.07,.45,.03,.67-.1,.94-.56,1.9-1.1,2.85-1.65,.27-.15,.27-.2,0-.35-.99-.58-1.98-1.16-2.98-1.72-.12-.07-.3-.08-.43-.05-1,.25-2,.53-3,.79-.14,.04-.28,.07-.42,.09-.54,.05-.97-.27-1.08-.79-.11-.5,.16-1.01,.67-1.16,.85-.25,1.72-.48,2.58-.7,.36-.09,.39-.12,.29-.48-.21-.82-.44-1.64-.66-2.46-.16-.61,.13-1.16,.69-1.31,.61-.16,1.13,.19,1.29,.82,.27,1.06,.56,2.12,.85,3.17,.03,.12,.14,.26,.26,.32,1.02,.6,2.06,1.19,3.09,1.78,.03,.02,.07,.03,.15,.06,.01-.13,.03-.24,.03-.34,0-1.11,.01-2.22,0-3.32,0-.18-.1-.4-.22-.53-.75-.77-1.51-1.53-2.28-2.29-.31-.31-.39-.68-.27-1.08,.11-.39,.4-.61,.79-.69,.35-.06,.65,.05,.9,.3,.63,.62,1.26,1.24,1.87,1.87,.18,.19,.29,.21,.49,0,.6-.62,1.21-1.23,1.82-1.83,.6-.59,1.48-.43,1.75,.33,.15,.42,.03,.78-.28,1.09-.75,.75-1.49,1.5-2.24,2.24-.19,.19-.28,.37-.28,.64,.01,1.06,0,2.11,0,3.17,0,.13,.01,.26,.02,.45,.15-.07,.26-.12,.36-.18,.94-.54,1.88-1.09,2.82-1.62,.21-.12,.33-.28,.39-.52,.27-1.04,.55-2.08,.84-3.11,.17-.61,.69-.89,1.28-.73,.53,.14,.82,.67,.67,1.27-.22,.86-.44,1.73-.69,2.58-.07,.24,.01,.32,.21,.37,.8,.21,1.6,.43,2.41,.64,.64,.16,.95,.49,.96,1.03,0,.64-.48,1.11-1.12,1-.59-.1-1.17-.28-1.76-.44-.54-.14-1.09-.3-1.63-.42-.15-.03-.35,0-.49,.08-.99,.56-1.97,1.13-2.96,1.7-.21,.12-.24,.2,0,.33,1.01,.57,2,1.16,3.01,1.73,.13,.07,.32,.08,.46,.05,1-.25,2-.54,3-.78,.29-.07,.64-.08,.92,.02,.43,.15,.6,.53,.56,.99-.03,.4-.27,.74-.68,.86-.87,.25-1.74,.48-2.61,.71-.26,.07-.35,.15-.27,.44,.25,.84,.46,1.7,.68,2.55,.15,.6-.15,1.1-.73,1.26-.5,.14-1.06-.15-1.2-.65-.29-1.04-.58-2.09-.85-3.14-.07-.28-.19-.47-.45-.61-.94-.52-1.87-1.07-2.8-1.6-.09-.05-.18-.09-.31-.17-.02,.15-.05,.25-.05,.35,0,1.1-.01,2.19,0,3.29,0,.19,.11,.42,.24,.56,.72,.75,1.46,1.47,2.19,2.2,.34,.34,.52,.72,.36,1.19-.26,.72-1.11,.91-1.68,.38-.37-.34-.71-.71-1.07-1.06-.26-.26-.53-.51-.78-.79-.2-.22-.33-.25-.56-.01-.59,.63-1.21,1.22-1.82,1.83-.44,.43-1.05,.45-1.46,.05-.41-.4-.41-1.05,.02-1.49,.76-.76,1.53-1.52,2.28-2.29,.12-.12,.22-.31,.22-.47,.02-1.15,.01-2.3,0-3.45,0-.09-.02-.17-.04-.31Z"/><path class="c" d="M27.21,40.01c-2.26-.08-4.12-.64-5.67-2.03-1.22-1.09-1.95-2.47-2.29-4.05-.27-1.25-.34-2.52-.05-3.78,.31-1.32,.96-2.48,1.79-3.54,.61-.78,1.26-1.54,1.91-2.29,1-1.17,1.32-2.52,1.11-4.01-.05-.39-.17-.78-.27-1.17-.13-.49,0-.95,.38-1.21,.36-.25,.82-.24,1.23,.05,1.1,.78,2.16,1.6,2.92,2.74,.91,1.36,1.15,2.86,.89,4.44-.11,.65-.32,1.29-.44,1.94-.05,.27-.02,.57,.03,.85,.08,.4,.42,.66,.81,.68,.61,.03,.97-.15,1.12-.68,.13-.46,.17-.94,.21-1.42,.05-.53,.29-.87,.8-.99,.43-.1,.78,.08,1.06,.41,.77,.92,1.33,1.97,1.72,3.1,1.18,3.35,.5,6.34-1.9,8.92-1.1,1.18-2.55,1.76-4.14,1.96-.48,.06-.96,.06-1.22,.08Zm5.14-10.73c-.14,.17-.24,.3-.35,.42-1.18,1.38-3.55,1.32-4.66-.11-.6-.77-.79-1.66-.65-2.61,.1-.71,.33-1.39,.46-2.1,.23-1.23,0-2.36-.81-3.35-.05-.06-.11-.1-.17-.15-.03,.04-.05,.05-.06,.07-.01,.06-.02,.12-.02,.18-.13,1.57-.7,2.95-1.75,4.14-.72,.81-1.4,1.66-2.05,2.53-.63,.85-1.08,1.79-1.2,2.86-.1,.86,0,1.7,.2,2.53,.3,1.22,.91,2.25,1.93,3.02,1.36,1.03,2.92,1.32,4.59,1.22,1.41-.08,2.66-.58,3.57-1.67,1.59-1.91,2.07-4.07,1.22-6.46-.06-.17-.15-.32-.24-.53Z"/><path class="c" d="M82.21,74.25c-.01,3.19-2.04,5.98-5.13,6.91-3.31,1-6.79-.42-8.45-3.43-.9-1.64-1.09-3.37-.71-5.18,.5-2.38,1.56-4.52,2.76-6.6,.91-1.58,1.91-3.11,3.12-4.48,.33-.37,.7-.7,1.25-.67,.37,.02,.68,.2,.9,.47,.67,.83,1.36,1.65,1.96,2.52,1.29,1.88,2.39,3.87,3.26,5.97,.62,1.48,1.04,3.25,1.04,4.5Zm-7.25,5.17c2.46,.02,4.6-1.71,5.1-4.11,.26-1.21,.05-2.37-.33-3.51-1.01-3.05-2.64-5.76-4.54-8.32-.16-.22-.28-.23-.43,0-.48,.7-1,1.38-1.46,2.09-1.36,2.12-2.57,4.31-3.24,6.76-.28,1.02-.4,2.05-.16,3.1,.55,2.33,2.64,3.98,5.05,3.99Z"/><path class="c" d="M52.18,77.83c-4.1,0-8.2,0-12.31,0-.63,0-1.01-.27-1.13-.78-.13-.6,.25-1.15,.85-1.23,.13-.02,.27-.01,.4-.01,8.16,0,16.33,0,24.49,0,.57,0,.93,.24,1.09,.72,.2,.6-.21,1.24-.85,1.3-.12,.01-.25,0-.37,0-4.06,0-8.12,0-12.18,0Z"/><path class="c" d="M49.83,28.12c4,0,8,0,12,0,.32,0,.61,.03,.86,.25,.31,.28,.43,.71,.3,1.09-.13,.38-.5,.66-.9,.69-.07,0-.14,0-.22,0-8.03,0-16.06,0-24.08,0-.46,0-.83-.15-1.04-.57-.34-.7,.14-1.46,.93-1.46,2.81,0,5.62,0,8.43,0,1.24,0,2.48,0,3.72,0Z"/><path class="c" d="M73.96,48.05c0-3.14,0-6.27,0-9.41,0-.58,.2-.95,.61-1.11,.73-.29,1.42,.19,1.43,1,0,.61,0,1.23,0,1.85,0,5.66,0,11.32,0,16.98,0,.25-.03,.52-.13,.75-.17,.41-.63,.61-1.11,.53-.42-.07-.74-.43-.79-.87-.01-.13-.02-.27-.02-.4,0-3.11,0-6.21,0-9.32Z"/><path class="c" d="M69.1,19.3c1.9,.06,3.52,.45,4.9,1.51,.51,.39,.97,.85,1.59,1.09,1.69,.67,3.37,.72,5.04-.06,.23-.11,.43-.27,.63-.43,.49-.4,1.1-.38,1.49,.05,.37,.42,.33,1.04-.12,1.46-.73,.7-1.64,1.07-2.61,1.3-2,.46-3.93,.23-5.76-.71-.4-.2-.78-.46-1.11-.76-.98-.92-2.17-1.28-3.46-1.39-.9-.08-1.78,.05-2.62,.41-.34,.15-.66,.37-.96,.59-.51,.39-1.09,.37-1.48-.08-.37-.42-.32-1.04,.14-1.46,.84-.78,1.87-1.16,2.97-1.36,.51-.09,1.03-.12,1.37-.16Z"/><path class="c" d="M78.42,35.87c-2.03-.05-3.62-.45-5.02-1.48-.46-.34-.88-.76-1.39-1-1.72-.81-3.49-.9-5.25-.08-.25,.11-.47,.29-.68,.47-.47,.37-1.1,.34-1.46-.08-.38-.45-.32-1.06,.14-1.48,.9-.82,1.99-1.21,3.16-1.39,1.97-.31,3.84,.02,5.56,1.03,.27,.16,.53,.35,.76,.56,1.39,1.26,3.05,1.55,4.84,1.31,.84-.11,1.61-.42,2.28-.99,.42-.36,1.03-.26,1.38,.15,.34,.4,.31,1.01-.08,1.4-.69,.68-1.55,1.07-2.48,1.29-.68,.16-1.39,.23-1.77,.29Z"/><path class="c" d="M69.18,24.99c1.98,.1,3.81,.54,5.31,1.94,.63,.59,1.43,.86,2.26,1.04,1.18,.27,2.35,.19,3.47-.25,.37-.15,.71-.39,1.04-.63,.43-.31,.89-.36,1.28-.09,.38,.26,.58,.76,.35,1.19-.16,.3-.43,.57-.71,.78-.79,.59-1.7,.89-2.66,1.06-1.76,.31-3.46,.08-5.06-.71-.51-.25-.99-.58-1.42-.95-1.3-1.1-2.81-1.42-4.44-1.29-.74,.06-1.45,.25-2.09,.65-.15,.09-.28,.2-.42,.31-.48,.4-1.1,.38-1.48-.07-.38-.44-.31-1.06,.15-1.48,.91-.81,2.02-1.19,3.2-1.39,.4-.07,.81-.09,1.22-.13Z"/><path class="c" d="M28.3,50.68c0,2.48,0,4.96,0,7.45,0,.75-.63,1.21-1.34,.99-.39-.12-.6-.42-.67-.81-.03-.14-.03-.29-.03-.43,0-4.86,0-9.72,.01-14.58,0-.29,.11-.61,.28-.84,.24-.35,.72-.42,1.11-.27,.41,.16,.63,.49,.63,.99,0,1.95,0,3.9,0,5.85,0,.55,0,1.11,0,1.66Z"/><path class="c" d="M59.4,52.94c.03,4.55-3.64,8.29-8.17,8.31-4.61,.03-8.35-3.63-8.37-8.17-.02-4.62,3.63-8.36,8.2-8.38,4.59-.03,8.31,3.65,8.33,8.24Zm-14.5,.01c-.04,3.4,2.75,6.22,6.18,6.27,3.38,.04,6.25-2.74,6.29-6.1,.04-3.51-2.71-6.35-6.18-6.39-3.44-.03-6.25,2.74-6.29,6.22Z"/></g></g></svg>