<svg id="ej8fwzX2B511" xmlns="http://www.w3.org/2000/svg" xmlns:xlink="http://www.w3.org/1999/xlink" viewBox="0 0 100 100" shape-rendering="geometricPrecision" text-rendering="geometricPrecision"><circle r="46.52" transform="translate(50 50)" fill="none" stroke="#a7a9ac" stroke-width="3.76" stroke-miterlimit="10"/><path id="ej8fwzX2B513" d="M41.69,16.51c2.47,1.45,3.72,4.37,3.1,7.17-1.77,7.93-13.41,6.77-13.41-1.35c0-5.38,5.63-8.55,10.31-5.82Z" fill="#a7a9ac" stroke-width="0"/><path id="ej8fwzX2B514" d="M32.55,28.02c1.5,1.5,2.85,2.07,5.32,2.25l2.23.15.35,1.55c.2.83.73,3.97,1.18,6.93.45,2.98,1.22,6.57,1.7,8c.93,2.8.82,3.85-.52,4.27-2.87.92-5.45-8.58-3.78-13.91.45-1.43.72-2.75.6-2.93-1-1.62-3.15,6.53-3.15,11.93v2.42h-3c-2.95,0-3-.02-3-.8c0-.45-.08-1.03-.18-1.3-.13-.33.28-.72,1.32-1.22c6.88-3.33,4.95-15.01-2.48-15.01-2.13,0-.05-3,2.3-3.32.05-.02.55.43,1.12,1l-.01-.01Z" fill="#a7a9ac" stroke-width="0"/><path id="ej8fwzX2B515" d="M31.05,32.19c6.57,3.27,3.92,13.2-3.4,12.75-7.15-.43-8.9-10-2.37-12.96c1.9-.87,3.75-.8,5.77.22v-.01Z" fill="#a7a9ac" stroke-width="0"/><path id="ej8fwzX2B516" d="M74.74,31.85c4.57,1.9,5.72,7.85,2.18,11.21-4.4,4.18-11.5,1.17-11.5-4.9c0-4.88,4.85-8.16,9.31-6.32l.01.01Z" fill="#a7a9ac" stroke-width="0"/><path d="M58.95,34.09c.07.23.38,3.27.68,6.75.32,3.48.65,6.67.75,7.08l.17.75h-15.36l-.83-2.6c-.77-2.47-.8-2.82-.52-6.92.17-2.37.3-4.58.3-4.9.02-.75,14.6-.92,14.81-.17v.01Z" fill="#a7a9ac" stroke-width="0"/><path d="M23.66,44.87c1.08.8,3.15,1.47,4.57,1.47c2.38,0,1.63,3.62-2,9.5-1.57,2.57-3.6,5.87-4.48,7.33-1.85,3.05-1.98,3.1-3.33,1.43-1.47-1.82-1.48-3.15-.1-10.93c1.38-7.68,1.6-8.41,2.77-9.33.87-.68.97-.67,2.58.53h-.01Z" fill="#a7a9ac" stroke-width="0"/><path d="M79.06,44.18c1.15.8,1.27,1.17,2.75,9.15c1.62,8.76,1.43,11.03-1,12.33-.9.48-9.61-13.68-9.9-16.05-.32-2.65-.03-3.17,1.87-3.38c1.75-.2,3.95-1.17,4.68-2.05.53-.65.68-.65,1.6,0Z" fill="#a7a9ac" stroke-width="0"/><path d="M38.27,46.75c.47,1.83.47,1.92-.15,1.92-.57,0-.63-.25-.6-2.25.02-2.47.05-2.45.75.33Z" fill="#a7a9ac" stroke-width="0"/><path d="M39.97,51.17c1.67,1.77,5.18,1.22,5.18-.82c0-.23,3.87-.35,11.96-.35h11.96l5.6,9.25c3.08,5.08,6.17,10.13,6.87,11.21s1.27,2.1,1.27,2.25-4.95.28-11,.28h-11v-2.4c0-1.93-.28-3.25-1.4-6.67l-1.42-4.27h-15.8l-1.35,4.08c-1.1,3.28-1.37,4.57-1.37,6.52c0,3.03,1.17,2.77-11.56,2.65l-10.73-.08l3.08-5c1.7-2.75,4.85-7.88,7.02-11.41l3.92-6.42h7.67l1.1,1.17v.01Z" fill="#a7a9ac" stroke-width="0"/><path d="M58.18,63.95c.52,1.52,1.02,3.02,1.12,3.33.17.5-.58.55-9.15.55-5.13,0-9.33-.07-9.33-.15s.48-1.62,1.07-3.42l1.08-3.28l7.15.1l7.13.08.93,2.78v.01Z" fill="#a7a9ac" stroke-width="0"/><ellipse rx="9.66" ry="0.67" transform="translate(50.15 69.66)" fill="#a7a9ac" stroke-width="0"/><polygon points="59.81,72.16 59.81,73 50.15,73 40.49,73 40.49,72.16 40.49,71.33 50.15,71.33 59.81,71.33 59.81,72.16" fill="#a7a9ac" stroke-width="0"/><polygon points="83.48,75.74 83.48,77.49 50.15,77.49 16.82,77.49 16.82,75.74 16.82,74 50.15,74 83.48,74 83.48,75.74" fill="#a7a9ac" stroke-width="0"/><path d="M57.7,51.6c-.22.35,2.02,5.4,2.77,6.23.87.97,1.25,1.82,1.52,3.42l.23,1.43l5.72-.1l5.72-.08-.12-1.17c-.12-1.35-1.13-3.8-1.7-4.15-.22-.13-.97-1.5-1.68-3.05l-1.28-2.8h-5.52c-3.02,0-5.57.12-5.65.27h-.01Z" fill="#a7a9ac" stroke-width="0"/><path d="M68.96,54.2c.47,1.03.85,1.9.85,1.92c0,.03-2.05.03-4.55.03l-4.55-.03-.78-1.77c-.43-.97-.78-1.82-.78-1.9c0-.07,2.02-.12,4.48-.12h4.47l.87,1.87h-.01Z" fill="#a7a9ac" stroke-width="0"/><path d="M71.43,58.58c.33.68.72,1.67.85,2.17l.22.92h-4.68c-4.62,0-4.67,0-4.67-.75-.02-.42-.3-1.38-.65-2.17l-.65-1.42h8.95l.63,1.25Z" fill="#a7a9ac" stroke-width="0"/><path d="M30.24,54.08c-.18.23-.77,1.38-1.28,2.58-.53,1.18-1.23,2.43-1.58,2.78-1.07,1.07-2.4,5.55-1.67,5.55c1.42.02,10.71.03,11.03.02.23,0,.42-.33.42-.73c0-1.25.75-3.28,1.52-4.05.77-.78,2.82-5.15,2.82-6.03c0-.7-10.7-.82-11.25-.12h-.01Z" fill="#a7a9ac" stroke-width="0"/><path d="M39.32,56.75L38.5,58.5l-4.55.1c-3.58.07-4.52,0-4.38-.33.1-.23.43-1.07.75-1.85L30.89,55h9.23l-.8,1.75Z" fill="#a7a9ac" stroke-width="0"/><path d="M36.82,60.98c-.37.73-.67,1.7-.67,2.17v.85h-9.4l.2-.82c.85-3.37,1.1-3.52,6.23-3.52h4.32l-.68,1.32Z" fill="#a7a9ac" stroke-width="0"/><path d="M64.15,64.35c0,1.83,7.33,6.98,9.93,6.98c1.38,0,2.4-1.73,1.85-3.15-.75-1.97-11.78-5.55-11.78-3.83Z" fill="#a7a9ac" stroke-width="0"/><path d="M71.65,66.91c3.22,1.58,4.42,3.08,2.5,3.08-.7,0-6.67-2.87-6.67-3.2c0-1.68.58-1.67,4.17.12Z" fill="#a7a9ac" stroke-width="0"/><path d="M25.99,66.4c-1.4.8-1.63,2.57-.43,3.42c2.13,1.48,12.26.18,12.26-1.58s-9.51-3.15-11.83-1.83v-.01Z" fill="#a7a9ac" stroke-width="0"/><path d="M33.82,68.33v1h-3.48c-3.62,0-4.73-.4-4.3-1.52.15-.38.95-.48,3.98-.48h3.8v1Z" fill="#a7a9ac" stroke-width="0"/> 
</svg>
