<svg id="eyrvcMCApsz1" xmlns="http://www.w3.org/2000/svg" xmlns:xlink="http://www.w3.org/1999/xlink" viewBox="0 0 100 100" shape-rendering="geometricPrecision" text-rendering="geometricPrecision"><path d="M50,92.2C26.7,92.2,7.8,73.3,7.8,50s18.9-42.2,42.2-42.2s42.2,18.9,42.2,42.2c0,0,0,0,0,0c0,23.3-18.9,42.2-42.2,42.2ZM50,9.4C27.6,9.4,9.4,27.6,9.4,50s18.2,40.6,40.6,40.6s40.6-18.2,40.6-40.6C90.5,27.6,72.4,9.5,50,9.4v0Z" fill="#a7a9ac"/><path id="eyrvcMCApsz3" d="M77,47.8v4.4c-.1.9-.2,1.8-.4,2.6C74.4,65.5,68,72.6,57.7,76c-1.8.5-3.6.9-5.4,1h-4.5c-.1,0-.2-.1-.4-.1-1.6-.2-3.2-.5-4.7-.9-9.8-2.8-17.2-10.8-19.2-20.8-.5-2.5-.6-5-.4-7.5.3-3.8,1.4-7.4,3.3-10.7c5.5-9.9,16.8-15.8,28.5-13.5c10.7,2.1,17.8,8.6,21.2,19c.4,1.7.8,3.5.9,5.3ZM44.2,26l-.5.1c-5.4,1.4-10.1,4.6-13.5,9.1-.2.2-.2.6,0,.8c2.8,3.6,5.8,6.9,9.2,9.9c5.1,4.7,10.9,8.7,17.1,11.8.4.2.5.2.7-.2.5-1.1,1-2.1,1.4-3.2.3-.7.3-.7-.4-.9-3.1-.9-5.6-3.1-6.9-6-.8-1.9-1.4-3.8-1.8-5.8-.6-2.7-1-5.5-1.8-8.2-.7-2.5-1.7-4.8-3.2-7c0-.2-.1-.5-.3-.4ZM28.7,37.7c-.2,0-.2.2-.3.4-1.6,2.9-2.6,6.1-2.9,9.4-.2,2-.2,4.1.1,6.1c0,.3.2.6.5.7.5.4,1,.8,1.6,1.2c3.4,2.3,7.2,3.7,11.3,4.1c2,.2,4.1.4,6.1.6c3,.2,6,1,8.8,2.2.2.1.5.1.6-.1c0,0,0,0,0-.1.4-.6.8-1.2,1.2-1.8s.4-.7-.3-1c-7.2-3.7-13.8-8.5-19.6-14.2C33.3,43.1,31,40.6,29,38c-.1-.1-.2-.2-.3-.3Zm32.9-.4c0-2.9-.2-5.8-.6-8.7c0-.6-.4-1.1-1-1.3-4-1.7-8.4-2.4-12.7-1.9-.4,0-.4.2-.2.5c2,3.3,3.1,7,3.9,10.7.6,2.8,1,5.6,1.9,8.3c1,3.1,3,5.3,6.3,6.3.5.1.6.1.8-.4c1.1-4.4,1.7-8.9,1.6-13.5ZM26.5,57.6c.1.2.1.3.1.4c2.3,6.9,7.5,12.3,14.3,15c.2.1.5.1.7,0c4-2,7.6-4.7,10.6-8c.4-.4.4-.5-.2-.7-2.1-.9-4.2-1.4-6.4-1.6-2.5-.3-5-.4-7.5-.7-3.2-.4-6.3-1.4-9.2-2.9-.8-.5-1.6-.9-2.4-1.5ZM72.9,41.5c0-.5.1-.8,0-1.2-1.9-4.4-5-8.2-9.1-10.9-.1-.1-.2-.2-.4-.1-.1.1,0,.2,0,.3.3,2.2.4,4.4.5,6.6c0,1.4,0,2.7-.1,4-.1,1.9-.3,3.9-.6,5.8-.3,1.6-.6,3.2-1.1,4.8-.1.4-.1.5.4.5c1.4-.2,2.8-.6,4.1-1.2c3.8-1.6,6-4.5,6.3-8.6Zm1.5,4.1c-.1.1-.2.2-.3.4-.7,1.6-1.7,3-3.1,4.2-2.6,2.2-5.7,3.2-9.1,3.6-.4,0-.8.3-1,.7-.5,1.3-1,2.6-1.7,3.9-.2.4-.1.6.3.8c3.6,1.5,7.3,2.7,11,3.6.3.1.7,0,.8-.4c2.2-3.8,3.3-8.1,3.3-12.5.2-1.4.1-2.9-.2-4.3Zm-30,28.6c1.1.3,2.1.4,3.2.5c3.3.3,6.5,0,9.7-1c.2,0,.3-.1.4-.3.8-1.3,1.3-2.7.6-4.2-.6-1.4-1.7-2.5-3-3.3-.6-.4-.7-.4-1.2.2-2.7,3.1-5.8,5.7-9.4,7.7c0,.1-.2.1-.3.4ZM60.8,72c0,.4.2.2.4.1c3.3-1.6,6.2-4,8.4-6.9.2-.3.2-.5-.2-.5-.8-.2-1.6-.4-2.4-.6-2.9-.8-5.7-1.8-8.5-3.1-.4-.2-.6-.1-.9.3-.3.5-.6.9-.9,1.4-.7,1-.7,1,.3,1.7c2.7,1.9,4.4,4.2,3.8,7.6v0Z" fill="#a7a9ac"/> 
</svg>
