<svg id="eytTcYi20F11" xmlns="http://www.w3.org/2000/svg" xmlns:xlink="http://www.w3.org/1999/xlink" viewBox="0 0 100 100" shape-rendering="geometricPrecision" text-rendering="geometricPrecision"><path id="eytTcYi20F12" d="M50.02,42.06c10.89,0,21.78,0,32.67,0q.55,0,.55.53c0,12.12,0,24.25,0,36.37c0,.17,0,.34,0,.51-.04.59-.47,1.02-1.03,1.02-.15,0-.29,0-.44,0-21.17,0-42.34,0-63.52,0-.15,0-.29,0-.44,0-.56,0-.99-.44-1.03-1.02-.01-.14,0-.29,0-.44c0-12.16,0-24.32,0-36.48q0-.5.5-.5c10.91,0,21.83,0,32.74,0v.01Zm3.45,17.19c.03-.11.03-.17.06-.22.72-1.58,1.45-3.16,2.17-4.75.3-.65.58-1.3.87-1.95.13-.3.1-.59-.06-.87-.23-.43-.62-.55-1.07-.55-2.59,0-5.18,0-7.77,0-.55,0-.92.25-1.13.75-.21.48-.41.95-.62,1.43-1.14,2.6-2.28,5.2-3.42,7.8-.3.69-.61,1.37-.9,2.06-.24.56-.09,1.13.39,1.39.2.11.46.15.69.16.73.02,1.45,0,2.18,0c.3,0,.35.07.25.35-.13.38-.26.75-.39,1.13-.59,1.73-1.18,3.45-1.76,5.18-.15.43-.31.87-.42,1.31-.17.75.53,1.41,1.27,1.19.21-.06.41-.2.58-.35c1.37-1.19,2.73-2.4,4.09-3.6c3-2.65,6-5.3,9-7.95.27-.24.56-.47.8-.73.52-.55.33-1.39-.37-1.67-.17-.07-.38-.08-.57-.08-1.15,0-2.3,0-3.45,0-.14,0-.28-.02-.44-.03h.02Z" fill="#77787b" stroke-width="0"/><path d="M50,39.97c-11.28,0-22.55,0-33.83,0-.3,0-.61,0-.91-.03-1.02-.08-1.81-.91-1.87-1.93c0-.13,0-.27,0-.4c0-1.72,0-3.44,0-5.15c0-.9.39-1.56,1.19-1.96.24-.12.53-.16.8-.22.13-.03.27-.01.4-.01c22.82,0,45.64,0,68.45,0c.45,0,.9.04,1.3.27.66.38,1.03.94,1.08,1.7c0,.07,0,.15,0,.22c0,1.78,0,3.56,0,5.34c0,.83-.33,1.48-1.06,1.89-.23.13-.51.21-.78.25-.31.05-.63.04-.94.04-11.28,0-22.55,0-33.83,0v-.01Z" fill="#77787b" stroke-width="0"/><path id="eytTcYi20F14" d="M35.62,24.21c.2,0,.33,0,.47,0c.54,0,1.09.02,1.63,0c.53-.02,1.12.42,1.11,1.09-.01.85,0,1.69,0,2.54c0,.31-.03.33-.33.34-.07,0-.15,0-.22,0-5.09,0-10.19,0-15.28,0q-.54,0-.54-.53c0-.75,0-1.5,0-2.25c0-.78.41-1.19,1.18-1.19.53,0,1.06,0,1.6,0c.43,0,.43,0,.43-.42c0-1.04,0-2.08,0-3.12c0-.33.08-.62.32-.86.19-.18.41-.3.68-.3.07,0,.15,0,.22,0c2.5,0,5.01,0,7.51,0c.19,0,.4.01.57.08.44.19.65.56.65,1.04c0,1.04,0,2.08,0,3.12c0,.13,0,.26,0,.45v.01Z" fill="#77787b" stroke-width="0"/><path id="eytTcYi20F15" d="M74.33,24.21c.19,0,.33,0,.46,0c.54,0,1.09,0,1.63,0c.68,0,1.11.43,1.12,1.11c0,.85,0,1.69,0,2.54c0,.28-.04.31-.32.32-.08,0-.17,0-.25,0-5.08,0-10.16,0-15.24,0-.58,0-.56.02-.56-.55c0-.75,0-1.5,0-2.25s.42-1.16,1.17-1.16c.57,0,1.14,0,1.71,0c.31,0,.33-.02.33-.33c0-1.06,0-2.13,0-3.19c0-.29.06-.55.24-.78.21-.26.48-.39.82-.39.81,0,1.62,0,2.43,0c1.78,0,3.56.01,5.33,0c.5,0,.97.32,1.09.83.03.14.03.29.03.43c0,.99,0,1.98,0,2.98c0,.13,0,.26,0,.46l.01-.02Z" fill="#77787b" stroke-width="0"/><path d="M53.47,59.25c.16.01.3.03.44.03c1.15,0,2.3,0,3.45,0c.19,0,.39.02.57.08.7.28.89,1.12.37,1.67-.25.26-.53.49-.8.73-3,2.65-6,5.3-9,7.95-1.36,1.2-2.72,2.4-4.09,3.6-.17.15-.37.29-.58.35-.74.22-1.45-.44-1.27-1.19.1-.45.27-.88.42-1.31.59-1.73,1.17-3.46,1.76-5.18.13-.38.26-.75.39-1.13.09-.28.05-.35-.25-.35-.73,0-1.45.01-2.18,0-.23,0-.49-.05-.69-.16-.49-.27-.63-.83-.39-1.39.29-.69.6-1.37.9-2.06c1.14-2.6,2.28-5.2,3.42-7.8.21-.48.42-.95.62-1.43.22-.5.58-.75,1.13-.75c2.59,0,5.18,0,7.77,0c.45,0,.84.12,1.07.55.15.28.19.57.06.87-.29.65-.58,1.3-.87,1.95-.72,1.58-1.45,3.17-2.17,4.75-.02.05-.03.11-.06.22h-.02Z" fill="#fff" stroke-width="0"/> 
</svg>
