<svg id="eXUK6xGcePM1" xmlns="http://www.w3.org/2000/svg" xmlns:xlink="http://www.w3.org/1999/xlink" viewBox="0 0 100 100" shape-rendering="geometricPrecision" text-rendering="geometricPrecision"><path id="eXUK6xGcePM2" d="M83.86,60.7c.53-3.68-.46-6.83-3.18-9.34-1.89-1.74-4.17-2.61-6.75-2.59-3.13.02-5.74,1.23-7.74,3.63s-2.67,5.19-2.19,8.26c-.29.09-24.95.11-25.48.03c0-.11,0-.23.02-.35.65-4.08-1.37-8.3-5.11-10.33-2-1.09-4.14-1.49-6.39-1.11-3.6.61-6.17,2.6-7.68,5.91-.81,1.75-1.04,3.62-.73,5.54.02.11.02.22.03.34-.09.02-.15.05-.2.05-.8,0-1.61.04-2.41-.11-1.66-.31-3.04-1.11-4.12-2.4-.76-.9-1.22-1.95-1.48-3.1-.12-.54-.15-1.07-.15-1.61c0-2.18,0-4.36,0-6.54.01-2.72,1.82-4.9,4.19-5.56.54-.15,1.08-.21,1.64-.21c1.61,0,3.22,0,4.84,0c.29,0,.49-.08.68-.31c2.54-2.99,5.08-5.96,7.62-8.94.68-.8,1.44-1.51,2.4-1.98.57-.27,1.16-.46,1.77-.62s1.22-.15,1.84-.15c5.86,0,11.71.01,17.57,0c1.92,0,3.59.61,5.06,1.84c3.79,3.16,7.6,6.31,11.4,9.46.12.1.24.19.34.29.3.31.67.46,1.1.53c1.55.27,3.1.55,4.65.83c1.31.24,2.62.49,3.94.73c1.26.23,2.53.45,3.79.69.79.15,1.59.26,2.37.47c1.92.52,3.21,1.76,3.88,3.64.25.69.35,1.41.34,2.15-.02,1.73.02,3.45-.02,5.18-.05,2.16-1.01,3.84-2.87,4.96-.8.49-1.68.72-2.62.76-.1,0-.2,0-.35-.02v-.02ZM53.26,41.2c0,0,0,.02,0,.03c2.91,0,5.82,0,8.73,0c.15,0,.3,0,.45-.01.36-.02.62-.22.76-.54.15-.35.12-.7-.15-.99-.12-.13-.25-.25-.39-.36-2.67-2.11-5.34-4.21-8.01-6.31-.41-.32-.87-.49-1.39-.49-2.93,0-5.87.02-8.8,0-1.14,0-2.06.87-2.03,2.02.02.79,0,1.59,0,2.38c0,.78,0,1.56,0,2.34c0,.44.13.85.4,1.19.4.51.93.74,1.58.74c2.95,0,5.89,0,8.84,0h.01Zm-21.23,0c1.32,0,2.64,0,3.96,0c.39,0,.75-.06,1.08-.27.6-.37.94-.91.94-1.62.01-1.62.02-3.25,0-4.87-.01-1.1-.82-1.88-1.93-1.9-.6-.01-1.21.01-1.81,0-.76-.03-1.35.28-1.84.86-1.69,2-3.4,3.99-5.09,5.98-.11.12-.22.25-.3.39-.32.52-.11,1.15.46,1.37.16.06.34.07.52.07c1.33,0,2.67,0,4,0l.01-.01Zm14.21,3.16c0,0,0,0,0,0-.48,0-.96-.03-1.43,0-.95.06-1.71.88-1.73,1.83-.02.97.71,1.85,1.67,1.91.98.05,1.96.05,2.94,0c.93-.05,1.66-.9,1.67-1.83.01-1-.77-1.85-1.77-1.9-.45-.03-.91,0-1.36,0l.01-.01Z" fill="#a7a9ac" stroke-width="0"/><path d="M73.89,67.04c-4.65-.1-8.23-3.83-8.15-8.37.09-4.49,3.75-8.04,8.21-8.02c4.55.02,8.2,3.73,8.15,8.28-.05,4.47-3.64,8.06-8.21,8.12v-.01Zm3.81-8.22c-.02-2.12-1.73-3.79-3.87-3.76-2.04.04-3.71,1.75-3.68,3.83.02,2.08,1.75,3.74,3.87,3.72c2.02-.02,3.7-1.76,3.68-3.79Z" fill="#a7a9ac" stroke-width="0"/><path d="M28.57,67.04c-4.66-.09-8.25-3.81-8.17-8.35.08-4.51,3.75-8.07,8.23-8.04c4.53.03,8.17,3.72,8.13,8.25-.04,4.49-3.63,8.07-8.19,8.14Zm3.79-8.16c0-2.11-1.67-3.82-3.76-3.82-2.06,0-3.78,1.68-3.79,3.73-.01,2.12,1.68,3.82,3.8,3.82c2.03,0,3.74-1.7,3.74-3.73h.01Z" fill="#a7a9ac" stroke-width="0"/> 
</svg>
