<svg id="eDmPhFfzI9e1" xmlns="http://www.w3.org/2000/svg" xmlns:xlink="http://www.w3.org/1999/xlink" viewBox="0 0 150 150" shape-rendering="geometricPrecision" text-rendering="geometricPrecision"><path d="M75,147.05c-29.164049.012132-55.462414-17.548667-66.627682-44.490803s-4.997627-57.957388,15.625903-78.578056s51.639637-26.784005,78.580223-15.614997s44.497736,37.469809,44.481556,66.633856c-.071567,39.766337-32.293653,71.983952-72.06,72.05ZM75,5.69C36.744543,5.673438,5.718425,36.67121,5.70002,74.926666s30.977869,69.283068,69.233324,69.303318s69.284562-30.97453,69.306656-69.229984C144.212491,36.759864,113.240088,5.75615,75,5.69Z" fill="#2c498a"/><path id="eDmPhFfzI9e3" d="M65.66,53.16h-25.42c-1.45,0-1.65-.21-1.66-1.65c0-3.26,0-6.51,0-9.77c0-1.29.24-1.53,1.56-1.54h6.32c14.62,0,29.25,0,43.87,0c6.873923-.185848,13.37288,3.127641,17.26,8.8c2.063802,2.898681,3.316891,6.295484,3.63,9.84c1.039031,10.787251-6.457526,20.53496-17.15,22.3-1.322798.209974-2.660681.310315-4,.3-10.24,0-20.49,0-30.73,0-2.810714-.113414-5.459062,1.316905-6.905515,3.729528s-1.460161,5.422502-.035743,7.8482s4.059627,3.88008,6.871258,3.792272c16.68-.06,33.37,0,50,0c2,0,2,.07,2,2v9.48c0,1.19-.26,1.46-1.49,1.46h-5.24c-15,0-30,0-45,0-6.89499.185227-13.414482-3.134745-17.32-8.82-2.063802-2.898681-3.316891-6.295484-3.63-9.84-1.028038-10.821979,6.525952-20.58177,17.26-22.3c1.322525-.213277,2.660406-.316963,4-.31c10.25,0,20.49,0,30.74,0c3.618084.031089,6.7838-2.426996,7.65-5.94.517703-2.221969.016649-4.559048-1.366436-6.373501s-3.503842-2.916896-5.783564-3.006499c-8.48,0-17,0-25.43,0ZM83.23,108q12.78,0,25.56,0c.69,0,.91-.19.9-.89c0-2.46,0-4.93,0-7.39c0-1.17,0-1.18-1.17-1.18h-48c-.72,0-1.43,0-2.15-.08-5.020898-.508303-8.744518-4.890552-8.435576-9.927649s4.540194-8.931446,9.585576-8.822351h30.69c1.217123.035359,2.435019-.034904,3.64-.21c9.065028-1.503718,15.734981-9.309416,15.806536-18.498039s-6.476026-17.097249-15.516536-18.741961c-2.135219-.271424-4.28985-.358412-6.44-.26q-23.24,0-46.46,0c-1,0-1,0-1,1v7.33c0,1.13,0,1.13,1.13,1.13h47.9c.79,0,1.57,0,2.36.09c5.024073.507088,8.749907,4.892957,8.438101,9.93292s-4.549836,8.933134-9.598101,8.81708q-15.36,0-30.73,0c-1.315653-.021252-2.630649.072438-3.93.28-5.856512,1.040051-10.877277,4.786105-13.542094,10.103923s-2.660334,11.58208.012094,16.896077c3.5,6.81,9.24,10.38,17,10.46c7.96-.04,15.95-.04,23.95-.04Z" opacity="0" fill="#2c498a"/><g id="eDmPhFfzI9e4" transform="translate(0 0.000001)" opacity="0"><path d="M49.16,47.58c-.27822-.018845-.555265-.052224-.83-.1-.39926-.071053-.677468-.436201-.64-.84.013092-.377338.288221-.694153.66-.76.565163-.105018,1.144837-.105018,1.71,0c.431746.015972.774961.367988.78.8.01711.456594-.333877.843123-.79.87-.295762.02838-.592998.038399-.89.03Z" fill="#2c498a"/><path d="M43.59,47.56c-.73,0-1.19-.32-1.2-.84s.48-.92,1.22-.91s1.18.33,1.2.85-.47.9-1.22.9Z" fill="#2c498a"/><path d="M52.88,76.84c.027329.196398-.035092.394677-.17.54-.497624.463537-1.077609.829843-1.71,1.08-.35617.139014-.758461-.028976-.91-.38-.220666-.31707-.1644-.749888.13-1c.432047-.425457.941099-.764825,1.5-1c.254163-.143872.567404-.133702.811699.026354s.378707.443175.348301.733646Z" fill="#2c498a"/><path d="M92.52,75.72c-.73,0-1.15-.19-1.19-.77s.31-.81.82-.89l1.26-.2c.215343-.059883.445919-.026947.635884.090832s.321996.309658.364116.529168c.066712.221593.031583.461368-.095892.654511s-.334131.319711-.564108.345489c-.47.13-.95.19-1.23.24Z" fill="#2c498a"/><path d="M99.85,72.29c.001604.242017-.109227.471068-.3.62-.411223.361359-.872696.661148-1.37.89-.188321.108396-.412975.134439-.6211.072001s-.381345-.207842-.4789-.402001c-.119189-.17041-.160042-.383565-.112305-.585968s.17953-.374839.362305-.474032c.413784-.319211.855583-.600355,1.32-.84.250835-.152965.565836-.154097.817764-.00294s.399165.429632.382236.72294Z" fill="#2c498a"/><path d="M48.82,99.56c-.876732-.335503-1.529037-1.085278-1.74-2c.033037-.290605.222028-.540018.492861-.650434s.580336-.064236.807139.120434c.451846.421485.84835.898634,1.18,1.42.129101.246191.113487.543225-.040713.774525s-.422379.359956-.699287.335475Z" fill="#2c498a"/><path d="M45.49,91.43c.88.17.76,1,1,1.66.17.46.24,1-.26,1.27-.171712.138371-.396773.191703-.612319.145099s-.39847-.18815-.497681-.385099c-.336974-.577279-.519509-1.23165-.53-1.9-.01-.51.32-.77.9-.79Z" fill="#2c498a"/><path d="M105.61,62.51c-.004299.457792-.075036.912534-.21,1.35-.03648.204552-.153066.386096-.323901.504366s-.381797.163491-.586099.125634c-.206615-.020028-.396391-.12263-.526296-.284541s-.188935-.369415-.163704-.575459c0-.45.09-.89.15-1.34s.34-1,1-.89.72.51.66,1.11Z" fill="#2c498a"/><path d="M103.85,67.81c-.222913.816509-.69908,1.541264-1.36,2.07-.29485.124526-.636234.048217-.85-.19-.285366-.211734-.363268-.605569-.18-.91.27829-.49755.585482-.978373.92-1.44.199974-.289698.576345-.398428.9-.26.315993.111506.538444.3964.57.73Z" fill="#2c498a"/><path d="M95.46,47.81c-.019237-.256707.087808-.506688.286868-.669917s.465167-.219233.713132-.150083c.549289.158831,1.069319.405339,1.54.73.403168.218152.553152.721832.335,1.125s-.721832.553152-1.125.335c-.44-.2-.86-.41-1.29-.63-.291571-.127849-.474394-.421956-.46-.74Z" fill="#2c498a"/><path d="M102.87,52.35c.014419.318497-.174098.611299-.47.73-.279057.168003-.637591.117975-.86-.12-.404252-.43244-.784808-.886437-1.14-1.36-.198484-.256038-.198484-.613962,0-.87.172526-.27134.495494-.406907.81-.34.795317.402349,1.394061,1.1093,1.66,1.96Z" fill="#2c498a"/><path d="M103.36,56.56c0-.63.17-.94.6-1c.382662-.117042.791198.078533.94.45.233299.523822.385056,1.080263.45,1.65.044302.201728.005707.412797-.107117.585793s-.290416.293416-.492883.334207c-.202374.08159-.43044.069705-.623237-.032478s-.330669-.284245-.376763-.497522c-.15-.57-.29-1.13-.39-1.49Z" fill="#2c498a"/><path d="M58.64,102.35c.404457-.024128.810094.019816,1.2.13.325536.117952.536327.43414.52.78.018445.348029-.205282.662904-.54.76-.702405.169444-1.438904.13123-2.12-.11-.31291-.104633-.49779-.427099-.43-.75.008339-.375683.280156-.693499.65-.76.238075-.037696.478999-.054427.72-.05Z" fill="#2c498a"/><path d="M44.28,87.42c.07-.4.12-.8.2-1.2.066274-.455635.489365-.771274.945-.705s.771274.489365.705.945c0,.38-.1.75-.15,1.13-.08.67-.46,1.08-1,1s-.71-.43-.7-1.17Z" fill="#2c498a"/><path d="M47.6,80.05c.265675-.034482.531214.06463.709323.264752s.245747.475367.180677.735248c-.245725.624066-.605145,1.197104-1.06,1.69-.243698.252752-.630126.302614-.93.12-.33348-.126528-.515566-.486364-.42-.83.21654-.707381.625009-1.340854,1.18-1.83.09-.11.26-.12.34-.15Z" fill="#2c498a"/><path d="M57.37,74.21c.74,0,1.13.22,1.17.76s-.28.82-.81.9-.89.18-1.34.22c-.215219.037391-.436417-.01373-.613405-.141764s-.29476-.322125-.326595-.538236c-.053598-.202122-.020381-.417443.091638-.594015s.292667-.298361.498362-.335985c.51-.13,1.03-.21,1.33-.27Z" fill="#2c498a"/><path d="M94.69,102.37c.336634-.02703.675384.006845,1,.1.359042.099252.597793.438531.57.81.006666.346405-.224816.652292-.56.74-.655151.175241-1.344849.175241-2,0-.341344-.08044-.57935-.389431-.57-.74-.021305-.36651.209587-.70048.56-.81.323998-.096332.663342-.130266,1-.1Z" fill="#2c498a"/><path d="M76.72,104.13c-.22,0-.43,0-.64,0-.5-.08-.87-.31-.86-.87s.4-.79.89-.84c.425729-.04001.854271-.04001,1.28,0c.52,0,.93.27.92.87s-.4.78-.88.84c-.236429.014991-.473571.014991-.71,0Z" fill="#2c498a"/><path d="M53.65,103c-.696056-.189825-1.341485-.531322-1.89-1-.262739-.238763-.297583-.639469-.08-.92.162933-.344808.56123-.509322.92-.38.554212.218748,1.089371.482983,1.6.79.31843.161105.458147.540959.32.87-.112622.385025-.468905.647118-.87.64Z" fill="#2c498a"/><path d="M81,75.85c-.336527.019883-.674074-.013872-1-.1-.361589-.086376-.60983-.418767-.59-.79-.023212-.370107.227545-.701616.59-.78.556134-.141199,1.136529-.15827,1.7-.05.218385.002546.426489.093172.57711.251324s.230994.370426.22289.588676c0,.53-.35.75-.81.84-.229067.026278-.459431.039633-.69.04Z" fill="#2c498a"/><path d="M63.1,75.85c-.366294.021645-.733759-.012067-1.09-.1-.357032-.093224-.60197-.421192-.59-.79-.018047-.371865.235947-.702058.6-.78.556088-.141526,1.136555-.158599,1.7-.05.217548.002447.424717.09339.573767.251874s.227125.370837.216233.588126c0,.52-.34.75-.8.84-.202355.025471-.406051.038828-.61.04Z" fill="#2c498a"/><path d="M79.1,47.58c-1,0-1.44-.27-1.45-.89s.41-.88,1.43-.89c.307888-.009942.616012.010153.92.06.206086.007749.40045.097844.53955.250102s.211309.353953.20045.559898c.023202.425596-.295393.792865-.72.83-.303953.05186-.611658.078617-.92.08Z" fill="#2c498a"/><path d="M61.37,47.57c-.380744.024252-.762841-.016325-1.13-.12-.357614-.108903-.585344-.458932-.54-.83-.002652-.347447.239955-.648615.58-.72.580018-.124908,1.179982-.124908,1.76,0c.206922.007805.402248.097568.542932.249507s.215179.353583.207068.560493c.023202.425596-.295393.792865-.72.83-.232619.022655-.466296.03267-.7.03Z" fill="#2c498a"/><path d="M91.19,47.59c-.335646-.011171-.669951-.047945-1-.11-.374166-.084187-.64-.416479-.64-.8s.265834-.715813.64-.8c.668111-.117082,1.354717-.06902,2,.14.339214.110203.535639.463768.45.81-.030517.345689-.288505.628247-.63.69-.271485.041439-.54542.064824-.82.07Z" fill="#2c498a"/><path d="M64.71,104.14c-.254952-.014245-.508773-.044302-.76-.09-.401577-.036599-.706901-.376818-.7-.78-.029089-.431333.289757-.807748.72-.85.521888-.055,1.048112-.055,1.57,0c.220015-.005452.432777.078858.58934.233534s.243445.366401.24066.586466c0,.55-.36.79-.86.87-.23.02-.51.01-.8.03Z" fill="#2c498a"/><path d="M82.74,102.35c.281322.003035.562056.026429.84.07.430057.031994.75736.399104.74.83.017144.429008-.311489.793168-.74.82-.538741.099901-1.091259.099901-1.63,0-.430057-.031994-.75736-.399104-.74-.83-.007243-.427206.314765-.788377.74-.83.261909-.035659.525709-.055695.79-.06Z" fill="#2c498a"/><path d="M100.72,104.14c-.26,0-.52,0-.78-.06-.454665-.026869-.802743-.41511-.78-.87-.000303-.430372.33993-.783861.77-.8.521888-.055,1.048112-.055,1.57,0c.219496.004866.427346.099727.574843.262352s.221677.37872.205157.597648c-.009614.426312-.344366.774107-.77.8-.261755.038616-.525533.061988-.79.07Z" fill="#2c498a"/><path d="M74.91,74.06c.311682.020681.622093.057396.93.11.373198.045718.65279.364023.65.74.041443.377326-.20188.72737-.57.82-.653738.185682-1.346262.185682-2,0-.370519-.079338-.62366-.42258-.59-.8-.005438-.379266.266133-.706.64-.77.310747-.054296.624784-.087705.94-.1Z" fill="#2c498a"/><path d="M73.07,47.58c-.268834-.01866-.536106-.05541-.8-.11-.374514-.060402-.644956-.390942-.63-.77-.026-.399678.254937-.754091.65-.82.563696-.119888,1.146304-.119888,1.71,0c.219763.009874.425763.109808.56955.276298s.21267.384842.19045.603702c-.010538.431865-.358135.779462-.79.79-.26.02-.52.01-.9.03Z" fill="#2c498a"/><path d="M55.26,47.54c-.334689.042796-.674537.019007-1-.07-.360125-.10135-.60399-.436147-.59-.81-.00626-.376091.260117-.701662.63-.77.564197-.115026,1.145803-.115026,1.71,0c.463919,0,.84.376081.84.84s-.376081.84-.84.84c-.250397.01183-.501348.001792-.75-.03Z" fill="#2c498a"/><path d="M87.07,75.84c-.392843.030386-.788012-.003389-1.17-.1-.334575-.096987-.566136-.401672-.57-.75-.03366-.37742.219481-.720662.59-.8.58252-.144892,1.189045-.165337,1.78-.06.431657.021342.770527.377816.77.81.016962.454766-.335431.838385-.79.86-.201526.033333-.405846.046731-.61.04Z" fill="#2c498a"/><path d="M70.75,104.15c-.3,0-.61-.05-.91-.12-.359007-.091324-.610313-.41456-.610313-.785s.251306-.693676.610313-.785c.631201-.150084,1.288799-.150084,1.92,0c.371246.077579.632882.410954.62.79.018471.403821-.278478.753173-.68.8-.314745.049585-.631829.082963-.95.1Z" fill="#2c498a"/><path d="M88.87,102.35c.275306.014455.549289.047868.82.1.394125.084198.664082.448426.63.85-.010772.374346-.289318.686655-.66.74-.568072.109844-1.151928.109844-1.72,0-.43003-.021488-.765919-.379474-.76-.81-.008102-.220169.071664-.434525.221724-.595839s.358097-.256347.578276-.264161c.25-.01.52,0,.89-.02Z" fill="#2c498a"/><path d="M68.9,75.85c-.243154.013227-.486846.013227-.73,0-.220179-.007814-.428217-.102848-.578276-.264161s-.229826-.37567-.221724-.595839c.005039-.432012.348254-.784028.78-.8.49899-.044947,1.00101-.044947,1.5,0c.233284-.011848.460549.076357.62476.242478s.249784.394391.23524.627522c0,.51-.37.75-.84.82-.257047.006847-.514265-.003174-.77-.03Z" fill="#2c498a"/><path d="M85.12,47.57c-.267715-.001918-.534993-.021964-.8-.06-.422728-.056289-.734007-.423771-.72-.85-.002091-.406881.305204-.748802.71-.79.520282-.079925,1.049718-.079925,1.57,0c.234235-.008908.461316.081643.625149.249286s.249141.396745.234851.630714c0,.5-.37.75-.84.82-.259737.016531-.520263.016531-.78,0Z" fill="#2c498a"/><path d="M106.31,104.12c-.72,0-1.18-.33-1.19-.85s.46-.9,1.22-.9s1.17.31,1.18.85-.46.91-1.21.9Z" fill="#2c498a"/><path d="M67.24,47.54c-.334725.0415-.674321.017729-1-.07-.358578-.097304-.602968-.42868-.59-.8-.012077-.376697.250292-.706773.62-.78.542455-.114754,1.100643-.135051,1.65-.06.5.05.88.32.87.87s-.4.78-.91.84c-.21307.014989-.42693.014989-.64,0Z" fill="#2c498a"/></g>
<script><![CDATA[
!function(t,n){"object"==typeof exports&&"undefined"!=typeof module?module.exports=n():"function"==typeof __SVGATOR_DEFINE__&&__SVGATOR_DEFINE__.amd?__SVGATOR_DEFINE__(n):((t="undefined"!=typeof globalThis?globalThis:t||self).__SVGATOR_PLAYER__=t.__SVGATOR_PLAYER__||{},t.__SVGATOR_PLAYER__["5c7f360c"]=n())}(this,(function(){"use strict";function t(t,n){var e=Object.keys(t);if(Object.getOwnPropertySymbols){var r=Object.getOwnPropertySymbols(t);n&&(r=r.filter((function(n){return Object.getOwnPropertyDescriptor(t,n).enumerable}))),e.push.apply(e,r)}return e}function n(n){for(var e=1;e<arguments.length;e++){var r=null!=arguments[e]?arguments[e]:{};e%2?t(Object(r),!0).forEach((function(t){o(n,t,r[t])})):Object.getOwnPropertyDescriptors?Object.defineProperties(n,Object.getOwnPropertyDescriptors(r)):t(Object(r)).forEach((function(t){Object.defineProperty(n,t,Object.getOwnPropertyDescriptor(r,t))}))}return n}function e(t){return(e="function"==typeof Symbol&&"symbol"==typeof Symbol.iterator?function(t){return typeof t}:function(t){return t&&"function"==typeof Symbol&&t.constructor===Symbol&&t!==Symbol.prototype?"symbol":typeof t})(t)}function r(t,n){if(!(t instanceof n))throw new TypeError("Cannot call a class as a function")}function i(t,n){for(var e=0;e<n.length;e++){var r=n[e];r.enumerable=r.enumerable||!1,r.configurable=!0,"value"in r&&(r.writable=!0),Object.defineProperty(t,r.key,r)}}function u(t,n,e){return n&&i(t.prototype,n),e&&i(t,e),t}function o(t,n,e){return n in t?Object.defineProperty(t,n,{value:e,enumerable:!0,configurable:!0,writable:!0}):t[n]=e,t}function a(t){return(a=Object.setPrototypeOf?Object.getPrototypeOf:function(t){return t.__proto__||Object.getPrototypeOf(t)})(t)}function l(t,n){return(l=Object.setPrototypeOf||function(t,n){return t.__proto__=n,t})(t,n)}function s(){if("undefined"==typeof Reflect||!Reflect.construct)return!1;if(Reflect.construct.sham)return!1;if("function"==typeof Proxy)return!0;try{return Boolean.prototype.valueOf.call(Reflect.construct(Boolean,[],(function(){}))),!0}catch(t){return!1}}function f(t,n,e){return(f=s()?Reflect.construct:function(t,n,e){var r=[null];r.push.apply(r,n);var i=new(Function.bind.apply(t,r));return e&&l(i,e.prototype),i}).apply(null,arguments)}function c(t,n){if(n&&("object"==typeof n||"function"==typeof n))return n;if(void 0!==n)throw new TypeError("Derived constructors may only return object or undefined");return function(t){if(void 0===t)throw new ReferenceError("this hasn't been initialised - super() hasn't been called");return t}(t)}function h(t,n,e){return(h="undefined"!=typeof Reflect&&Reflect.get?Reflect.get:function(t,n,e){var r=function(t,n){for(;!Object.prototype.hasOwnProperty.call(t,n)&&null!==(t=a(t)););return t}(t,n);if(r){var i=Object.getOwnPropertyDescriptor(r,n);return i.get?i.get.call(e):i.value}})(t,n,e||t)}function v(t){return function(t){if(Array.isArray(t))return y(t)}(t)||function(t){if("undefined"!=typeof Symbol&&null!=t[Symbol.iterator]||null!=t["@@iterator"])return Array.from(t)}(t)||function(t,n){if(!t)return;if("string"==typeof t)return y(t,n);var e=Object.prototype.toString.call(t).slice(8,-1);"Object"===e&&t.constructor&&(e=t.constructor.name);if("Map"===e||"Set"===e)return Array.from(t);if("Arguments"===e||/^(?:Ui|I)nt(?:8|16|32)(?:Clamped)?Array$/.test(e))return y(t,n)}(t)||function(){throw new TypeError("Invalid attempt to spread non-iterable instance.\nIn order to be iterable, non-array objects must have a [Symbol.iterator]() method.")}()}function y(t,n){(null==n||n>t.length)&&(n=t.length);for(var e=0,r=new Array(n);e<n;e++)r[e]=t[e];return r}function g(t,n,e){if(Number.isInteger(t))return t;var r=Math.pow(10,n);return Math[e]((+t+Number.EPSILON)*r)/r}Number.isInteger||(Number.isInteger=function(t){return"number"==typeof t&&isFinite(t)&&Math.floor(t)===t}),Number.EPSILON||(Number.EPSILON=2220446049250313e-31);var p=d(Math.pow(10,-6));function d(t){var n=arguments.length>1&&void 0!==arguments[1]?arguments[1]:6;return g(t,n,"round")}function m(t,n){var e=arguments.length>2&&void 0!==arguments[2]?arguments[2]:p;return Math.abs(t-n)<e}d(Math.pow(10,-2)),d(Math.pow(10,-4));var b=Math.PI/180;function w(t){return t*b}function x(t){return t/b}function _(t){return t}function A(t,n,e){var r=1-e;return 3*e*r*(t*r+n*e)+e*e*e}function k(){var t=arguments.length>0&&void 0!==arguments[0]?arguments[0]:0,n=arguments.length>1&&void 0!==arguments[1]?arguments[1]:0,e=arguments.length>2&&void 0!==arguments[2]?arguments[2]:1,r=arguments.length>3&&void 0!==arguments[3]?arguments[3]:1;return t<0||t>1||e<0||e>1?null:m(t,n)&&m(e,r)?_:function(i){if(i<=0)return t>0?i*n/t:0===n&&e>0?i*r/e:0;if(i>=1)return e<1?1+(i-1)*(r-1)/(e-1):1===e&&t<1?1+(i-1)*(n-1)/(t-1):1;for(var u,o=0,a=1;o<a;){var l=A(t,e,u=(o+a)/2);if(m(i,l))break;l<i?o=u:a=u}return A(n,r,u)}}function S(){return 1}function O(t){return 1===t?1:0}function j(){var t=arguments.length>0&&void 0!==arguments[0]?arguments[0]:1,n=arguments.length>1&&void 0!==arguments[1]?arguments[1]:0;if(1===t){if(0===n)return O;if(1===n)return S}var e=1/t;return function(t){return t>=1?1:(t+=n*e)-t%e}}var M=Math.sin,E=Math.cos,P=Math.acos,I=Math.asin,R=Math.tan,F=Math.atan2,N=Math.sqrt,T=function(){function t(){var n=arguments.length>0&&void 0!==arguments[0]?arguments[0]:1,e=arguments.length>1&&void 0!==arguments[1]?arguments[1]:0,i=arguments.length>2&&void 0!==arguments[2]?arguments[2]:0,u=arguments.length>3&&void 0!==arguments[3]?arguments[3]:1,o=arguments.length>4&&void 0!==arguments[4]?arguments[4]:0,a=arguments.length>5&&void 0!==arguments[5]?arguments[5]:0;r(this,t),this.m=[n,e,i,u,o,a],this.i=null,this.w=null,this.s=null}return u(t,[{key:"determinant",get:function(){var t=this.m;return t[0]*t[3]-t[1]*t[2]}},{key:"isIdentity",get:function(){if(null===this.i){var t=this.m;this.i=1===t[0]&&0===t[1]&&0===t[2]&&1===t[3]&&0===t[4]&&0===t[5]}return this.i}},{key:"point",value:function(t,n){var e=this.m;return{x:e[0]*t+e[2]*n+e[4],y:e[1]*t+e[3]*n+e[5]}}},{key:"translateSelf",value:function(){var t=arguments.length>0&&void 0!==arguments[0]?arguments[0]:0,n=arguments.length>1&&void 0!==arguments[1]?arguments[1]:0;if(!t&&!n)return this;var e=this.m;return e[4]+=e[0]*t+e[2]*n,e[5]+=e[1]*t+e[3]*n,this.w=this.s=this.i=null,this}},{key:"rotateSelf",value:function(){var t=arguments.length>0&&void 0!==arguments[0]?arguments[0]:0;if(t%=360){t=w(t);var n=M(t),e=E(t),r=this.m,i=r[0],u=r[1];r[0]=i*e+r[2]*n,r[1]=u*e+r[3]*n,r[2]=r[2]*e-i*n,r[3]=r[3]*e-u*n,this.w=this.s=this.i=null}return this}},{key:"scaleSelf",value:function(){var t=arguments.length>0&&void 0!==arguments[0]?arguments[0]:1,n=arguments.length>1&&void 0!==arguments[1]?arguments[1]:1;if(1!==t||1!==n){var e=this.m;e[0]*=t,e[1]*=t,e[2]*=n,e[3]*=n,this.w=this.s=this.i=null}return this}},{key:"skewSelf",value:function(t,n){if(n%=360,(t%=360)||n){var e=this.m,r=e[0],i=e[1],u=e[2],o=e[3];t&&(t=R(w(t)),e[2]+=r*t,e[3]+=i*t),n&&(n=R(w(n)),e[0]+=u*n,e[1]+=o*n),this.w=this.s=this.i=null}return this}},{key:"resetSelf",value:function(){var t=arguments.length>0&&void 0!==arguments[0]?arguments[0]:1,n=arguments.length>1&&void 0!==arguments[1]?arguments[1]:0,e=arguments.length>2&&void 0!==arguments[2]?arguments[2]:0,r=arguments.length>3&&void 0!==arguments[3]?arguments[3]:1,i=arguments.length>4&&void 0!==arguments[4]?arguments[4]:0,u=arguments.length>5&&void 0!==arguments[5]?arguments[5]:0,o=this.m;return o[0]=t,o[1]=n,o[2]=e,o[3]=r,o[4]=i,o[5]=u,this.w=this.s=this.i=null,this}},{key:"recomposeSelf",value:function(){var t=arguments.length>0&&void 0!==arguments[0]?arguments[0]:null,n=arguments.length>1&&void 0!==arguments[1]?arguments[1]:null,e=arguments.length>2&&void 0!==arguments[2]?arguments[2]:null,r=arguments.length>3&&void 0!==arguments[3]?arguments[3]:null,i=arguments.length>4&&void 0!==arguments[4]?arguments[4]:null;return this.isIdentity||this.resetSelf(),t&&(t.x||t.y)&&this.translateSelf(t.x,t.y),n&&this.rotateSelf(n),e&&(e.x&&this.skewSelf(e.x,0),e.y&&this.skewSelf(0,e.y)),!r||1===r.x&&1===r.y||this.scaleSelf(r.x,r.y),i&&(i.x||i.y)&&this.translateSelf(i.x,i.y),this}},{key:"decompose",value:function(){var t=arguments.length>0&&void 0!==arguments[0]?arguments[0]:0,n=arguments.length>1&&void 0!==arguments[1]?arguments[1]:0,e=this.m,r=e[0]*e[0]+e[1]*e[1],i=[[e[0],e[1]],[e[2],e[3]]],u=N(r);if(0===u)return{origin:{x:d(e[4]),y:d(e[5])},translate:{x:d(t),y:d(n)},scale:{x:0,y:0},skew:{x:0,y:0},rotate:0};i[0][0]/=u,i[0][1]/=u;var o=e[0]*e[3]-e[1]*e[2]<0;o&&(u=-u);var a=i[0][0]*i[1][0]+i[0][1]*i[1][1];i[1][0]-=i[0][0]*a,i[1][1]-=i[0][1]*a;var l,s=N(i[1][0]*i[1][0]+i[1][1]*i[1][1]);return 0===s?{origin:{x:d(e[4]),y:d(e[5])},translate:{x:d(t),y:d(n)},scale:{x:d(u),y:0},skew:{x:0,y:0},rotate:0}:(i[1][0]/=s,i[1][1]/=s,a/=s,i[1][1]<0?(l=x(P(i[1][1])),i[0][1]<0&&(l=360-l)):l=x(I(i[0][1])),o&&(l=-l),a=x(F(a,N(i[0][0]*i[0][0]+i[0][1]*i[0][1]))),o&&(a=-a),{origin:{x:d(e[4]),y:d(e[5])},translate:{x:d(t),y:d(n)},scale:{x:d(u),y:d(s)},skew:{x:d(a),y:0},rotate:d(l)})}},{key:"multiply",value:function(t){return this.clone().multiplySelf(t)}},{key:"preMultiply",value:function(t){return t.multiply(this)}},{key:"multiplySelf",value:function(t){var n=q(this.m,t.m),e=n.a,r=n.b,i=n.c,u=n.d,o=n.tx,a=n.ty;return this.resetSelf(e,r,i,u,o,a),this}},{key:"preMultiplySelf",value:function(t){var n=q(t.m,this.m),e=n.a,r=n.b,i=n.c,u=n.d,o=n.tx,a=n.ty;return this.resetSelf(e,r,i,u,o,a),this}},{key:"clone",value:function(){var t=this.m;return new this.constructor(t[0],t[1],t[2],t[3],t[4],t[5])}},{key:"toString",value:function(){var t=arguments.length>0&&void 0!==arguments[0]?arguments[0]:" ";if(null===this.s){var n=this.m.map((function(t){return d(t)}));1===n[0]&&0===n[1]&&0===n[2]&&1===n[3]?this.s="translate("+n[4]+t+n[5]+")":this.s="matrix("+n.join(t)+")"}return this.s}}],[{key:"create",value:function(t){return t?Array.isArray(t)?f(this,v(t)):t instanceof this?t.clone():(new this).recomposeSelf(t.origin,t.rotate,t.skew,t.scale,t.translate):new this}}]),t}();function q(t,n){return{a:t[0]*n[0]+t[2]*n[1],b:t[1]*n[0]+t[3]*n[1],c:t[0]*n[2]+t[2]*n[3],d:t[1]*n[2]+t[3]*n[3],tx:t[0]*n[4]+t[2]*n[5]+t[4],ty:t[1]*n[4]+t[3]*n[5]+t[5]}}function B(t,n,e){return t>=.5?e:n}function D(t,n,e){return 0===t||n===e?n:t*(e-n)+n}function L(t,n,e){var r=D(t,n,e);return r<=0?0:r}function C(t,n,e){var r=D(t,n,e);return r<=0?0:r>=1?1:r}function V(t,n,e){return 0===t?n:1===t?e:{x:D(t,n.x,e.x),y:D(t,n.y,e.y)}}function G(t,n,e){var r=function(t,n,e){return Math.round(D(t,n,e))}(t,n,e);return r<=0?0:r>=255?255:r}function z(t,n,e){return 0===t?n:1===t?e:{r:G(t,n.r,e.r),g:G(t,n.g,e.g),b:G(t,n.b,e.b),a:D(t,null==n.a?1:n.a,null==e.a?1:e.a)}}function Y(t,n){for(var e=[],r=0;r<t;r++)e.push(n);return e}function $(t,n){if(--n<=0)return t;var e=(t=Object.assign([],t)).length;do{for(var r=0;r<e;r++)t.push(t[r])}while(--n>0);return t}var U,Q=function(){function t(n){r(this,t),this.list=n,this.length=n.length}return u(t,[{key:"setAttribute",value:function(t,n){for(var e=this.list,r=0;r<this.length;r++)e[r].setAttribute(t,n)}},{key:"removeAttribute",value:function(t){for(var n=this.list,e=0;e<this.length;e++)n[e].removeAttribute(t)}},{key:"style",value:function(t,n){for(var e=this.list,r=0;r<this.length;r++)e[r].style[t]=n}}]),t}(),H=/-./g,J=function(t,n){return n.toUpperCase()};function Z(t){return"function"==typeof t?t:B}function K(t){return t?"function"==typeof t?t:Array.isArray(t)?function(t){var n=arguments.length>1&&void 0!==arguments[1]?arguments[1]:_;if(!Array.isArray(t))return n;switch(t.length){case 1:return j(t[0])||n;case 2:return j(t[0],t[1])||n;case 4:return k(t[0],t[1],t[2],t[3])||n}return n}(t,null):function(t,n){var e=arguments.length>2&&void 0!==arguments[2]?arguments[2]:_;switch(t){case"linear":return _;case"steps":return j(n.steps||1,n.jump||0)||e;case"bezier":case"cubic-bezier":return k(n.x1||0,n.y1||0,n.x2||0,n.y2||0)||e}return e}(t.type,t.value,null):null}function W(t,n,e){var r=arguments.length>3&&void 0!==arguments[3]&&arguments[3],i=n.length-1;if(t<=n[0].t)return r?[0,0,n[0].v]:n[0].v;if(t>=n[i].t)return r?[i,1,n[i].v]:n[i].v;var u,o=n[0],a=null;for(u=1;u<=i;u++){if(!(t>n[u].t)){a=n[u];break}o=n[u]}return null==a?r?[i,1,n[i].v]:n[i].v:o.t===a.t?r?[u,1,a.v]:a.v:(t=(t-o.t)/(a.t-o.t),o.e&&(t=o.e(t)),r?[u,t,e(t,o.v,a.v)]:e(t,o.v,a.v))}function X(t,n){var e=arguments.length>2&&void 0!==arguments[2]?arguments[2]:null;return t&&t.length?"function"!=typeof n?null:("function"!=typeof e&&(e=null),function(r){var i=W(r,t,n);return null!=i&&e&&(i=e(i)),i}):null}function tt(t,n){return t.t-n.t}function nt(t,n,r,i,u){var o,a="@"===r[0],l="#"===r[0],s=U[r],f=B;switch(a?(o=r.substr(1),r=o.replace(H,J)):l&&(r=r.substr(1)),e(s)){case"function":if(f=s(i,u,W,K,r,a,n,t),l)return f;break;case"string":f=X(i,Z(s));break;case"object":if((f=X(i,Z(s.i),s.f))&&"function"==typeof s.u)return s.u(n,f,r,a,t)}return f?function(t,n,e){if(arguments.length>3&&void 0!==arguments[3]&&arguments[3])return t instanceof Q?function(r){return t.style(n,e(r))}:function(r){return t.style[n]=e(r)};if(Array.isArray(n)){var r=n.length;return function(i){var u=e(i);if(null==u)for(var o=0;o<r;o++)t[o].removeAttribute(n);else for(var a=0;a<r;a++)t[a].setAttribute(n,u)}}return function(r){var i=e(r);null==i?t.removeAttribute(n):t.setAttribute(n,i)}}(n,r,f,a):null}function et(t,n,r,i){if(!i||"object"!==e(i))return null;var u=null,o=null;return Array.isArray(i)?o=function(t){if(!t||!t.length)return null;for(var n=0;n<t.length;n++)t[n].e&&(t[n].e=K(t[n].e));return t.sort(tt)}(i):(o=i.keys,u=i.data||null),o?nt(t,n,r,o,u):null}function rt(t,n,e){if(!e)return null;var r=[];for(var i in e)if(e.hasOwnProperty(i)){var u=et(t,n,i,e[i]);u&&r.push(u)}return r.length?r:null}function it(t,n){if(!n.settings.duration||n.settings.duration<0)return null;var e,r,i,u,o,a=function(t,n){if(!n)return null;var e=[];if(Array.isArray(n))for(var r=n.length,i=0;i<r;i++){var u=n[i];if(2===u.length){var o=null;if("string"==typeof u[0])o=t.getElementById(u[0]);else if(Array.isArray(u[0])){o=[];for(var a=0;a<u[0].length;a++)if("string"==typeof u[0][a]){var l=t.getElementById(u[0][a]);l&&o.push(l)}o=o.length?1===o.length?o[0]:new Q(o):null}if(o){var s=rt(t,o,u[1]);s&&(e=e.concat(s))}}}else for(var f in n)if(n.hasOwnProperty(f)){var c=t.getElementById(f);if(c){var h=rt(t,c,n[f]);h&&(e=e.concat(h))}}return e.length?e:null}(t,n.elements);return a?(e=a,r=n.settings,i=r.duration,u=e.length,o=null,function(t,n){var a=r.iterations||1/0,l=(r.alternate&&a%2==0)^r.direction>0?i:0,s=t%i,f=1+(t-s)/i;n*=r.direction,r.alternate&&f%2==0&&(n=-n);var c=!1;if(f>a)s=l,c=!0,-1===r.fill&&(s=r.direction>0?0:i);else if(n<0&&(s=i-s),s===o)return!1;o=s;for(var h=0;h<u;h++)e[h](s);return c}):null}function ut(t,n){for(var e=n.querySelectorAll("svg"),r=0;r<e.length;r++)if(e[r].id===t.root&&!e[r].svgatorAnimation)return e[r].svgatorAnimation=!0,e[r];return null}function ot(t){var n=function(t){return t.shadowRoot};return document?Array.from(t.querySelectorAll(":not("+["a","area","audio","br","canvas","circle","datalist","embed","g","head","hr","iframe","img","input","link","object","path","polygon","rect","script","source","style","svg","title","track","video"].join()+")")).filter(n).map(n):[]}function at(t){var n=arguments.length>1&&void 0!==arguments[1]?arguments[1]:document,e=arguments.length>2&&void 0!==arguments[2]?arguments[2]:0,r=ut(t,n);if(r)return r;if(e>=20)return null;for(var i=ot(n),u=0;u<i.length;u++){var o=at(t,i[u],e+1);if(o)return o}return null}function lt(t,n){if(U=n,!t||!t.root||!Array.isArray(t.animations))return null;var e=at(t);if(!e)return null;var r=t.animations.map((function(t){return it(e,t)})).filter((function(t){return!!t}));return r.length?{svg:e,animations:r,animationSettings:t.animationSettings,options:t.options||void 0}:null}function st(t){var n=arguments.length>1&&void 0!==arguments[1]?arguments[1]:null,e=arguments.length>2&&void 0!==arguments[2]?arguments[2]:Number,r=arguments.length>3&&void 0!==arguments[3]?arguments[3]:"undefined"!=typeof BigInt&&BigInt,i="0x"+(t.replace(/[^0-9a-fA-F]+/g,"")||27);return n&&r&&e.isSafeInteger&&!e.isSafeInteger(+i)?e(r(i))%n+n:+i}function ft(t,n,e){return!t||!e||n>t.length?t:t.substring(0,n)+ft(t.substring(n+1),e,e)}function ct(t){var n=arguments.length>1&&void 0!==arguments[1]?arguments[1]:27;return!t||t%n?t%n:[0,1].includes(n)?n:ct(t/n,n)}function ht(t,n,e){if(t&&t.length){var r=st(e),i=ct(r)+5,u=ft(t,ct(r,5),i);return u=u.replace(/\x7c$/g,"==").replace(/\x2f$/g,"="),u=function(t,n,e){var r=+("0x"+t.substring(0,4));t=t.substring(4);for(var i=st(n,r)%r+e%27,u=[],o=0;o<t.length;o+=2)if("|"!==t[o]){var a=+("0x"+t[o]+t[o+1])-i;u.push(a)}else{var l=+("0x"+t.substring(o+1,o+1+4))-i;o+=3,u.push(l)}return String.fromCharCode.apply(String,u)}(u=(u=atob(u)).replace(/[\x41-\x5A]/g,""),n,r),u=JSON.parse(u)}}var vt=[{key:"alternate",def:!1},{key:"fill",def:1},{key:"iterations",def:0},{key:"direction",def:1},{key:"speed",def:1},{key:"fps",def:100}],yt=function(){function t(n,e){var i=this,u=arguments.length>2&&void 0!==arguments[2]?arguments[2]:null;r(this,t),this._id=0,this._running=!1,this._rollingBack=!1,this._animations=n,this._settings=e,(!u||u<"2022-05-02")&&delete this._settings.speed,vt.forEach((function(t){i._settings[t.key]=i._settings[t.key]||t.def})),this.duration=e.duration,this.offset=e.offset||0,this.rollbackStartOffset=0}return u(t,[{key:"alternate",get:function(){return this._settings.alternate}},{key:"fill",get:function(){return this._settings.fill}},{key:"iterations",get:function(){return this._settings.iterations}},{key:"direction",get:function(){return this._settings.direction}},{key:"speed",get:function(){return this._settings.speed}},{key:"fps",get:function(){return this._settings.fps}},{key:"maxFiniteDuration",get:function(){return this.iterations>0?this.iterations*this.duration:this.duration}},{key:"_apply",value:function(t){for(var n=arguments.length>1&&void 0!==arguments[1]?arguments[1]:{},e=this._animations,r=e.length,i=0,u=0;u<r;u++)n[u]?i++:(n[u]=e[u](t,1),n[u]&&i++);return i}},{key:"_rollback",value:function(t){var n=this,e=1/0,r=null;this.rollbackStartOffset=t,this._rollingBack=!0,this._running=!0;this._id=window.requestAnimationFrame((function i(u){if(n._rollingBack){null==r&&(r=u);var o=Math.round(t-(u-r)*n.speed);if(o>n.duration&&e!==1/0){var a=!!n.alternate&&o/n.duration%2>1,l=o%n.duration;o=(l+=a?n.duration:0)||n.duration}var s=(n.fps?1e3/n.fps:0)*n.speed,f=Math.max(0,o);f<=e-s&&(n.offset=f,e=f,n._apply(f));var c=n.iterations>0&&-1===n.fill&&o>=n.maxFiniteDuration;(o<=0||n.offset<o||c)&&n.stop(),n._id=window.requestAnimationFrame(i)}}))}},{key:"_start",value:function(){var t=this,n=arguments.length>0&&void 0!==arguments[0]?arguments[0]:0,e=-1/0,r=null,i={};this._running=!0;var u=function u(o){null==r&&(r=o);var a=Math.round((o-r)*t.speed+n),l=(t.fps?1e3/t.fps:0)*t.speed;if(a>=e+l&&!t._rollingBack&&(t.offset=a,e=a,t._apply(a,i)===t._animations.length))return void t.pause(!0);t._id=window.requestAnimationFrame(u)};this._id=window.requestAnimationFrame(u)}},{key:"_pause",value:function(){this._id&&window.cancelAnimationFrame(this._id),this._running=!1}},{key:"play",value:function(){if(!this._running)return this._rollingBack?this._rollback(this.offset):this._start(this.offset)}},{key:"stop",value:function(){this._pause(),this.offset=0,this.rollbackStartOffset=0,this._rollingBack=!1,this._apply(0)}},{key:"reachedToEnd",value:function(){return this.iterations>0&&this.offset>=this.iterations*this.duration}},{key:"restart",value:function(){var t=arguments.length>0&&void 0!==arguments[0]&&arguments[0];this.stop(t),this.play(t)}},{key:"pause",value:function(){this._pause()}},{key:"reverse",value:function(){this.direction=-this.direction}}],[{key:"build",value:function(t,n){delete t.animationSettings,t.options=ht(t.options,t.root,"5c7f360c"),t.animations.map((function(n){n.settings=ht(n.s,t.root,"5c7f360c"),delete n.s,t.animationSettings||(t.animationSettings=n.settings)}));var e=t.version;if(!(t=lt(t,n)))return null;var r=t.options||{},i=new this(t.animations,t.animationSettings,e);return{el:t.svg,options:r,player:i}}},{key:"push",value:function(t){return this.build(t)}},{key:"init",value:function(){var t=this,n=window.__SVGATOR_PLAYER__&&window.__SVGATOR_PLAYER__["5c7f360c"];Array.isArray(n)&&n.splice(0).forEach((function(n){return t.build(n)}))}}]),t}();function gt(t){return d(t)+""}function pt(t){var n=arguments.length>1&&void 0!==arguments[1]?arguments[1]:" ";return t&&t.length?t.map(gt).join(n):""}function dt(t){return t?null==t.a||t.a>=1?function(t){if(!t)return"transparent";var n=function(t){return parseInt(t).toString(16).padStart(2,"0")};return function(t){for(var n=[],e="#"===t[0]?n.push("#"):0;e<t.length;e+=2){if(t[e]!==t[e+1])return t;n.push(t[e])}return n.join("")}("#"+n(t.r)+n(t.g)+n(t.b)+(null==t.a||t.a>=1?"":n(255*t.a)))}(t):"rgba("+t.r+","+t.g+","+t.b+","+t.a+")":"transparent"}function mt(t){return t?"url(#"+t+")":"none"}!function(){for(var t=0,n=["ms","moz","webkit","o"],e=0;e<n.length&&!window.requestAnimationFrame;++e)window.requestAnimationFrame=window[n[e]+"RequestAnimationFrame"],window.cancelAnimationFrame=window[n[e]+"CancelAnimationFrame"]||window[n[e]+"CancelRequestAnimationFrame"];window.requestAnimationFrame||(window.requestAnimationFrame=function(n){var e=Date.now(),r=Math.max(0,16-(e-t)),i=window.setTimeout((function(){n(e+r)}),r);return t=e+r,i},window.cancelAnimationFrame=window.clearTimeout)}();var bt={f:null,i:function(t,n,e){return 0===t?n:1===t?e:{x:L(t,n.x,e.x),y:L(t,n.y,e.y)}},u:function(t,n){return function(e){var r=n(e);t.setAttribute("rx",gt(r.x)),t.setAttribute("ry",gt(r.y))}}},wt={f:null,i:function(t,n,e){return 0===t?n:1===t?e:{width:L(t,n.width,e.width),height:L(t,n.height,e.height)}},u:function(t,n){return function(e){var r=n(e);t.setAttribute("width",gt(r.width)),t.setAttribute("height",gt(r.height))}}};Object.freeze({M:2,L:2,Z:0,H:1,V:1,C:6,Q:4,T:2,S:4,A:7});var xt={},_t=null;function At(t){var n=function(){if(_t)return _t;if("object"!==("undefined"==typeof document?"undefined":e(document))||!document.createElementNS)return{};var t=document.createElementNS("http://www.w3.org/2000/svg","svg");return t&&t.style?(t.style.position="absolute",t.style.opacity="0.01",t.style.zIndex="-9999",t.style.left="-9999px",t.style.width="1px",t.style.height="1px",_t={svg:t}):{}}().svg;if(!n)return function(t){return null};var r=document.createElementNS(n.namespaceURI,"path");r.setAttributeNS(null,"d",t),r.setAttributeNS(null,"fill","none"),r.setAttributeNS(null,"stroke","none"),n.appendChild(r);var i=r.getTotalLength();return function(t){var n=r.getPointAtLength(i*t);return{x:n.x,y:n.y}}}function kt(t){return xt[t]?xt[t]:xt[t]=At(t)}function St(t,n,e,r){if(!t||!r)return!1;var i=["M",t.x,t.y];if(n&&e&&(i.push("C"),i.push(n.x),i.push(n.y),i.push(e.x),i.push(e.y)),n?!e:e){var u=n||e;i.push("Q"),i.push(u.x),i.push(u.y)}return n||e||i.push("L"),i.push(r.x),i.push(r.y),i.join(" ")}function Ot(t,n,e,r){var i=arguments.length>4&&void 0!==arguments[4]?arguments[4]:1,u=St(t,n,e,r),o=kt(u);try{return o(i)}catch(t){return null}}function jt(t,n,e){return t+(n-t)*e}function Mt(t,n,e){var r=arguments.length>3&&void 0!==arguments[3]&&arguments[3],i={x:jt(t.x,n.x,e),y:jt(t.y,n.y,e)};return r&&(i.a=Et(t,n)),i}function Et(t,n){return Math.atan2(n.y-t.y,n.x-t.x)}function Pt(t,n,e,r){var i=1-r;return i*i*t+2*i*r*n+r*r*e}function It(t,n,e,r){return 2*(1-r)*(n-t)+2*r*(e-n)}function Rt(t,n,e,r){var i=arguments.length>4&&void 0!==arguments[4]&&arguments[4],u=Ot(t,n,null,e,r);return u||(u={x:Pt(t.x,n.x,e.x,r),y:Pt(t.y,n.y,e.y,r)}),i&&(u.a=Ft(t,n,e,r)),u}function Ft(t,n,e,r){return Math.atan2(It(t.y,n.y,e.y,r),It(t.x,n.x,e.x,r))}function Nt(t,n,e,r,i){var u=i*i;return i*u*(r-t+3*(n-e))+3*u*(t+e-2*n)+3*i*(n-t)+t}function Tt(t,n,e,r,i){var u=1-i;return 3*(u*u*(n-t)+2*u*i*(e-n)+i*i*(r-e))}function qt(t,n,e,r,i){var u=arguments.length>5&&void 0!==arguments[5]&&arguments[5],o=Ot(t,n,e,r,i);return o||(o={x:Nt(t.x,n.x,e.x,r.x,i),y:Nt(t.y,n.y,e.y,r.y,i)}),u&&(o.a=Bt(t,n,e,r,i)),o}function Bt(t,n,e,r,i){return Math.atan2(Tt(t.y,n.y,e.y,r.y,i),Tt(t.x,n.x,e.x,r.x,i))}function Dt(t,n,e){var r=arguments.length>3&&void 0!==arguments[3]&&arguments[3];if(Ct(n)){if(Vt(e))return Rt(n,e.start,e,t,r)}else if(Ct(e)){if(Gt(n))return Rt(n,n.end,e,t,r)}else{if(Gt(n))return Vt(e)?qt(n,n.end,e.start,e,t,r):Rt(n,n.end,e,t,r);if(Vt(e))return Rt(n,e.start,e,t,r)}return Mt(n,e,t,r)}function Lt(t,n,e){var r=Dt(t,n,e,!0);return r.a=x(function(t){return arguments.length>1&&void 0!==arguments[1]&&arguments[1]?t+Math.PI:t}(r.a)),r}function Ct(t){return!t.type||"corner"===t.type}function Vt(t){return null!=t.start&&!Ct(t)}function Gt(t){return null!=t.end&&!Ct(t)}var zt=new T;var Yt={f:gt,i:D},$t={f:gt,i:C};function Ut(t,n,e){return t.map((function(t){return function(t,n,e){var r=t.v;if(!r||"g"!==r.t||r.s||!r.v||!r.r)return t;var i=e.getElementById(r.r),u=i&&i.querySelectorAll("stop")||[];return r.s=r.v.map((function(t,n){var e=u[n]&&u[n].getAttribute("offset");return{c:t,o:e=d(parseInt(e)/100)}})),delete r.v,t}(t,0,e)}))}var Qt={gt:"gradientTransform",c:{x:"cx",y:"cy"},rd:"r",f:{x:"x1",y:"y1"},to:{x:"x2",y:"y2"}};function Ht(t,n,r,i,u,o,a,l){return Ut(t,0,l),n=function(t,n,e){for(var r,i,u,o=t.length-1,a={},l=0;l<=o;l++)(r=t[l]).e&&(r.e=n(r.e)),r.v&&"g"===(i=r.v).t&&i.r&&(u=e.getElementById(i.r))&&(a[i.r]={e:u,s:u.querySelectorAll("stop")});return a}(t,i,l),function(i){var u=r(i,t,Jt);if(!u)return"none";if("c"===u.t)return dt(u.v);if("g"===u.t){if(!n[u.r])return mt(u.r);var o=n[u.r];return function(t,n){for(var e=t.s,r=e.length;r<n.length;r++){var i=e[e.length-1].cloneNode();i.id=Wt(i.id),t.e.appendChild(i),e=t.s=t.e.querySelectorAll("stop")}for(var u=0,o=e.length,a=n.length-1;u<o;u++)e[u].setAttribute("stop-color",dt(n[Math.min(u,a)].c)),e[u].setAttribute("offset",n[Math.min(u,a)].o)}(o,u.s),Object.keys(Qt).forEach((function(t){if(void 0!==u[t])if("object"!==e(Qt[t])){var n,r="gt"===t?(n=u[t],Array.isArray(n)?"matrix("+n.join(" ")+")":""):u[t],i=Qt[t];o.e.setAttribute(i,r)}else Object.keys(Qt[t]).forEach((function(n){if(void 0!==u[t][n]){var e=u[t][n],r=Qt[t][n];o.e.setAttribute(r,e)}}))})),mt(u.r)}return"none"}}function Jt(t,e,r){if(0===t)return e;if(1===t)return r;if(e&&r){var i=e.t;if(i===r.t)switch(e.t){case"c":return{t:i,v:z(t,e.v,r.v)};case"g":if(e.r===r.r){var u={t:i,s:Zt(t,e.s,r.s),r:e.r};return e.gt&&r.gt&&(u.gt=function(t,n,e){var r=n.length;if(r!==e.length)return B(t,n,e);for(var i=new Array(r),u=0;u<r;u++)i[u]=D(t,n[u],e[u]);return i}(t,e.gt,r.gt)),e.c?(u.c=V(t,e.c,r.c),u.rd=L(t,e.rd,r.rd)):e.f&&(u.f=V(t,e.f,r.f),u.to=V(t,e.to,r.to)),u}}if("c"===e.t&&"g"===r.t||"c"===r.t&&"g"===e.t){var o="c"===e.t?e:r,a="g"===e.t?n({},e):n({},r),l=a.s.map((function(t){return{c:o.v,o:t.o}}));return a.s="c"===e.t?Zt(t,l,a.s):Zt(t,a.s,l),a}}return B(t,e,r)}function Zt(t,n,e){if(n.length===e.length)return n.map((function(n,r){return Kt(t,n,e[r])}));for(var r=Math.max(n.length,e.length),i=[],u=0;u<r;u++){var o=Kt(t,n[Math.min(u,n.length-1)],e[Math.min(u,e.length-1)]);i.push(o)}return i}function Kt(t,n,e){return{o:C(t,n.o,e.o||0),c:z(t,n.c,e.c||{})}}function Wt(t){return t.replace(/-fill-([0-9]+)$/,(function(t,n){return"-fill-"+(+n+1)}))}var Xt={fill:Ht,"fill-opacity":$t,stroke:Ht,"stroke-opacity":$t,"stroke-width":Yt,"stroke-dashoffset":{f:gt,i:D},"stroke-dasharray":{f:function(t){var n=arguments.length>1&&void 0!==arguments[1]?arguments[1]:" ";return t&&t.length>0&&(t=t.map((function(t){return d(t,4)}))),pt(t,n)},i:function(t,n,e){var r,i,u,o=n.length,a=e.length;if(o!==a)if(0===o)n=Y(o=a,0);else if(0===a)a=o,e=Y(o,0);else{var l=(u=(r=o)*(i=a)/function(t,n){for(var e;n;)e=n,n=t%n,t=e;return t||1}(r,i))<0?-u:u;n=$(n,Math.floor(l/o)),e=$(e,Math.floor(l/a)),o=a=l}for(var s=[],f=0;f<o;f++)s.push(d(L(t,n[f],e[f])));return s}},opacity:$t,transform:function(t,n,r,i){if(!(t=function(t,n){if(!t||"object"!==e(t))return null;var r=!1;for(var i in t)t.hasOwnProperty(i)&&(t[i]&&t[i].length?(t[i].forEach((function(t){t.e&&(t.e=n(t.e))})),r=!0):delete t[i]);return r?t:null}(t,i)))return null;var u=function(e,i,u){var o=arguments.length>3&&void 0!==arguments[3]?arguments[3]:null;return t[e]?r(i,t[e],u):n&&n[e]?n[e]:o};return n&&n.a&&t.o?function(n){var e=r(n,t.o,Lt);return zt.recomposeSelf(e,u("r",n,D,0)+e.a,u("k",n,V),u("s",n,V),u("t",n,V)).toString()}:function(t){return zt.recomposeSelf(u("o",t,Dt,null),u("r",t,D,0),u("k",t,V),u("s",t,V),u("t",t,V)).toString()}},r:Yt,"#size":wt,"#radius":bt,_:function(t,n){if(Array.isArray(t))for(var e=0;e<t.length;e++)this[t[e]]=n;else this[t]=n}},tn=function(t){!function(t,n){if("function"!=typeof n&&null!==n)throw new TypeError("Super expression must either be null or a function");t.prototype=Object.create(n&&n.prototype,{constructor:{value:t,writable:!0,configurable:!0}}),n&&l(t,n)}(o,t);var n,e,i=(n=o,e=s(),function(){var t,r=a(n);if(e){var i=a(this).constructor;t=Reflect.construct(r,arguments,i)}else t=r.apply(this,arguments);return c(this,t)});function o(){return r(this,o),i.apply(this,arguments)}return u(o,null,[{key:"build",value:function(t){var n=h(a(o),"build",this).call(this,t,Xt);if(!n)return null;n.el,n.options,function(t,n,e){t.play()}(n.player)}}]),o}(yt);return tn.init(),tn}));
(function(s,i,o,w,d,a,b){w[o]=w[o]||{};w[o][s]=w[o][s]||[];w[o][s].push(i);})('5c7f360c',{"root":"eDmPhFfzI9e1","version":"2022-05-04","animations":[{"elements":{"eDmPhFfzI9e3":{"opacity":[{"t":0,"v":0},{"t":1100,"v":1}]},"eDmPhFfzI9e4":{"opacity":[{"t":1100,"v":0},{"t":2000,"v":1}]}},"s":"MYDA1ZGM5NzBiMmMzYzUBhZmMyYjdiZGJjNzAI4ODgxN2U3ZTdlRzdhMNzBiMmI3YzBOYjNiMCWMyYjdWYmRIYmM3MDWg4N2Y3YTcwYjdjMmIAzYzBhZmMyYjdiZGJjCYzE3MDg4N2Y3YTcwYHjROYjdiYWJhNzA4OEIg3ZlE3YTcwYWZMYmFHjMmIzYzBiY2FmYzJJVVmIzNzBDODhiNGFmYMmFjMWIzN2E3MGMxYmCViM2IzYjI3MDg4N2YA3YUg3MEJiNGJlTGMxHNzA4ODdmN2U3ZWNi"}],"options":"MEDAxMDg4MmY4MDgxWTDZlN2Y4MTJmTzQ3MmYC3OTdjNmU3MUsyZjhhL"},'__SVGATOR_PLAYER__',window,document)
]]></script>
</svg>
